%TF.GenerationSoftware,KiCad,Pcbnew,8.0.3-8.0.3-0~ubuntu22.04.1*%
%TF.CreationDate,2024-07-15T21:36:58+02:00*%
%TF.ProjectId,MT2AO8,4d543241-4f38-42e6-9b69-6361645f7063,rev?*%
%TF.SameCoordinates,Original*%
%TF.FileFunction,Copper,L1,Top*%
%TF.FilePolarity,Positive*%
%FSLAX46Y46*%
G04 Gerber Fmt 4.6, Leading zero omitted, Abs format (unit mm)*
G04 Created by KiCad (PCBNEW 8.0.3-8.0.3-0~ubuntu22.04.1) date 2024-07-15 21:36:58*
%MOMM*%
%LPD*%
G01*
G04 APERTURE LIST*
G04 Aperture macros list*
%AMRoundRect*
0 Rectangle with rounded corners*
0 $1 Rounding radius*
0 $2 $3 $4 $5 $6 $7 $8 $9 X,Y pos of 4 corners*
0 Add a 4 corners polygon primitive as box body*
4,1,4,$2,$3,$4,$5,$6,$7,$8,$9,$2,$3,0*
0 Add four circle primitives for the rounded corners*
1,1,$1+$1,$2,$3*
1,1,$1+$1,$4,$5*
1,1,$1+$1,$6,$7*
1,1,$1+$1,$8,$9*
0 Add four rect primitives between the rounded corners*
20,1,$1+$1,$2,$3,$4,$5,0*
20,1,$1+$1,$4,$5,$6,$7,0*
20,1,$1+$1,$6,$7,$8,$9,0*
20,1,$1+$1,$8,$9,$2,$3,0*%
G04 Aperture macros list end*
%TA.AperFunction,SMDPad,CuDef*%
%ADD10RoundRect,0.140000X0.170000X-0.140000X0.170000X0.140000X-0.170000X0.140000X-0.170000X-0.140000X0*%
%TD*%
%TA.AperFunction,SMDPad,CuDef*%
%ADD11RoundRect,0.135000X-0.185000X0.135000X-0.185000X-0.135000X0.185000X-0.135000X0.185000X0.135000X0*%
%TD*%
%TA.AperFunction,SMDPad,CuDef*%
%ADD12RoundRect,0.135000X0.185000X-0.135000X0.185000X0.135000X-0.185000X0.135000X-0.185000X-0.135000X0*%
%TD*%
%TA.AperFunction,SMDPad,CuDef*%
%ADD13RoundRect,0.140000X0.140000X0.170000X-0.140000X0.170000X-0.140000X-0.170000X0.140000X-0.170000X0*%
%TD*%
%TA.AperFunction,SMDPad,CuDef*%
%ADD14RoundRect,0.250000X-0.475000X0.250000X-0.475000X-0.250000X0.475000X-0.250000X0.475000X0.250000X0*%
%TD*%
%TA.AperFunction,SMDPad,CuDef*%
%ADD15RoundRect,0.150000X0.825000X0.150000X-0.825000X0.150000X-0.825000X-0.150000X0.825000X-0.150000X0*%
%TD*%
%TA.AperFunction,SMDPad,CuDef*%
%ADD16RoundRect,0.100000X-0.637500X-0.100000X0.637500X-0.100000X0.637500X0.100000X-0.637500X0.100000X0*%
%TD*%
%TA.AperFunction,SMDPad,CuDef*%
%ADD17RoundRect,0.150000X0.150000X-0.825000X0.150000X0.825000X-0.150000X0.825000X-0.150000X-0.825000X0*%
%TD*%
%TA.AperFunction,SMDPad,CuDef*%
%ADD18RoundRect,0.250000X0.475000X-0.250000X0.475000X0.250000X-0.475000X0.250000X-0.475000X-0.250000X0*%
%TD*%
%TA.AperFunction,SMDPad,CuDef*%
%ADD19RoundRect,0.250000X-0.250000X-0.475000X0.250000X-0.475000X0.250000X0.475000X-0.250000X0.475000X0*%
%TD*%
%TA.AperFunction,SMDPad,CuDef*%
%ADD20RoundRect,0.140000X-0.140000X-0.170000X0.140000X-0.170000X0.140000X0.170000X-0.140000X0.170000X0*%
%TD*%
%TA.AperFunction,ViaPad*%
%ADD21C,0.600000*%
%TD*%
%TA.AperFunction,Conductor*%
%ADD22C,0.200000*%
%TD*%
%TA.AperFunction,Conductor*%
%ADD23C,0.127000*%
%TD*%
G04 APERTURE END LIST*
D10*
%TO.P,C18,1*%
%TO.N,GND*%
X163000000Y-96480000D03*
%TO.P,C18,2*%
%TO.N,/dac1/vout_d_dac*%
X163000000Y-95520000D03*
%TD*%
D11*
%TO.P,R22,1*%
%TO.N,CLK_DAC*%
X162500000Y-85480000D03*
%TO.P,R22,2*%
%TO.N,Net-(U5-SCLK)*%
X162500000Y-86500000D03*
%TD*%
D12*
%TO.P,R18,1*%
%TO.N,AO_CH0+*%
X135500000Y-111010000D03*
%TO.P,R18,2*%
%TO.N,Net-(U3A--)*%
X135500000Y-109990000D03*
%TD*%
D13*
%TO.P,C1,1*%
%TO.N,VREF_DAC*%
X136480000Y-92000000D03*
%TO.P,C1,2*%
%TO.N,GND*%
X135520000Y-92000000D03*
%TD*%
D11*
%TO.P,R24,1*%
%TO.N,Net-(U5-VOUT_C)*%
X158500000Y-93490000D03*
%TO.P,R24,2*%
%TO.N,/dac1/vout_c_dac*%
X158500000Y-94510000D03*
%TD*%
%TO.P,R21,1*%
%TO.N,RX_DAC1*%
X161500000Y-85490000D03*
%TO.P,R21,2*%
%TO.N,Net-(U5-SDIN)*%
X161500000Y-86510000D03*
%TD*%
D14*
%TO.P,C10,1*%
%TO.N,GND*%
X141000000Y-106550000D03*
%TO.P,C10,2*%
%TO.N,-12V*%
X141000000Y-108450000D03*
%TD*%
D12*
%TO.P,R37,1*%
%TO.N,AO_CH4+*%
X154000000Y-111010000D03*
%TO.P,R37,2*%
%TO.N,Net-(U7A--)*%
X154000000Y-109990000D03*
%TD*%
D14*
%TO.P,C9,1*%
%TO.N,GND*%
X135000000Y-98550000D03*
%TO.P,C9,2*%
%TO.N,+12V*%
X135000000Y-100450000D03*
%TD*%
D11*
%TO.P,R1,1*%
%TO.N,CS_DAC*%
X139500000Y-85530000D03*
%TO.P,R1,2*%
%TO.N,Net-(U1-~{SYNC})*%
X139500000Y-86550000D03*
%TD*%
D15*
%TO.P,U4,1,DNC*%
%TO.N,unconnected-(U4-DNC-Pad1)*%
X141975000Y-83500000D03*
%TO.P,U4,2,Vin*%
%TO.N,+5V*%
X141975000Y-82230000D03*
%TO.P,U4,3,Temp*%
%TO.N,unconnected-(U4-Temp-Pad3)*%
X141975000Y-80960000D03*
%TO.P,U4,4,GND*%
%TO.N,GND*%
X141975000Y-79690000D03*
%TO.P,U4,5,Trim/NR*%
%TO.N,Net-(U4-Trim{slash}NR)*%
X137025000Y-79690000D03*
%TO.P,U4,6,Vout*%
%TO.N,VREF_DAC*%
X137025000Y-80960000D03*
%TO.P,U4,7,NC*%
%TO.N,unconnected-(U4-NC-Pad7)*%
X137025000Y-82230000D03*
%TO.P,U4,8,DNC*%
%TO.N,unconnected-(U4-DNC-Pad8)*%
X137025000Y-83500000D03*
%TD*%
D12*
%TO.P,R11,1*%
%TO.N,AO_CH2+*%
X145000000Y-111010000D03*
%TO.P,R11,2*%
%TO.N,Net-(U2A--)*%
X145000000Y-109990000D03*
%TD*%
%TO.P,R25,1*%
%TO.N,VREF_DAC*%
X164500000Y-111010000D03*
%TO.P,R25,2*%
%TO.N,Net-(U6A--)*%
X164500000Y-109990000D03*
%TD*%
D13*
%TO.P,C14,1*%
%TO.N,VREF_DAC*%
X156480000Y-92000000D03*
%TO.P,C14,2*%
%TO.N,GND*%
X155520000Y-92000000D03*
%TD*%
D12*
%TO.P,R6,1*%
%TO.N,VREF_DAC*%
X146000000Y-111000000D03*
%TO.P,R6,2*%
%TO.N,Net-(U2A--)*%
X146000000Y-109980000D03*
%TD*%
D16*
%TO.P,U5,1,~{LDAC}*%
%TO.N,unconnected-(U5-~{LDAC}-Pad1)*%
X158137500Y-88100000D03*
%TO.P,U5,2,~{SYNC}*%
%TO.N,Net-(U5-~{SYNC})*%
X158137500Y-88750000D03*
%TO.P,U5,3,VDD*%
%TO.N,+3V3*%
X158137500Y-89400000D03*
%TO.P,U5,4,VOUT_A*%
%TO.N,Net-(U5-VOUT_A)*%
X158137500Y-90050000D03*
%TO.P,U5,5,VOUT_C*%
%TO.N,Net-(U5-VOUT_C)*%
X158137500Y-90700000D03*
%TO.P,U5,6,POR*%
%TO.N,+3V3*%
X158137500Y-91350000D03*
%TO.P,U5,7,REFIN*%
%TO.N,VREF_DAC*%
X158137500Y-92000000D03*
%TO.P,U5,8,SDO*%
%TO.N,unconnected-(U5-SDO-Pad8)*%
X163862500Y-92000000D03*
%TO.P,U5,9,~{CLR}*%
%TO.N,+3V3*%
X163862500Y-91350000D03*
%TO.P,U5,10,VOUT_D*%
%TO.N,Net-(U5-VOUT_D)*%
X163862500Y-90700000D03*
%TO.P,U5,11,VOUT_B*%
%TO.N,Net-(U5-VOUT_B)*%
X163862500Y-90050000D03*
%TO.P,U5,12,GND*%
%TO.N,GND*%
X163862500Y-89400000D03*
%TO.P,U5,13,SDIN*%
%TO.N,Net-(U5-SDIN)*%
X163862500Y-88750000D03*
%TO.P,U5,14,SCLK*%
%TO.N,Net-(U5-SCLK)*%
X163862500Y-88100000D03*
%TD*%
D11*
%TO.P,R17,1*%
%TO.N,GND*%
X139000000Y-100000000D03*
%TO.P,R17,2*%
%TO.N,Net-(U3B--)*%
X139000000Y-101020000D03*
%TD*%
D17*
%TO.P,U7,1*%
%TO.N,AO_CH4+*%
X153595000Y-108000000D03*
%TO.P,U7,2,-*%
%TO.N,Net-(U7A--)*%
X154865000Y-108000000D03*
%TO.P,U7,3,+*%
%TO.N,/dac1/vout_a_dac*%
X156135000Y-108000000D03*
%TO.P,U7,4,V-*%
%TO.N,-12V*%
X157405000Y-108000000D03*
%TO.P,U7,5,+*%
%TO.N,/dac1/vout_c_dac*%
X157405000Y-103050000D03*
%TO.P,U7,6,-*%
%TO.N,Net-(U7B--)*%
X156135000Y-103050000D03*
%TO.P,U7,7*%
%TO.N,AO_CH5+*%
X154865000Y-103050000D03*
%TO.P,U7,8,V+*%
%TO.N,+12V*%
X153595000Y-103050000D03*
%TD*%
D18*
%TO.P,C3,1*%
%TO.N,GND*%
X142500000Y-104450000D03*
%TO.P,C3,2*%
%TO.N,+12V*%
X142500000Y-102550000D03*
%TD*%
D11*
%TO.P,R2,1*%
%TO.N,RX_DAC0*%
X141500000Y-85520000D03*
%TO.P,R2,2*%
%TO.N,Net-(U1-SDIN)*%
X141500000Y-86540000D03*
%TD*%
D10*
%TO.P,C5,1*%
%TO.N,GND*%
X143000000Y-96480000D03*
%TO.P,C5,2*%
%TO.N,/dac0/vout_d_dac*%
X143000000Y-95520000D03*
%TD*%
D11*
%TO.P,R34,1*%
%TO.N,VREF_DAC*%
X156000000Y-99990000D03*
%TO.P,R34,2*%
%TO.N,Net-(U7B--)*%
X156000000Y-101010000D03*
%TD*%
%TO.P,R5,1*%
%TO.N,Net-(U1-VOUT_B)*%
X141500000Y-93490000D03*
%TO.P,R5,2*%
%TO.N,/dac0/vout_c_dac*%
X141500000Y-94510000D03*
%TD*%
D10*
%TO.P,C6,1*%
%TO.N,GND*%
X141500000Y-96480000D03*
%TO.P,C6,2*%
%TO.N,/dac0/vout_c_dac*%
X141500000Y-95520000D03*
%TD*%
D11*
%TO.P,R31,1*%
%TO.N,AO_CH7+*%
X164500000Y-99990000D03*
%TO.P,R31,2*%
%TO.N,Net-(U6B--)*%
X164500000Y-101010000D03*
%TD*%
%TO.P,R10,1*%
%TO.N,GND*%
X148000000Y-99990000D03*
%TO.P,R10,2*%
%TO.N,Net-(U2B--)*%
X148000000Y-101010000D03*
%TD*%
D14*
%TO.P,C13,1*%
%TO.N,VREF_DAC*%
X135000000Y-85550000D03*
%TO.P,C13,2*%
%TO.N,GND*%
X135000000Y-87450000D03*
%TD*%
D19*
%TO.P,C12,1*%
%TO.N,Net-(U4-Trim{slash}NR)*%
X136550000Y-77500000D03*
%TO.P,C12,2*%
%TO.N,GND*%
X138450000Y-77500000D03*
%TD*%
D11*
%TO.P,R15,1*%
%TO.N,VREF_DAC*%
X138000000Y-99990000D03*
%TO.P,R15,2*%
%TO.N,Net-(U3B--)*%
X138000000Y-101010000D03*
%TD*%
D12*
%TO.P,R16,1*%
%TO.N,GND*%
X137500000Y-111000000D03*
%TO.P,R16,2*%
%TO.N,Net-(U3A--)*%
X137500000Y-109980000D03*
%TD*%
D10*
%TO.P,C21,1*%
%TO.N,GND*%
X160000000Y-96500000D03*
%TO.P,C21,2*%
%TO.N,/dac1/vout_a_dac*%
X160000000Y-95540000D03*
%TD*%
D11*
%TO.P,R36,1*%
%TO.N,GND*%
X157000000Y-99990000D03*
%TO.P,R36,2*%
%TO.N,Net-(U7B--)*%
X157000000Y-101010000D03*
%TD*%
D14*
%TO.P,C17,1*%
%TO.N,GND*%
X159500000Y-106500000D03*
%TO.P,C17,2*%
%TO.N,-12V*%
X159500000Y-108400000D03*
%TD*%
D18*
%TO.P,C23,1*%
%TO.N,GND*%
X167000000Y-112450000D03*
%TO.P,C23,2*%
%TO.N,-12V*%
X167000000Y-110550000D03*
%TD*%
%TO.P,C16,1*%
%TO.N,GND*%
X151500000Y-104450000D03*
%TO.P,C16,2*%
%TO.N,+12V*%
X151500000Y-102550000D03*
%TD*%
D11*
%TO.P,R26,1*%
%TO.N,VREF_DAC*%
X165500000Y-99990000D03*
%TO.P,R26,2*%
%TO.N,Net-(U6B--)*%
X165500000Y-101010000D03*
%TD*%
%TO.P,R13,1*%
%TO.N,Net-(U1-VOUT_C)*%
X138500000Y-93490000D03*
%TO.P,R13,2*%
%TO.N,/dac0/vout_a_dac*%
X138500000Y-94510000D03*
%TD*%
%TO.P,R20,1*%
%TO.N,CS_DAC*%
X159500000Y-85510000D03*
%TO.P,R20,2*%
%TO.N,Net-(U5-~{SYNC})*%
X159500000Y-86530000D03*
%TD*%
D12*
%TO.P,R35,1*%
%TO.N,GND*%
X156000000Y-111010000D03*
%TO.P,R35,2*%
%TO.N,Net-(U7A--)*%
X156000000Y-109990000D03*
%TD*%
D17*
%TO.P,U2,1*%
%TO.N,AO_CH2+*%
X144595000Y-107975000D03*
%TO.P,U2,2,-*%
%TO.N,Net-(U2A--)*%
X145865000Y-107975000D03*
%TO.P,U2,3,+*%
%TO.N,/dac0/vout_c_dac*%
X147135000Y-107975000D03*
%TO.P,U2,4,V-*%
%TO.N,-12V*%
X148405000Y-107975000D03*
%TO.P,U2,5,+*%
%TO.N,/dac0/vout_d_dac*%
X148405000Y-103025000D03*
%TO.P,U2,6,-*%
%TO.N,Net-(U2B--)*%
X147135000Y-103025000D03*
%TO.P,U2,7*%
%TO.N,AO_CH3+*%
X145865000Y-103025000D03*
%TO.P,U2,8,V+*%
%TO.N,+12V*%
X144595000Y-103025000D03*
%TD*%
D11*
%TO.P,R27,1*%
%TO.N,Net-(U5-VOUT_B)*%
X161500000Y-93490000D03*
%TO.P,R27,2*%
%TO.N,/dac1/vout_b_dac*%
X161500000Y-94510000D03*
%TD*%
D16*
%TO.P,U1,1,~{LDAC}*%
%TO.N,unconnected-(U1-~{LDAC}-Pad1)*%
X138137500Y-88100000D03*
%TO.P,U1,2,~{SYNC}*%
%TO.N,Net-(U1-~{SYNC})*%
X138137500Y-88750000D03*
%TO.P,U1,3,VDD*%
%TO.N,+3V3*%
X138137500Y-89400000D03*
%TO.P,U1,4,VOUT_A*%
%TO.N,Net-(U1-VOUT_A)*%
X138137500Y-90050000D03*
%TO.P,U1,5,VOUT_C*%
%TO.N,Net-(U1-VOUT_C)*%
X138137500Y-90700000D03*
%TO.P,U1,6,POR*%
%TO.N,+3V3*%
X138137500Y-91350000D03*
%TO.P,U1,7,REFIN*%
%TO.N,VREF_DAC*%
X138137500Y-92000000D03*
%TO.P,U1,8,SDO*%
%TO.N,unconnected-(U1-SDO-Pad8)*%
X143862500Y-92000000D03*
%TO.P,U1,9,~{CLR}*%
%TO.N,+3V3*%
X143862500Y-91350000D03*
%TO.P,U1,10,VOUT_D*%
%TO.N,Net-(U1-VOUT_D)*%
X143862500Y-90700000D03*
%TO.P,U1,11,VOUT_B*%
%TO.N,Net-(U1-VOUT_B)*%
X143862500Y-90050000D03*
%TO.P,U1,12,GND*%
%TO.N,GND*%
X143862500Y-89400000D03*
%TO.P,U1,13,SDIN*%
%TO.N,Net-(U1-SDIN)*%
X143862500Y-88750000D03*
%TO.P,U1,14,SCLK*%
%TO.N,Net-(U1-SCLK)*%
X143862500Y-88100000D03*
%TD*%
D11*
%TO.P,R29,1*%
%TO.N,GND*%
X166500000Y-99990000D03*
%TO.P,R29,2*%
%TO.N,Net-(U6B--)*%
X166500000Y-101010000D03*
%TD*%
D10*
%TO.P,C8,1*%
%TO.N,GND*%
X138500000Y-96480000D03*
%TO.P,C8,2*%
%TO.N,/dac0/vout_a_dac*%
X138500000Y-95520000D03*
%TD*%
D12*
%TO.P,R14,1*%
%TO.N,VREF_DAC*%
X136500000Y-111010000D03*
%TO.P,R14,2*%
%TO.N,Net-(U3A--)*%
X136500000Y-109990000D03*
%TD*%
D11*
%TO.P,R12,1*%
%TO.N,AO_CH3+*%
X146000000Y-99990000D03*
%TO.P,R12,2*%
%TO.N,Net-(U2B--)*%
X146000000Y-101010000D03*
%TD*%
D18*
%TO.P,C22,1*%
%TO.N,GND*%
X161000000Y-104450000D03*
%TO.P,C22,2*%
%TO.N,+12V*%
X161000000Y-102550000D03*
%TD*%
D12*
%TO.P,R30,1*%
%TO.N,AO_CH6+*%
X163500000Y-111010000D03*
%TO.P,R30,2*%
%TO.N,Net-(U6A--)*%
X163500000Y-109990000D03*
%TD*%
D11*
%TO.P,R8,1*%
%TO.N,Net-(U1-VOUT_A)*%
X140000000Y-93490000D03*
%TO.P,R8,2*%
%TO.N,/dac0/vout_b_dac*%
X140000000Y-94510000D03*
%TD*%
%TO.P,R19,1*%
%TO.N,AO_CH1+*%
X137000000Y-99990000D03*
%TO.P,R19,2*%
%TO.N,Net-(U3B--)*%
X137000000Y-101010000D03*
%TD*%
D10*
%TO.P,C19,1*%
%TO.N,GND*%
X158500000Y-96480000D03*
%TO.P,C19,2*%
%TO.N,/dac1/vout_c_dac*%
X158500000Y-95520000D03*
%TD*%
D11*
%TO.P,R4,1*%
%TO.N,Net-(U1-VOUT_D)*%
X143000000Y-93490000D03*
%TO.P,R4,2*%
%TO.N,/dac0/vout_d_dac*%
X143000000Y-94510000D03*
%TD*%
D14*
%TO.P,C11,1*%
%TO.N,GND*%
X144500000Y-80050000D03*
%TO.P,C11,2*%
%TO.N,+5V*%
X144500000Y-81950000D03*
%TD*%
D10*
%TO.P,C20,1*%
%TO.N,GND*%
X161500000Y-96480000D03*
%TO.P,C20,2*%
%TO.N,/dac1/vout_b_dac*%
X161500000Y-95520000D03*
%TD*%
D11*
%TO.P,R38,1*%
%TO.N,AO_CH5+*%
X155000000Y-99990000D03*
%TO.P,R38,2*%
%TO.N,Net-(U7B--)*%
X155000000Y-101010000D03*
%TD*%
%TO.P,R23,1*%
%TO.N,Net-(U5-VOUT_D)*%
X163000000Y-93480000D03*
%TO.P,R23,2*%
%TO.N,/dac1/vout_d_dac*%
X163000000Y-94500000D03*
%TD*%
%TO.P,R3,1*%
%TO.N,CLK_DAC*%
X142500000Y-85530000D03*
%TO.P,R3,2*%
%TO.N,Net-(U1-SCLK)*%
X142500000Y-86550000D03*
%TD*%
D10*
%TO.P,R9,1*%
%TO.N,GND*%
X147000000Y-110980000D03*
%TO.P,R9,2*%
%TO.N,Net-(U2A--)*%
X147000000Y-110020000D03*
%TD*%
D14*
%TO.P,C4,1*%
%TO.N,GND*%
X150500000Y-106550000D03*
%TO.P,C4,2*%
%TO.N,-12V*%
X150500000Y-108450000D03*
%TD*%
D12*
%TO.P,R33,1*%
%TO.N,VREF_DAC*%
X155000000Y-111010000D03*
%TO.P,R33,2*%
%TO.N,Net-(U7A--)*%
X155000000Y-109990000D03*
%TD*%
D10*
%TO.P,C7,1*%
%TO.N,GND*%
X140000000Y-96480000D03*
%TO.P,C7,2*%
%TO.N,/dac0/vout_b_dac*%
X140000000Y-95520000D03*
%TD*%
%TO.P,R28,1*%
%TO.N,GND*%
X165500000Y-110980000D03*
%TO.P,R28,2*%
%TO.N,Net-(U6A--)*%
X165500000Y-110020000D03*
%TD*%
D17*
%TO.P,U6,1*%
%TO.N,AO_CH6+*%
X163095000Y-108000000D03*
%TO.P,U6,2,-*%
%TO.N,Net-(U6A--)*%
X164365000Y-108000000D03*
%TO.P,U6,3,+*%
%TO.N,/dac1/vout_b_dac*%
X165635000Y-108000000D03*
%TO.P,U6,4,V-*%
%TO.N,-12V*%
X166905000Y-108000000D03*
%TO.P,U6,5,+*%
%TO.N,/dac1/vout_d_dac*%
X166905000Y-103050000D03*
%TO.P,U6,6,-*%
%TO.N,Net-(U6B--)*%
X165635000Y-103050000D03*
%TO.P,U6,7*%
%TO.N,AO_CH7+*%
X164365000Y-103050000D03*
%TO.P,U6,8,V+*%
%TO.N,+12V*%
X163095000Y-103050000D03*
%TD*%
D20*
%TO.P,C2,1*%
%TO.N,+3V3*%
X145520000Y-91500000D03*
%TO.P,C2,2*%
%TO.N,GND*%
X146480000Y-91500000D03*
%TD*%
D17*
%TO.P,U3,1*%
%TO.N,AO_CH0+*%
X135095000Y-107975000D03*
%TO.P,U3,2,-*%
%TO.N,Net-(U3A--)*%
X136365000Y-107975000D03*
%TO.P,U3,3,+*%
%TO.N,/dac0/vout_b_dac*%
X137635000Y-107975000D03*
%TO.P,U3,4,V-*%
%TO.N,-12V*%
X138905000Y-107975000D03*
%TO.P,U3,5,+*%
%TO.N,/dac0/vout_a_dac*%
X138905000Y-103025000D03*
%TO.P,U3,6,-*%
%TO.N,Net-(U3B--)*%
X137635000Y-103025000D03*
%TO.P,U3,7*%
%TO.N,AO_CH1+*%
X136365000Y-103025000D03*
%TO.P,U3,8,V+*%
%TO.N,+12V*%
X135095000Y-103025000D03*
%TD*%
D20*
%TO.P,C15,1*%
%TO.N,+3V3*%
X165520000Y-91500000D03*
%TO.P,C15,2*%
%TO.N,GND*%
X166480000Y-91500000D03*
%TD*%
D11*
%TO.P,R7,1*%
%TO.N,VREF_DAC*%
X147000000Y-99990000D03*
%TO.P,R7,2*%
%TO.N,Net-(U2B--)*%
X147000000Y-101010000D03*
%TD*%
%TO.P,R32,1*%
%TO.N,Net-(U5-VOUT_A)*%
X160000000Y-93490000D03*
%TO.P,R32,2*%
%TO.N,/dac1/vout_a_dac*%
X160000000Y-94510000D03*
%TD*%
D21*
%TO.N,*%
X152000000Y-115500000D03*
X150000000Y-114000000D03*
X150000000Y-115000000D03*
X152000000Y-114500000D03*
X150000000Y-116000000D03*
X152000000Y-116600000D03*
X150000000Y-117000000D03*
%TO.N,+5V*%
X165900000Y-80025000D03*
%TO.N,GND*%
X143000000Y-97200000D03*
X136700000Y-95500000D03*
X138900000Y-77600000D03*
X142600000Y-111300000D03*
X160700000Y-97100000D03*
X136700000Y-93500000D03*
X136700000Y-94500000D03*
X158490000Y-97100000D03*
X138900000Y-99700000D03*
X157200000Y-98000000D03*
X143900000Y-119000000D03*
X148000000Y-100000000D03*
X138600000Y-97400000D03*
X140800000Y-97300000D03*
X163000000Y-97100000D03*
X157200000Y-97100000D03*
%TO.N,+12V*%
X142300000Y-102600000D03*
X161000000Y-102500000D03*
X163100000Y-103700000D03*
X153600000Y-103500000D03*
X144600000Y-103500000D03*
X151800000Y-102600000D03*
X135100000Y-102400000D03*
X164900000Y-76100000D03*
X164900000Y-73900000D03*
%TO.N,+3V3*%
X162500000Y-91900000D03*
X145600000Y-91100000D03*
X162400000Y-81100000D03*
X139700000Y-89700000D03*
X160000000Y-89400000D03*
%TO.N,-12V*%
X150900000Y-108200000D03*
X162300000Y-75700000D03*
X141500000Y-108600000D03*
X162400000Y-73700000D03*
X139300000Y-108100000D03*
X167200000Y-108000000D03*
X160400000Y-108500000D03*
%TO.N,VREF_DAC*%
X165300000Y-99300000D03*
X146900000Y-99400000D03*
X146000000Y-111400000D03*
X138000000Y-99300000D03*
X154993455Y-111206545D03*
X156100000Y-99500000D03*
%TO.N,AO_CH0+*%
X136190000Y-112975000D03*
%TO.N,AO_CH1+*%
X136600000Y-104600000D03*
%TO.N,AO_CH2+*%
X141270000Y-112975000D03*
%TO.N,AO_CH3+*%
X145900000Y-104500000D03*
%TO.N,RX_DAC0*%
X159890000Y-80025000D03*
%TO.N,CS_DAC*%
X159500000Y-84336500D03*
X154810000Y-80025000D03*
%TO.N,RX_DAC1*%
X159890000Y-74975000D03*
%TO.N,CLK_DAC*%
X162500000Y-85480000D03*
X142500000Y-85530000D03*
%TO.N,AO_CH6+*%
X163270000Y-112975000D03*
%TO.N,AO_CH5+*%
X155300000Y-104300000D03*
%TO.N,AO_CH7+*%
X164700000Y-104500000D03*
%TO.N,AO_CH4+*%
X158190000Y-112975000D03*
%TD*%
D22*
%TO.N,+5V*%
X166500000Y-73800000D02*
X165500000Y-72800000D01*
X166500000Y-78700000D02*
X166500000Y-73800000D01*
X145800000Y-76500000D02*
X145800000Y-80650000D01*
X165500000Y-72800000D02*
X149500000Y-72800000D01*
X144500000Y-81950000D02*
X142255000Y-81950000D01*
X149500000Y-72800000D02*
X145800000Y-76500000D01*
X165900000Y-79300000D02*
X166500000Y-78700000D01*
X142255000Y-81950000D02*
X141975000Y-82230000D01*
X145800000Y-80650000D02*
X144500000Y-81950000D01*
X165900000Y-80025000D02*
X165900000Y-79300000D01*
D23*
%TO.N,GND*%
X166500000Y-99700000D02*
X163900000Y-97100000D01*
X148000000Y-99990000D02*
X148000000Y-100000000D01*
X138500000Y-96480000D02*
X138500000Y-97300000D01*
X138500000Y-97300000D02*
X138600000Y-97400000D01*
X161320000Y-96480000D02*
X160700000Y-97100000D01*
X160100000Y-96500000D02*
X160700000Y-97100000D01*
X141500000Y-96480000D02*
X141500000Y-96600000D01*
X158500000Y-97090000D02*
X158490000Y-97100000D01*
X143000000Y-96480000D02*
X143000000Y-97200000D01*
X141500000Y-96600000D02*
X140800000Y-97300000D01*
X161500000Y-96480000D02*
X161320000Y-96480000D01*
X158500000Y-96480000D02*
X158500000Y-97090000D01*
X166500000Y-99990000D02*
X166500000Y-99700000D01*
X140000000Y-96480000D02*
X141500000Y-96480000D01*
X163900000Y-97100000D02*
X163000000Y-97100000D01*
X160000000Y-96500000D02*
X160100000Y-96500000D01*
X163000000Y-96480000D02*
X163000000Y-97100000D01*
%TO.N,+12V*%
X135095000Y-103025000D02*
X135095000Y-102405000D01*
X135095000Y-102395000D02*
X135095000Y-100545000D01*
X135095000Y-102405000D02*
X135100000Y-102400000D01*
X135095000Y-100545000D02*
X135000000Y-100450000D01*
X135100000Y-102400000D02*
X135095000Y-102395000D01*
D22*
%TO.N,+3V3*%
X157400001Y-89400000D02*
X158137500Y-89400000D01*
X163050000Y-91350000D02*
X162500000Y-91900000D01*
X137481544Y-91350000D02*
X137100000Y-90968456D01*
X137100000Y-89700001D02*
X137400001Y-89400000D01*
X163862500Y-91350000D02*
X165370000Y-91350000D01*
X157100000Y-89700001D02*
X157400001Y-89400000D01*
X143862500Y-91350000D02*
X145370000Y-91350000D01*
X139400000Y-89400000D02*
X139700000Y-89700000D01*
X158137500Y-91350000D02*
X157481544Y-91350000D01*
X138137500Y-89400000D02*
X139400000Y-89400000D01*
X145520000Y-91180000D02*
X145600000Y-91100000D01*
X137100000Y-90968456D02*
X137100000Y-89700001D01*
X163862500Y-91350000D02*
X163050000Y-91350000D01*
X145520000Y-91500000D02*
X145520000Y-91180000D01*
X145370000Y-91350000D02*
X145520000Y-91500000D01*
X158137500Y-89400000D02*
X160000000Y-89400000D01*
X157481544Y-91350000D02*
X157100000Y-90968456D01*
X157100000Y-90968456D02*
X157100000Y-89700001D01*
X138137500Y-91350000D02*
X137481544Y-91350000D01*
X165370000Y-91350000D02*
X165520000Y-91500000D01*
X137400001Y-89400000D02*
X138137500Y-89400000D01*
D23*
%TO.N,-12V*%
X141000000Y-108450000D02*
X141350000Y-108450000D01*
X160300000Y-108400000D02*
X160400000Y-108500000D01*
X167000000Y-108095000D02*
X166905000Y-108000000D01*
X167000000Y-110550000D02*
X167000000Y-108095000D01*
X141350000Y-108450000D02*
X141500000Y-108600000D01*
X148880000Y-108450000D02*
X150500000Y-108450000D01*
X157805000Y-108400000D02*
X157405000Y-108000000D01*
X150500000Y-108450000D02*
X150650000Y-108450000D01*
X159500000Y-108400000D02*
X160300000Y-108400000D01*
X148405000Y-107975000D02*
X148880000Y-108450000D01*
X166905000Y-108000000D02*
X167200000Y-108000000D01*
X150650000Y-108450000D02*
X150900000Y-108200000D01*
X159500000Y-108400000D02*
X157805000Y-108400000D01*
%TO.N,VREF_DAC*%
X154993455Y-111016545D02*
X155000000Y-111010000D01*
X165500000Y-99500000D02*
X165300000Y-99300000D01*
X164500000Y-112541910D02*
X163441910Y-113600000D01*
X135000000Y-82010001D02*
X135000000Y-85550000D01*
X135750000Y-85550000D02*
X135000000Y-85550000D01*
X136050001Y-80960000D02*
X135000000Y-82010001D01*
X136480000Y-92000000D02*
X136480000Y-86280000D01*
X136480000Y-86280000D02*
X135750000Y-85550000D01*
X144100000Y-114000000D02*
X146000000Y-112100000D01*
X147000000Y-99500000D02*
X146900000Y-99400000D01*
X139220001Y-114000000D02*
X144100000Y-114000000D01*
X136800000Y-92000000D02*
X136480000Y-92000000D01*
X164500000Y-111010000D02*
X164500000Y-112541910D01*
X146000000Y-111000000D02*
X146000000Y-111400000D01*
X136500000Y-111010000D02*
X136500000Y-111279999D01*
X165500000Y-99990000D02*
X165500000Y-99500000D01*
X138000000Y-98462448D02*
X137599500Y-98061948D01*
X163441910Y-113600000D02*
X160438090Y-113600000D01*
X154993455Y-111206545D02*
X154993455Y-111016545D01*
X137025000Y-80960000D02*
X136050001Y-80960000D01*
X137599500Y-98061948D02*
X137599500Y-92799500D01*
X138000000Y-99300000D02*
X138000000Y-98462448D01*
X160438090Y-113600000D02*
X158838090Y-112000000D01*
X155786910Y-112000000D02*
X154993455Y-111206545D01*
X138137500Y-92000000D02*
X136800000Y-92000000D01*
X156480000Y-92000000D02*
X156480000Y-99120000D01*
X158137500Y-92000000D02*
X156480000Y-92000000D01*
X156000000Y-99600000D02*
X156000000Y-99990000D01*
X138000000Y-99990000D02*
X138000000Y-99300000D01*
X136500000Y-111279999D02*
X139220001Y-114000000D01*
X156100000Y-99500000D02*
X156000000Y-99600000D01*
X156480000Y-99120000D02*
X156100000Y-99500000D01*
X158838090Y-112000000D02*
X155786910Y-112000000D01*
X146000000Y-112100000D02*
X146000000Y-111400000D01*
X137599500Y-92799500D02*
X136800000Y-92000000D01*
X147000000Y-99990000D02*
X147000000Y-99500000D01*
%TO.N,/dac0/vout_a_dac*%
X139583500Y-99583500D02*
X137926500Y-97926500D01*
X138905000Y-103025000D02*
X139583500Y-102346500D01*
X137926500Y-97926500D02*
X137926500Y-96093500D01*
X139583500Y-102346500D02*
X139583500Y-99583500D01*
X137926500Y-96093500D02*
X138500000Y-95520000D01*
X138500000Y-95520000D02*
X138500000Y-94510000D01*
%TO.N,/dac0/vout_b_dac*%
X139910500Y-99410500D02*
X139300000Y-98800000D01*
X137635000Y-105858934D02*
X139910500Y-103583434D01*
X139300000Y-98800000D02*
X139300000Y-96220000D01*
X139300000Y-96220000D02*
X140000000Y-95520000D01*
X139910500Y-103583434D02*
X139910500Y-99410500D01*
X140000000Y-95520000D02*
X140000000Y-94510000D01*
X137635000Y-107975000D02*
X137635000Y-105858934D01*
%TO.N,/dac0/vout_d_dac*%
X148704999Y-99807693D02*
X147597306Y-98700000D01*
X143000000Y-95520000D02*
X143000000Y-94510000D01*
X147597306Y-98700000D02*
X145300000Y-98700000D01*
X148405000Y-103025000D02*
X148704999Y-102725001D01*
X143700000Y-96220000D02*
X143000000Y-95520000D01*
X143700000Y-97100000D02*
X143700000Y-96220000D01*
X148704999Y-102725001D02*
X148704999Y-99807693D01*
X145300000Y-98700000D02*
X143700000Y-97100000D01*
%TO.N,/dac0/vout_c_dac*%
X142073500Y-96093500D02*
X142073500Y-100665374D01*
X141500000Y-95520000D02*
X141500000Y-94510000D01*
X143700000Y-102291874D02*
X143700000Y-104900000D01*
X142073500Y-100665374D02*
X143700000Y-102291874D01*
X143700000Y-104900000D02*
X144500000Y-105700000D01*
X144500000Y-105700000D02*
X145834999Y-105700000D01*
X145834999Y-105700000D02*
X147135000Y-107000001D01*
X147135000Y-107000001D02*
X147135000Y-107975000D01*
X141500000Y-95520000D02*
X142073500Y-96093500D01*
%TO.N,Net-(U3A--)*%
X137490000Y-109990000D02*
X137500000Y-109980000D01*
X136365000Y-107975000D02*
X136365000Y-109855000D01*
X135500000Y-109990000D02*
X137490000Y-109990000D01*
X136365000Y-109855000D02*
X136500000Y-109990000D01*
%TO.N,AO_CH0+*%
X135500000Y-111010000D02*
X135500000Y-112285000D01*
X135095000Y-107975000D02*
X134795001Y-108274999D01*
X134795001Y-108274999D02*
X134795001Y-110305001D01*
X135500000Y-112285000D02*
X136190000Y-112975000D01*
X134795001Y-110305001D02*
X135500000Y-111010000D01*
%TO.N,Net-(U3B--)*%
X137000000Y-101010000D02*
X138990000Y-101010000D01*
X137635000Y-101375000D02*
X138000000Y-101010000D01*
X137635000Y-103025000D02*
X137635000Y-101375000D01*
X138990000Y-101010000D02*
X139000000Y-101020000D01*
%TO.N,AO_CH1+*%
X136365000Y-103025000D02*
X136365000Y-100625000D01*
X136365000Y-103025000D02*
X136365000Y-104365000D01*
X136365000Y-100625000D02*
X137000000Y-99990000D01*
X136365000Y-104365000D02*
X136600000Y-104600000D01*
%TO.N,AO_CH2+*%
X144416500Y-110426500D02*
X144416500Y-108153500D01*
X144495000Y-110505000D02*
X144416500Y-110426500D01*
X141300000Y-111600000D02*
X141300000Y-112945000D01*
X141300000Y-112945000D02*
X141270000Y-112975000D01*
X144495000Y-110505000D02*
X142395000Y-110505000D01*
X142395000Y-110505000D02*
X141300000Y-111600000D01*
X145000000Y-111010000D02*
X144495000Y-110505000D01*
X144416500Y-108153500D02*
X144595000Y-107975000D01*
%TO.N,AO_CH3+*%
X145865000Y-104465000D02*
X145900000Y-104500000D01*
X145865000Y-103025000D02*
X145865000Y-104465000D01*
X145416500Y-102576500D02*
X145416500Y-100573500D01*
X145416500Y-100573500D02*
X146000000Y-99990000D01*
X145865000Y-103025000D02*
X145416500Y-102576500D01*
%TO.N,Net-(U1-VOUT_A)*%
X138874999Y-90050000D02*
X140000000Y-91175001D01*
X140000000Y-91175001D02*
X140000000Y-93490000D01*
X138137500Y-90050000D02*
X138874999Y-90050000D01*
%TO.N,Net-(U1-VOUT_B)*%
X141500000Y-91675001D02*
X141500000Y-93490000D01*
X143125001Y-90050000D02*
X141500000Y-91675001D01*
X143862500Y-90050000D02*
X143125001Y-90050000D01*
%TO.N,Net-(U1-VOUT_D)*%
X143125001Y-90700000D02*
X142800000Y-91025001D01*
X143862500Y-90700000D02*
X143125001Y-90700000D01*
X142800000Y-91025001D02*
X142800000Y-93290000D01*
X142800000Y-93290000D02*
X143000000Y-93490000D01*
%TO.N,Net-(U1-VOUT_C)*%
X138874999Y-90700000D02*
X139138500Y-90963501D01*
X139138500Y-90963501D02*
X139138500Y-92761500D01*
X139138500Y-92761500D02*
X138500000Y-93400000D01*
X138137500Y-90700000D02*
X138874999Y-90700000D01*
X138500000Y-93400000D02*
X138500000Y-93490000D01*
%TO.N,RX_DAC0*%
X159890000Y-83110000D02*
X159890000Y-80025000D01*
X142120000Y-84900000D02*
X158100000Y-84900000D01*
X141500000Y-85520000D02*
X142120000Y-84900000D01*
X158100000Y-84900000D02*
X159890000Y-83110000D01*
%TO.N,Net-(U1-~{SYNC})*%
X138137500Y-88750000D02*
X138874999Y-88750000D01*
X138874999Y-88750000D02*
X139500000Y-88124999D01*
X139500000Y-88124999D02*
X139500000Y-86550000D01*
%TO.N,Net-(U1-SDIN)*%
X143862500Y-88750000D02*
X143125001Y-88750000D01*
X141500000Y-87124999D02*
X141500000Y-86540000D01*
X143125001Y-88750000D02*
X141500000Y-87124999D01*
%TO.N,Net-(U1-SCLK)*%
X142500000Y-87600000D02*
X142500000Y-86550000D01*
X143000000Y-88100000D02*
X142500000Y-87600000D01*
X143862500Y-88100000D02*
X143000000Y-88100000D01*
%TO.N,Net-(U4-Trim{slash}NR)*%
X137025000Y-79690000D02*
X136550000Y-79215000D01*
X136550000Y-79215000D02*
X136550000Y-77500000D01*
%TO.N,/dac1/vout_d_dac*%
X167100000Y-101800000D02*
X166905000Y-101995000D01*
X166905000Y-101995000D02*
X166905000Y-103050000D01*
X163000000Y-94500000D02*
X163000000Y-95520000D01*
X163000000Y-95520000D02*
X167100000Y-99620000D01*
X167100000Y-99620000D02*
X167100000Y-101800000D01*
%TO.N,/dac1/vout_c_dac*%
X158500000Y-95520000D02*
X157926500Y-96093500D01*
X157926500Y-96093500D02*
X157926500Y-101473500D01*
X157405000Y-101995000D02*
X157405000Y-103050000D01*
X158500000Y-94510000D02*
X158500000Y-95520000D01*
X157926500Y-101473500D02*
X157405000Y-101995000D01*
%TO.N,/dac1/vout_b_dac*%
X161500000Y-95520000D02*
X162073500Y-96093500D01*
X164700000Y-106100000D02*
X165635000Y-107035000D01*
X161500000Y-94510000D02*
X161500000Y-95520000D01*
X163700000Y-106100000D02*
X164700000Y-106100000D01*
X162073500Y-104473500D02*
X163700000Y-106100000D01*
X165635000Y-107035000D02*
X165635000Y-108000000D01*
X162073500Y-96093500D02*
X162073500Y-104473500D01*
%TO.N,/dac1/vout_a_dac*%
X159073500Y-103226500D02*
X156135000Y-106165000D01*
X160000000Y-95540000D02*
X159073500Y-96466500D01*
X156135000Y-106165000D02*
X156135000Y-108000000D01*
X159073500Y-96466500D02*
X159073500Y-103226500D01*
X160000000Y-94510000D02*
X160000000Y-95540000D01*
%TO.N,CS_DAC*%
X155000000Y-83800000D02*
X155000000Y-80215000D01*
X139500000Y-85530000D02*
X140457000Y-84573000D01*
X140457000Y-84573000D02*
X154227000Y-84573000D01*
X154227000Y-84573000D02*
X155000000Y-83800000D01*
X155000000Y-80215000D02*
X154810000Y-80025000D01*
X159500000Y-85510000D02*
X159500000Y-84336500D01*
%TO.N,RX_DAC1*%
X161500000Y-85490000D02*
X161500000Y-83100000D01*
X160900000Y-82500000D02*
X160900000Y-75985000D01*
X161500000Y-83100000D02*
X160900000Y-82500000D01*
X160900000Y-75985000D02*
X159890000Y-74975000D01*
%TO.N,AO_CH6+*%
X163500000Y-112745000D02*
X163270000Y-112975000D01*
X163095000Y-108000000D02*
X162795001Y-108299999D01*
X162795001Y-108299999D02*
X162795001Y-110305001D01*
X162795001Y-110305001D02*
X163500000Y-111010000D01*
X163500000Y-111010000D02*
X163500000Y-112745000D01*
%TO.N,AO_CH5+*%
X155000000Y-99990000D02*
X154416500Y-100573500D01*
X154416500Y-102601500D02*
X154865000Y-103050000D01*
X154865000Y-103050000D02*
X155300000Y-103485000D01*
X154416500Y-100573500D02*
X154416500Y-102601500D01*
X155300000Y-103485000D02*
X155300000Y-104300000D01*
%TO.N,AO_CH7+*%
X163900000Y-101900000D02*
X164365000Y-102365000D01*
X164365000Y-104165000D02*
X164700000Y-104500000D01*
X164365000Y-103050000D02*
X164365000Y-104165000D01*
X164365000Y-102365000D02*
X164365000Y-103050000D01*
X164500000Y-99990000D02*
X163900000Y-100590000D01*
X163900000Y-100590000D02*
X163900000Y-101900000D01*
%TO.N,AO_CH4+*%
X155965000Y-112975000D02*
X158190000Y-112975000D01*
X153295001Y-110305001D02*
X154000000Y-111010000D01*
X153595000Y-108000000D02*
X153295001Y-108299999D01*
X154000000Y-111010000D02*
X155965000Y-112975000D01*
X153295001Y-108299999D02*
X153295001Y-110305001D01*
%TO.N,Net-(U2A--)*%
X145865000Y-109845000D02*
X146000000Y-109980000D01*
X145865000Y-107975000D02*
X145865000Y-109845000D01*
X145030000Y-110020000D02*
X145000000Y-109990000D01*
X147000000Y-110020000D02*
X145030000Y-110020000D01*
%TO.N,Net-(U2B--)*%
X146000000Y-101010000D02*
X148000000Y-101010000D01*
X147135000Y-103025000D02*
X147135000Y-101145000D01*
X147135000Y-101145000D02*
X147000000Y-101010000D01*
X145865000Y-101145000D02*
X146000000Y-101010000D01*
%TO.N,Net-(U5-~{SYNC})*%
X159500000Y-88124999D02*
X159500000Y-86530000D01*
X158874999Y-88750000D02*
X159500000Y-88124999D01*
X158137500Y-88750000D02*
X158874999Y-88750000D01*
%TO.N,Net-(U5-SDIN)*%
X161500000Y-87124999D02*
X161500000Y-86510000D01*
X163125001Y-88750000D02*
X161500000Y-87124999D01*
X163862500Y-88750000D02*
X163125001Y-88750000D01*
%TO.N,Net-(U5-SCLK)*%
X163862500Y-88100000D02*
X162500000Y-86737500D01*
X162500000Y-86737500D02*
X162500000Y-86500000D01*
%TO.N,Net-(U5-VOUT_D)*%
X163862500Y-90700000D02*
X162500000Y-90700000D01*
X162500000Y-90700000D02*
X161827000Y-91373000D01*
X162680000Y-93480000D02*
X163000000Y-93480000D01*
X161827000Y-91373000D02*
X161827000Y-92627000D01*
X161827000Y-92627000D02*
X162680000Y-93480000D01*
%TO.N,Net-(U5-VOUT_C)*%
X159138500Y-92261500D02*
X158500000Y-92900000D01*
X158741838Y-90700000D02*
X159138500Y-91096662D01*
X159138500Y-91096662D02*
X159138500Y-92261500D01*
X158500000Y-92900000D02*
X158500000Y-93490000D01*
X158137500Y-90700000D02*
X158741838Y-90700000D01*
%TO.N,Net-(U6A--)*%
X165500000Y-110020000D02*
X163530000Y-110020000D01*
X164500000Y-108135000D02*
X164365000Y-108000000D01*
X163530000Y-110020000D02*
X163500000Y-109990000D01*
X164500000Y-109990000D02*
X164500000Y-108135000D01*
%TO.N,Net-(U6B--)*%
X165635000Y-101145000D02*
X165500000Y-101010000D01*
X166500000Y-101010000D02*
X164500000Y-101010000D01*
X165635000Y-103050000D02*
X165635000Y-101145000D01*
%TO.N,Net-(U5-VOUT_B)*%
X162250000Y-90050000D02*
X161500000Y-90800000D01*
X163862500Y-90050000D02*
X162250000Y-90050000D01*
X161500000Y-90800000D02*
X161500000Y-93490000D01*
%TO.N,Net-(U5-VOUT_A)*%
X158874999Y-90050000D02*
X160000000Y-91175001D01*
X160000000Y-91175001D02*
X160000000Y-93490000D01*
X158137500Y-90050000D02*
X158874999Y-90050000D01*
%TO.N,Net-(U7A--)*%
X155000000Y-109990000D02*
X156000000Y-109990000D01*
X154865000Y-109855000D02*
X155000000Y-109990000D01*
X154865000Y-108000000D02*
X154865000Y-109855000D01*
X154000000Y-109990000D02*
X155000000Y-109990000D01*
%TO.N,Net-(U7B--)*%
X156135000Y-101145000D02*
X156000000Y-101010000D01*
X156135000Y-103050000D02*
X156135000Y-101145000D01*
X157000000Y-101010000D02*
X155000000Y-101010000D01*
%TD*%
%TA.AperFunction,Conductor*%
%TO.N,GND*%
G36*
X158963065Y-84654220D02*
G01*
X159018106Y-84694913D01*
X159071718Y-84764782D01*
X159087486Y-84776881D01*
X159128688Y-84833305D01*
X159136000Y-84875256D01*
X159136000Y-84903246D01*
X159116315Y-84970285D01*
X159085634Y-85003016D01*
X159003576Y-85063576D01*
X158925618Y-85169207D01*
X158882258Y-85293118D01*
X158882258Y-85293120D01*
X158879500Y-85322538D01*
X158879500Y-85697453D01*
X158882258Y-85726874D01*
X158882260Y-85726884D01*
X158925619Y-85850794D01*
X158925619Y-85850795D01*
X158996154Y-85946367D01*
X159020125Y-86011996D01*
X159004809Y-86080166D01*
X158996154Y-86093633D01*
X158925619Y-86189204D01*
X158925619Y-86189205D01*
X158882258Y-86313118D01*
X158882258Y-86313120D01*
X158879500Y-86342538D01*
X158879500Y-86717453D01*
X158882258Y-86746874D01*
X158882260Y-86746884D01*
X158923075Y-86863524D01*
X158925619Y-86870794D01*
X158940378Y-86890792D01*
X159003576Y-86976423D01*
X159085634Y-87036984D01*
X159127884Y-87092631D01*
X159136000Y-87136754D01*
X159136000Y-87532097D01*
X159116315Y-87599136D01*
X159063511Y-87644891D01*
X158994353Y-87654835D01*
X158955706Y-87642582D01*
X158900304Y-87614353D01*
X158900301Y-87614352D01*
X158806524Y-87599500D01*
X157468482Y-87599500D01*
X157387519Y-87612323D01*
X157374696Y-87614354D01*
X157261658Y-87671950D01*
X157261657Y-87671951D01*
X157261652Y-87671954D01*
X157171954Y-87761652D01*
X157171951Y-87761657D01*
X157171950Y-87761658D01*
X157166567Y-87772223D01*
X157114352Y-87874698D01*
X157099500Y-87968475D01*
X157099500Y-88231517D01*
X157114354Y-88325305D01*
X157136468Y-88368705D01*
X157149364Y-88437374D01*
X157136468Y-88481294D01*
X157114354Y-88524696D01*
X157114352Y-88524700D01*
X157099500Y-88618475D01*
X157099500Y-88881517D01*
X157114354Y-88975304D01*
X157122044Y-88990397D01*
X157134938Y-89059067D01*
X157108659Y-89123806D01*
X157099238Y-89134369D01*
X156779522Y-89454085D01*
X156779518Y-89454091D01*
X156726792Y-89545413D01*
X156726793Y-89545414D01*
X156699500Y-89647274D01*
X156699500Y-90915729D01*
X156699500Y-91021183D01*
X156720619Y-91100000D01*
X156726794Y-91123047D01*
X156726795Y-91123049D01*
X156773244Y-91203499D01*
X156789718Y-91271399D01*
X156766866Y-91337426D01*
X156711945Y-91380617D01*
X156665858Y-91389500D01*
X156286930Y-91389500D01*
X156257181Y-91392289D01*
X156257180Y-91392289D01*
X156234571Y-91400201D01*
X156164793Y-91403762D01*
X156105936Y-91370839D01*
X156055383Y-91320285D01*
X156055374Y-91320278D01*
X155916193Y-91237967D01*
X155916190Y-91237965D01*
X155770001Y-91195493D01*
X155770000Y-91195494D01*
X155770000Y-92804503D01*
X155916194Y-92762031D01*
X155928877Y-92754531D01*
X155996601Y-92737347D01*
X156062864Y-92759506D01*
X156106628Y-92813971D01*
X156116000Y-92861262D01*
X156116000Y-98783466D01*
X156096315Y-98850505D01*
X156043511Y-98896260D01*
X156008186Y-98906405D01*
X155957248Y-98913111D01*
X155943238Y-98914956D01*
X155943237Y-98914956D01*
X155797160Y-98975463D01*
X155671718Y-99071718D01*
X155575463Y-99197160D01*
X155514956Y-99343237D01*
X155514955Y-99343242D01*
X155513995Y-99350532D01*
X155485725Y-99414426D01*
X155427398Y-99452894D01*
X155357533Y-99453721D01*
X155350106Y-99451381D01*
X155331745Y-99444956D01*
X155266878Y-99422258D01*
X155266879Y-99422258D01*
X155237461Y-99419500D01*
X154762546Y-99419500D01*
X154733125Y-99422258D01*
X154733115Y-99422260D01*
X154609207Y-99465618D01*
X154503576Y-99543576D01*
X154425618Y-99649207D01*
X154382258Y-99773118D01*
X154382258Y-99773120D01*
X154379500Y-99802538D01*
X154379500Y-100044363D01*
X154359815Y-100111402D01*
X154343185Y-100132039D01*
X154192999Y-100282227D01*
X154125228Y-100349997D01*
X154125224Y-100350002D01*
X154077307Y-100432998D01*
X154077307Y-100432999D01*
X154077306Y-100433001D01*
X154052500Y-100525578D01*
X154052500Y-100525580D01*
X154052500Y-101680553D01*
X154032815Y-101747592D01*
X153980011Y-101793347D01*
X153910853Y-101803291D01*
X153887546Y-101797595D01*
X153829697Y-101777353D01*
X153829699Y-101777353D01*
X153799270Y-101774500D01*
X153799266Y-101774500D01*
X153390734Y-101774500D01*
X153390730Y-101774500D01*
X153360300Y-101777353D01*
X153360298Y-101777353D01*
X153232119Y-101822206D01*
X153232117Y-101822207D01*
X153122850Y-101902850D01*
X153042207Y-102012117D01*
X153042206Y-102012119D01*
X152997353Y-102140298D01*
X152997353Y-102140300D01*
X152994500Y-102170730D01*
X152994500Y-103490495D01*
X152994318Y-103493276D01*
X152994318Y-103506737D01*
X152994500Y-103509515D01*
X152994500Y-103929269D01*
X152997353Y-103959699D01*
X152997353Y-103959701D01*
X153041786Y-104086679D01*
X153042207Y-104087882D01*
X153122850Y-104197150D01*
X153232118Y-104277793D01*
X153272565Y-104291946D01*
X153360299Y-104322646D01*
X153390730Y-104325500D01*
X153390734Y-104325500D01*
X153799270Y-104325500D01*
X153829699Y-104322646D01*
X153829701Y-104322646D01*
X153902537Y-104297159D01*
X153957882Y-104277793D01*
X154067150Y-104197150D01*
X154130231Y-104111677D01*
X154185877Y-104069428D01*
X154255533Y-104063969D01*
X154317083Y-104097036D01*
X154329763Y-104111670D01*
X154392850Y-104197150D01*
X154502118Y-104277793D01*
X154542565Y-104291946D01*
X154628510Y-104322020D01*
X154685286Y-104362742D01*
X154710494Y-104422873D01*
X154714956Y-104456761D01*
X154714956Y-104456762D01*
X154774287Y-104600001D01*
X154775464Y-104602841D01*
X154871718Y-104728282D01*
X154997159Y-104824536D01*
X155143238Y-104885044D01*
X155221619Y-104895363D01*
X155299999Y-104905682D01*
X155300000Y-104905682D01*
X155300001Y-104905682D01*
X155352254Y-104898802D01*
X155456762Y-104885044D01*
X155602841Y-104824536D01*
X155728282Y-104728282D01*
X155824536Y-104602841D01*
X155885044Y-104456762D01*
X155888131Y-104433314D01*
X155916398Y-104369417D01*
X155974723Y-104330947D01*
X156011070Y-104325500D01*
X156339270Y-104325500D01*
X156369699Y-104322646D01*
X156369701Y-104322646D01*
X156442537Y-104297159D01*
X156497882Y-104277793D01*
X156607150Y-104197150D01*
X156670231Y-104111677D01*
X156725877Y-104069428D01*
X156795533Y-104063969D01*
X156857083Y-104097036D01*
X156869763Y-104111670D01*
X156932850Y-104197150D01*
X157042118Y-104277793D01*
X157073063Y-104288621D01*
X157170295Y-104322645D01*
X157170299Y-104322645D01*
X157170301Y-104322646D01*
X157174904Y-104323077D01*
X157239812Y-104348934D01*
X157280437Y-104405779D01*
X157283882Y-104475564D01*
X157251008Y-104534217D01*
X155911499Y-105873727D01*
X155843728Y-105941497D01*
X155843724Y-105941502D01*
X155795807Y-106024498D01*
X155795807Y-106024499D01*
X155795806Y-106024501D01*
X155771000Y-106117078D01*
X155771000Y-106117080D01*
X155771000Y-106710433D01*
X155751315Y-106777472D01*
X155720635Y-106810202D01*
X155662850Y-106852849D01*
X155608184Y-106926919D01*
X155600659Y-106937117D01*
X155599770Y-106938321D01*
X155544123Y-106980571D01*
X155474466Y-106986030D01*
X155412917Y-106952962D01*
X155400230Y-106938321D01*
X155399342Y-106937118D01*
X155337150Y-106852850D01*
X155227882Y-106772207D01*
X155227880Y-106772206D01*
X155099700Y-106727353D01*
X155069270Y-106724500D01*
X155069266Y-106724500D01*
X154660734Y-106724500D01*
X154660730Y-106724500D01*
X154630300Y-106727353D01*
X154630298Y-106727353D01*
X154502119Y-106772206D01*
X154502117Y-106772207D01*
X154450636Y-106810202D01*
X154392850Y-106852850D01*
X154330659Y-106937117D01*
X154329770Y-106938321D01*
X154274123Y-106980571D01*
X154204466Y-106986030D01*
X154142917Y-106952962D01*
X154130230Y-106938321D01*
X154129342Y-106937118D01*
X154067150Y-106852850D01*
X153957882Y-106772207D01*
X153957880Y-106772206D01*
X153829700Y-106727353D01*
X153799270Y-106724500D01*
X153799266Y-106724500D01*
X153390734Y-106724500D01*
X153390730Y-106724500D01*
X153360300Y-106727353D01*
X153360298Y-106727353D01*
X153232119Y-106772206D01*
X153232117Y-106772207D01*
X153122850Y-106852850D01*
X153042207Y-106962117D01*
X153042206Y-106962119D01*
X152997353Y-107090298D01*
X152997353Y-107090300D01*
X152994500Y-107120730D01*
X152994500Y-108059256D01*
X152977887Y-108121256D01*
X152955808Y-108159497D01*
X152955808Y-108159498D01*
X152955807Y-108159500D01*
X152931001Y-108252077D01*
X152931001Y-110257079D01*
X152931001Y-110352923D01*
X152955807Y-110445500D01*
X152955808Y-110445501D01*
X152955808Y-110445502D01*
X153003725Y-110528498D01*
X153003729Y-110528503D01*
X153343181Y-110867955D01*
X153376666Y-110929278D01*
X153379500Y-110955635D01*
X153379500Y-111197453D01*
X153382258Y-111226874D01*
X153382260Y-111226884D01*
X153421799Y-111339877D01*
X153425619Y-111350794D01*
X153450761Y-111384860D01*
X153503576Y-111456423D01*
X153554970Y-111494353D01*
X153609206Y-111534381D01*
X153635998Y-111543756D01*
X153733119Y-111577741D01*
X153740796Y-111578460D01*
X153762543Y-111580500D01*
X154004362Y-111580499D01*
X154071402Y-111600183D01*
X154092044Y-111616818D01*
X155673727Y-113198501D01*
X155741499Y-113266273D01*
X155824501Y-113314194D01*
X155917078Y-113339000D01*
X156012922Y-113339000D01*
X157651243Y-113339000D01*
X157718282Y-113358685D01*
X157749615Y-113387510D01*
X157761718Y-113403282D01*
X157887159Y-113499536D01*
X158033238Y-113560044D01*
X158059573Y-113563511D01*
X158189999Y-113580682D01*
X158190000Y-113580682D01*
X158190001Y-113580682D01*
X158242254Y-113573802D01*
X158346762Y-113560044D01*
X158492841Y-113499536D01*
X158618282Y-113403282D01*
X158714536Y-113277841D01*
X158775044Y-113131762D01*
X158795682Y-112975000D01*
X158775044Y-112818238D01*
X158754441Y-112768499D01*
X158746973Y-112699033D01*
X158778248Y-112636554D01*
X158838336Y-112600901D01*
X158908162Y-112603394D01*
X158956684Y-112633368D01*
X160146817Y-113823501D01*
X160214589Y-113891273D01*
X160297591Y-113939194D01*
X160390168Y-113964000D01*
X160390170Y-113964000D01*
X163489829Y-113964000D01*
X163489832Y-113964000D01*
X163582409Y-113939194D01*
X163665411Y-113891273D01*
X164791273Y-112765411D01*
X164800179Y-112749986D01*
X165775001Y-112749986D01*
X165785494Y-112852697D01*
X165840641Y-113019119D01*
X165840643Y-113019124D01*
X165932684Y-113168345D01*
X166056654Y-113292315D01*
X166205875Y-113384356D01*
X166205880Y-113384358D01*
X166372302Y-113439505D01*
X166372309Y-113439506D01*
X166475019Y-113449999D01*
X166749999Y-113449999D01*
X166750000Y-113449998D01*
X166750000Y-112700000D01*
X165775001Y-112700000D01*
X165775001Y-112749986D01*
X164800179Y-112749986D01*
X164839194Y-112682409D01*
X164864000Y-112589832D01*
X164864000Y-112493988D01*
X164864000Y-111805348D01*
X164883685Y-111738309D01*
X164936489Y-111692554D01*
X165005647Y-111682610D01*
X165051122Y-111698617D01*
X165073802Y-111712030D01*
X165073804Y-111712031D01*
X165229089Y-111757145D01*
X165250000Y-111758789D01*
X165250000Y-110854000D01*
X165269685Y-110786961D01*
X165322489Y-110741206D01*
X165374000Y-110730000D01*
X165626000Y-110730000D01*
X165693039Y-110749685D01*
X165738794Y-110802489D01*
X165750000Y-110854000D01*
X165750000Y-111758790D01*
X165789826Y-111795607D01*
X165787748Y-111797854D01*
X165816549Y-111826231D01*
X165831906Y-111894392D01*
X165825866Y-111925466D01*
X165785495Y-112047298D01*
X165785493Y-112047309D01*
X165775000Y-112150013D01*
X165775000Y-112200000D01*
X167126000Y-112200000D01*
X167193039Y-112219685D01*
X167238794Y-112272489D01*
X167250000Y-112324000D01*
X167250000Y-113449999D01*
X167524972Y-113449999D01*
X167524986Y-113449998D01*
X167627697Y-113439505D01*
X167794119Y-113384358D01*
X167794124Y-113384356D01*
X167943345Y-113292315D01*
X167987819Y-113247842D01*
X168049142Y-113214357D01*
X168118834Y-113219341D01*
X168174767Y-113261213D01*
X168199184Y-113326677D01*
X168199500Y-113335523D01*
X168199500Y-121075500D01*
X168179815Y-121142539D01*
X168127011Y-121188294D01*
X168075500Y-121199500D01*
X133924500Y-121199500D01*
X133857461Y-121179815D01*
X133811706Y-121127011D01*
X133800500Y-121075500D01*
X133800500Y-101015843D01*
X133820185Y-100948804D01*
X133872989Y-100903049D01*
X133942147Y-100893105D01*
X134005703Y-100922130D01*
X134036155Y-100965131D01*
X134036481Y-100964948D01*
X134038235Y-100968067D01*
X134039855Y-100970355D01*
X134040638Y-100972341D01*
X134132077Y-101092922D01*
X134252656Y-101184360D01*
X134252657Y-101184360D01*
X134252658Y-101184361D01*
X134393436Y-101239877D01*
X134481898Y-101250500D01*
X134607000Y-101250500D01*
X134674039Y-101270185D01*
X134719794Y-101322989D01*
X134731000Y-101374500D01*
X134731000Y-101735433D01*
X134711315Y-101802472D01*
X134680635Y-101835202D01*
X134622850Y-101877849D01*
X134542207Y-101987117D01*
X134542206Y-101987119D01*
X134497353Y-102115298D01*
X134497353Y-102115300D01*
X134494500Y-102145730D01*
X134494500Y-102390495D01*
X134494318Y-102393276D01*
X134494318Y-102406737D01*
X134494500Y-102409515D01*
X134494500Y-103904269D01*
X134497353Y-103934699D01*
X134497353Y-103934701D01*
X134542206Y-104062880D01*
X134542207Y-104062882D01*
X134622850Y-104172150D01*
X134732118Y-104252793D01*
X134774231Y-104267529D01*
X134860299Y-104297646D01*
X134890730Y-104300500D01*
X134890734Y-104300500D01*
X135299270Y-104300500D01*
X135329699Y-104297646D01*
X135329701Y-104297646D01*
X135395207Y-104274724D01*
X135457882Y-104252793D01*
X135567150Y-104172150D01*
X135630231Y-104086677D01*
X135685877Y-104044428D01*
X135755533Y-104038969D01*
X135817083Y-104072036D01*
X135829763Y-104086670D01*
X135892850Y-104172150D01*
X135950634Y-104214796D01*
X135992884Y-104270441D01*
X136001000Y-104314565D01*
X136001000Y-104412921D01*
X136006651Y-104434013D01*
X136009814Y-104482287D01*
X135994318Y-104599997D01*
X135994318Y-104600001D01*
X136014955Y-104756760D01*
X136014956Y-104756762D01*
X136075464Y-104902841D01*
X136171718Y-105028282D01*
X136297159Y-105124536D01*
X136443238Y-105185044D01*
X136521619Y-105195363D01*
X136599999Y-105205682D01*
X136600000Y-105205682D01*
X136600001Y-105205682D01*
X136652254Y-105198802D01*
X136756762Y-105185044D01*
X136902841Y-105124536D01*
X137028282Y-105028282D01*
X137124536Y-104902841D01*
X137185044Y-104756762D01*
X137205682Y-104600000D01*
X137185044Y-104443238D01*
X137184074Y-104440897D01*
X137183845Y-104438765D01*
X137182940Y-104435387D01*
X137183466Y-104435245D01*
X137176603Y-104371433D01*
X137207875Y-104308952D01*
X137267962Y-104273296D01*
X137337787Y-104275787D01*
X137339546Y-104276387D01*
X137400301Y-104297646D01*
X137400300Y-104297646D01*
X137430730Y-104300500D01*
X137430734Y-104300500D01*
X137839270Y-104300500D01*
X137869699Y-104297646D01*
X137869701Y-104297646D01*
X137935207Y-104274724D01*
X137997882Y-104252793D01*
X138107150Y-104172150D01*
X138170231Y-104086677D01*
X138225877Y-104044428D01*
X138295533Y-104038969D01*
X138357083Y-104072036D01*
X138369763Y-104086670D01*
X138432850Y-104172150D01*
X138532194Y-104245469D01*
X138574443Y-104301114D01*
X138579902Y-104370770D01*
X138546835Y-104432319D01*
X138546240Y-104432918D01*
X137411499Y-105567661D01*
X137343728Y-105635431D01*
X137343724Y-105635436D01*
X137295807Y-105718432D01*
X137295807Y-105718433D01*
X137295806Y-105718435D01*
X137271000Y-105811012D01*
X137271000Y-105811014D01*
X137271000Y-106685433D01*
X137251315Y-106752472D01*
X137220635Y-106785202D01*
X137162850Y-106827849D01*
X137099770Y-106913321D01*
X137044123Y-106955571D01*
X136974466Y-106961030D01*
X136912917Y-106927962D01*
X136900230Y-106913321D01*
X136892384Y-106902690D01*
X136837150Y-106827850D01*
X136727882Y-106747207D01*
X136727880Y-106747206D01*
X136599700Y-106702353D01*
X136569270Y-106699500D01*
X136569266Y-106699500D01*
X136160734Y-106699500D01*
X136160730Y-106699500D01*
X136130300Y-106702353D01*
X136130298Y-106702353D01*
X136002119Y-106747206D01*
X136002117Y-106747207D01*
X135892850Y-106827850D01*
X135829770Y-106913321D01*
X135774123Y-106955571D01*
X135704466Y-106961030D01*
X135642917Y-106927962D01*
X135630230Y-106913321D01*
X135622384Y-106902690D01*
X135567150Y-106827850D01*
X135457882Y-106747207D01*
X135457880Y-106747206D01*
X135329700Y-106702353D01*
X135299270Y-106699500D01*
X135299266Y-106699500D01*
X134890734Y-106699500D01*
X134890730Y-106699500D01*
X134860300Y-106702353D01*
X134860298Y-106702353D01*
X134732119Y-106747206D01*
X134732117Y-106747207D01*
X134622850Y-106827850D01*
X134542207Y-106937117D01*
X134542206Y-106937119D01*
X134497353Y-107065298D01*
X134497353Y-107065300D01*
X134494500Y-107095730D01*
X134494500Y-108034256D01*
X134477887Y-108096256D01*
X134455808Y-108134497D01*
X134455808Y-108134498D01*
X134455807Y-108134500D01*
X134431001Y-108227077D01*
X134431001Y-110257079D01*
X134431001Y-110352923D01*
X134455807Y-110445500D01*
X134455808Y-110445501D01*
X134455808Y-110445502D01*
X134503725Y-110528498D01*
X134503729Y-110528503D01*
X134843181Y-110867955D01*
X134876666Y-110929278D01*
X134879500Y-110955635D01*
X134879500Y-111197453D01*
X134882258Y-111226874D01*
X134882260Y-111226884D01*
X134921799Y-111339877D01*
X134925619Y-111350794D01*
X134950761Y-111384860D01*
X135003576Y-111456423D01*
X135085634Y-111516984D01*
X135127884Y-111572631D01*
X135136000Y-111616754D01*
X135136000Y-112237078D01*
X135136000Y-112332922D01*
X135160806Y-112425499D01*
X135160807Y-112425500D01*
X135160807Y-112425501D01*
X135208724Y-112508497D01*
X135208728Y-112508502D01*
X135551654Y-112851428D01*
X135585139Y-112912751D01*
X135586912Y-112955293D01*
X135584318Y-112974998D01*
X135584318Y-112975001D01*
X135604955Y-113131760D01*
X135604956Y-113131762D01*
X135660671Y-113266271D01*
X135665464Y-113277841D01*
X135761718Y-113403282D01*
X135887159Y-113499536D01*
X136033238Y-113560044D01*
X136059573Y-113563511D01*
X136189999Y-113580682D01*
X136190000Y-113580682D01*
X136190001Y-113580682D01*
X136242254Y-113573802D01*
X136346762Y-113560044D01*
X136492841Y-113499536D01*
X136618282Y-113403282D01*
X136714536Y-113277841D01*
X136775044Y-113131762D01*
X136795682Y-112975000D01*
X136775044Y-112818238D01*
X136714536Y-112672159D01*
X136618282Y-112546718D01*
X136492841Y-112450464D01*
X136437292Y-112427455D01*
X136346762Y-112389956D01*
X136346760Y-112389955D01*
X136190002Y-112369318D01*
X136189998Y-112369318D01*
X136170293Y-112371912D01*
X136101258Y-112361146D01*
X136066428Y-112336654D01*
X135900319Y-112170545D01*
X135866834Y-112109222D01*
X135864000Y-112082864D01*
X135864000Y-111616754D01*
X135883685Y-111549715D01*
X135914363Y-111516986D01*
X135916547Y-111515374D01*
X135926365Y-111508128D01*
X135991991Y-111484156D01*
X136060162Y-111499469D01*
X136073627Y-111508123D01*
X136109206Y-111534381D01*
X136135998Y-111543756D01*
X136233116Y-111577740D01*
X136233118Y-111577740D01*
X136233121Y-111577741D01*
X136243624Y-111578725D01*
X136308532Y-111604581D01*
X136319730Y-111614503D01*
X138996500Y-114291273D01*
X139079502Y-114339194D01*
X139172079Y-114364000D01*
X139172081Y-114364000D01*
X144147919Y-114364000D01*
X144147922Y-114364000D01*
X144240499Y-114339194D01*
X144323501Y-114291273D01*
X144614776Y-113999998D01*
X149394318Y-113999998D01*
X149394318Y-114000001D01*
X149414955Y-114156760D01*
X149414956Y-114156762D01*
X149475464Y-114302842D01*
X149568826Y-114424514D01*
X149594020Y-114489683D01*
X149579981Y-114558128D01*
X149568826Y-114575486D01*
X149475464Y-114697157D01*
X149414956Y-114843237D01*
X149414955Y-114843239D01*
X149394318Y-114999998D01*
X149394318Y-115000001D01*
X149414955Y-115156760D01*
X149414956Y-115156762D01*
X149475464Y-115302842D01*
X149568826Y-115424514D01*
X149594020Y-115489683D01*
X149579981Y-115558128D01*
X149568826Y-115575486D01*
X149475464Y-115697157D01*
X149414956Y-115843237D01*
X149414955Y-115843239D01*
X149394318Y-115999998D01*
X149394318Y-116000001D01*
X149414955Y-116156760D01*
X149414956Y-116156762D01*
X149475464Y-116302842D01*
X149568826Y-116424514D01*
X149594020Y-116489683D01*
X149579981Y-116558128D01*
X149568826Y-116575486D01*
X149475464Y-116697157D01*
X149414956Y-116843237D01*
X149414955Y-116843239D01*
X149394318Y-116999998D01*
X149394318Y-117000001D01*
X149414955Y-117156760D01*
X149414956Y-117156762D01*
X149475464Y-117302841D01*
X149571718Y-117428282D01*
X149697159Y-117524536D01*
X149843238Y-117585044D01*
X149921619Y-117595363D01*
X149999999Y-117605682D01*
X150000000Y-117605682D01*
X150000001Y-117605682D01*
X150052254Y-117598802D01*
X150156762Y-117585044D01*
X150302841Y-117524536D01*
X150428282Y-117428282D01*
X150524536Y-117302841D01*
X150585044Y-117156762D01*
X150605682Y-117000000D01*
X150585044Y-116843238D01*
X150524536Y-116697159D01*
X150431171Y-116575484D01*
X150405979Y-116510317D01*
X150420017Y-116441873D01*
X150431167Y-116424521D01*
X150524536Y-116302841D01*
X150585044Y-116156762D01*
X150605682Y-116000000D01*
X150585044Y-115843238D01*
X150524536Y-115697159D01*
X150431171Y-115575484D01*
X150405979Y-115510317D01*
X150420017Y-115441873D01*
X150431167Y-115424521D01*
X150524536Y-115302841D01*
X150585044Y-115156762D01*
X150605682Y-115000000D01*
X150598029Y-114941873D01*
X150585044Y-114843239D01*
X150585044Y-114843238D01*
X150524536Y-114697159D01*
X150431171Y-114575484D01*
X150405979Y-114510317D01*
X150408095Y-114499998D01*
X151394318Y-114499998D01*
X151394318Y-114500001D01*
X151414955Y-114656760D01*
X151414956Y-114656762D01*
X151475464Y-114802842D01*
X151568826Y-114924514D01*
X151594020Y-114989683D01*
X151579981Y-115058128D01*
X151568826Y-115075486D01*
X151475464Y-115197157D01*
X151414956Y-115343237D01*
X151414955Y-115343239D01*
X151394318Y-115499998D01*
X151394318Y-115500001D01*
X151414955Y-115656760D01*
X151414956Y-115656762D01*
X151475464Y-115802841D01*
X151571718Y-115928282D01*
X151602140Y-115951625D01*
X151643341Y-116008052D01*
X151647496Y-116077798D01*
X151613283Y-116138719D01*
X151602146Y-116148369D01*
X151571719Y-116171717D01*
X151571718Y-116171718D01*
X151475463Y-116297160D01*
X151414956Y-116443237D01*
X151414955Y-116443239D01*
X151394318Y-116599998D01*
X151394318Y-116600001D01*
X151414955Y-116756760D01*
X151414956Y-116756762D01*
X151450775Y-116843238D01*
X151475464Y-116902841D01*
X151571718Y-117028282D01*
X151697159Y-117124536D01*
X151843238Y-117185044D01*
X151921619Y-117195363D01*
X151999999Y-117205682D01*
X152000000Y-117205682D01*
X152000001Y-117205682D01*
X152052254Y-117198802D01*
X152156762Y-117185044D01*
X152302841Y-117124536D01*
X152428282Y-117028282D01*
X152524536Y-116902841D01*
X152585044Y-116756762D01*
X152605682Y-116600000D01*
X152600169Y-116558128D01*
X152585044Y-116443239D01*
X152585044Y-116443238D01*
X152524536Y-116297159D01*
X152428282Y-116171718D01*
X152397860Y-116148374D01*
X152356658Y-116091949D01*
X152352503Y-116022203D01*
X152386714Y-115961282D01*
X152397851Y-115951631D01*
X152428282Y-115928282D01*
X152524536Y-115802841D01*
X152585044Y-115656762D01*
X152605682Y-115500000D01*
X152598029Y-115441873D01*
X152585044Y-115343239D01*
X152585044Y-115343238D01*
X152524536Y-115197159D01*
X152431171Y-115075484D01*
X152405979Y-115010317D01*
X152420017Y-114941873D01*
X152431167Y-114924521D01*
X152524536Y-114802841D01*
X152585044Y-114656762D01*
X152605682Y-114500000D01*
X152598029Y-114441873D01*
X152585044Y-114343239D01*
X152585044Y-114343238D01*
X152524536Y-114197159D01*
X152428282Y-114071718D01*
X152302841Y-113975464D01*
X152156762Y-113914956D01*
X152156760Y-113914955D01*
X152000001Y-113894318D01*
X151999999Y-113894318D01*
X151843239Y-113914955D01*
X151843237Y-113914956D01*
X151697160Y-113975463D01*
X151571718Y-114071718D01*
X151475463Y-114197160D01*
X151414956Y-114343237D01*
X151414955Y-114343239D01*
X151394318Y-114499998D01*
X150408095Y-114499998D01*
X150420017Y-114441873D01*
X150431167Y-114424521D01*
X150524536Y-114302841D01*
X150585044Y-114156762D01*
X150605682Y-114000000D01*
X150585044Y-113843238D01*
X150524536Y-113697159D01*
X150428282Y-113571718D01*
X150302841Y-113475464D01*
X150216028Y-113439505D01*
X150156762Y-113414956D01*
X150156760Y-113414955D01*
X150000001Y-113394318D01*
X149999999Y-113394318D01*
X149843239Y-113414955D01*
X149843237Y-113414956D01*
X149697160Y-113475463D01*
X149571718Y-113571718D01*
X149475463Y-113697160D01*
X149414956Y-113843237D01*
X149414955Y-113843239D01*
X149394318Y-113999998D01*
X144614776Y-113999998D01*
X146291273Y-112323501D01*
X146309880Y-112291273D01*
X146339194Y-112240499D01*
X146364000Y-112147922D01*
X146364000Y-111938756D01*
X146383685Y-111871717D01*
X146412510Y-111840383D01*
X146428282Y-111828282D01*
X146476161Y-111765883D01*
X146532587Y-111724682D01*
X146602333Y-111720527D01*
X146609131Y-111722295D01*
X146729086Y-111757144D01*
X146750000Y-111758789D01*
X147250000Y-111758789D01*
X147270910Y-111757145D01*
X147426195Y-111712031D01*
X147565374Y-111629721D01*
X147565383Y-111629714D01*
X147679714Y-111515383D01*
X147679721Y-111515374D01*
X147762031Y-111376195D01*
X147804504Y-111230000D01*
X147250000Y-111230000D01*
X147250000Y-111758789D01*
X146750000Y-111758789D01*
X146750000Y-110854000D01*
X146769685Y-110786961D01*
X146822489Y-110741206D01*
X146874000Y-110730000D01*
X147804504Y-110730000D01*
X147762031Y-110583804D01*
X147679721Y-110444625D01*
X147679714Y-110444616D01*
X147629159Y-110394061D01*
X147595674Y-110332738D01*
X147599798Y-110265428D01*
X147607710Y-110242819D01*
X147610500Y-110213066D01*
X147610500Y-109826934D01*
X147607710Y-109797181D01*
X147607708Y-109797177D01*
X147607708Y-109797173D01*
X147563852Y-109671844D01*
X147563852Y-109671843D01*
X147484999Y-109565001D01*
X147378157Y-109486148D01*
X147367610Y-109482457D01*
X147310836Y-109441735D01*
X147285090Y-109376782D01*
X147298547Y-109308221D01*
X147346935Y-109257819D01*
X147367613Y-109248376D01*
X147382848Y-109243045D01*
X147497882Y-109202793D01*
X147607150Y-109122150D01*
X147670231Y-109036677D01*
X147725877Y-108994428D01*
X147795533Y-108988969D01*
X147857083Y-109022036D01*
X147869763Y-109036670D01*
X147932850Y-109122150D01*
X148042118Y-109202793D01*
X148074995Y-109214297D01*
X148170299Y-109247646D01*
X148200730Y-109250500D01*
X148200734Y-109250500D01*
X148609270Y-109250500D01*
X148639699Y-109247646D01*
X148639701Y-109247646D01*
X148711488Y-109222526D01*
X148767882Y-109202793D01*
X148877150Y-109122150D01*
X148957793Y-109012882D01*
X148987396Y-108928281D01*
X148998327Y-108897044D01*
X149039049Y-108840269D01*
X149104002Y-108814522D01*
X149115368Y-108814000D01*
X149393803Y-108814000D01*
X149460842Y-108833685D01*
X149506597Y-108886489D01*
X149509151Y-108892495D01*
X149519162Y-108917880D01*
X149540638Y-108972342D01*
X149632077Y-109092922D01*
X149752656Y-109184360D01*
X149752657Y-109184360D01*
X149752658Y-109184361D01*
X149893436Y-109239877D01*
X149981898Y-109250500D01*
X149981903Y-109250500D01*
X151018097Y-109250500D01*
X151018102Y-109250500D01*
X151106564Y-109239877D01*
X151247342Y-109184361D01*
X151367922Y-109092922D01*
X151459361Y-108972342D01*
X151514877Y-108831564D01*
X151525500Y-108743102D01*
X151525500Y-108156898D01*
X151514877Y-108068436D01*
X151459361Y-107927658D01*
X151459360Y-107927657D01*
X151459360Y-107927656D01*
X151367925Y-107807082D01*
X151367922Y-107807078D01*
X151351300Y-107794473D01*
X151334115Y-107777385D01*
X151334033Y-107777468D01*
X151328288Y-107771723D01*
X151328282Y-107771718D01*
X151242098Y-107705587D01*
X151200897Y-107649160D01*
X151196742Y-107579414D01*
X151230955Y-107518493D01*
X151278587Y-107489505D01*
X151294116Y-107484359D01*
X151294124Y-107484356D01*
X151443345Y-107392315D01*
X151567315Y-107268345D01*
X151659356Y-107119124D01*
X151659358Y-107119119D01*
X151714505Y-106952697D01*
X151714506Y-106952690D01*
X151724999Y-106849986D01*
X151725000Y-106849973D01*
X151725000Y-106800000D01*
X149275001Y-106800000D01*
X149275001Y-106849986D01*
X149285494Y-106952697D01*
X149340641Y-107119119D01*
X149340643Y-107119124D01*
X149432684Y-107268345D01*
X149556654Y-107392315D01*
X149705876Y-107484356D01*
X149727755Y-107491606D01*
X149785201Y-107531378D01*
X149812025Y-107595893D01*
X149799711Y-107664669D01*
X149758393Y-107709166D01*
X149759416Y-107710514D01*
X149632077Y-107807077D01*
X149540638Y-107927657D01*
X149517041Y-107987497D01*
X149512111Y-108000001D01*
X149509158Y-108007489D01*
X149466252Y-108062634D01*
X149400344Y-108085827D01*
X149393803Y-108086000D01*
X149129500Y-108086000D01*
X149062461Y-108066315D01*
X149016706Y-108013511D01*
X149005500Y-107962000D01*
X149005500Y-107095730D01*
X149002646Y-107065300D01*
X149002646Y-107065298D01*
X148957793Y-106937119D01*
X148957792Y-106937117D01*
X148877150Y-106827850D01*
X148767882Y-106747207D01*
X148767880Y-106747206D01*
X148639700Y-106702353D01*
X148609270Y-106699500D01*
X148609266Y-106699500D01*
X148200734Y-106699500D01*
X148200730Y-106699500D01*
X148170300Y-106702353D01*
X148170298Y-106702353D01*
X148042119Y-106747206D01*
X148042117Y-106747207D01*
X147932850Y-106827850D01*
X147869770Y-106913321D01*
X147814123Y-106955571D01*
X147744466Y-106961030D01*
X147682917Y-106927962D01*
X147670230Y-106913321D01*
X147662384Y-106902690D01*
X147607150Y-106827850D01*
X147497882Y-106747207D01*
X147497880Y-106747206D01*
X147369381Y-106702242D01*
X147322655Y-106672882D01*
X146899786Y-106250013D01*
X149275000Y-106250013D01*
X149275000Y-106300000D01*
X150250000Y-106300000D01*
X150250000Y-105550000D01*
X149975029Y-105550000D01*
X149975012Y-105550001D01*
X149872302Y-105560494D01*
X149705880Y-105615641D01*
X149705875Y-105615643D01*
X149556654Y-105707684D01*
X149432684Y-105831654D01*
X149340643Y-105980875D01*
X149340641Y-105980880D01*
X149285494Y-106147302D01*
X149285493Y-106147309D01*
X149275000Y-106250013D01*
X146899786Y-106250013D01*
X146058501Y-105408728D01*
X146058496Y-105408724D01*
X145975500Y-105360807D01*
X145975499Y-105360806D01*
X145933833Y-105349642D01*
X145914324Y-105344414D01*
X145854665Y-105308049D01*
X145847298Y-105292885D01*
X145839878Y-105304740D01*
X145776672Y-105334519D01*
X145757566Y-105336000D01*
X144702136Y-105336000D01*
X144635097Y-105316315D01*
X144614455Y-105299681D01*
X144100319Y-104785545D01*
X144066834Y-104724222D01*
X144064000Y-104697864D01*
X144064000Y-104368727D01*
X144083685Y-104301688D01*
X144136489Y-104255933D01*
X144205647Y-104245989D01*
X144228955Y-104251686D01*
X144232117Y-104252792D01*
X144232118Y-104252793D01*
X144241092Y-104255933D01*
X144360299Y-104297646D01*
X144390730Y-104300500D01*
X144390734Y-104300500D01*
X144799270Y-104300500D01*
X144829699Y-104297646D01*
X144829701Y-104297646D01*
X144895207Y-104274724D01*
X144957882Y-104252793D01*
X145067150Y-104172150D01*
X145130231Y-104086677D01*
X145185875Y-104044428D01*
X145255531Y-104038969D01*
X145317081Y-104072036D01*
X145329768Y-104086677D01*
X145330658Y-104087882D01*
X145346751Y-104109688D01*
X145370721Y-104175318D01*
X145361540Y-104230772D01*
X145314957Y-104343234D01*
X145314955Y-104343239D01*
X145294318Y-104499998D01*
X145294318Y-104500001D01*
X145314955Y-104656760D01*
X145314956Y-104656762D01*
X145356376Y-104756760D01*
X145375464Y-104802841D01*
X145471718Y-104928282D01*
X145597159Y-105024536D01*
X145743238Y-105085044D01*
X145773751Y-105089061D01*
X145837648Y-105117327D01*
X145856781Y-105146335D01*
X145876917Y-105121949D01*
X145930231Y-105101701D01*
X146056762Y-105085044D01*
X146202841Y-105024536D01*
X146328282Y-104928282D01*
X146424536Y-104802841D01*
X146446429Y-104749986D01*
X150275001Y-104749986D01*
X150285494Y-104852697D01*
X150340641Y-105019119D01*
X150340643Y-105019124D01*
X150432684Y-105168345D01*
X150556654Y-105292315D01*
X150702142Y-105382053D01*
X150748866Y-105434001D01*
X150760089Y-105502964D01*
X150750000Y-105526183D01*
X150750000Y-106300000D01*
X151724999Y-106300000D01*
X151724999Y-106250028D01*
X151724998Y-106250013D01*
X151714505Y-106147302D01*
X151659358Y-105980880D01*
X151659356Y-105980875D01*
X151567315Y-105831654D01*
X151443345Y-105707684D01*
X151297856Y-105617946D01*
X151251132Y-105565998D01*
X151239909Y-105497035D01*
X151250000Y-105473810D01*
X151250000Y-105449999D01*
X151750000Y-105449999D01*
X152024972Y-105449999D01*
X152024986Y-105449998D01*
X152127697Y-105439505D01*
X152294119Y-105384358D01*
X152294124Y-105384356D01*
X152443345Y-105292315D01*
X152567315Y-105168345D01*
X152659356Y-105019124D01*
X152659358Y-105019119D01*
X152714505Y-104852697D01*
X152714506Y-104852690D01*
X152724999Y-104749986D01*
X152725000Y-104749973D01*
X152725000Y-104700000D01*
X151750000Y-104700000D01*
X151750000Y-105449999D01*
X151250000Y-105449999D01*
X151250000Y-104700000D01*
X150275001Y-104700000D01*
X150275001Y-104749986D01*
X146446429Y-104749986D01*
X146485044Y-104656762D01*
X146505682Y-104500000D01*
X146502903Y-104478894D01*
X146488669Y-104370770D01*
X146485044Y-104343238D01*
X146475379Y-104319906D01*
X146467910Y-104250440D01*
X146499184Y-104187960D01*
X146559272Y-104152306D01*
X146629097Y-104154799D01*
X146663573Y-104172684D01*
X146772113Y-104252790D01*
X146772115Y-104252791D01*
X146772118Y-104252793D01*
X146814231Y-104267529D01*
X146900299Y-104297646D01*
X146930730Y-104300500D01*
X146930734Y-104300500D01*
X147339270Y-104300500D01*
X147369699Y-104297646D01*
X147369701Y-104297646D01*
X147435207Y-104274724D01*
X147497882Y-104252793D01*
X147607150Y-104172150D01*
X147670231Y-104086677D01*
X147725877Y-104044428D01*
X147795533Y-104038969D01*
X147857083Y-104072036D01*
X147869763Y-104086670D01*
X147932850Y-104172150D01*
X148042118Y-104252793D01*
X148084231Y-104267529D01*
X148170299Y-104297646D01*
X148200730Y-104300500D01*
X148200734Y-104300500D01*
X148609270Y-104300500D01*
X148639699Y-104297646D01*
X148639701Y-104297646D01*
X148705207Y-104274724D01*
X148767882Y-104252793D01*
X148877150Y-104172150D01*
X148893488Y-104150013D01*
X150275000Y-104150013D01*
X150275000Y-104200000D01*
X152724999Y-104200000D01*
X152724999Y-104150028D01*
X152724998Y-104150013D01*
X152714505Y-104047302D01*
X152659358Y-103880880D01*
X152659356Y-103880875D01*
X152567315Y-103731654D01*
X152443345Y-103607684D01*
X152294124Y-103515643D01*
X152294121Y-103515642D01*
X152272241Y-103508392D01*
X152214797Y-103468619D01*
X152187974Y-103404103D01*
X152200289Y-103335327D01*
X152241605Y-103290832D01*
X152240584Y-103289486D01*
X152367922Y-103192922D01*
X152429253Y-103112045D01*
X152459361Y-103072342D01*
X152514877Y-102931564D01*
X152525500Y-102843102D01*
X152525500Y-102256898D01*
X152514877Y-102168436D01*
X152459361Y-102027658D01*
X152459360Y-102027657D01*
X152459360Y-102027656D01*
X152367922Y-101907077D01*
X152247343Y-101815639D01*
X152143021Y-101774500D01*
X152106564Y-101760123D01*
X152106563Y-101760122D01*
X152106561Y-101760122D01*
X152060926Y-101754642D01*
X152018102Y-101749500D01*
X150981898Y-101749500D01*
X150942853Y-101754188D01*
X150893438Y-101760122D01*
X150752656Y-101815639D01*
X150632077Y-101907077D01*
X150540639Y-102027656D01*
X150485122Y-102168438D01*
X150480099Y-102210274D01*
X150474500Y-102256898D01*
X150474500Y-102843102D01*
X150477190Y-102865500D01*
X150485122Y-102931561D01*
X150485122Y-102931563D01*
X150485123Y-102931564D01*
X150498022Y-102964274D01*
X150540639Y-103072343D01*
X150632077Y-103192922D01*
X150759416Y-103289486D01*
X150758028Y-103291315D01*
X150798315Y-103332618D01*
X150812316Y-103401071D01*
X150787087Y-103466226D01*
X150730636Y-103507398D01*
X150727759Y-103508391D01*
X150705882Y-103515640D01*
X150705875Y-103515643D01*
X150556654Y-103607684D01*
X150432684Y-103731654D01*
X150340643Y-103880875D01*
X150340641Y-103880880D01*
X150285494Y-104047302D01*
X150285493Y-104047309D01*
X150275000Y-104150013D01*
X148893488Y-104150013D01*
X148957793Y-104062882D01*
X148988382Y-103975464D01*
X149002646Y-103934701D01*
X149002646Y-103934699D01*
X149005500Y-103904269D01*
X149005500Y-102965745D01*
X149022112Y-102903746D01*
X149027003Y-102895274D01*
X149044193Y-102865500D01*
X149068999Y-102772923D01*
X149068999Y-99759771D01*
X149044193Y-99667194D01*
X148996272Y-99584192D01*
X148928500Y-99516420D01*
X147820807Y-98408727D01*
X147820806Y-98408726D01*
X147820803Y-98408724D01*
X147737807Y-98360807D01*
X147737806Y-98360806D01*
X147737805Y-98360806D01*
X147645228Y-98336000D01*
X147645226Y-98336000D01*
X145502136Y-98336000D01*
X145435097Y-98316315D01*
X145414455Y-98299681D01*
X144100319Y-96985545D01*
X144066834Y-96924222D01*
X144064000Y-96897864D01*
X144064000Y-96172080D01*
X144064000Y-96172078D01*
X144039194Y-96079501D01*
X143991273Y-95996499D01*
X143923501Y-95928727D01*
X143923500Y-95928726D01*
X143919170Y-95924396D01*
X143919159Y-95924386D01*
X143646819Y-95652045D01*
X143613334Y-95590722D01*
X143610500Y-95564364D01*
X143610500Y-95326929D01*
X143607710Y-95297185D01*
X143607710Y-95297181D01*
X143607708Y-95297177D01*
X143607708Y-95297173D01*
X143563852Y-95171842D01*
X143563851Y-95171841D01*
X143504988Y-95092084D01*
X143481017Y-95026455D01*
X143496333Y-94958285D01*
X143504983Y-94944823D01*
X143574381Y-94850794D01*
X143596061Y-94788836D01*
X143617741Y-94726881D01*
X143617741Y-94726879D01*
X143618678Y-94716884D01*
X143620500Y-94697457D01*
X143620499Y-94322544D01*
X143617741Y-94293121D01*
X143614241Y-94283120D01*
X143574381Y-94169207D01*
X143574381Y-94169206D01*
X143503844Y-94073632D01*
X143479874Y-94008005D01*
X143495189Y-93939835D01*
X143503842Y-93926370D01*
X143574381Y-93830794D01*
X143611811Y-93723827D01*
X143617741Y-93706881D01*
X143617741Y-93706879D01*
X143618409Y-93699757D01*
X143620500Y-93677457D01*
X143620499Y-93302544D01*
X143617741Y-93273121D01*
X143574381Y-93149206D01*
X143506614Y-93057385D01*
X143496423Y-93043576D01*
X143424372Y-92990401D01*
X143390794Y-92965619D01*
X143390792Y-92965618D01*
X143266879Y-92922258D01*
X143261536Y-92921091D01*
X143200242Y-92887552D01*
X143166811Y-92826200D01*
X143164000Y-92799948D01*
X143164000Y-92624499D01*
X143183685Y-92557460D01*
X143236489Y-92511705D01*
X143287995Y-92500499D01*
X144531518Y-92500499D01*
X144625304Y-92485646D01*
X144738342Y-92428050D01*
X144828050Y-92338342D01*
X144885646Y-92225304D01*
X144885646Y-92225302D01*
X144885647Y-92225301D01*
X144900499Y-92131525D01*
X144900500Y-92131519D01*
X144900499Y-92109222D01*
X144920181Y-92042185D01*
X144972983Y-91996429D01*
X145042142Y-91986482D01*
X145098131Y-92009450D01*
X145171843Y-92063852D01*
X145210003Y-92077204D01*
X145297173Y-92107708D01*
X145297177Y-92107708D01*
X145297181Y-92107710D01*
X145312057Y-92109105D01*
X145326930Y-92110500D01*
X145326934Y-92110500D01*
X145713070Y-92110500D01*
X145742809Y-92107711D01*
X145742809Y-92107710D01*
X145742819Y-92107710D01*
X145765427Y-92099798D01*
X145835202Y-92096236D01*
X145894061Y-92129159D01*
X145944616Y-92179714D01*
X145944625Y-92179721D01*
X146083804Y-92262031D01*
X146230000Y-92304504D01*
X146230000Y-92304503D01*
X146730000Y-92304503D01*
X146876195Y-92262031D01*
X146896538Y-92250000D01*
X154741210Y-92250000D01*
X154742854Y-92270910D01*
X154787968Y-92426195D01*
X154870278Y-92565374D01*
X154870285Y-92565383D01*
X154984616Y-92679714D01*
X154984625Y-92679721D01*
X155123804Y-92762031D01*
X155270000Y-92804504D01*
X155270000Y-92250000D01*
X154741210Y-92250000D01*
X146896538Y-92250000D01*
X147015374Y-92179721D01*
X147015383Y-92179714D01*
X147129714Y-92065383D01*
X147129721Y-92065374D01*
X147212031Y-91926195D01*
X147212033Y-91926190D01*
X147257144Y-91770918D01*
X147257145Y-91770912D01*
X147258790Y-91750000D01*
X146730000Y-91750000D01*
X146730000Y-92304503D01*
X146230000Y-92304503D01*
X146230000Y-91749999D01*
X154741209Y-91749999D01*
X154741210Y-91750000D01*
X155270000Y-91750000D01*
X155270000Y-91195494D01*
X155269998Y-91195493D01*
X155123809Y-91237965D01*
X155123806Y-91237967D01*
X154984625Y-91320278D01*
X154984616Y-91320285D01*
X154870285Y-91434616D01*
X154870278Y-91434625D01*
X154787968Y-91573804D01*
X154787966Y-91573809D01*
X154742855Y-91729081D01*
X154742854Y-91729087D01*
X154741209Y-91749999D01*
X146230000Y-91749999D01*
X146230000Y-90695494D01*
X146730000Y-90695494D01*
X146730000Y-91250000D01*
X147258790Y-91250000D01*
X147257145Y-91229089D01*
X147212031Y-91073804D01*
X147129721Y-90934625D01*
X147129714Y-90934616D01*
X147015383Y-90820285D01*
X147015374Y-90820278D01*
X146876193Y-90737967D01*
X146876190Y-90737965D01*
X146730001Y-90695493D01*
X146730000Y-90695494D01*
X146230000Y-90695494D01*
X146229998Y-90695493D01*
X146161352Y-90715437D01*
X146091482Y-90715238D01*
X146032812Y-90677296D01*
X146028383Y-90671850D01*
X146028283Y-90671719D01*
X146012360Y-90659501D01*
X145902841Y-90575464D01*
X145756762Y-90514956D01*
X145756760Y-90514955D01*
X145600001Y-90494318D01*
X145599999Y-90494318D01*
X145443239Y-90514955D01*
X145443237Y-90514956D01*
X145297160Y-90575463D01*
X145295810Y-90576499D01*
X145171718Y-90671718D01*
X145171717Y-90671719D01*
X145171716Y-90671720D01*
X145122874Y-90735372D01*
X145066446Y-90776574D01*
X144996700Y-90780729D01*
X144935780Y-90746516D01*
X144903028Y-90684799D01*
X144900499Y-90659885D01*
X144900499Y-90568482D01*
X144885646Y-90474696D01*
X144863530Y-90431292D01*
X144850635Y-90362626D01*
X144863532Y-90318704D01*
X144885646Y-90275304D01*
X144885646Y-90275302D01*
X144885647Y-90275301D01*
X144900499Y-90181524D01*
X144900500Y-90181519D01*
X144900499Y-90005758D01*
X144920183Y-89938720D01*
X144926123Y-89930272D01*
X145024100Y-89802586D01*
X145084555Y-89656631D01*
X145092012Y-89600000D01*
X144725033Y-89600000D01*
X144668738Y-89586485D01*
X144625301Y-89564352D01*
X144531524Y-89549500D01*
X143193482Y-89549500D01*
X143099695Y-89564354D01*
X143056261Y-89586485D01*
X142999967Y-89600000D01*
X142632990Y-89600000D01*
X142632988Y-89600001D01*
X142640442Y-89656627D01*
X142640444Y-89656633D01*
X142700900Y-89802587D01*
X142702754Y-89805004D01*
X142703684Y-89807410D01*
X142704965Y-89809629D01*
X142704618Y-89809828D01*
X142727945Y-89870174D01*
X142713905Y-89938619D01*
X142692056Y-89968168D01*
X141276499Y-91383728D01*
X141208728Y-91451498D01*
X141208724Y-91451503D01*
X141160807Y-91534499D01*
X141160807Y-91534500D01*
X141160806Y-91534502D01*
X141136000Y-91627079D01*
X141136000Y-91627081D01*
X141136000Y-92883246D01*
X141116315Y-92950285D01*
X141085634Y-92983016D01*
X141003576Y-93043576D01*
X140925618Y-93149207D01*
X140882258Y-93273118D01*
X140882258Y-93273120D01*
X140879500Y-93302538D01*
X140879500Y-93677453D01*
X140882258Y-93706874D01*
X140882260Y-93706884D01*
X140925619Y-93830794D01*
X140925619Y-93830795D01*
X140996154Y-93926367D01*
X141020125Y-93991996D01*
X141004809Y-94060166D01*
X140996154Y-94073633D01*
X140925619Y-94169204D01*
X140925619Y-94169205D01*
X140882258Y-94293118D01*
X140882258Y-94293120D01*
X140879500Y-94322538D01*
X140879500Y-94697453D01*
X140882258Y-94726874D01*
X140882260Y-94726884D01*
X140925619Y-94850794D01*
X140925619Y-94850795D01*
X140995011Y-94944818D01*
X141018982Y-95010447D01*
X141003666Y-95078617D01*
X140995012Y-95092084D01*
X140936147Y-95171844D01*
X140892291Y-95297173D01*
X140892289Y-95297185D01*
X140889500Y-95326929D01*
X140889500Y-95713070D01*
X140892289Y-95742814D01*
X140892290Y-95742822D01*
X140900200Y-95765426D01*
X140903761Y-95835205D01*
X140870841Y-95894060D01*
X140837682Y-95927220D01*
X140776359Y-95960706D01*
X140706667Y-95955722D01*
X140662316Y-95927220D01*
X140629157Y-95894060D01*
X140595673Y-95832736D01*
X140599799Y-95765426D01*
X140607710Y-95742819D01*
X140610028Y-95718102D01*
X140610500Y-95713070D01*
X140610500Y-95326929D01*
X140607710Y-95297185D01*
X140607710Y-95297181D01*
X140607708Y-95297177D01*
X140607708Y-95297173D01*
X140563852Y-95171842D01*
X140563851Y-95171841D01*
X140504988Y-95092084D01*
X140481017Y-95026455D01*
X140496333Y-94958285D01*
X140504983Y-94944823D01*
X140574381Y-94850794D01*
X140596061Y-94788836D01*
X140617741Y-94726881D01*
X140617741Y-94726879D01*
X140618678Y-94716884D01*
X140620500Y-94697457D01*
X140620499Y-94322544D01*
X140617741Y-94293121D01*
X140614241Y-94283120D01*
X140574381Y-94169207D01*
X140574381Y-94169206D01*
X140503844Y-94073632D01*
X140479874Y-94008005D01*
X140495189Y-93939835D01*
X140503842Y-93926370D01*
X140574381Y-93830794D01*
X140611811Y-93723827D01*
X140617741Y-93706881D01*
X140617741Y-93706879D01*
X140618409Y-93699757D01*
X140620500Y-93677457D01*
X140620499Y-93302544D01*
X140617741Y-93273121D01*
X140574381Y-93149206D01*
X140506614Y-93057385D01*
X140496423Y-93043576D01*
X140414366Y-92983016D01*
X140372116Y-92927369D01*
X140364000Y-92883246D01*
X140364000Y-91127081D01*
X140364000Y-91127079D01*
X140339194Y-91034502D01*
X140291273Y-90951500D01*
X140223501Y-90883728D01*
X139823976Y-90484203D01*
X139790491Y-90422880D01*
X139795475Y-90353188D01*
X139837347Y-90297255D01*
X139864201Y-90281962D01*
X140002841Y-90224536D01*
X140128282Y-90128282D01*
X140224536Y-90002841D01*
X140285044Y-89856762D01*
X140305682Y-89700000D01*
X140299972Y-89656631D01*
X140286824Y-89556760D01*
X140285044Y-89543238D01*
X140224536Y-89397159D01*
X140128282Y-89271718D01*
X140002841Y-89175464D01*
X139856762Y-89114956D01*
X139856760Y-89114955D01*
X139691943Y-89093257D01*
X139692245Y-89090962D01*
X139642770Y-89077705D01*
X139592003Y-89048395D01*
X139554589Y-89026793D01*
X139503657Y-89013146D01*
X139452727Y-88999500D01*
X139452726Y-88999500D01*
X139439634Y-88999500D01*
X139372595Y-88979815D01*
X139326840Y-88927011D01*
X139316896Y-88857853D01*
X139345921Y-88794297D01*
X139351953Y-88787819D01*
X139791273Y-88348500D01*
X139839194Y-88265498D01*
X139864000Y-88172921D01*
X139864000Y-88077077D01*
X139864000Y-87156754D01*
X139883685Y-87089715D01*
X139914366Y-87056984D01*
X139996423Y-86996423D01*
X140003803Y-86986423D01*
X140074381Y-86890794D01*
X140103201Y-86808431D01*
X140117741Y-86766881D01*
X140117741Y-86766879D01*
X140119617Y-86746874D01*
X140120500Y-86737457D01*
X140120499Y-86362544D01*
X140117741Y-86333121D01*
X140114241Y-86323120D01*
X140100679Y-86284361D01*
X140074381Y-86209206D01*
X140003844Y-86113632D01*
X139979874Y-86048005D01*
X139995189Y-85979835D01*
X140003842Y-85966370D01*
X140074381Y-85870794D01*
X140096061Y-85808836D01*
X140117741Y-85746881D01*
X140117741Y-85746879D01*
X140119617Y-85726874D01*
X140120500Y-85717457D01*
X140120499Y-85475635D01*
X140140183Y-85408596D01*
X140156813Y-85387959D01*
X140571455Y-84973319D01*
X140632778Y-84939834D01*
X140659136Y-84937000D01*
X140858745Y-84937000D01*
X140925784Y-84956685D01*
X140971539Y-85009489D01*
X140981483Y-85078647D01*
X140958515Y-85134633D01*
X140955140Y-85139207D01*
X140925618Y-85179207D01*
X140882258Y-85303118D01*
X140882258Y-85303120D01*
X140879500Y-85332538D01*
X140879500Y-85707453D01*
X140882258Y-85736874D01*
X140882260Y-85736884D01*
X140925619Y-85860794D01*
X140925619Y-85860795D01*
X140996154Y-85956367D01*
X141020125Y-86021996D01*
X141004809Y-86090166D01*
X140996154Y-86103633D01*
X140925619Y-86199204D01*
X140925619Y-86199205D01*
X140882258Y-86323118D01*
X140882258Y-86323120D01*
X140879500Y-86352538D01*
X140879500Y-86727453D01*
X140882258Y-86756874D01*
X140882260Y-86756884D01*
X140925618Y-86880792D01*
X140925619Y-86880794D01*
X140950761Y-86914860D01*
X141003576Y-86986423D01*
X141085634Y-87046984D01*
X141127884Y-87102631D01*
X141136000Y-87146754D01*
X141136000Y-87172921D01*
X141160806Y-87265498D01*
X141160807Y-87265499D01*
X141160807Y-87265500D01*
X141208724Y-87348496D01*
X141208728Y-87348501D01*
X142692057Y-88831830D01*
X142725542Y-88893153D01*
X142720558Y-88962845D01*
X142702757Y-88994990D01*
X142700903Y-88997405D01*
X142700900Y-88997410D01*
X142640444Y-89143368D01*
X142632987Y-89200000D01*
X142999967Y-89200000D01*
X143056262Y-89213515D01*
X143099698Y-89235647D01*
X143193475Y-89250499D01*
X143193481Y-89250500D01*
X144531518Y-89250499D01*
X144625304Y-89235646D01*
X144657750Y-89219113D01*
X144668739Y-89213515D01*
X144725033Y-89200000D01*
X145092010Y-89200000D01*
X145092011Y-89199998D01*
X145084557Y-89143372D01*
X145084555Y-89143366D01*
X145024100Y-88997412D01*
X145024098Y-88997410D01*
X144926123Y-88869726D01*
X144900929Y-88804557D01*
X144900499Y-88794256D01*
X144900499Y-88618482D01*
X144885646Y-88524696D01*
X144863530Y-88481292D01*
X144850635Y-88412626D01*
X144863532Y-88368704D01*
X144873826Y-88348501D01*
X144885646Y-88325304D01*
X144885646Y-88325302D01*
X144885647Y-88325301D01*
X144900499Y-88231524D01*
X144900500Y-88231519D01*
X144900499Y-87968482D01*
X144885646Y-87874696D01*
X144828050Y-87761658D01*
X144828046Y-87761654D01*
X144828045Y-87761652D01*
X144738347Y-87671954D01*
X144738344Y-87671952D01*
X144738342Y-87671950D01*
X144661517Y-87632805D01*
X144625301Y-87614352D01*
X144531524Y-87599500D01*
X143193481Y-87599500D01*
X143101177Y-87614119D01*
X143031884Y-87605163D01*
X142994100Y-87579326D01*
X142900319Y-87485545D01*
X142866834Y-87424222D01*
X142864000Y-87397864D01*
X142864000Y-87156754D01*
X142883685Y-87089715D01*
X142914366Y-87056984D01*
X142996423Y-86996423D01*
X143003803Y-86986423D01*
X143074381Y-86890794D01*
X143103201Y-86808431D01*
X143117741Y-86766881D01*
X143117741Y-86766879D01*
X143119617Y-86746874D01*
X143120500Y-86737457D01*
X143120499Y-86362544D01*
X143117741Y-86333121D01*
X143114241Y-86323120D01*
X143100679Y-86284361D01*
X143074381Y-86209206D01*
X143003844Y-86113632D01*
X142979874Y-86048005D01*
X142995189Y-85979835D01*
X143003842Y-85966370D01*
X143074381Y-85870794D01*
X143096061Y-85808836D01*
X143117741Y-85746881D01*
X143117741Y-85746879D01*
X143119617Y-85726874D01*
X143120500Y-85717457D01*
X143120499Y-85387999D01*
X143140183Y-85320961D01*
X143192987Y-85275206D01*
X143244499Y-85264000D01*
X158147919Y-85264000D01*
X158147922Y-85264000D01*
X158240499Y-85239194D01*
X158323501Y-85191273D01*
X158832053Y-84682719D01*
X158893374Y-84649236D01*
X158963065Y-84654220D01*
G37*
%TD.AperFunction*%
%TA.AperFunction,Conductor*%
G36*
X141652539Y-96249685D02*
G01*
X141698294Y-96302489D01*
X141709500Y-96354000D01*
X141709500Y-100617452D01*
X141709500Y-100713296D01*
X141734306Y-100805873D01*
X141734307Y-100805874D01*
X141734307Y-100805875D01*
X141782224Y-100888871D01*
X141782228Y-100888876D01*
X142431171Y-101537819D01*
X142464656Y-101599142D01*
X142459672Y-101668834D01*
X142417800Y-101724767D01*
X142352336Y-101749184D01*
X142343490Y-101749500D01*
X141981898Y-101749500D01*
X141942853Y-101754188D01*
X141893438Y-101760122D01*
X141752656Y-101815639D01*
X141632077Y-101907077D01*
X141540639Y-102027656D01*
X141485122Y-102168438D01*
X141480099Y-102210274D01*
X141474500Y-102256898D01*
X141474500Y-102843102D01*
X141477190Y-102865500D01*
X141485122Y-102931561D01*
X141485122Y-102931563D01*
X141485123Y-102931564D01*
X141498022Y-102964274D01*
X141540639Y-103072343D01*
X141632077Y-103192922D01*
X141759416Y-103289486D01*
X141758028Y-103291315D01*
X141798315Y-103332618D01*
X141812316Y-103401071D01*
X141787087Y-103466226D01*
X141730636Y-103507398D01*
X141727759Y-103508391D01*
X141705882Y-103515640D01*
X141705875Y-103515643D01*
X141556654Y-103607684D01*
X141432684Y-103731654D01*
X141340643Y-103880875D01*
X141340641Y-103880880D01*
X141285494Y-104047302D01*
X141285493Y-104047309D01*
X141275000Y-104150013D01*
X141275000Y-104200000D01*
X142626000Y-104200000D01*
X142693039Y-104219685D01*
X142738794Y-104272489D01*
X142750000Y-104324000D01*
X142750000Y-105449999D01*
X143024972Y-105449999D01*
X143024986Y-105449998D01*
X143127697Y-105439505D01*
X143294119Y-105384358D01*
X143294130Y-105384353D01*
X143442897Y-105292592D01*
X143510289Y-105274151D01*
X143576953Y-105295073D01*
X143595675Y-105310449D01*
X144208727Y-105923501D01*
X144276499Y-105991273D01*
X144276500Y-105991274D01*
X144276502Y-105991275D01*
X144318000Y-106015233D01*
X144359501Y-106039194D01*
X144452078Y-106064000D01*
X145632863Y-106064000D01*
X145699902Y-106083685D01*
X145720544Y-106100319D01*
X146108044Y-106487819D01*
X146141529Y-106549142D01*
X146136545Y-106618834D01*
X146094673Y-106674767D01*
X146029209Y-106699184D01*
X146020363Y-106699500D01*
X145660730Y-106699500D01*
X145630300Y-106702353D01*
X145630298Y-106702353D01*
X145502119Y-106747206D01*
X145502117Y-106747207D01*
X145392850Y-106827850D01*
X145329770Y-106913321D01*
X145274123Y-106955571D01*
X145204466Y-106961030D01*
X145142917Y-106927962D01*
X145130230Y-106913321D01*
X145122384Y-106902690D01*
X145067150Y-106827850D01*
X144957882Y-106747207D01*
X144957880Y-106747206D01*
X144829700Y-106702353D01*
X144799270Y-106699500D01*
X144799266Y-106699500D01*
X144390734Y-106699500D01*
X144390730Y-106699500D01*
X144360300Y-106702353D01*
X144360298Y-106702353D01*
X144232119Y-106747206D01*
X144232117Y-106747207D01*
X144122850Y-106827850D01*
X144042207Y-106937117D01*
X144042206Y-106937119D01*
X143997353Y-107065298D01*
X143997353Y-107065300D01*
X143994500Y-107095730D01*
X143994500Y-108854269D01*
X143997353Y-108884699D01*
X143997353Y-108884701D01*
X144045276Y-109021653D01*
X144042456Y-109022639D01*
X144052500Y-109063109D01*
X144052500Y-110017000D01*
X144032815Y-110084039D01*
X143980011Y-110129794D01*
X143928500Y-110141000D01*
X142347078Y-110141000D01*
X142254501Y-110165806D01*
X142254499Y-110165807D01*
X142254498Y-110165807D01*
X142183360Y-110206879D01*
X142172644Y-110213066D01*
X142172159Y-110213345D01*
X142171498Y-110213727D01*
X141008728Y-111376497D01*
X141008724Y-111376502D01*
X140960807Y-111459498D01*
X140960807Y-111459499D01*
X140960806Y-111459501D01*
X140936000Y-111552078D01*
X140936000Y-111552080D01*
X140936000Y-112413223D01*
X140916315Y-112480262D01*
X140887489Y-112511596D01*
X140850120Y-112540271D01*
X140841718Y-112546718D01*
X140745463Y-112672160D01*
X140684956Y-112818237D01*
X140684955Y-112818239D01*
X140664318Y-112974998D01*
X140664318Y-112975001D01*
X140684955Y-113131760D01*
X140684956Y-113131762D01*
X140740671Y-113266271D01*
X140745464Y-113277841D01*
X140841718Y-113403282D01*
X140841720Y-113403284D01*
X140855197Y-113413625D01*
X140896400Y-113470053D01*
X140900554Y-113539799D01*
X140866341Y-113600719D01*
X140804623Y-113633471D01*
X140779710Y-113636000D01*
X139422137Y-113636000D01*
X139355098Y-113616315D01*
X139334456Y-113599681D01*
X137712798Y-111978023D01*
X137679313Y-111916700D01*
X137684297Y-111847008D01*
X137726169Y-111791075D01*
X137779385Y-111771025D01*
X137778889Y-111768306D01*
X137785129Y-111767166D01*
X137939188Y-111722407D01*
X137939191Y-111722406D01*
X138077285Y-111640738D01*
X138077294Y-111640731D01*
X138190731Y-111527294D01*
X138190738Y-111527285D01*
X138272404Y-111389194D01*
X138312844Y-111250000D01*
X137374000Y-111250000D01*
X137306961Y-111230315D01*
X137261206Y-111177511D01*
X137250000Y-111126000D01*
X137250000Y-110874000D01*
X137269685Y-110806961D01*
X137322489Y-110761206D01*
X137374000Y-110750000D01*
X138312844Y-110750000D01*
X138272404Y-110610805D01*
X138190738Y-110472714D01*
X138190734Y-110472709D01*
X138120256Y-110402232D01*
X138086771Y-110340909D01*
X138090895Y-110273598D01*
X138117741Y-110196879D01*
X138120500Y-110167457D01*
X138120499Y-109792544D01*
X138117741Y-109763121D01*
X138074381Y-109639206D01*
X138006380Y-109547068D01*
X137996423Y-109533576D01*
X137883317Y-109450101D01*
X137885238Y-109447498D01*
X137846823Y-109410096D01*
X137831061Y-109342028D01*
X137854601Y-109276243D01*
X137909970Y-109233628D01*
X137913836Y-109232201D01*
X137997882Y-109202793D01*
X138107150Y-109122150D01*
X138170231Y-109036677D01*
X138225877Y-108994428D01*
X138295533Y-108988969D01*
X138357083Y-109022036D01*
X138369763Y-109036670D01*
X138432850Y-109122150D01*
X138542118Y-109202793D01*
X138574995Y-109214297D01*
X138670299Y-109247646D01*
X138700730Y-109250500D01*
X138700734Y-109250500D01*
X139109270Y-109250500D01*
X139139699Y-109247646D01*
X139139701Y-109247646D01*
X139211488Y-109222526D01*
X139267882Y-109202793D01*
X139377150Y-109122150D01*
X139457793Y-109012882D01*
X139489474Y-108922342D01*
X139502646Y-108884701D01*
X139502646Y-108884699D01*
X139505500Y-108854269D01*
X139505500Y-108747710D01*
X139525185Y-108680671D01*
X139577989Y-108634916D01*
X139582048Y-108633149D01*
X139592584Y-108628784D01*
X139602841Y-108624536D01*
X139728282Y-108528282D01*
X139752124Y-108497209D01*
X139808552Y-108456007D01*
X139878298Y-108451852D01*
X139939218Y-108486064D01*
X139971971Y-108547781D01*
X139974500Y-108572696D01*
X139974500Y-108743102D01*
X139980126Y-108789954D01*
X139985122Y-108831561D01*
X139985122Y-108831563D01*
X139985123Y-108831564D01*
X139987065Y-108836489D01*
X140040639Y-108972343D01*
X140132077Y-109092922D01*
X140252656Y-109184360D01*
X140252657Y-109184360D01*
X140252658Y-109184361D01*
X140393436Y-109239877D01*
X140481898Y-109250500D01*
X140481903Y-109250500D01*
X141518097Y-109250500D01*
X141518102Y-109250500D01*
X141606564Y-109239877D01*
X141747342Y-109184361D01*
X141867922Y-109092922D01*
X141891074Y-109062390D01*
X141914392Y-109038939D01*
X141928282Y-109028282D01*
X141931157Y-109024536D01*
X142019272Y-108909701D01*
X142024536Y-108902841D01*
X142085044Y-108756762D01*
X142105682Y-108600000D01*
X142102087Y-108572696D01*
X142085044Y-108443239D01*
X142085042Y-108443234D01*
X142034939Y-108322272D01*
X142025500Y-108274820D01*
X142025500Y-108156903D01*
X142025500Y-108156898D01*
X142014877Y-108068436D01*
X141959361Y-107927658D01*
X141959360Y-107927657D01*
X141959360Y-107927656D01*
X141867922Y-107807077D01*
X141740584Y-107710514D01*
X141741970Y-107708685D01*
X141701679Y-107667372D01*
X141687683Y-107598919D01*
X141712918Y-107533765D01*
X141769372Y-107492598D01*
X141772245Y-107491606D01*
X141794122Y-107484356D01*
X141794124Y-107484356D01*
X141943345Y-107392315D01*
X142067315Y-107268345D01*
X142159356Y-107119124D01*
X142159358Y-107119119D01*
X142214505Y-106952697D01*
X142214506Y-106952690D01*
X142224999Y-106849986D01*
X142225000Y-106849973D01*
X142225000Y-106800000D01*
X139775001Y-106800000D01*
X139775001Y-106849986D01*
X139785494Y-106952697D01*
X139840641Y-107119119D01*
X139840643Y-107119124D01*
X139932684Y-107268345D01*
X140056654Y-107392315D01*
X140205876Y-107484356D01*
X140227755Y-107491606D01*
X140285201Y-107531378D01*
X140312025Y-107595893D01*
X140299711Y-107664669D01*
X140258393Y-107709166D01*
X140259416Y-107710514D01*
X140132076Y-107807078D01*
X140066466Y-107893598D01*
X140010274Y-107935121D01*
X139940552Y-107939672D01*
X139879438Y-107905807D01*
X139853102Y-107866124D01*
X139843622Y-107843238D01*
X139824536Y-107797159D01*
X139728282Y-107671718D01*
X139728280Y-107671717D01*
X139728280Y-107671716D01*
X139602842Y-107575464D01*
X139582042Y-107566848D01*
X139527641Y-107523004D01*
X139505579Y-107456709D01*
X139505500Y-107452289D01*
X139505500Y-107095730D01*
X139502646Y-107065300D01*
X139502646Y-107065298D01*
X139457793Y-106937119D01*
X139457792Y-106937117D01*
X139377150Y-106827850D01*
X139267882Y-106747207D01*
X139267880Y-106747206D01*
X139139700Y-106702353D01*
X139109270Y-106699500D01*
X139109266Y-106699500D01*
X138700734Y-106699500D01*
X138700730Y-106699500D01*
X138670300Y-106702353D01*
X138670298Y-106702353D01*
X138542119Y-106747206D01*
X138542117Y-106747207D01*
X138432850Y-106827850D01*
X138369770Y-106913321D01*
X138314123Y-106955571D01*
X138244466Y-106961030D01*
X138182917Y-106927962D01*
X138170230Y-106913321D01*
X138107149Y-106827849D01*
X138049365Y-106785202D01*
X138007115Y-106729555D01*
X137999000Y-106685433D01*
X137999000Y-106250013D01*
X139775000Y-106250013D01*
X139775000Y-106300000D01*
X140750000Y-106300000D01*
X140750000Y-105550000D01*
X141250000Y-105550000D01*
X141250000Y-106300000D01*
X142224999Y-106300000D01*
X142224999Y-106250028D01*
X142224998Y-106250013D01*
X142214505Y-106147302D01*
X142159358Y-105980880D01*
X142159356Y-105980875D01*
X142067315Y-105831654D01*
X141943343Y-105707682D01*
X141896544Y-105678816D01*
X141849820Y-105626868D01*
X141838599Y-105557905D01*
X141866443Y-105493823D01*
X141924512Y-105454968D01*
X141971846Y-105450168D01*
X141971863Y-105449839D01*
X141974017Y-105449948D01*
X141974270Y-105449923D01*
X141975022Y-105449999D01*
X142249999Y-105449999D01*
X142250000Y-105449998D01*
X142250000Y-104700000D01*
X141275001Y-104700000D01*
X141275001Y-104749986D01*
X141285494Y-104852697D01*
X141340641Y-105019119D01*
X141340643Y-105019124D01*
X141432684Y-105168345D01*
X141556655Y-105292316D01*
X141556659Y-105292319D01*
X141603454Y-105321183D01*
X141650179Y-105373131D01*
X141661400Y-105442093D01*
X141633557Y-105506175D01*
X141575488Y-105545031D01*
X141528152Y-105549835D01*
X141528136Y-105550161D01*
X141526013Y-105550052D01*
X141525757Y-105550079D01*
X141524993Y-105550001D01*
X141524974Y-105550000D01*
X141250000Y-105550000D01*
X140750000Y-105550000D01*
X140475029Y-105550000D01*
X140475012Y-105550001D01*
X140372302Y-105560494D01*
X140205880Y-105615641D01*
X140205875Y-105615643D01*
X140056654Y-105707684D01*
X139932684Y-105831654D01*
X139840643Y-105980875D01*
X139840641Y-105980880D01*
X139785494Y-106147302D01*
X139785493Y-106147309D01*
X139775000Y-106250013D01*
X137999000Y-106250013D01*
X137999000Y-106061070D01*
X138018685Y-105994031D01*
X138035319Y-105973389D01*
X139105869Y-104902839D01*
X140201773Y-103806935D01*
X140249694Y-103723933D01*
X140274500Y-103631356D01*
X140274500Y-103535512D01*
X140274500Y-99362578D01*
X140249694Y-99270001D01*
X140220865Y-99220068D01*
X140201775Y-99187002D01*
X140201771Y-99186997D01*
X139700319Y-98685545D01*
X139666834Y-98624222D01*
X139664000Y-98597864D01*
X139664000Y-97386161D01*
X139683685Y-97319122D01*
X139710462Y-97295919D01*
X139710174Y-97295607D01*
X139750000Y-97258790D01*
X139750000Y-97258789D01*
X140250000Y-97258789D01*
X140270910Y-97257145D01*
X140426195Y-97212031D01*
X140565374Y-97129721D01*
X140565383Y-97129714D01*
X140662319Y-97032779D01*
X140723642Y-96999294D01*
X140793334Y-97004278D01*
X140837681Y-97032779D01*
X140934616Y-97129714D01*
X140934625Y-97129721D01*
X141073804Y-97212031D01*
X141229089Y-97257145D01*
X141250000Y-97258789D01*
X141250000Y-96730000D01*
X140250000Y-96730000D01*
X140250000Y-97258789D01*
X139750000Y-97258789D01*
X139750000Y-96730000D01*
X139734203Y-96714203D01*
X139720961Y-96710315D01*
X139675206Y-96657511D01*
X139664000Y-96606000D01*
X139664000Y-96422135D01*
X139683685Y-96355096D01*
X139700319Y-96334454D01*
X139768454Y-96266319D01*
X139829777Y-96232834D01*
X139856135Y-96230000D01*
X141585500Y-96230000D01*
X141652539Y-96249685D01*
G37*
%TD.AperFunction*%
%TA.AperFunction,Conductor*%
G36*
X144322539Y-110888685D02*
G01*
X144368294Y-110941489D01*
X144379500Y-110992999D01*
X144379500Y-111197453D01*
X144382258Y-111226874D01*
X144382260Y-111226884D01*
X144421799Y-111339877D01*
X144425619Y-111350794D01*
X144450761Y-111384860D01*
X144503576Y-111456423D01*
X144554970Y-111494353D01*
X144609206Y-111534381D01*
X144635998Y-111543756D01*
X144733119Y-111577741D01*
X144740796Y-111578460D01*
X144762543Y-111580500D01*
X145237456Y-111580499D01*
X145266879Y-111577741D01*
X145293145Y-111568549D01*
X145362923Y-111564986D01*
X145423551Y-111599713D01*
X145448663Y-111638138D01*
X145475462Y-111702838D01*
X145475463Y-111702840D01*
X145475464Y-111702841D01*
X145571718Y-111828282D01*
X145571720Y-111828283D01*
X145571722Y-111828286D01*
X145576650Y-111833214D01*
X145610135Y-111894537D01*
X145605151Y-111964229D01*
X145576650Y-112008576D01*
X143985545Y-113599681D01*
X143924222Y-113633166D01*
X143897864Y-113636000D01*
X141760290Y-113636000D01*
X141693251Y-113616315D01*
X141647496Y-113563511D01*
X141637552Y-113494353D01*
X141666577Y-113430797D01*
X141684803Y-113413625D01*
X141698279Y-113403284D01*
X141698278Y-113403284D01*
X141698282Y-113403282D01*
X141794536Y-113277841D01*
X141855044Y-113131762D01*
X141875682Y-112975000D01*
X141855044Y-112818238D01*
X141794536Y-112672159D01*
X141698282Y-112546718D01*
X141698279Y-112546716D01*
X141693334Y-112540271D01*
X141694989Y-112539000D01*
X141666830Y-112487415D01*
X141664000Y-112461073D01*
X141664000Y-111802136D01*
X141683685Y-111735097D01*
X141700319Y-111714455D01*
X142509455Y-110905319D01*
X142570778Y-110871834D01*
X142597136Y-110869000D01*
X144255500Y-110869000D01*
X144322539Y-110888685D01*
G37*
%TD.AperFunction*%
%TA.AperFunction,Conductor*%
G36*
X161652539Y-96249685D02*
G01*
X161698294Y-96302489D01*
X161709500Y-96354000D01*
X161709500Y-101632702D01*
X161689815Y-101699741D01*
X161637011Y-101745496D01*
X161570718Y-101755818D01*
X161541868Y-101752354D01*
X161518102Y-101749500D01*
X160481898Y-101749500D01*
X160442853Y-101754188D01*
X160393438Y-101760122D01*
X160252656Y-101815639D01*
X160132077Y-101907077D01*
X160040639Y-102027656D01*
X159985122Y-102168438D01*
X159980099Y-102210274D01*
X159974500Y-102256898D01*
X159974500Y-102843102D01*
X159977190Y-102865500D01*
X159985122Y-102931561D01*
X159985122Y-102931563D01*
X159985123Y-102931564D01*
X159998022Y-102964274D01*
X160040639Y-103072343D01*
X160132077Y-103192922D01*
X160259416Y-103289486D01*
X160258028Y-103291315D01*
X160298315Y-103332618D01*
X160312316Y-103401071D01*
X160287087Y-103466226D01*
X160230636Y-103507398D01*
X160227759Y-103508391D01*
X160205882Y-103515640D01*
X160205875Y-103515643D01*
X160056654Y-103607684D01*
X159932684Y-103731654D01*
X159840643Y-103880875D01*
X159840641Y-103880880D01*
X159785494Y-104047302D01*
X159785493Y-104047309D01*
X159775000Y-104150013D01*
X159775000Y-104200000D01*
X161126000Y-104200000D01*
X161193039Y-104219685D01*
X161238794Y-104272489D01*
X161250000Y-104324000D01*
X161250000Y-105449999D01*
X161524972Y-105449999D01*
X161524986Y-105449998D01*
X161627697Y-105439505D01*
X161794119Y-105384358D01*
X161794124Y-105384356D01*
X161943345Y-105292315D01*
X162072424Y-105163237D01*
X162074697Y-105165510D01*
X162119837Y-105133362D01*
X162189628Y-105130032D01*
X162248084Y-105162858D01*
X163476499Y-106391273D01*
X163559501Y-106439194D01*
X163652078Y-106464000D01*
X163747922Y-106464000D01*
X164497864Y-106464000D01*
X164564903Y-106483685D01*
X164585545Y-106500319D01*
X164598045Y-106512819D01*
X164631530Y-106574142D01*
X164626546Y-106643834D01*
X164584674Y-106699767D01*
X164519210Y-106724184D01*
X164510364Y-106724500D01*
X164160730Y-106724500D01*
X164130300Y-106727353D01*
X164130298Y-106727353D01*
X164002119Y-106772206D01*
X164002117Y-106772207D01*
X163950636Y-106810202D01*
X163892850Y-106852850D01*
X163830659Y-106937117D01*
X163829770Y-106938321D01*
X163774123Y-106980571D01*
X163704466Y-106986030D01*
X163642917Y-106952962D01*
X163630230Y-106938321D01*
X163629342Y-106937118D01*
X163567150Y-106852850D01*
X163457882Y-106772207D01*
X163457880Y-106772206D01*
X163329700Y-106727353D01*
X163299270Y-106724500D01*
X163299266Y-106724500D01*
X162890734Y-106724500D01*
X162890730Y-106724500D01*
X162860300Y-106727353D01*
X162860298Y-106727353D01*
X162732119Y-106772206D01*
X162732117Y-106772207D01*
X162622850Y-106852850D01*
X162542207Y-106962117D01*
X162542206Y-106962119D01*
X162497353Y-107090298D01*
X162497353Y-107090300D01*
X162494500Y-107120730D01*
X162494500Y-108059256D01*
X162477887Y-108121256D01*
X162455808Y-108159497D01*
X162455808Y-108159498D01*
X162455807Y-108159500D01*
X162431001Y-108252077D01*
X162431001Y-110257079D01*
X162431001Y-110352923D01*
X162455807Y-110445500D01*
X162455808Y-110445501D01*
X162455808Y-110445502D01*
X162503725Y-110528498D01*
X162503729Y-110528503D01*
X162843181Y-110867955D01*
X162876666Y-110929278D01*
X162879500Y-110955635D01*
X162879500Y-111197453D01*
X162882258Y-111226874D01*
X162882260Y-111226884D01*
X162921799Y-111339877D01*
X162925619Y-111350794D01*
X162950761Y-111384860D01*
X163003576Y-111456423D01*
X163085634Y-111516984D01*
X163127884Y-111572631D01*
X163136000Y-111616754D01*
X163136000Y-112297673D01*
X163116315Y-112364712D01*
X163063511Y-112410467D01*
X163059453Y-112412234D01*
X162967160Y-112450463D01*
X162841718Y-112546718D01*
X162745463Y-112672160D01*
X162684956Y-112818237D01*
X162684955Y-112818239D01*
X162672513Y-112912751D01*
X162664318Y-112975000D01*
X162680223Y-113095816D01*
X162669459Y-113164850D01*
X162623079Y-113217106D01*
X162557285Y-113236000D01*
X160640226Y-113236000D01*
X160573187Y-113216315D01*
X160552545Y-113199681D01*
X159061592Y-111708728D01*
X159061587Y-111708724D01*
X158978591Y-111660807D01*
X158978590Y-111660806D01*
X158978589Y-111660806D01*
X158886012Y-111636000D01*
X158886010Y-111636000D01*
X156849754Y-111636000D01*
X156782715Y-111616315D01*
X156736960Y-111563511D01*
X156727016Y-111494353D01*
X156743022Y-111448880D01*
X156772403Y-111399197D01*
X156772404Y-111399195D01*
X156812844Y-111260000D01*
X155874000Y-111260000D01*
X155806961Y-111240315D01*
X155761206Y-111187511D01*
X155750000Y-111136000D01*
X155750000Y-110884000D01*
X155769685Y-110816961D01*
X155822489Y-110771206D01*
X155874000Y-110760000D01*
X156812844Y-110760000D01*
X156772404Y-110620805D01*
X156690738Y-110482714D01*
X156690734Y-110482709D01*
X156620256Y-110412232D01*
X156586771Y-110350909D01*
X156590895Y-110283598D01*
X156617741Y-110206879D01*
X156620500Y-110177457D01*
X156620499Y-109802544D01*
X156617741Y-109773121D01*
X156574381Y-109649206D01*
X156512235Y-109565001D01*
X156496423Y-109543576D01*
X156395409Y-109469025D01*
X156353159Y-109413378D01*
X156347700Y-109343721D01*
X156380768Y-109282172D01*
X156428083Y-109252216D01*
X156497882Y-109227793D01*
X156607150Y-109147150D01*
X156670231Y-109061677D01*
X156725877Y-109019428D01*
X156795533Y-109013969D01*
X156857083Y-109047036D01*
X156869763Y-109061670D01*
X156932850Y-109147150D01*
X157042118Y-109227793D01*
X157054653Y-109232179D01*
X157170299Y-109272646D01*
X157200730Y-109275500D01*
X157200734Y-109275500D01*
X157609270Y-109275500D01*
X157639699Y-109272646D01*
X157639701Y-109272646D01*
X157717049Y-109245580D01*
X157767882Y-109227793D01*
X157877150Y-109147150D01*
X157957793Y-109037882D01*
X157996144Y-108928281D01*
X158002646Y-108909701D01*
X158002646Y-108909699D01*
X158005767Y-108876423D01*
X158031624Y-108811514D01*
X158088470Y-108770889D01*
X158129225Y-108764000D01*
X158393803Y-108764000D01*
X158460842Y-108783685D01*
X158506597Y-108836489D01*
X158509151Y-108842495D01*
X158519162Y-108867880D01*
X158540638Y-108922342D01*
X158632077Y-109042922D01*
X158752656Y-109134360D01*
X158752657Y-109134360D01*
X158752658Y-109134361D01*
X158893436Y-109189877D01*
X158981898Y-109200500D01*
X158981903Y-109200500D01*
X160018097Y-109200500D01*
X160018102Y-109200500D01*
X160106564Y-109189877D01*
X160247342Y-109134361D01*
X160261550Y-109123586D01*
X160326859Y-109098762D01*
X160352655Y-109099448D01*
X160400000Y-109105682D01*
X160556762Y-109085044D01*
X160702841Y-109024536D01*
X160828282Y-108928282D01*
X160924536Y-108802841D01*
X160985044Y-108656762D01*
X161001959Y-108528280D01*
X161005682Y-108500001D01*
X161005682Y-108499998D01*
X160985044Y-108343239D01*
X160985044Y-108343238D01*
X160924536Y-108197159D01*
X160828282Y-108071718D01*
X160702841Y-107975464D01*
X160587422Y-107927656D01*
X160556762Y-107914956D01*
X160531310Y-107911605D01*
X160467414Y-107883337D01*
X160448694Y-107863591D01*
X160367922Y-107757077D01*
X160240584Y-107660514D01*
X160241970Y-107658685D01*
X160201679Y-107617372D01*
X160187683Y-107548919D01*
X160212918Y-107483765D01*
X160269372Y-107442598D01*
X160272245Y-107441606D01*
X160294122Y-107434356D01*
X160294124Y-107434356D01*
X160443345Y-107342315D01*
X160567315Y-107218345D01*
X160659356Y-107069124D01*
X160659358Y-107069119D01*
X160714505Y-106902697D01*
X160714506Y-106902690D01*
X160724999Y-106799986D01*
X160725000Y-106799973D01*
X160725000Y-106750000D01*
X158275001Y-106750000D01*
X158275001Y-106799986D01*
X158285494Y-106902697D01*
X158340641Y-107069119D01*
X158340643Y-107069124D01*
X158432684Y-107218345D01*
X158556654Y-107342315D01*
X158705876Y-107434356D01*
X158727755Y-107441606D01*
X158785201Y-107481378D01*
X158812025Y-107545893D01*
X158799711Y-107614669D01*
X158758393Y-107659166D01*
X158759416Y-107660514D01*
X158632077Y-107757077D01*
X158540638Y-107877657D01*
X158527096Y-107912000D01*
X158514778Y-107943238D01*
X158509158Y-107957489D01*
X158466252Y-108012634D01*
X158400344Y-108035827D01*
X158393803Y-108036000D01*
X158129500Y-108036000D01*
X158062461Y-108016315D01*
X158016706Y-107963511D01*
X158005500Y-107912000D01*
X158005500Y-107120730D01*
X158002646Y-107090300D01*
X158002646Y-107090298D01*
X157957793Y-106962119D01*
X157957792Y-106962117D01*
X157952935Y-106955536D01*
X157877150Y-106852850D01*
X157767882Y-106772207D01*
X157767880Y-106772206D01*
X157639700Y-106727353D01*
X157609270Y-106724500D01*
X157609266Y-106724500D01*
X157200734Y-106724500D01*
X157200730Y-106724500D01*
X157170300Y-106727353D01*
X157170298Y-106727353D01*
X157042119Y-106772206D01*
X157042117Y-106772207D01*
X156990636Y-106810202D01*
X156932850Y-106852850D01*
X156870659Y-106937117D01*
X156869770Y-106938321D01*
X156814123Y-106980571D01*
X156744466Y-106986030D01*
X156682917Y-106952962D01*
X156670230Y-106938321D01*
X156669342Y-106937118D01*
X156607150Y-106852850D01*
X156607149Y-106852849D01*
X156549365Y-106810202D01*
X156507115Y-106754555D01*
X156499000Y-106710433D01*
X156499000Y-106367136D01*
X156518685Y-106300097D01*
X156535319Y-106279455D01*
X156614761Y-106200013D01*
X158275000Y-106200013D01*
X158275000Y-106250000D01*
X159250000Y-106250000D01*
X159250000Y-105500000D01*
X159750000Y-105500000D01*
X159750000Y-106250000D01*
X160724999Y-106250000D01*
X160724999Y-106200028D01*
X160724998Y-106200013D01*
X160714505Y-106097302D01*
X160659358Y-105930880D01*
X160659356Y-105930875D01*
X160567315Y-105781654D01*
X160447341Y-105661680D01*
X160413856Y-105600357D01*
X160418840Y-105530665D01*
X160460712Y-105474732D01*
X160526176Y-105450315D01*
X160535022Y-105449999D01*
X160749999Y-105449999D01*
X160750000Y-105449998D01*
X160750000Y-104700000D01*
X159775001Y-104700000D01*
X159775001Y-104749986D01*
X159785494Y-104852697D01*
X159840641Y-105019119D01*
X159840643Y-105019124D01*
X159932684Y-105168345D01*
X160052658Y-105288319D01*
X160086143Y-105349642D01*
X160081159Y-105419334D01*
X160039287Y-105475267D01*
X159973823Y-105499684D01*
X159964977Y-105500000D01*
X159750000Y-105500000D01*
X159250000Y-105500000D01*
X158975029Y-105500000D01*
X158975012Y-105500001D01*
X158872302Y-105510494D01*
X158705880Y-105565641D01*
X158705875Y-105565643D01*
X158556654Y-105657684D01*
X158432684Y-105781654D01*
X158340643Y-105930875D01*
X158340641Y-105930880D01*
X158285494Y-106097302D01*
X158285493Y-106097309D01*
X158275000Y-106200013D01*
X156614761Y-106200013D01*
X157929731Y-104885043D01*
X159364773Y-103450001D01*
X159412694Y-103366999D01*
X159417115Y-103350500D01*
X159426287Y-103316272D01*
X159426287Y-103316268D01*
X159437501Y-103274422D01*
X159437501Y-103178578D01*
X159437501Y-103170983D01*
X159437500Y-103170965D01*
X159437500Y-97357584D01*
X159457185Y-97290545D01*
X159509989Y-97244790D01*
X159579147Y-97234846D01*
X159596094Y-97238507D01*
X159729089Y-97277145D01*
X159750000Y-97278789D01*
X159750000Y-96750000D01*
X160250000Y-96750000D01*
X160250000Y-97278789D01*
X160270910Y-97277145D01*
X160426195Y-97232031D01*
X160565374Y-97149721D01*
X160565383Y-97149714D01*
X160672319Y-97042779D01*
X160733642Y-97009294D01*
X160803334Y-97014278D01*
X160847681Y-97042779D01*
X160934616Y-97129714D01*
X160934625Y-97129721D01*
X161073804Y-97212031D01*
X161229089Y-97257145D01*
X161250000Y-97258789D01*
X161250000Y-96730000D01*
X160839433Y-96730000D01*
X160807996Y-96747166D01*
X160781638Y-96750000D01*
X160250000Y-96750000D01*
X159750000Y-96750000D01*
X159604136Y-96750000D01*
X159537097Y-96730315D01*
X159491342Y-96677511D01*
X159481398Y-96608353D01*
X159510423Y-96544797D01*
X159516455Y-96538319D01*
X159768455Y-96286319D01*
X159829778Y-96252834D01*
X159856136Y-96250000D01*
X160660567Y-96250000D01*
X160692004Y-96232834D01*
X160718362Y-96230000D01*
X161585500Y-96230000D01*
X161652539Y-96249685D01*
G37*
%TD.AperFunction*%
%TA.AperFunction,Conductor*%
G36*
X168142539Y-71820185D02*
G01*
X168188294Y-71872989D01*
X168199500Y-71924500D01*
X168199500Y-109984156D01*
X168179815Y-110051195D01*
X168127011Y-110096950D01*
X168057853Y-110106894D01*
X167994297Y-110077869D01*
X167963843Y-110034869D01*
X167963519Y-110035052D01*
X167961768Y-110031939D01*
X167960146Y-110029648D01*
X167959361Y-110027657D01*
X167867922Y-109907077D01*
X167747343Y-109815639D01*
X167651192Y-109777722D01*
X167606564Y-109760123D01*
X167606563Y-109760122D01*
X167606561Y-109760122D01*
X167560926Y-109754642D01*
X167518102Y-109749500D01*
X167518097Y-109749500D01*
X167488000Y-109749500D01*
X167420961Y-109729815D01*
X167375206Y-109677011D01*
X167364000Y-109625500D01*
X167364000Y-109205770D01*
X167383685Y-109138731D01*
X167388219Y-109132151D01*
X167457793Y-109037882D01*
X167496144Y-108928281D01*
X167502646Y-108909701D01*
X167502646Y-108909699D01*
X167505500Y-108879269D01*
X167505500Y-108583645D01*
X167525185Y-108516606D01*
X167554014Y-108485269D01*
X167628282Y-108428282D01*
X167724536Y-108302841D01*
X167785044Y-108156762D01*
X167805682Y-108000000D01*
X167800085Y-107957489D01*
X167788057Y-107866124D01*
X167785044Y-107843238D01*
X167724536Y-107697159D01*
X167628282Y-107571718D01*
X167554011Y-107514728D01*
X167512811Y-107458302D01*
X167505500Y-107416354D01*
X167505500Y-107120730D01*
X167502646Y-107090300D01*
X167502646Y-107090298D01*
X167457793Y-106962119D01*
X167457792Y-106962117D01*
X167452935Y-106955536D01*
X167377150Y-106852850D01*
X167267882Y-106772207D01*
X167267880Y-106772206D01*
X167139700Y-106727353D01*
X167109270Y-106724500D01*
X167109266Y-106724500D01*
X166700734Y-106724500D01*
X166700730Y-106724500D01*
X166670300Y-106727353D01*
X166670298Y-106727353D01*
X166542119Y-106772206D01*
X166542117Y-106772207D01*
X166490636Y-106810202D01*
X166432850Y-106852850D01*
X166370659Y-106937117D01*
X166369770Y-106938321D01*
X166314123Y-106980571D01*
X166244466Y-106986030D01*
X166182917Y-106952962D01*
X166170230Y-106938321D01*
X166169342Y-106937118D01*
X166107150Y-106852850D01*
X165997882Y-106772207D01*
X165869699Y-106727354D01*
X165869694Y-106727353D01*
X165862577Y-106724863D01*
X165863010Y-106723623D01*
X165808717Y-106693943D01*
X164923502Y-105808728D01*
X164923497Y-105808724D01*
X164840501Y-105760807D01*
X164840500Y-105760806D01*
X164840499Y-105760806D01*
X164747922Y-105736000D01*
X164747920Y-105736000D01*
X163902136Y-105736000D01*
X163835097Y-105716315D01*
X163814455Y-105699681D01*
X162593668Y-104478894D01*
X162560183Y-104417571D01*
X162565167Y-104347879D01*
X162607039Y-104291946D01*
X162672503Y-104267529D01*
X162722204Y-104277992D01*
X162723348Y-104274724D01*
X162732117Y-104277792D01*
X162732118Y-104277793D01*
X162760029Y-104287559D01*
X162860299Y-104322646D01*
X162890730Y-104325500D01*
X162890734Y-104325500D01*
X163299270Y-104325500D01*
X163329699Y-104322646D01*
X163329701Y-104322646D01*
X163402537Y-104297159D01*
X163457882Y-104277793D01*
X163567150Y-104197150D01*
X163630231Y-104111677D01*
X163685877Y-104069428D01*
X163755533Y-104063969D01*
X163817083Y-104097036D01*
X163829763Y-104111670D01*
X163892850Y-104197150D01*
X163994707Y-104272323D01*
X164028455Y-104310088D01*
X164062311Y-104368727D01*
X164077791Y-104395540D01*
X164076222Y-104396445D01*
X164097758Y-104452158D01*
X164097128Y-104478653D01*
X164094319Y-104499998D01*
X164094318Y-104500002D01*
X164114955Y-104656760D01*
X164114956Y-104656762D01*
X164156376Y-104756760D01*
X164175464Y-104802841D01*
X164271718Y-104928282D01*
X164397159Y-105024536D01*
X164543238Y-105085044D01*
X164621619Y-105095363D01*
X164699999Y-105105682D01*
X164700000Y-105105682D01*
X164700001Y-105105682D01*
X164752254Y-105098802D01*
X164856762Y-105085044D01*
X165002841Y-105024536D01*
X165128282Y-104928282D01*
X165224536Y-104802841D01*
X165285044Y-104656762D01*
X165305682Y-104500000D01*
X165301141Y-104465508D01*
X165311906Y-104396475D01*
X165358286Y-104344219D01*
X165425555Y-104325333D01*
X165429886Y-104325460D01*
X165430728Y-104325499D01*
X165430734Y-104325500D01*
X165430739Y-104325500D01*
X165839270Y-104325500D01*
X165869699Y-104322646D01*
X165869701Y-104322646D01*
X165942537Y-104297159D01*
X165997882Y-104277793D01*
X166107150Y-104197150D01*
X166170231Y-104111677D01*
X166225877Y-104069428D01*
X166295533Y-104063969D01*
X166357083Y-104097036D01*
X166369763Y-104111670D01*
X166432850Y-104197150D01*
X166542118Y-104277793D01*
X166582565Y-104291946D01*
X166670299Y-104322646D01*
X166700730Y-104325500D01*
X166700734Y-104325500D01*
X167109270Y-104325500D01*
X167139699Y-104322646D01*
X167139701Y-104322646D01*
X167212537Y-104297159D01*
X167267882Y-104277793D01*
X167377150Y-104197150D01*
X167457793Y-104087882D01*
X167497130Y-103975464D01*
X167502646Y-103959701D01*
X167502646Y-103959699D01*
X167505500Y-103929269D01*
X167505500Y-102170730D01*
X167502646Y-102140300D01*
X167502646Y-102140298D01*
X167457795Y-102012124D01*
X167457793Y-102012118D01*
X167457788Y-102012112D01*
X167455457Y-102007700D01*
X167441535Y-101939231D01*
X167445310Y-101917672D01*
X167464000Y-101847922D01*
X167464000Y-99572078D01*
X167439194Y-99479501D01*
X167406146Y-99422260D01*
X167391275Y-99396502D01*
X167391271Y-99396497D01*
X163646819Y-95652045D01*
X163613334Y-95590722D01*
X163610500Y-95564364D01*
X163610500Y-95326929D01*
X163607710Y-95297185D01*
X163607710Y-95297181D01*
X163607708Y-95297177D01*
X163607708Y-95297173D01*
X163563852Y-95171842D01*
X163563851Y-95171841D01*
X163501298Y-95087084D01*
X163477327Y-95021455D01*
X163492643Y-94953285D01*
X163501294Y-94939821D01*
X163574381Y-94840794D01*
X163596061Y-94778836D01*
X163617741Y-94716881D01*
X163617741Y-94716879D01*
X163617741Y-94716874D01*
X163620500Y-94687457D01*
X163620499Y-94312544D01*
X163617741Y-94283121D01*
X163574381Y-94159206D01*
X163503844Y-94063632D01*
X163479874Y-93998005D01*
X163495189Y-93929835D01*
X163503842Y-93916370D01*
X163574381Y-93820794D01*
X163596061Y-93758836D01*
X163617741Y-93696881D01*
X163617741Y-93696879D01*
X163620500Y-93667457D01*
X163620499Y-93292544D01*
X163617741Y-93263121D01*
X163612082Y-93246950D01*
X163602112Y-93218455D01*
X163574381Y-93139206D01*
X163535402Y-93086391D01*
X163496423Y-93033576D01*
X163404342Y-92965618D01*
X163390794Y-92955619D01*
X163390792Y-92955618D01*
X163266880Y-92912258D01*
X163237461Y-92909500D01*
X162762546Y-92909500D01*
X162733121Y-92912258D01*
X162728067Y-92914027D01*
X162658288Y-92917585D01*
X162599438Y-92884664D01*
X162430776Y-92716002D01*
X162397291Y-92654679D01*
X162402275Y-92584987D01*
X162444147Y-92529054D01*
X162502268Y-92505383D01*
X162656762Y-92485044D01*
X162802841Y-92424536D01*
X162818588Y-92412452D01*
X162883753Y-92387258D01*
X162952199Y-92401295D01*
X162981755Y-92423147D01*
X162986658Y-92428050D01*
X163053196Y-92461953D01*
X163099698Y-92485647D01*
X163193475Y-92500499D01*
X163193481Y-92500500D01*
X164531518Y-92500499D01*
X164625304Y-92485646D01*
X164738342Y-92428050D01*
X164828050Y-92338342D01*
X164885646Y-92225304D01*
X164885646Y-92225302D01*
X164885647Y-92225301D01*
X164900499Y-92131525D01*
X164900500Y-92131519D01*
X164900499Y-92109222D01*
X164920181Y-92042185D01*
X164972983Y-91996429D01*
X165042142Y-91986482D01*
X165098131Y-92009450D01*
X165171843Y-92063852D01*
X165210003Y-92077204D01*
X165297173Y-92107708D01*
X165297177Y-92107708D01*
X165297181Y-92107710D01*
X165312057Y-92109105D01*
X165326930Y-92110500D01*
X165326934Y-92110500D01*
X165713070Y-92110500D01*
X165742809Y-92107711D01*
X165742809Y-92107710D01*
X165742819Y-92107710D01*
X165765427Y-92099798D01*
X165835202Y-92096236D01*
X165894061Y-92129159D01*
X165944616Y-92179714D01*
X165944625Y-92179721D01*
X166083804Y-92262031D01*
X166230000Y-92304504D01*
X166230000Y-92304503D01*
X166730000Y-92304503D01*
X166876195Y-92262031D01*
X167015374Y-92179721D01*
X167015383Y-92179714D01*
X167129714Y-92065383D01*
X167129721Y-92065374D01*
X167212031Y-91926195D01*
X167212033Y-91926190D01*
X167257144Y-91770918D01*
X167257145Y-91770912D01*
X167258790Y-91750000D01*
X166730000Y-91750000D01*
X166730000Y-92304503D01*
X166230000Y-92304503D01*
X166230000Y-90695494D01*
X166730000Y-90695494D01*
X166730000Y-91250000D01*
X167258790Y-91250000D01*
X167257145Y-91229089D01*
X167212031Y-91073804D01*
X167129721Y-90934625D01*
X167129714Y-90934616D01*
X167015383Y-90820285D01*
X167015374Y-90820278D01*
X166876193Y-90737967D01*
X166876190Y-90737965D01*
X166730001Y-90695493D01*
X166730000Y-90695494D01*
X166230000Y-90695494D01*
X166229998Y-90695493D01*
X166083809Y-90737965D01*
X166083806Y-90737967D01*
X165944625Y-90820278D01*
X165944619Y-90820283D01*
X165894060Y-90870841D01*
X165832736Y-90904325D01*
X165765426Y-90900200D01*
X165742822Y-90892290D01*
X165742814Y-90892289D01*
X165713070Y-90889500D01*
X165713066Y-90889500D01*
X165326934Y-90889500D01*
X165326930Y-90889500D01*
X165297185Y-90892289D01*
X165297173Y-90892291D01*
X165163072Y-90939217D01*
X165162610Y-90937898D01*
X165115827Y-90949500D01*
X165024500Y-90949500D01*
X164957461Y-90929815D01*
X164911706Y-90877011D01*
X164900500Y-90825500D01*
X164900499Y-90568482D01*
X164885646Y-90474696D01*
X164863530Y-90431292D01*
X164850635Y-90362626D01*
X164863532Y-90318704D01*
X164885646Y-90275304D01*
X164885646Y-90275302D01*
X164885647Y-90275301D01*
X164900499Y-90181524D01*
X164900500Y-90181519D01*
X164900499Y-90005758D01*
X164920183Y-89938720D01*
X164926123Y-89930272D01*
X165024100Y-89802586D01*
X165084555Y-89656631D01*
X165092012Y-89600000D01*
X164725033Y-89600000D01*
X164668738Y-89586485D01*
X164625301Y-89564352D01*
X164531524Y-89549500D01*
X163193482Y-89549500D01*
X163099695Y-89564354D01*
X163056261Y-89586485D01*
X162999967Y-89600000D01*
X162632990Y-89600000D01*
X162595945Y-89642241D01*
X162593040Y-89639693D01*
X162568712Y-89667105D01*
X162502917Y-89686000D01*
X162297922Y-89686000D01*
X162202078Y-89686000D01*
X162109501Y-89710806D01*
X162109499Y-89710807D01*
X162109498Y-89710807D01*
X162026502Y-89758724D01*
X162026497Y-89758728D01*
X161208728Y-90576497D01*
X161208724Y-90576502D01*
X161160807Y-90659498D01*
X161160807Y-90659499D01*
X161160806Y-90659501D01*
X161136000Y-90752078D01*
X161136000Y-90752080D01*
X161136000Y-92883246D01*
X161116315Y-92950285D01*
X161085634Y-92983016D01*
X161003576Y-93043576D01*
X160925618Y-93149207D01*
X160882258Y-93273118D01*
X160882258Y-93273120D01*
X160879500Y-93302538D01*
X160879500Y-93677453D01*
X160882258Y-93706874D01*
X160882260Y-93706884D01*
X160925619Y-93830794D01*
X160925619Y-93830795D01*
X160996154Y-93926367D01*
X161020125Y-93991996D01*
X161004809Y-94060166D01*
X160996154Y-94073633D01*
X160925619Y-94169204D01*
X160925619Y-94169205D01*
X160882258Y-94293118D01*
X160882258Y-94293120D01*
X160879500Y-94322538D01*
X160879500Y-94697453D01*
X160882258Y-94726874D01*
X160882260Y-94726884D01*
X160925619Y-94850794D01*
X160925619Y-94850795D01*
X160995011Y-94944818D01*
X161018982Y-95010447D01*
X161003666Y-95078617D01*
X160995012Y-95092084D01*
X160936147Y-95171844D01*
X160892291Y-95297173D01*
X160892289Y-95297185D01*
X160889500Y-95326929D01*
X160889500Y-95713070D01*
X160892289Y-95742814D01*
X160892290Y-95742822D01*
X160900200Y-95765426D01*
X160903761Y-95835205D01*
X160870840Y-95894060D01*
X160827681Y-95937220D01*
X160766358Y-95970706D01*
X160696667Y-95965722D01*
X160652316Y-95937219D01*
X160629157Y-95914059D01*
X160595673Y-95852735D01*
X160599798Y-95785428D01*
X160607710Y-95762819D01*
X160609585Y-95742822D01*
X160610500Y-95733070D01*
X160610500Y-95346929D01*
X160608950Y-95330404D01*
X160607710Y-95317181D01*
X160607708Y-95317177D01*
X160607708Y-95317173D01*
X160563852Y-95191844D01*
X160563852Y-95191843D01*
X160497606Y-95102083D01*
X160473636Y-95036456D01*
X160488951Y-94968286D01*
X160497598Y-94954830D01*
X160574381Y-94850794D01*
X160596061Y-94788836D01*
X160617741Y-94726881D01*
X160617741Y-94726879D01*
X160618678Y-94716884D01*
X160620500Y-94697457D01*
X160620499Y-94322544D01*
X160617741Y-94293121D01*
X160614241Y-94283120D01*
X160574381Y-94169207D01*
X160574381Y-94169206D01*
X160503844Y-94073632D01*
X160479874Y-94008005D01*
X160495189Y-93939835D01*
X160503842Y-93926370D01*
X160574381Y-93830794D01*
X160611811Y-93723827D01*
X160617741Y-93706881D01*
X160617741Y-93706879D01*
X160618409Y-93699757D01*
X160620500Y-93677457D01*
X160620499Y-93302544D01*
X160617741Y-93273121D01*
X160574381Y-93149206D01*
X160506614Y-93057385D01*
X160496423Y-93043576D01*
X160414366Y-92983016D01*
X160372116Y-92927369D01*
X160364000Y-92883246D01*
X160364000Y-91127081D01*
X160364000Y-91127079D01*
X160339194Y-91034502D01*
X160291273Y-90951500D01*
X160223501Y-90883728D01*
X159351954Y-90012181D01*
X159318469Y-89950858D01*
X159323453Y-89881166D01*
X159365325Y-89825233D01*
X159430789Y-89800816D01*
X159439635Y-89800500D01*
X159493420Y-89800500D01*
X159560459Y-89820185D01*
X159568907Y-89826124D01*
X159571716Y-89828279D01*
X159571718Y-89828282D01*
X159697159Y-89924536D01*
X159843238Y-89985044D01*
X159921619Y-89995363D01*
X159999999Y-90005682D01*
X160000000Y-90005682D01*
X160000001Y-90005682D01*
X160052254Y-89998802D01*
X160156762Y-89985044D01*
X160302841Y-89924536D01*
X160428282Y-89828282D01*
X160524536Y-89702841D01*
X160585044Y-89556762D01*
X160605682Y-89400000D01*
X160585044Y-89243238D01*
X160524536Y-89097159D01*
X160428282Y-88971718D01*
X160302841Y-88875464D01*
X160288988Y-88869726D01*
X160156762Y-88814956D01*
X160156760Y-88814955D01*
X160000001Y-88794318D01*
X159999999Y-88794318D01*
X159843239Y-88814955D01*
X159843237Y-88814956D01*
X159697160Y-88875463D01*
X159689269Y-88881518D01*
X159571718Y-88971718D01*
X159571716Y-88971720D01*
X159568907Y-88973876D01*
X159503737Y-88999070D01*
X159493420Y-88999500D01*
X159439634Y-88999500D01*
X159372595Y-88979815D01*
X159326840Y-88927011D01*
X159316896Y-88857853D01*
X159345921Y-88794297D01*
X159351953Y-88787819D01*
X159791273Y-88348500D01*
X159839194Y-88265498D01*
X159864000Y-88172921D01*
X159864000Y-88077077D01*
X159864000Y-87136754D01*
X159883685Y-87069715D01*
X159914366Y-87036984D01*
X159996423Y-86976423D01*
X160074381Y-86870794D01*
X160110743Y-86766879D01*
X160117741Y-86746881D01*
X160117741Y-86746879D01*
X160118624Y-86737461D01*
X160120500Y-86717457D01*
X160120499Y-86342544D01*
X160117741Y-86313121D01*
X160074381Y-86189206D01*
X160003844Y-86093632D01*
X159979874Y-86028005D01*
X159995189Y-85959835D01*
X160003842Y-85946370D01*
X160074381Y-85850794D01*
X160110743Y-85746879D01*
X160117741Y-85726881D01*
X160117741Y-85726879D01*
X160118624Y-85717461D01*
X160120500Y-85697457D01*
X160120499Y-85322544D01*
X160117741Y-85293121D01*
X160074381Y-85169206D01*
X160011183Y-85083576D01*
X159996423Y-85063576D01*
X159914366Y-85003016D01*
X159872116Y-84947369D01*
X159864000Y-84903246D01*
X159864000Y-84875256D01*
X159883685Y-84808217D01*
X159912510Y-84776883D01*
X159928282Y-84764782D01*
X160024536Y-84639341D01*
X160085044Y-84493262D01*
X160105682Y-84336500D01*
X160104078Y-84324319D01*
X160085044Y-84179739D01*
X160085044Y-84179738D01*
X160024536Y-84033659D01*
X159928282Y-83908218D01*
X159858413Y-83854606D01*
X159817213Y-83798180D01*
X159813058Y-83728434D01*
X159846219Y-83668553D01*
X160181273Y-83333501D01*
X160229194Y-83250499D01*
X160254000Y-83157922D01*
X160254000Y-83062078D01*
X160254000Y-80563756D01*
X160273685Y-80496717D01*
X160302510Y-80465383D01*
X160318282Y-80453282D01*
X160318286Y-80453277D01*
X160324029Y-80447535D01*
X160326468Y-80449974D01*
X160370042Y-80418152D01*
X160439788Y-80413992D01*
X160500711Y-80448199D01*
X160533469Y-80509914D01*
X160536000Y-80534838D01*
X160536000Y-82452078D01*
X160536000Y-82547922D01*
X160560806Y-82640499D01*
X160560807Y-82640500D01*
X160560807Y-82640501D01*
X160608724Y-82723497D01*
X160608728Y-82723502D01*
X161099681Y-83214455D01*
X161133166Y-83275778D01*
X161136000Y-83302136D01*
X161136000Y-84883246D01*
X161116315Y-84950285D01*
X161085634Y-84983016D01*
X161003576Y-85043576D01*
X160925618Y-85149207D01*
X160882258Y-85273118D01*
X160882258Y-85273120D01*
X160879500Y-85302538D01*
X160879500Y-85677453D01*
X160882258Y-85706874D01*
X160882260Y-85706884D01*
X160925619Y-85830794D01*
X160925619Y-85830795D01*
X160996154Y-85926367D01*
X161020125Y-85991996D01*
X161004809Y-86060166D01*
X160996154Y-86073633D01*
X160925619Y-86169204D01*
X160925619Y-86169205D01*
X160882258Y-86293118D01*
X160882258Y-86293120D01*
X160879500Y-86322538D01*
X160879500Y-86697453D01*
X160882258Y-86726874D01*
X160882260Y-86726884D01*
X160925618Y-86850792D01*
X161003576Y-86956423D01*
X161085634Y-87016984D01*
X161127884Y-87072631D01*
X161136000Y-87116754D01*
X161136000Y-87172921D01*
X161160806Y-87265498D01*
X161160807Y-87265499D01*
X161160807Y-87265500D01*
X161208724Y-87348496D01*
X161208728Y-87348501D01*
X162692057Y-88831830D01*
X162725542Y-88893153D01*
X162720558Y-88962845D01*
X162702757Y-88994990D01*
X162700903Y-88997405D01*
X162700900Y-88997410D01*
X162640444Y-89143368D01*
X162632987Y-89200000D01*
X162999967Y-89200000D01*
X163056262Y-89213515D01*
X163099698Y-89235647D01*
X163193475Y-89250499D01*
X163193481Y-89250500D01*
X164531518Y-89250499D01*
X164625304Y-89235646D01*
X164657750Y-89219113D01*
X164668739Y-89213515D01*
X164725033Y-89200000D01*
X165092010Y-89200000D01*
X165092011Y-89199998D01*
X165084557Y-89143372D01*
X165084555Y-89143366D01*
X165024100Y-88997412D01*
X165024098Y-88997410D01*
X164926123Y-88869726D01*
X164900929Y-88804557D01*
X164900499Y-88794256D01*
X164900499Y-88618482D01*
X164885646Y-88524696D01*
X164863530Y-88481292D01*
X164850635Y-88412626D01*
X164863532Y-88368704D01*
X164873826Y-88348501D01*
X164885646Y-88325304D01*
X164885646Y-88325302D01*
X164885647Y-88325301D01*
X164900499Y-88231524D01*
X164900500Y-88231519D01*
X164900499Y-87968482D01*
X164885646Y-87874696D01*
X164828050Y-87761658D01*
X164828046Y-87761654D01*
X164828045Y-87761652D01*
X164738347Y-87671954D01*
X164738344Y-87671952D01*
X164738342Y-87671950D01*
X164661517Y-87632805D01*
X164625301Y-87614352D01*
X164531524Y-87599500D01*
X164531519Y-87599500D01*
X163928136Y-87599500D01*
X163861097Y-87579815D01*
X163840455Y-87563181D01*
X163140798Y-86863524D01*
X163107313Y-86802201D01*
X163111438Y-86734889D01*
X163117741Y-86716879D01*
X163120500Y-86687457D01*
X163120499Y-86312544D01*
X163117741Y-86283121D01*
X163074381Y-86159206D01*
X163003844Y-86063632D01*
X162979874Y-85998005D01*
X162995189Y-85929835D01*
X163003845Y-85916366D01*
X163037478Y-85870795D01*
X163074381Y-85820794D01*
X163096061Y-85758836D01*
X163117741Y-85696881D01*
X163117741Y-85696879D01*
X163119562Y-85677456D01*
X163120500Y-85667457D01*
X163120499Y-85292544D01*
X163117741Y-85263121D01*
X163115563Y-85256898D01*
X163088378Y-85179207D01*
X163074381Y-85139206D01*
X163029686Y-85078647D01*
X162996423Y-85033576D01*
X162918738Y-84976243D01*
X162890794Y-84955619D01*
X162890792Y-84955618D01*
X162766880Y-84912258D01*
X162737461Y-84909500D01*
X162737457Y-84909500D01*
X162716539Y-84909500D01*
X162669087Y-84900061D01*
X162656765Y-84894957D01*
X162656760Y-84894955D01*
X162500001Y-84874318D01*
X162499999Y-84874318D01*
X162343235Y-84894956D01*
X162343233Y-84894957D01*
X162330905Y-84900063D01*
X162283463Y-84909500D01*
X162262547Y-84909500D01*
X162233124Y-84912258D01*
X162233115Y-84912260D01*
X162109207Y-84955618D01*
X162066858Y-84986873D01*
X162001229Y-85010843D01*
X161933058Y-84995527D01*
X161919594Y-84986874D01*
X161914369Y-84983018D01*
X161872117Y-84927372D01*
X161864000Y-84883246D01*
X161864000Y-83052080D01*
X161864000Y-83052078D01*
X161839194Y-82959501D01*
X161791273Y-82876499D01*
X161723501Y-82808727D01*
X161300319Y-82385545D01*
X161266834Y-82324222D01*
X161264000Y-82297864D01*
X161264000Y-81099998D01*
X161794318Y-81099998D01*
X161794318Y-81100001D01*
X161814955Y-81256760D01*
X161814956Y-81256762D01*
X161875464Y-81402841D01*
X161971718Y-81528282D01*
X162097159Y-81624536D01*
X162243238Y-81685044D01*
X162317115Y-81694770D01*
X162399999Y-81705682D01*
X162400000Y-81705682D01*
X162400001Y-81705682D01*
X162452254Y-81698802D01*
X162556762Y-81685044D01*
X162702841Y-81624536D01*
X162828282Y-81528282D01*
X162924536Y-81402841D01*
X162985044Y-81256762D01*
X163005682Y-81100000D01*
X163005141Y-81095893D01*
X162985044Y-80943239D01*
X162985044Y-80943238D01*
X162924536Y-80797159D01*
X162828282Y-80671718D01*
X162702841Y-80575464D01*
X162674575Y-80563756D01*
X162556762Y-80514956D01*
X162556760Y-80514955D01*
X162400001Y-80494318D01*
X162399999Y-80494318D01*
X162243239Y-80514955D01*
X162243237Y-80514956D01*
X162097160Y-80575463D01*
X161971718Y-80671718D01*
X161875463Y-80797160D01*
X161814956Y-80943237D01*
X161814955Y-80943239D01*
X161794318Y-81099998D01*
X161264000Y-81099998D01*
X161264000Y-75937080D01*
X161264000Y-75937078D01*
X161239194Y-75844501D01*
X161191273Y-75761499D01*
X161129772Y-75699998D01*
X161694318Y-75699998D01*
X161694318Y-75700001D01*
X161714955Y-75856760D01*
X161714956Y-75856762D01*
X161750775Y-75943238D01*
X161775464Y-76002841D01*
X161871718Y-76128282D01*
X161997159Y-76224536D01*
X162143238Y-76285044D01*
X162221619Y-76295363D01*
X162299999Y-76305682D01*
X162300000Y-76305682D01*
X162300001Y-76305682D01*
X162352254Y-76298802D01*
X162456762Y-76285044D01*
X162602841Y-76224536D01*
X162728282Y-76128282D01*
X162749985Y-76099998D01*
X164294318Y-76099998D01*
X164294318Y-76100001D01*
X164314955Y-76256760D01*
X164314956Y-76256762D01*
X164351676Y-76345413D01*
X164375464Y-76402841D01*
X164471718Y-76528282D01*
X164597159Y-76624536D01*
X164743238Y-76685044D01*
X164821619Y-76695363D01*
X164899999Y-76705682D01*
X164900000Y-76705682D01*
X164900001Y-76705682D01*
X164952254Y-76698802D01*
X165056762Y-76685044D01*
X165202841Y-76624536D01*
X165328282Y-76528282D01*
X165424536Y-76402841D01*
X165485044Y-76256762D01*
X165505682Y-76100000D01*
X165505610Y-76099455D01*
X165485044Y-75943239D01*
X165485044Y-75943238D01*
X165424536Y-75797159D01*
X165328282Y-75671718D01*
X165202841Y-75575464D01*
X165165611Y-75560043D01*
X165056762Y-75514956D01*
X165056760Y-75514955D01*
X164900001Y-75494318D01*
X164899999Y-75494318D01*
X164743239Y-75514955D01*
X164743237Y-75514956D01*
X164597160Y-75575463D01*
X164471718Y-75671718D01*
X164375463Y-75797160D01*
X164314956Y-75943237D01*
X164314955Y-75943239D01*
X164294318Y-76099998D01*
X162749985Y-76099998D01*
X162824536Y-76002841D01*
X162885044Y-75856762D01*
X162905682Y-75700000D01*
X162885044Y-75543238D01*
X162824536Y-75397159D01*
X162728282Y-75271718D01*
X162602841Y-75175464D01*
X162456762Y-75114956D01*
X162456760Y-75114955D01*
X162300001Y-75094318D01*
X162299999Y-75094318D01*
X162143239Y-75114955D01*
X162143237Y-75114956D01*
X161997160Y-75175463D01*
X161871718Y-75271718D01*
X161775463Y-75397160D01*
X161714956Y-75543237D01*
X161714955Y-75543239D01*
X161694318Y-75699998D01*
X161129772Y-75699998D01*
X161123501Y-75693727D01*
X160528345Y-75098571D01*
X160494860Y-75037248D01*
X160493087Y-74994708D01*
X160495682Y-74975000D01*
X160475044Y-74818238D01*
X160414536Y-74672159D01*
X160318282Y-74546718D01*
X160192841Y-74450464D01*
X160130245Y-74424536D01*
X160046762Y-74389956D01*
X160046760Y-74389955D01*
X159890001Y-74369318D01*
X159889999Y-74369318D01*
X159733239Y-74389955D01*
X159733237Y-74389956D01*
X159587160Y-74450463D01*
X159461718Y-74546718D01*
X159365463Y-74672160D01*
X159304956Y-74818237D01*
X159304955Y-74818239D01*
X159284318Y-74974998D01*
X159284318Y-74975001D01*
X159304955Y-75131760D01*
X159304956Y-75131762D01*
X159365464Y-75277841D01*
X159461718Y-75403282D01*
X159587159Y-75499536D01*
X159733238Y-75560044D01*
X159890000Y-75580682D01*
X159909704Y-75578087D01*
X159978736Y-75588851D01*
X160013571Y-75613345D01*
X160499681Y-76099455D01*
X160533166Y-76160778D01*
X160536000Y-76187136D01*
X160536000Y-79515161D01*
X160516315Y-79582200D01*
X160463511Y-79627955D01*
X160394353Y-79637899D01*
X160330797Y-79608874D01*
X160324400Y-79602093D01*
X160324029Y-79602465D01*
X160318286Y-79596722D01*
X160318283Y-79596720D01*
X160318282Y-79596718D01*
X160192841Y-79500464D01*
X160109379Y-79465893D01*
X160046762Y-79439956D01*
X160046760Y-79439955D01*
X159890001Y-79419318D01*
X159889999Y-79419318D01*
X159733239Y-79439955D01*
X159733237Y-79439956D01*
X159587160Y-79500463D01*
X159461718Y-79596718D01*
X159365463Y-79722160D01*
X159304956Y-79868237D01*
X159304955Y-79868239D01*
X159284318Y-80024998D01*
X159284318Y-80025001D01*
X159304955Y-80181760D01*
X159304956Y-80181762D01*
X159365464Y-80327841D01*
X159461718Y-80453282D01*
X159477486Y-80465381D01*
X159518688Y-80521805D01*
X159526000Y-80563756D01*
X159526000Y-82907864D01*
X159506315Y-82974903D01*
X159489681Y-82995545D01*
X157985545Y-84499681D01*
X157924222Y-84533166D01*
X157897864Y-84536000D01*
X155078136Y-84536000D01*
X155011097Y-84516315D01*
X154965342Y-84463511D01*
X154955398Y-84394353D01*
X154984423Y-84330797D01*
X154990455Y-84324319D01*
X155135037Y-84179737D01*
X155291273Y-84023501D01*
X155339194Y-83940499D01*
X155364000Y-83847922D01*
X155364000Y-83752078D01*
X155364000Y-80281373D01*
X155373439Y-80233920D01*
X155376094Y-80227511D01*
X155395044Y-80181762D01*
X155415682Y-80025000D01*
X155395044Y-79868238D01*
X155334536Y-79722159D01*
X155238282Y-79596718D01*
X155112841Y-79500464D01*
X155029379Y-79465893D01*
X154966762Y-79439956D01*
X154966760Y-79439955D01*
X154810001Y-79419318D01*
X154809999Y-79419318D01*
X154653239Y-79439955D01*
X154653237Y-79439956D01*
X154507160Y-79500463D01*
X154381718Y-79596718D01*
X154285463Y-79722160D01*
X154224956Y-79868237D01*
X154224955Y-79868239D01*
X154204318Y-80024998D01*
X154204318Y-80025001D01*
X154224955Y-80181760D01*
X154224956Y-80181762D01*
X154285464Y-80327841D01*
X154381718Y-80453282D01*
X154507159Y-80549536D01*
X154559452Y-80571196D01*
X154613855Y-80615036D01*
X154635921Y-80681330D01*
X154636000Y-80685757D01*
X154636000Y-83597864D01*
X154616315Y-83664903D01*
X154599681Y-83685545D01*
X154112545Y-84172681D01*
X154051222Y-84206166D01*
X154024864Y-84209000D01*
X143178061Y-84209000D01*
X143111022Y-84189315D01*
X143065267Y-84136511D01*
X143055323Y-84067353D01*
X143084348Y-84003797D01*
X143104427Y-83985230D01*
X143122150Y-83972150D01*
X143202793Y-83862882D01*
X143241565Y-83752078D01*
X143247646Y-83734701D01*
X143247646Y-83734699D01*
X143250500Y-83704269D01*
X143250500Y-83295730D01*
X143247646Y-83265300D01*
X143247646Y-83265298D01*
X143214006Y-83169163D01*
X143202793Y-83137118D01*
X143122150Y-83027850D01*
X143036677Y-82964768D01*
X142994428Y-82909123D01*
X142988969Y-82839467D01*
X143022036Y-82777917D01*
X143036670Y-82765236D01*
X143122150Y-82702150D01*
X143202793Y-82592882D01*
X143225219Y-82528790D01*
X143247646Y-82464701D01*
X143247646Y-82464698D01*
X143247813Y-82462924D01*
X143248302Y-82461694D01*
X143249256Y-82457330D01*
X143249978Y-82457487D01*
X143273670Y-82398015D01*
X143330515Y-82357389D01*
X143371271Y-82350500D01*
X143408196Y-82350500D01*
X143475235Y-82370185D01*
X143520990Y-82422989D01*
X143523550Y-82429010D01*
X143540637Y-82472339D01*
X143540638Y-82472341D01*
X143632077Y-82592922D01*
X143752656Y-82684360D01*
X143752657Y-82684360D01*
X143752658Y-82684361D01*
X143893436Y-82739877D01*
X143981898Y-82750500D01*
X143981903Y-82750500D01*
X145018097Y-82750500D01*
X145018102Y-82750500D01*
X145106564Y-82739877D01*
X145247342Y-82684361D01*
X145367922Y-82592922D01*
X145459361Y-82472342D01*
X145514877Y-82331564D01*
X145525500Y-82243102D01*
X145525500Y-81656898D01*
X145514888Y-81568530D01*
X145526440Y-81499624D01*
X145550320Y-81466070D01*
X146035703Y-80980688D01*
X146035708Y-80980684D01*
X146045911Y-80970480D01*
X146045913Y-80970480D01*
X146120480Y-80895913D01*
X146173207Y-80804587D01*
X146186297Y-80755734D01*
X146200501Y-80702727D01*
X146200501Y-80597273D01*
X146200501Y-80589678D01*
X146200500Y-80589660D01*
X146200500Y-76717255D01*
X146220185Y-76650216D01*
X146236819Y-76629574D01*
X149629574Y-73236819D01*
X149690897Y-73203334D01*
X149717255Y-73200500D01*
X161774918Y-73200500D01*
X161841957Y-73220185D01*
X161887712Y-73272989D01*
X161897656Y-73342147D01*
X161877858Y-73389154D01*
X161879528Y-73390119D01*
X161875465Y-73397156D01*
X161814956Y-73543237D01*
X161814955Y-73543239D01*
X161794318Y-73699998D01*
X161794318Y-73700001D01*
X161814955Y-73856760D01*
X161814956Y-73856762D01*
X161875464Y-74002841D01*
X161971718Y-74128282D01*
X162097159Y-74224536D01*
X162243238Y-74285044D01*
X162321619Y-74295363D01*
X162399999Y-74305682D01*
X162400000Y-74305682D01*
X162400001Y-74305682D01*
X162452254Y-74298802D01*
X162556762Y-74285044D01*
X162702841Y-74224536D01*
X162828282Y-74128282D01*
X162924536Y-74002841D01*
X162985044Y-73856762D01*
X163005682Y-73700000D01*
X162998495Y-73645412D01*
X162985044Y-73543239D01*
X162985044Y-73543238D01*
X162924536Y-73397159D01*
X162924534Y-73397156D01*
X162920472Y-73390119D01*
X162922448Y-73388977D01*
X162901511Y-73334807D01*
X162915555Y-73266363D01*
X162964373Y-73216377D01*
X163025082Y-73200500D01*
X164459884Y-73200500D01*
X164526923Y-73220185D01*
X164572678Y-73272989D01*
X164582622Y-73342147D01*
X164553597Y-73405703D01*
X164535374Y-73422873D01*
X164471718Y-73471718D01*
X164375463Y-73597160D01*
X164314956Y-73743237D01*
X164314955Y-73743239D01*
X164294318Y-73899998D01*
X164294318Y-73900001D01*
X164314955Y-74056760D01*
X164314956Y-74056762D01*
X164375464Y-74202841D01*
X164471718Y-74328282D01*
X164597159Y-74424536D01*
X164743238Y-74485044D01*
X164821619Y-74495363D01*
X164899999Y-74505682D01*
X164900000Y-74505682D01*
X164900001Y-74505682D01*
X164952254Y-74498802D01*
X165056762Y-74485044D01*
X165202841Y-74424536D01*
X165328282Y-74328282D01*
X165424536Y-74202841D01*
X165485044Y-74056762D01*
X165505682Y-73900000D01*
X165500773Y-73862716D01*
X165485044Y-73743239D01*
X165485043Y-73743237D01*
X165446559Y-73650326D01*
X165439090Y-73580857D01*
X165470365Y-73518378D01*
X165530454Y-73482726D01*
X165600279Y-73485220D01*
X165648799Y-73515192D01*
X165730767Y-73597159D01*
X166063181Y-73929573D01*
X166096666Y-73990896D01*
X166099500Y-74017254D01*
X166099500Y-78482745D01*
X166079815Y-78549784D01*
X166063181Y-78570426D01*
X165579522Y-79054084D01*
X165579518Y-79054090D01*
X165526792Y-79145412D01*
X165526793Y-79145413D01*
X165499500Y-79247273D01*
X165499500Y-79518419D01*
X165479815Y-79585458D01*
X165473876Y-79593905D01*
X165375464Y-79722157D01*
X165314956Y-79868237D01*
X165314955Y-79868239D01*
X165294318Y-80024998D01*
X165294318Y-80025001D01*
X165314955Y-80181760D01*
X165314956Y-80181762D01*
X165375464Y-80327841D01*
X165471718Y-80453282D01*
X165597159Y-80549536D01*
X165743238Y-80610044D01*
X165821619Y-80620363D01*
X165899999Y-80630682D01*
X165900000Y-80630682D01*
X165900001Y-80630682D01*
X165952254Y-80623802D01*
X166056762Y-80610044D01*
X166202841Y-80549536D01*
X166328282Y-80453282D01*
X166424536Y-80327841D01*
X166485044Y-80181762D01*
X166505682Y-80025000D01*
X166485044Y-79868238D01*
X166424536Y-79722159D01*
X166424535Y-79722158D01*
X166424535Y-79722157D01*
X166326124Y-79593905D01*
X166300930Y-79528736D01*
X166300500Y-79518419D01*
X166300500Y-79517255D01*
X166320185Y-79450216D01*
X166336819Y-79429574D01*
X166571874Y-79194519D01*
X166820480Y-78945913D01*
X166873207Y-78854588D01*
X166900500Y-78752727D01*
X166900500Y-78647273D01*
X166900500Y-73862729D01*
X166900501Y-73862716D01*
X166900501Y-73747274D01*
X166899420Y-73743238D01*
X166873207Y-73645413D01*
X166820480Y-73554087D01*
X166745913Y-73479520D01*
X166745912Y-73479519D01*
X166741582Y-73475189D01*
X166741571Y-73475179D01*
X165745915Y-72479522D01*
X165745914Y-72479521D01*
X165745913Y-72479520D01*
X165700250Y-72453156D01*
X165654589Y-72426793D01*
X165603657Y-72413146D01*
X165552727Y-72399500D01*
X149552727Y-72399500D01*
X149447273Y-72399500D01*
X149345410Y-72426793D01*
X149254087Y-72479520D01*
X149254084Y-72479522D01*
X145479522Y-76254084D01*
X145479518Y-76254090D01*
X145426792Y-76345412D01*
X145426793Y-76345413D01*
X145399500Y-76447273D01*
X145399500Y-78978841D01*
X145379815Y-79045880D01*
X145327011Y-79091635D01*
X145257853Y-79101579D01*
X145236496Y-79096547D01*
X145127697Y-79060494D01*
X145127690Y-79060493D01*
X145024986Y-79050000D01*
X144750000Y-79050000D01*
X144750000Y-80176000D01*
X144730315Y-80243039D01*
X144677511Y-80288794D01*
X144626000Y-80300000D01*
X144374000Y-80300000D01*
X144306961Y-80280315D01*
X144261206Y-80227511D01*
X144250000Y-80176000D01*
X144250000Y-79050000D01*
X143975029Y-79050000D01*
X143975012Y-79050001D01*
X143872302Y-79060494D01*
X143705880Y-79115641D01*
X143705875Y-79115643D01*
X143556656Y-79207683D01*
X143545257Y-79219082D01*
X143483932Y-79252565D01*
X143414241Y-79247578D01*
X143358309Y-79205705D01*
X143350846Y-79194519D01*
X143317685Y-79138447D01*
X143317678Y-79138438D01*
X143201561Y-79022321D01*
X143201552Y-79022314D01*
X143060196Y-78938717D01*
X143060193Y-78938716D01*
X142902495Y-78892900D01*
X142902489Y-78892899D01*
X142865649Y-78890000D01*
X142225000Y-78890000D01*
X142225000Y-79816000D01*
X142205315Y-79883039D01*
X142152511Y-79928794D01*
X142101000Y-79940000D01*
X140502705Y-79940000D01*
X140502704Y-79940001D01*
X140502899Y-79942486D01*
X140548718Y-80100198D01*
X140632314Y-80241552D01*
X140632321Y-80241561D01*
X140748438Y-80357678D01*
X140748444Y-80357682D01*
X140752415Y-80360031D01*
X140800100Y-80411099D01*
X140812606Y-80479840D01*
X140789068Y-80540398D01*
X140747207Y-80597118D01*
X140747206Y-80597119D01*
X140702353Y-80725298D01*
X140702353Y-80725300D01*
X140699500Y-80755729D01*
X140699500Y-81164269D01*
X140702353Y-81194699D01*
X140702353Y-81194701D01*
X140747206Y-81322880D01*
X140747207Y-81322882D01*
X140827850Y-81432150D01*
X140913321Y-81495230D01*
X140955571Y-81550877D01*
X140961030Y-81620534D01*
X140927962Y-81682083D01*
X140913321Y-81694769D01*
X140898536Y-81705682D01*
X140827850Y-81757850D01*
X140747207Y-81867117D01*
X140747206Y-81867119D01*
X140702353Y-81995298D01*
X140702353Y-81995300D01*
X140699500Y-82025730D01*
X140699500Y-82434269D01*
X140702353Y-82464699D01*
X140702353Y-82464701D01*
X140747206Y-82592880D01*
X140747207Y-82592882D01*
X140827850Y-82702150D01*
X140913321Y-82765230D01*
X140955571Y-82820877D01*
X140961030Y-82890534D01*
X140927962Y-82952083D01*
X140913321Y-82964769D01*
X140899591Y-82974903D01*
X140827850Y-83027850D01*
X140747207Y-83137117D01*
X140747206Y-83137119D01*
X140702353Y-83265298D01*
X140702353Y-83265300D01*
X140699500Y-83295730D01*
X140699500Y-83704269D01*
X140702353Y-83734699D01*
X140702353Y-83734701D01*
X140747206Y-83862880D01*
X140747207Y-83862882D01*
X140827850Y-83972150D01*
X140845573Y-83985230D01*
X140887824Y-84040878D01*
X140893281Y-84110534D01*
X140860214Y-84172084D01*
X140799120Y-84205984D01*
X140771939Y-84209000D01*
X140504922Y-84209000D01*
X140409078Y-84209000D01*
X140316501Y-84233806D01*
X140316499Y-84233807D01*
X140316498Y-84233807D01*
X140233502Y-84281724D01*
X140233497Y-84281728D01*
X139592043Y-84923181D01*
X139530720Y-84956666D01*
X139504363Y-84959500D01*
X139262546Y-84959500D01*
X139233125Y-84962258D01*
X139233115Y-84962260D01*
X139109207Y-85005618D01*
X139003576Y-85083576D01*
X138925618Y-85189207D01*
X138882258Y-85313118D01*
X138882258Y-85313120D01*
X138879500Y-85342538D01*
X138879500Y-85717453D01*
X138882258Y-85746874D01*
X138882260Y-85746884D01*
X138925619Y-85870794D01*
X138925619Y-85870795D01*
X138996154Y-85966367D01*
X139020125Y-86031996D01*
X139004809Y-86100166D01*
X138996154Y-86113633D01*
X138925619Y-86209204D01*
X138925619Y-86209205D01*
X138882258Y-86333118D01*
X138882258Y-86333120D01*
X138879500Y-86362538D01*
X138879500Y-86737453D01*
X138882258Y-86766874D01*
X138882260Y-86766884D01*
X138925618Y-86890792D01*
X139003576Y-86996423D01*
X139085634Y-87056984D01*
X139127884Y-87112631D01*
X139136000Y-87156754D01*
X139136000Y-87532097D01*
X139116315Y-87599136D01*
X139063511Y-87644891D01*
X138994353Y-87654835D01*
X138955706Y-87642582D01*
X138900304Y-87614353D01*
X138900301Y-87614352D01*
X138806524Y-87599500D01*
X137468482Y-87599500D01*
X137387519Y-87612323D01*
X137374696Y-87614354D01*
X137261658Y-87671950D01*
X137261657Y-87671951D01*
X137261652Y-87671954D01*
X137171954Y-87761652D01*
X137171951Y-87761657D01*
X137171950Y-87761658D01*
X137166567Y-87772223D01*
X137114352Y-87874698D01*
X137099500Y-87968475D01*
X137099500Y-88231517D01*
X137114354Y-88325305D01*
X137136468Y-88368705D01*
X137149364Y-88437374D01*
X137136468Y-88481294D01*
X137114354Y-88524696D01*
X137114352Y-88524700D01*
X137099500Y-88618475D01*
X137099500Y-88881517D01*
X137114354Y-88975304D01*
X137122044Y-88990397D01*
X137134938Y-89059067D01*
X137108659Y-89123806D01*
X137099239Y-89134368D01*
X137055682Y-89177926D01*
X136994359Y-89211412D01*
X136924668Y-89206428D01*
X136868734Y-89164558D01*
X136844316Y-89099093D01*
X136844000Y-89090246D01*
X136844000Y-86232080D01*
X136844000Y-86232078D01*
X136819194Y-86139501D01*
X136790711Y-86090166D01*
X136771275Y-86056502D01*
X136771271Y-86056497D01*
X136061819Y-85347045D01*
X136028334Y-85285722D01*
X136025500Y-85259364D01*
X136025500Y-85256903D01*
X136025500Y-85256898D01*
X136014877Y-85168436D01*
X135959361Y-85027658D01*
X135959360Y-85027657D01*
X135959360Y-85027656D01*
X135867922Y-84907077D01*
X135747343Y-84815639D01*
X135618378Y-84764782D01*
X135606564Y-84760123D01*
X135606563Y-84760122D01*
X135606561Y-84760122D01*
X135560926Y-84754642D01*
X135518102Y-84749500D01*
X135518097Y-84749500D01*
X135488000Y-84749500D01*
X135420961Y-84729815D01*
X135375206Y-84677011D01*
X135364000Y-84625500D01*
X135364000Y-82212136D01*
X135383685Y-82145097D01*
X135400315Y-82124459D01*
X135537820Y-81986954D01*
X135599142Y-81953470D01*
X135668834Y-81958454D01*
X135724767Y-82000326D01*
X135749184Y-82065790D01*
X135749500Y-82074636D01*
X135749500Y-82434269D01*
X135752353Y-82464699D01*
X135752353Y-82464701D01*
X135797206Y-82592880D01*
X135797207Y-82592882D01*
X135877850Y-82702150D01*
X135963321Y-82765230D01*
X136005571Y-82820877D01*
X136011030Y-82890534D01*
X135977962Y-82952083D01*
X135963321Y-82964769D01*
X135949591Y-82974903D01*
X135877850Y-83027850D01*
X135797207Y-83137117D01*
X135797206Y-83137119D01*
X135752353Y-83265298D01*
X135752353Y-83265300D01*
X135749500Y-83295730D01*
X135749500Y-83704269D01*
X135752353Y-83734699D01*
X135752353Y-83734701D01*
X135797206Y-83862880D01*
X135797207Y-83862882D01*
X135877850Y-83972150D01*
X135987118Y-84052793D01*
X136028728Y-84067353D01*
X136115299Y-84097646D01*
X136145730Y-84100500D01*
X136145734Y-84100500D01*
X137904270Y-84100500D01*
X137934699Y-84097646D01*
X137934701Y-84097646D01*
X137998790Y-84075219D01*
X138062882Y-84052793D01*
X138172150Y-83972150D01*
X138252793Y-83862882D01*
X138291565Y-83752078D01*
X138297646Y-83734701D01*
X138297646Y-83734699D01*
X138300500Y-83704269D01*
X138300500Y-83295730D01*
X138297646Y-83265300D01*
X138297646Y-83265298D01*
X138264006Y-83169163D01*
X138252793Y-83137118D01*
X138172150Y-83027850D01*
X138086677Y-82964768D01*
X138044428Y-82909123D01*
X138038969Y-82839467D01*
X138072036Y-82777917D01*
X138086670Y-82765236D01*
X138172150Y-82702150D01*
X138252793Y-82592882D01*
X138275219Y-82528790D01*
X138297646Y-82464701D01*
X138297646Y-82464699D01*
X138300500Y-82434269D01*
X138300500Y-82025730D01*
X138297646Y-81995300D01*
X138297646Y-81995298D01*
X138252793Y-81867119D01*
X138252792Y-81867117D01*
X138193294Y-81786500D01*
X138172150Y-81757850D01*
X138086677Y-81694768D01*
X138044428Y-81639123D01*
X138038969Y-81569467D01*
X138072036Y-81507917D01*
X138086670Y-81495236D01*
X138172150Y-81432150D01*
X138252793Y-81322882D01*
X138290319Y-81215639D01*
X138297646Y-81194701D01*
X138297646Y-81194699D01*
X138300500Y-81164269D01*
X138300500Y-80755729D01*
X138297646Y-80725300D01*
X138297646Y-80725298D01*
X138257316Y-80610044D01*
X138252793Y-80597118D01*
X138172150Y-80487850D01*
X138086677Y-80424768D01*
X138044428Y-80369123D01*
X138038969Y-80299467D01*
X138072036Y-80237917D01*
X138086670Y-80225236D01*
X138172150Y-80162150D01*
X138252793Y-80052882D01*
X138275219Y-79988790D01*
X138297646Y-79924701D01*
X138297646Y-79924699D01*
X138300500Y-79894269D01*
X138300500Y-79485730D01*
X138297646Y-79455300D01*
X138297646Y-79455298D01*
X138292292Y-79439998D01*
X140502704Y-79439998D01*
X140502705Y-79440000D01*
X141725000Y-79440000D01*
X141725000Y-78890000D01*
X141084350Y-78890000D01*
X141047510Y-78892899D01*
X141047504Y-78892900D01*
X140889806Y-78938716D01*
X140889803Y-78938717D01*
X140748447Y-79022314D01*
X140748438Y-79022321D01*
X140632321Y-79138438D01*
X140632314Y-79138447D01*
X140548718Y-79279801D01*
X140502899Y-79437513D01*
X140502704Y-79439998D01*
X138292292Y-79439998D01*
X138252793Y-79327119D01*
X138252792Y-79327117D01*
X138172150Y-79217850D01*
X138062882Y-79137207D01*
X138062880Y-79137206D01*
X137934700Y-79092353D01*
X137904270Y-79089500D01*
X137904266Y-79089500D01*
X137038000Y-79089500D01*
X136970961Y-79069815D01*
X136925206Y-79017011D01*
X136914000Y-78965500D01*
X136914000Y-78606197D01*
X136933685Y-78539158D01*
X136986489Y-78493403D01*
X136992495Y-78490848D01*
X137072342Y-78459361D01*
X137192922Y-78367922D01*
X137248892Y-78294115D01*
X137289486Y-78240584D01*
X137291317Y-78241972D01*
X137332607Y-78201689D01*
X137401058Y-78187682D01*
X137466216Y-78212905D01*
X137507394Y-78269351D01*
X137508391Y-78272241D01*
X137515640Y-78294115D01*
X137515643Y-78294124D01*
X137607684Y-78443345D01*
X137731654Y-78567315D01*
X137880875Y-78659356D01*
X137880880Y-78659358D01*
X138047302Y-78714505D01*
X138047309Y-78714506D01*
X138150019Y-78724999D01*
X138700000Y-78724999D01*
X138749972Y-78724999D01*
X138749986Y-78724998D01*
X138852697Y-78714505D01*
X139019119Y-78659358D01*
X139019124Y-78659356D01*
X139168345Y-78567315D01*
X139292315Y-78443345D01*
X139384356Y-78294124D01*
X139384358Y-78294119D01*
X139439505Y-78127697D01*
X139439506Y-78127690D01*
X139449999Y-78024986D01*
X139450000Y-78024973D01*
X139450000Y-77750000D01*
X138700000Y-77750000D01*
X138700000Y-78724999D01*
X138150019Y-78724999D01*
X138199999Y-78724998D01*
X138200000Y-78724998D01*
X138200000Y-77250000D01*
X138700000Y-77250000D01*
X139449999Y-77250000D01*
X139449999Y-76975028D01*
X139449998Y-76975013D01*
X139439505Y-76872302D01*
X139384358Y-76705880D01*
X139384356Y-76705875D01*
X139292315Y-76556654D01*
X139168345Y-76432684D01*
X139019124Y-76340643D01*
X139019119Y-76340641D01*
X138852697Y-76285494D01*
X138852690Y-76285493D01*
X138749986Y-76275000D01*
X138700000Y-76275000D01*
X138700000Y-77250000D01*
X138200000Y-77250000D01*
X138200000Y-76275000D01*
X138199999Y-76274999D01*
X138150029Y-76275000D01*
X138150011Y-76275001D01*
X138047302Y-76285494D01*
X137880880Y-76340641D01*
X137880875Y-76340643D01*
X137731654Y-76432684D01*
X137607684Y-76556654D01*
X137515643Y-76705875D01*
X137515640Y-76705884D01*
X137508391Y-76727759D01*
X137468618Y-76785203D01*
X137404102Y-76812025D01*
X137335326Y-76799709D01*
X137290834Y-76758393D01*
X137289486Y-76759416D01*
X137192922Y-76632077D01*
X137072343Y-76540639D01*
X136931561Y-76485122D01*
X136885926Y-76479642D01*
X136843102Y-76474500D01*
X136256898Y-76474500D01*
X136217853Y-76479188D01*
X136168438Y-76485122D01*
X136027656Y-76540639D01*
X135907077Y-76632077D01*
X135815639Y-76752656D01*
X135760122Y-76893438D01*
X135754188Y-76942853D01*
X135749500Y-76981898D01*
X135749500Y-78018102D01*
X135750327Y-78024986D01*
X135760122Y-78106561D01*
X135815639Y-78247343D01*
X135907077Y-78367922D01*
X136027657Y-78459361D01*
X136064256Y-78473793D01*
X136107490Y-78490842D01*
X136162634Y-78533748D01*
X136185827Y-78599656D01*
X136186000Y-78606197D01*
X136186000Y-78979632D01*
X136166315Y-79046671D01*
X136113511Y-79092426D01*
X136102956Y-79096673D01*
X135987117Y-79137207D01*
X135877850Y-79217850D01*
X135797207Y-79327117D01*
X135797206Y-79327119D01*
X135752353Y-79455298D01*
X135752353Y-79455300D01*
X135749500Y-79485730D01*
X135749500Y-79894269D01*
X135752353Y-79924699D01*
X135752353Y-79924701D01*
X135797206Y-80052880D01*
X135797207Y-80052882D01*
X135877850Y-80162150D01*
X135963321Y-80225230D01*
X136005571Y-80280877D01*
X136011030Y-80350534D01*
X135977962Y-80412083D01*
X135963321Y-80424769D01*
X135924695Y-80453277D01*
X135877850Y-80487850D01*
X135797207Y-80597117D01*
X135797206Y-80597119D01*
X135752243Y-80725616D01*
X135722883Y-80772342D01*
X134776499Y-81718728D01*
X134708728Y-81786498D01*
X134708724Y-81786503D01*
X134660807Y-81869499D01*
X134660807Y-81869500D01*
X134660806Y-81869502D01*
X134636000Y-81962079D01*
X134636000Y-81962081D01*
X134636000Y-84625500D01*
X134616315Y-84692539D01*
X134563511Y-84738294D01*
X134512000Y-84749500D01*
X134481898Y-84749500D01*
X134442853Y-84754188D01*
X134393438Y-84760122D01*
X134252656Y-84815639D01*
X134132077Y-84907077D01*
X134040638Y-85027657D01*
X134039854Y-85029648D01*
X134038648Y-85031197D01*
X134036481Y-85035052D01*
X134035902Y-85034726D01*
X133996947Y-85084791D01*
X133931038Y-85107983D01*
X133863054Y-85091861D01*
X133814579Y-85041543D01*
X133800500Y-84984156D01*
X133800500Y-71924500D01*
X133820185Y-71857461D01*
X133872989Y-71811706D01*
X133924500Y-71800500D01*
X168075500Y-71800500D01*
X168142539Y-71820185D01*
G37*
%TD.AperFunction*%
%TA.AperFunction,Conductor*%
G36*
X158665469Y-96249685D02*
G01*
X158711224Y-96302489D01*
X158721168Y-96371647D01*
X158718207Y-96386079D01*
X158709500Y-96418578D01*
X158709500Y-96418580D01*
X158709500Y-103024364D01*
X158689815Y-103091403D01*
X158673181Y-103112045D01*
X158217181Y-103568045D01*
X158155858Y-103601530D01*
X158086166Y-103596546D01*
X158030233Y-103554674D01*
X158005816Y-103489210D01*
X158005500Y-103480364D01*
X158005500Y-102170730D01*
X158002646Y-102140300D01*
X158002646Y-102140298D01*
X157969234Y-102044814D01*
X157965672Y-101975035D01*
X157998591Y-101916182D01*
X158217773Y-101697001D01*
X158265694Y-101613999D01*
X158290500Y-101521422D01*
X158290500Y-101425578D01*
X158290500Y-96354000D01*
X158310185Y-96286961D01*
X158362989Y-96241206D01*
X158414500Y-96230000D01*
X158598430Y-96230000D01*
X158665469Y-96249685D01*
G37*
%TD.AperFunction*%
%TA.AperFunction,Conductor*%
G36*
X143193039Y-96249685D02*
G01*
X143238794Y-96302489D01*
X143250000Y-96354000D01*
X143250000Y-97258789D01*
X143270910Y-97257145D01*
X143274945Y-97256408D01*
X143277228Y-97256648D01*
X143277232Y-97256648D01*
X143344430Y-97263722D01*
X143398931Y-97307441D01*
X143404620Y-97316388D01*
X143408724Y-97323497D01*
X143408726Y-97323500D01*
X143408727Y-97323501D01*
X145008727Y-98923501D01*
X145076499Y-98991273D01*
X145076500Y-98991274D01*
X145076502Y-98991275D01*
X145118000Y-99015233D01*
X145159501Y-99039194D01*
X145252078Y-99064000D01*
X145347922Y-99064000D01*
X146203620Y-99064000D01*
X146270659Y-99083685D01*
X146316414Y-99136489D01*
X146326358Y-99205647D01*
X146318181Y-99235453D01*
X146314956Y-99243237D01*
X146314956Y-99243238D01*
X146305944Y-99311687D01*
X146277677Y-99375583D01*
X146219352Y-99414053D01*
X146183005Y-99419500D01*
X145762546Y-99419500D01*
X145733125Y-99422258D01*
X145733115Y-99422260D01*
X145609207Y-99465618D01*
X145503576Y-99543576D01*
X145425618Y-99649207D01*
X145382258Y-99773118D01*
X145382258Y-99773120D01*
X145379500Y-99802538D01*
X145379500Y-100044363D01*
X145359815Y-100111402D01*
X145343185Y-100132039D01*
X145192999Y-100282227D01*
X145125228Y-100349997D01*
X145125224Y-100350002D01*
X145077307Y-100432998D01*
X145077307Y-100432999D01*
X145077306Y-100433001D01*
X145052500Y-100525578D01*
X145052500Y-100525580D01*
X145052500Y-101655553D01*
X145032815Y-101722592D01*
X144980011Y-101768347D01*
X144910853Y-101778291D01*
X144887546Y-101772595D01*
X144829697Y-101752353D01*
X144829699Y-101752353D01*
X144799270Y-101749500D01*
X144799266Y-101749500D01*
X144390734Y-101749500D01*
X144390730Y-101749500D01*
X144360300Y-101752353D01*
X144360298Y-101752353D01*
X144232119Y-101797206D01*
X144232117Y-101797207D01*
X144122850Y-101877850D01*
X144071638Y-101947240D01*
X144015990Y-101989491D01*
X143946334Y-101994949D01*
X143884785Y-101961881D01*
X143884187Y-101961287D01*
X142473819Y-100550919D01*
X142440334Y-100489596D01*
X142437500Y-100463238D01*
X142437500Y-97337584D01*
X142457185Y-97270545D01*
X142509989Y-97224790D01*
X142579147Y-97214846D01*
X142596094Y-97218507D01*
X142729089Y-97257145D01*
X142750000Y-97258789D01*
X142750000Y-96730000D01*
X142561500Y-96730000D01*
X142494461Y-96710315D01*
X142448706Y-96657511D01*
X142437500Y-96606000D01*
X142437500Y-96354000D01*
X142457185Y-96286961D01*
X142509989Y-96241206D01*
X142561500Y-96230000D01*
X143126000Y-96230000D01*
X143193039Y-96249685D01*
G37*
%TD.AperFunction*%
%TA.AperFunction,Conductor*%
G36*
X163193039Y-96249685D02*
G01*
X163238794Y-96302489D01*
X163250000Y-96354000D01*
X163250000Y-97258789D01*
X163270910Y-97257145D01*
X163426195Y-97212031D01*
X163565374Y-97129721D01*
X163565383Y-97129714D01*
X163679714Y-97015383D01*
X163679719Y-97015377D01*
X163710158Y-96963907D01*
X163761227Y-96916223D01*
X163829969Y-96903719D01*
X163894558Y-96930364D01*
X163904572Y-96939346D01*
X165455755Y-98490529D01*
X165489240Y-98551852D01*
X165484256Y-98621544D01*
X165442384Y-98677477D01*
X165376920Y-98701894D01*
X165351889Y-98701149D01*
X165300001Y-98694318D01*
X165299999Y-98694318D01*
X165143239Y-98714955D01*
X165143237Y-98714956D01*
X164997160Y-98775463D01*
X164871718Y-98871718D01*
X164775463Y-98997160D01*
X164714956Y-99143237D01*
X164714955Y-99143239D01*
X164693257Y-99308058D01*
X164690728Y-99307725D01*
X164674633Y-99362539D01*
X164621829Y-99408294D01*
X164570318Y-99419500D01*
X164262546Y-99419500D01*
X164233125Y-99422258D01*
X164233115Y-99422260D01*
X164109207Y-99465618D01*
X164003576Y-99543576D01*
X163925618Y-99649207D01*
X163882258Y-99773118D01*
X163882258Y-99773120D01*
X163879500Y-99802538D01*
X163879500Y-100044363D01*
X163859815Y-100111402D01*
X163843185Y-100132039D01*
X163676499Y-100298727D01*
X163608728Y-100366497D01*
X163608724Y-100366502D01*
X163560807Y-100449498D01*
X163560807Y-100449499D01*
X163560806Y-100449501D01*
X163536000Y-100542078D01*
X163536000Y-100542080D01*
X163536000Y-101674779D01*
X163516315Y-101741818D01*
X163463511Y-101787573D01*
X163394353Y-101797517D01*
X163371047Y-101791821D01*
X163329699Y-101777353D01*
X163299270Y-101774500D01*
X163299266Y-101774500D01*
X162890734Y-101774500D01*
X162890730Y-101774500D01*
X162860300Y-101777353D01*
X162860298Y-101777353D01*
X162732119Y-101822206D01*
X162732113Y-101822209D01*
X162635133Y-101893784D01*
X162569504Y-101917755D01*
X162501334Y-101902439D01*
X162452266Y-101852699D01*
X162437500Y-101794014D01*
X162437500Y-97337584D01*
X162457185Y-97270545D01*
X162509989Y-97224790D01*
X162579147Y-97214846D01*
X162596094Y-97218507D01*
X162729089Y-97257145D01*
X162750000Y-97258789D01*
X162750000Y-96730000D01*
X162561500Y-96730000D01*
X162494461Y-96710315D01*
X162448706Y-96657511D01*
X162437500Y-96606000D01*
X162437500Y-96354000D01*
X162457185Y-96286961D01*
X162509989Y-96241206D01*
X162561500Y-96230000D01*
X163126000Y-96230000D01*
X163193039Y-96249685D01*
G37*
%TD.AperFunction*%
%TA.AperFunction,Conductor*%
G36*
X135193039Y-87219685D02*
G01*
X135238794Y-87272489D01*
X135250000Y-87324000D01*
X135250000Y-88449999D01*
X135524972Y-88449999D01*
X135524986Y-88449998D01*
X135627697Y-88439505D01*
X135794119Y-88384358D01*
X135794130Y-88384353D01*
X135926903Y-88302458D01*
X135994295Y-88284017D01*
X136060959Y-88304939D01*
X136105729Y-88358581D01*
X136116000Y-88407996D01*
X136116000Y-91138737D01*
X136096315Y-91205776D01*
X136043511Y-91251531D01*
X135974353Y-91261475D01*
X135928881Y-91245470D01*
X135916195Y-91237968D01*
X135916190Y-91237965D01*
X135770001Y-91195493D01*
X135770000Y-91195494D01*
X135770000Y-92804503D01*
X135916195Y-92762031D01*
X136055372Y-92679722D01*
X136055380Y-92679716D01*
X136105936Y-92629160D01*
X136167259Y-92595674D01*
X136234569Y-92599797D01*
X136257181Y-92607710D01*
X136257189Y-92607710D01*
X136257190Y-92607711D01*
X136286930Y-92610500D01*
X136286934Y-92610500D01*
X136673070Y-92610500D01*
X136686289Y-92609260D01*
X136702819Y-92607710D01*
X136770112Y-92584163D01*
X136839891Y-92580600D01*
X136898749Y-92613523D01*
X137199181Y-92913955D01*
X137232666Y-92975278D01*
X137235500Y-93001636D01*
X137235500Y-98014026D01*
X137235500Y-98109870D01*
X137260306Y-98202447D01*
X137260307Y-98202448D01*
X137260307Y-98202449D01*
X137308224Y-98285445D01*
X137308228Y-98285450D01*
X137599681Y-98576903D01*
X137633166Y-98638226D01*
X137636000Y-98664584D01*
X137636000Y-98761242D01*
X137616315Y-98828281D01*
X137587487Y-98859617D01*
X137571722Y-98871714D01*
X137571720Y-98871716D01*
X137571718Y-98871718D01*
X137531984Y-98923501D01*
X137475463Y-98997160D01*
X137414956Y-99143237D01*
X137414955Y-99143239D01*
X137393257Y-99308058D01*
X137391445Y-99307819D01*
X137374633Y-99365076D01*
X137321829Y-99410831D01*
X137258743Y-99421496D01*
X137256331Y-99421269D01*
X137237457Y-99419500D01*
X137237452Y-99419500D01*
X136762546Y-99419500D01*
X136733125Y-99422258D01*
X136733115Y-99422260D01*
X136609207Y-99465618D01*
X136503576Y-99543576D01*
X136425618Y-99649207D01*
X136382258Y-99773118D01*
X136382258Y-99773120D01*
X136379500Y-99802538D01*
X136379500Y-100044363D01*
X136359815Y-100111402D01*
X136343181Y-100132044D01*
X136237021Y-100238204D01*
X136175698Y-100271689D01*
X136106006Y-100266705D01*
X136050073Y-100224833D01*
X136026099Y-100160557D01*
X136025941Y-100160576D01*
X136025862Y-100159922D01*
X136025656Y-100159369D01*
X136025561Y-100157929D01*
X136025500Y-100156913D01*
X136025500Y-100156898D01*
X136014877Y-100068436D01*
X135959361Y-99927658D01*
X135959360Y-99927657D01*
X135959360Y-99927656D01*
X135867922Y-99807077D01*
X135740584Y-99710514D01*
X135741970Y-99708685D01*
X135701679Y-99667372D01*
X135687683Y-99598919D01*
X135712918Y-99533765D01*
X135769372Y-99492598D01*
X135772245Y-99491606D01*
X135794122Y-99484356D01*
X135794124Y-99484356D01*
X135943345Y-99392315D01*
X136067315Y-99268345D01*
X136159356Y-99119124D01*
X136159358Y-99119119D01*
X136214505Y-98952697D01*
X136214506Y-98952690D01*
X136224999Y-98849986D01*
X136225000Y-98849973D01*
X136225000Y-98800000D01*
X134874000Y-98800000D01*
X134806961Y-98780315D01*
X134761206Y-98727511D01*
X134750000Y-98676000D01*
X134750000Y-98300000D01*
X135250000Y-98300000D01*
X136224999Y-98300000D01*
X136224999Y-98250028D01*
X136224998Y-98250013D01*
X136214505Y-98147302D01*
X136159358Y-97980880D01*
X136159356Y-97980875D01*
X136067315Y-97831654D01*
X135943345Y-97707684D01*
X135794124Y-97615643D01*
X135794119Y-97615641D01*
X135627697Y-97560494D01*
X135627690Y-97560493D01*
X135524986Y-97550000D01*
X135250000Y-97550000D01*
X135250000Y-98300000D01*
X134750000Y-98300000D01*
X134750000Y-97550000D01*
X134475029Y-97550000D01*
X134475012Y-97550001D01*
X134372302Y-97560494D01*
X134205880Y-97615641D01*
X134205875Y-97615643D01*
X134056654Y-97707684D01*
X134012181Y-97752158D01*
X133950858Y-97785643D01*
X133881166Y-97780659D01*
X133825233Y-97738787D01*
X133800816Y-97673323D01*
X133800500Y-97664477D01*
X133800500Y-92250000D01*
X134741210Y-92250000D01*
X134742854Y-92270910D01*
X134787968Y-92426195D01*
X134870278Y-92565374D01*
X134870285Y-92565383D01*
X134984616Y-92679714D01*
X134984625Y-92679721D01*
X135123804Y-92762031D01*
X135270000Y-92804504D01*
X135270000Y-92250000D01*
X134741210Y-92250000D01*
X133800500Y-92250000D01*
X133800500Y-91749999D01*
X134741209Y-91749999D01*
X134741210Y-91750000D01*
X135270000Y-91750000D01*
X135270000Y-91195494D01*
X135269998Y-91195493D01*
X135123809Y-91237965D01*
X135123806Y-91237967D01*
X134984625Y-91320278D01*
X134984616Y-91320285D01*
X134870285Y-91434616D01*
X134870278Y-91434625D01*
X134787968Y-91573804D01*
X134787966Y-91573809D01*
X134742855Y-91729081D01*
X134742854Y-91729087D01*
X134741209Y-91749999D01*
X133800500Y-91749999D01*
X133800500Y-88335523D01*
X133820185Y-88268484D01*
X133872989Y-88222729D01*
X133942147Y-88212785D01*
X134005703Y-88241810D01*
X134012181Y-88247842D01*
X134056654Y-88292315D01*
X134205875Y-88384356D01*
X134205880Y-88384358D01*
X134372302Y-88439505D01*
X134372309Y-88439506D01*
X134475019Y-88449999D01*
X134749999Y-88449999D01*
X134750000Y-88449998D01*
X134750000Y-87324000D01*
X134769685Y-87256961D01*
X134822489Y-87211206D01*
X134874000Y-87200000D01*
X135126000Y-87200000D01*
X135193039Y-87219685D01*
G37*
%TD.AperFunction*%
%TA.AperFunction,Conductor*%
G36*
X157213284Y-92383685D02*
G01*
X157233926Y-92400319D01*
X157261652Y-92428045D01*
X157261654Y-92428046D01*
X157261658Y-92428050D01*
X157373422Y-92484997D01*
X157374698Y-92485647D01*
X157468475Y-92500499D01*
X157468481Y-92500500D01*
X158095567Y-92500499D01*
X158162605Y-92520183D01*
X158208360Y-92572987D01*
X158218304Y-92642146D01*
X158202954Y-92686498D01*
X158160806Y-92759500D01*
X158160128Y-92762031D01*
X158136000Y-92852078D01*
X158136000Y-92852080D01*
X158136000Y-92883246D01*
X158116315Y-92950285D01*
X158085634Y-92983016D01*
X158003576Y-93043576D01*
X157925618Y-93149207D01*
X157882258Y-93273118D01*
X157882258Y-93273120D01*
X157879500Y-93302538D01*
X157879500Y-93677453D01*
X157882258Y-93706874D01*
X157882260Y-93706884D01*
X157925619Y-93830794D01*
X157925619Y-93830795D01*
X157996154Y-93926367D01*
X158020125Y-93991996D01*
X158004809Y-94060166D01*
X157996154Y-94073633D01*
X157925619Y-94169204D01*
X157925619Y-94169205D01*
X157882258Y-94293118D01*
X157882258Y-94293120D01*
X157879500Y-94322538D01*
X157879500Y-94697453D01*
X157882258Y-94726874D01*
X157882260Y-94726884D01*
X157925619Y-94850794D01*
X157925619Y-94850795D01*
X157995011Y-94944818D01*
X158018982Y-95010447D01*
X158003666Y-95078617D01*
X157995012Y-95092084D01*
X157936147Y-95171844D01*
X157892291Y-95297173D01*
X157892289Y-95297185D01*
X157889500Y-95326929D01*
X157889500Y-95564364D01*
X157869815Y-95631403D01*
X157853181Y-95652045D01*
X157635228Y-95869997D01*
X157635224Y-95870002D01*
X157587307Y-95952998D01*
X157587307Y-95952999D01*
X157587306Y-95953001D01*
X157562500Y-96045578D01*
X157562500Y-96045580D01*
X157562500Y-99138265D01*
X157542815Y-99205304D01*
X157490011Y-99251059D01*
X157420853Y-99261003D01*
X157403905Y-99257342D01*
X157285126Y-99222833D01*
X157250000Y-99220068D01*
X157250000Y-100116000D01*
X157230315Y-100183039D01*
X157177511Y-100228794D01*
X157126000Y-100240000D01*
X156874000Y-100240000D01*
X156806961Y-100220315D01*
X156761206Y-100167511D01*
X156750000Y-100116000D01*
X156750000Y-99413316D01*
X156768255Y-99351144D01*
X156767209Y-99350540D01*
X156771273Y-99343501D01*
X156819194Y-99260499D01*
X156844000Y-99167922D01*
X156844000Y-99072078D01*
X156844000Y-92614756D01*
X156863685Y-92547717D01*
X156894365Y-92514987D01*
X156934999Y-92484999D01*
X156987128Y-92414365D01*
X157042775Y-92372116D01*
X157086898Y-92364000D01*
X157146245Y-92364000D01*
X157213284Y-92383685D01*
G37*
%TD.AperFunction*%
%TA.AperFunction,Conductor*%
G36*
X138879039Y-96249685D02*
G01*
X138924794Y-96302489D01*
X138936000Y-96354000D01*
X138936000Y-96606000D01*
X138916315Y-96673039D01*
X138863511Y-96718794D01*
X138812000Y-96730000D01*
X138750000Y-96730000D01*
X138750000Y-97258789D01*
X138770913Y-97257145D01*
X138777405Y-97255259D01*
X138847274Y-97255458D01*
X138905944Y-97293400D01*
X138934788Y-97357038D01*
X138936000Y-97374335D01*
X138936000Y-98121864D01*
X138916315Y-98188903D01*
X138863511Y-98234658D01*
X138794353Y-98244602D01*
X138730797Y-98215577D01*
X138724319Y-98209545D01*
X138326819Y-97812045D01*
X138293334Y-97750722D01*
X138290500Y-97724364D01*
X138290500Y-96354000D01*
X138310185Y-96286961D01*
X138362989Y-96241206D01*
X138414500Y-96230000D01*
X138812000Y-96230000D01*
X138879039Y-96249685D01*
G37*
%TD.AperFunction*%
%TD*%
M02*
