%TF.GenerationSoftware,KiCad,Pcbnew,8.0.3-8.0.3-0~ubuntu22.04.1*%
%TF.CreationDate,2024-07-15T21:37:19+02:00*%
%TF.ProjectId,MT2AO8,4d543241-4f38-42e6-9b69-6361645f7063,rev?*%
%TF.SameCoordinates,Original*%
%TF.FileFunction,Soldermask,Top*%
%TF.FilePolarity,Negative*%
%FSLAX46Y46*%
G04 Gerber Fmt 4.6, Leading zero omitted, Abs format (unit mm)*
G04 Created by KiCad (PCBNEW 8.0.3-8.0.3-0~ubuntu22.04.1) date 2024-07-15 21:37:19*
%MOMM*%
%LPD*%
G01*
G04 APERTURE LIST*
G04 Aperture macros list*
%AMRoundRect*
0 Rectangle with rounded corners*
0 $1 Rounding radius*
0 $2 $3 $4 $5 $6 $7 $8 $9 X,Y pos of 4 corners*
0 Add a 4 corners polygon primitive as box body*
4,1,4,$2,$3,$4,$5,$6,$7,$8,$9,$2,$3,0*
0 Add four circle primitives for the rounded corners*
1,1,$1+$1,$2,$3*
1,1,$1+$1,$4,$5*
1,1,$1+$1,$6,$7*
1,1,$1+$1,$8,$9*
0 Add four rect primitives between the rounded corners*
20,1,$1+$1,$2,$3,$4,$5,0*
20,1,$1+$1,$4,$5,$6,$7,0*
20,1,$1+$1,$6,$7,$8,$9,0*
20,1,$1+$1,$8,$9,$2,$3,0*%
G04 Aperture macros list end*
%ADD10RoundRect,0.140000X0.170000X-0.140000X0.170000X0.140000X-0.170000X0.140000X-0.170000X-0.140000X0*%
%ADD11RoundRect,0.135000X-0.185000X0.135000X-0.185000X-0.135000X0.185000X-0.135000X0.185000X0.135000X0*%
%ADD12RoundRect,0.135000X0.185000X-0.135000X0.185000X0.135000X-0.185000X0.135000X-0.185000X-0.135000X0*%
%ADD13RoundRect,0.140000X0.140000X0.170000X-0.140000X0.170000X-0.140000X-0.170000X0.140000X-0.170000X0*%
%ADD14RoundRect,0.250000X-0.475000X0.250000X-0.475000X-0.250000X0.475000X-0.250000X0.475000X0.250000X0*%
%ADD15RoundRect,0.150000X0.825000X0.150000X-0.825000X0.150000X-0.825000X-0.150000X0.825000X-0.150000X0*%
%ADD16RoundRect,0.100000X-0.637500X-0.100000X0.637500X-0.100000X0.637500X0.100000X-0.637500X0.100000X0*%
%ADD17RoundRect,0.150000X0.150000X-0.825000X0.150000X0.825000X-0.150000X0.825000X-0.150000X-0.825000X0*%
%ADD18RoundRect,0.250000X0.475000X-0.250000X0.475000X0.250000X-0.475000X0.250000X-0.475000X-0.250000X0*%
%ADD19RoundRect,0.250000X-0.250000X-0.475000X0.250000X-0.475000X0.250000X0.475000X-0.250000X0.475000X0*%
%ADD20RoundRect,0.140000X-0.140000X-0.170000X0.140000X-0.170000X0.140000X0.170000X-0.140000X0.170000X0*%
G04 APERTURE END LIST*
D10*
%TO.C,C18*%
X163000000Y-96480000D03*
X163000000Y-95520000D03*
%TD*%
D11*
%TO.C,R22*%
X162500000Y-85480000D03*
X162500000Y-86500000D03*
%TD*%
D12*
%TO.C,R18*%
X135500000Y-111010000D03*
X135500000Y-109990000D03*
%TD*%
D13*
%TO.C,C1*%
X136480000Y-92000000D03*
X135520000Y-92000000D03*
%TD*%
D11*
%TO.C,R24*%
X158500000Y-93490000D03*
X158500000Y-94510000D03*
%TD*%
%TO.C,R21*%
X161500000Y-85490000D03*
X161500000Y-86510000D03*
%TD*%
D14*
%TO.C,C10*%
X141000000Y-106550000D03*
X141000000Y-108450000D03*
%TD*%
D12*
%TO.C,R37*%
X154000000Y-111010000D03*
X154000000Y-109990000D03*
%TD*%
D14*
%TO.C,C9*%
X135000000Y-98550000D03*
X135000000Y-100450000D03*
%TD*%
D11*
%TO.C,R1*%
X139500000Y-85530000D03*
X139500000Y-86550000D03*
%TD*%
D15*
%TO.C,U4*%
X141975000Y-83500000D03*
X141975000Y-82230000D03*
X141975000Y-80960000D03*
X141975000Y-79690000D03*
X137025000Y-79690000D03*
X137025000Y-80960000D03*
X137025000Y-82230000D03*
X137025000Y-83500000D03*
%TD*%
D12*
%TO.C,R11*%
X145000000Y-111010000D03*
X145000000Y-109990000D03*
%TD*%
%TO.C,R25*%
X164500000Y-111010000D03*
X164500000Y-109990000D03*
%TD*%
D13*
%TO.C,C14*%
X156480000Y-92000000D03*
X155520000Y-92000000D03*
%TD*%
D12*
%TO.C,R6*%
X146000000Y-111000000D03*
X146000000Y-109980000D03*
%TD*%
D16*
%TO.C,U5*%
X158137500Y-88100000D03*
X158137500Y-88750000D03*
X158137500Y-89400000D03*
X158137500Y-90050000D03*
X158137500Y-90700000D03*
X158137500Y-91350000D03*
X158137500Y-92000000D03*
X163862500Y-92000000D03*
X163862500Y-91350000D03*
X163862500Y-90700000D03*
X163862500Y-90050000D03*
X163862500Y-89400000D03*
X163862500Y-88750000D03*
X163862500Y-88100000D03*
%TD*%
D11*
%TO.C,R17*%
X139000000Y-100000000D03*
X139000000Y-101020000D03*
%TD*%
D17*
%TO.C,U7*%
X153595000Y-108000000D03*
X154865000Y-108000000D03*
X156135000Y-108000000D03*
X157405000Y-108000000D03*
X157405000Y-103050000D03*
X156135000Y-103050000D03*
X154865000Y-103050000D03*
X153595000Y-103050000D03*
%TD*%
D18*
%TO.C,C3*%
X142500000Y-104450000D03*
X142500000Y-102550000D03*
%TD*%
D11*
%TO.C,R2*%
X141500000Y-85520000D03*
X141500000Y-86540000D03*
%TD*%
D10*
%TO.C,C5*%
X143000000Y-96480000D03*
X143000000Y-95520000D03*
%TD*%
D11*
%TO.C,R34*%
X156000000Y-99990000D03*
X156000000Y-101010000D03*
%TD*%
%TO.C,R5*%
X141500000Y-93490000D03*
X141500000Y-94510000D03*
%TD*%
D10*
%TO.C,C6*%
X141500000Y-96480000D03*
X141500000Y-95520000D03*
%TD*%
D11*
%TO.C,R31*%
X164500000Y-99990000D03*
X164500000Y-101010000D03*
%TD*%
%TO.C,R10*%
X148000000Y-99990000D03*
X148000000Y-101010000D03*
%TD*%
D14*
%TO.C,C13*%
X135000000Y-85550000D03*
X135000000Y-87450000D03*
%TD*%
D19*
%TO.C,C12*%
X136550000Y-77500000D03*
X138450000Y-77500000D03*
%TD*%
D11*
%TO.C,R15*%
X138000000Y-99990000D03*
X138000000Y-101010000D03*
%TD*%
D12*
%TO.C,R16*%
X137500000Y-111000000D03*
X137500000Y-109980000D03*
%TD*%
D10*
%TO.C,C21*%
X160000000Y-96500000D03*
X160000000Y-95540000D03*
%TD*%
D11*
%TO.C,R36*%
X157000000Y-99990000D03*
X157000000Y-101010000D03*
%TD*%
D14*
%TO.C,C17*%
X159500000Y-106500000D03*
X159500000Y-108400000D03*
%TD*%
D18*
%TO.C,C23*%
X167000000Y-112450000D03*
X167000000Y-110550000D03*
%TD*%
%TO.C,C16*%
X151500000Y-104450000D03*
X151500000Y-102550000D03*
%TD*%
D11*
%TO.C,R26*%
X165500000Y-99990000D03*
X165500000Y-101010000D03*
%TD*%
%TO.C,R13*%
X138500000Y-93490000D03*
X138500000Y-94510000D03*
%TD*%
%TO.C,R20*%
X159500000Y-85510000D03*
X159500000Y-86530000D03*
%TD*%
D12*
%TO.C,R35*%
X156000000Y-111010000D03*
X156000000Y-109990000D03*
%TD*%
D17*
%TO.C,U2*%
X144595000Y-107975000D03*
X145865000Y-107975000D03*
X147135000Y-107975000D03*
X148405000Y-107975000D03*
X148405000Y-103025000D03*
X147135000Y-103025000D03*
X145865000Y-103025000D03*
X144595000Y-103025000D03*
%TD*%
D11*
%TO.C,R27*%
X161500000Y-93490000D03*
X161500000Y-94510000D03*
%TD*%
D16*
%TO.C,U1*%
X138137500Y-88100000D03*
X138137500Y-88750000D03*
X138137500Y-89400000D03*
X138137500Y-90050000D03*
X138137500Y-90700000D03*
X138137500Y-91350000D03*
X138137500Y-92000000D03*
X143862500Y-92000000D03*
X143862500Y-91350000D03*
X143862500Y-90700000D03*
X143862500Y-90050000D03*
X143862500Y-89400000D03*
X143862500Y-88750000D03*
X143862500Y-88100000D03*
%TD*%
D11*
%TO.C,R29*%
X166500000Y-99990000D03*
X166500000Y-101010000D03*
%TD*%
D10*
%TO.C,C8*%
X138500000Y-96480000D03*
X138500000Y-95520000D03*
%TD*%
D12*
%TO.C,R14*%
X136500000Y-111010000D03*
X136500000Y-109990000D03*
%TD*%
D11*
%TO.C,R12*%
X146000000Y-99990000D03*
X146000000Y-101010000D03*
%TD*%
D18*
%TO.C,C22*%
X161000000Y-104450000D03*
X161000000Y-102550000D03*
%TD*%
D12*
%TO.C,R30*%
X163500000Y-111010000D03*
X163500000Y-109990000D03*
%TD*%
D11*
%TO.C,R8*%
X140000000Y-93490000D03*
X140000000Y-94510000D03*
%TD*%
%TO.C,R19*%
X137000000Y-99990000D03*
X137000000Y-101010000D03*
%TD*%
D10*
%TO.C,C19*%
X158500000Y-96480000D03*
X158500000Y-95520000D03*
%TD*%
D11*
%TO.C,R4*%
X143000000Y-93490000D03*
X143000000Y-94510000D03*
%TD*%
D14*
%TO.C,C11*%
X144500000Y-80050000D03*
X144500000Y-81950000D03*
%TD*%
D10*
%TO.C,C20*%
X161500000Y-96480000D03*
X161500000Y-95520000D03*
%TD*%
D11*
%TO.C,R38*%
X155000000Y-99990000D03*
X155000000Y-101010000D03*
%TD*%
%TO.C,R23*%
X163000000Y-93480000D03*
X163000000Y-94500000D03*
%TD*%
%TO.C,R3*%
X142500000Y-85530000D03*
X142500000Y-86550000D03*
%TD*%
D10*
%TO.C,R9*%
X147000000Y-110980000D03*
X147000000Y-110020000D03*
%TD*%
D14*
%TO.C,C4*%
X150500000Y-106550000D03*
X150500000Y-108450000D03*
%TD*%
D12*
%TO.C,R33*%
X155000000Y-111010000D03*
X155000000Y-109990000D03*
%TD*%
D10*
%TO.C,C7*%
X140000000Y-96480000D03*
X140000000Y-95520000D03*
%TD*%
%TO.C,R28*%
X165500000Y-110980000D03*
X165500000Y-110020000D03*
%TD*%
D17*
%TO.C,U6*%
X163095000Y-108000000D03*
X164365000Y-108000000D03*
X165635000Y-108000000D03*
X166905000Y-108000000D03*
X166905000Y-103050000D03*
X165635000Y-103050000D03*
X164365000Y-103050000D03*
X163095000Y-103050000D03*
%TD*%
D20*
%TO.C,C2*%
X145520000Y-91500000D03*
X146480000Y-91500000D03*
%TD*%
D17*
%TO.C,U3*%
X135095000Y-107975000D03*
X136365000Y-107975000D03*
X137635000Y-107975000D03*
X138905000Y-107975000D03*
X138905000Y-103025000D03*
X137635000Y-103025000D03*
X136365000Y-103025000D03*
X135095000Y-103025000D03*
%TD*%
D20*
%TO.C,C15*%
X165520000Y-91500000D03*
X166480000Y-91500000D03*
%TD*%
D11*
%TO.C,R7*%
X147000000Y-99990000D03*
X147000000Y-101010000D03*
%TD*%
%TO.C,R32*%
X160000000Y-93490000D03*
X160000000Y-94510000D03*
%TD*%
M02*
