%TF.GenerationSoftware,KiCad,Pcbnew,8.0.3-8.0.3-0~ubuntu22.04.1*%
%TF.CreationDate,2024-07-15T21:37:10+02:00*%
%TF.ProjectId,MT2AO8,4d543241-4f38-42e6-9b69-6361645f7063,rev?*%
%TF.SameCoordinates,Original*%
%TF.FileFunction,Paste,Bot*%
%TF.FilePolarity,Positive*%
%FSLAX46Y46*%
G04 Gerber Fmt 4.6, Leading zero omitted, Abs format (unit mm)*
G04 Created by KiCad (PCBNEW 8.0.3-8.0.3-0~ubuntu22.04.1) date 2024-07-15 21:37:10*
%MOMM*%
%LPD*%
G01*
G04 APERTURE LIST*
%ADD10R,1.000000X3.150000*%
G04 APERTURE END LIST*
D10*
%TO.C,J3*%
X158190000Y-112975000D03*
X158190000Y-118025000D03*
X160730000Y-112975000D03*
X160730000Y-118025000D03*
X163270000Y-112975000D03*
X163270000Y-118025000D03*
X165810000Y-112975000D03*
X165810000Y-118025000D03*
%TD*%
%TO.C,J1*%
X164970000Y-80025000D03*
X164970000Y-74975000D03*
X162430000Y-80025000D03*
X162430000Y-74975000D03*
X159890000Y-80025000D03*
X159890000Y-74975000D03*
X157350000Y-80025000D03*
X157350000Y-74975000D03*
X154810000Y-80025000D03*
X154810000Y-74975000D03*
X152270000Y-80025000D03*
X152270000Y-74975000D03*
X149730000Y-80025000D03*
X149730000Y-74975000D03*
X147190000Y-80025000D03*
X147190000Y-74975000D03*
X144650000Y-80025000D03*
X144650000Y-74975000D03*
X142110000Y-80025000D03*
X142110000Y-74975000D03*
X139570000Y-80025000D03*
X139570000Y-74975000D03*
X137030000Y-80025000D03*
X137030000Y-74975000D03*
%TD*%
%TO.C,J2*%
X136190000Y-112975000D03*
X136190000Y-118025000D03*
X138730000Y-112975000D03*
X138730000Y-118025000D03*
X141270000Y-112975000D03*
X141270000Y-118025000D03*
X143810000Y-112975000D03*
X143810000Y-118025000D03*
%TD*%
M02*
