%TF.GenerationSoftware,KiCad,Pcbnew,8.0.3-8.0.3-0~ubuntu22.04.1*%
%TF.CreationDate,2024-07-15T21:36:58+02:00*%
%TF.ProjectId,MT2AO8,4d543241-4f38-42e6-9b69-6361645f7063,rev?*%
%TF.SameCoordinates,Original*%
%TF.FileFunction,Copper,L2,Inr*%
%TF.FilePolarity,Positive*%
%FSLAX46Y46*%
G04 Gerber Fmt 4.6, Leading zero omitted, Abs format (unit mm)*
G04 Created by KiCad (PCBNEW 8.0.3-8.0.3-0~ubuntu22.04.1) date 2024-07-15 21:36:58*
%MOMM*%
%LPD*%
G01*
G04 APERTURE LIST*
%TA.AperFunction,ViaPad*%
%ADD10C,0.600000*%
%TD*%
G04 APERTURE END LIST*
D10*
%TO.N,*%
X152000000Y-115500000D03*
X150000000Y-114000000D03*
X150000000Y-115000000D03*
X152000000Y-114500000D03*
X150000000Y-116000000D03*
X152000000Y-116600000D03*
X150000000Y-117000000D03*
%TO.N,+5V*%
X165900000Y-80025000D03*
%TO.N,GND*%
X143000000Y-97200000D03*
X136700000Y-95500000D03*
X138900000Y-77600000D03*
X142600000Y-111300000D03*
X160700000Y-97100000D03*
X136700000Y-93500000D03*
X136700000Y-94500000D03*
X158490000Y-97100000D03*
X138900000Y-99700000D03*
X157200000Y-98000000D03*
X143900000Y-119000000D03*
X148000000Y-100000000D03*
X138600000Y-97400000D03*
X140800000Y-97300000D03*
X163000000Y-97100000D03*
X157200000Y-97100000D03*
%TO.N,+12V*%
X142300000Y-102600000D03*
X161000000Y-102500000D03*
X163100000Y-103700000D03*
X153600000Y-103500000D03*
X144600000Y-103500000D03*
X151800000Y-102600000D03*
X135100000Y-102400000D03*
X164900000Y-76100000D03*
X164900000Y-73900000D03*
%TO.N,+3V3*%
X162500000Y-91900000D03*
X145600000Y-91100000D03*
X162400000Y-81100000D03*
X139700000Y-89700000D03*
X160000000Y-89400000D03*
%TO.N,-12V*%
X150900000Y-108200000D03*
X162300000Y-75700000D03*
X141500000Y-108600000D03*
X162400000Y-73700000D03*
X139300000Y-108100000D03*
X167200000Y-108000000D03*
X160400000Y-108500000D03*
%TO.N,VREF_DAC*%
X165300000Y-99300000D03*
X146900000Y-99400000D03*
X146000000Y-111400000D03*
X138000000Y-99300000D03*
X154993455Y-111206545D03*
X156100000Y-99500000D03*
%TO.N,AO_CH0+*%
X136190000Y-112975000D03*
%TO.N,AO_CH1+*%
X136600000Y-104600000D03*
%TO.N,AO_CH2+*%
X141270000Y-112975000D03*
%TO.N,AO_CH3+*%
X145900000Y-104500000D03*
%TO.N,RX_DAC0*%
X159890000Y-80025000D03*
%TO.N,CS_DAC*%
X159500000Y-84336500D03*
X154810000Y-80025000D03*
%TO.N,RX_DAC1*%
X159890000Y-74975000D03*
%TO.N,CLK_DAC*%
X162500000Y-85480000D03*
X142500000Y-85530000D03*
%TO.N,AO_CH6+*%
X163270000Y-112975000D03*
%TO.N,AO_CH5+*%
X155300000Y-104300000D03*
%TO.N,AO_CH7+*%
X164700000Y-104500000D03*
%TO.N,AO_CH4+*%
X158190000Y-112975000D03*
%TD*%
%TA.AperFunction,Conductor*%
%TO.N,+12V*%
G36*
X168142539Y-71820185D02*
G01*
X168188294Y-71872989D01*
X168199500Y-71924500D01*
X168199500Y-103976000D01*
X168179815Y-104043039D01*
X168127011Y-104088794D01*
X168075500Y-104100000D01*
X165207233Y-104100000D01*
X165140194Y-104080315D01*
X165131747Y-104074376D01*
X165002842Y-103975464D01*
X164856762Y-103914956D01*
X164856760Y-103914955D01*
X164700001Y-103894318D01*
X164699999Y-103894318D01*
X164543239Y-103914955D01*
X164543237Y-103914956D01*
X164397157Y-103975464D01*
X164268253Y-104074376D01*
X164203084Y-104099570D01*
X164192767Y-104100000D01*
X155949988Y-104100000D01*
X155882949Y-104080315D01*
X155837194Y-104027511D01*
X155835427Y-104023452D01*
X155824537Y-103997161D01*
X155824536Y-103997160D01*
X155824536Y-103997159D01*
X155728282Y-103871718D01*
X155602841Y-103775464D01*
X155456762Y-103714956D01*
X155456760Y-103714955D01*
X155300001Y-103694318D01*
X155299999Y-103694318D01*
X155143239Y-103714955D01*
X155143237Y-103714956D01*
X154997160Y-103775463D01*
X154871718Y-103871718D01*
X154775462Y-103997161D01*
X154764573Y-104023452D01*
X154720733Y-104077856D01*
X154654439Y-104099921D01*
X154650012Y-104100000D01*
X146407233Y-104100000D01*
X146340194Y-104080315D01*
X146331747Y-104074376D01*
X146202842Y-103975464D01*
X146056762Y-103914956D01*
X146056760Y-103914955D01*
X145900001Y-103894318D01*
X145899999Y-103894318D01*
X145743239Y-103914955D01*
X145743237Y-103914956D01*
X145597157Y-103975464D01*
X145468253Y-104074376D01*
X145403084Y-104099570D01*
X145392767Y-104100000D01*
X136976908Y-104100000D01*
X136909869Y-104080315D01*
X136903561Y-104075880D01*
X136902842Y-104075465D01*
X136902841Y-104075464D01*
X136902839Y-104075463D01*
X136902837Y-104075462D01*
X136756762Y-104014956D01*
X136756760Y-104014955D01*
X136600001Y-103994318D01*
X136599999Y-103994318D01*
X136443239Y-104014955D01*
X136443237Y-104014956D01*
X136297162Y-104075462D01*
X136290125Y-104079526D01*
X136289236Y-104077987D01*
X136233411Y-104099570D01*
X136223092Y-104100000D01*
X133924500Y-104100000D01*
X133857461Y-104080315D01*
X133811706Y-104027511D01*
X133800500Y-103976000D01*
X133800500Y-101136794D01*
X133820185Y-101069755D01*
X133821326Y-101068011D01*
X133963189Y-100855217D01*
X134016754Y-100810356D01*
X134066363Y-100800000D01*
X135727037Y-100800000D01*
X135794076Y-100819685D01*
X135835432Y-100863780D01*
X136299999Y-101699999D01*
X136300000Y-101700000D01*
X165899999Y-101800000D01*
X165900000Y-101800000D01*
X165900000Y-99351285D01*
X165901061Y-99335099D01*
X165905682Y-99299999D01*
X165905682Y-99299998D01*
X165901061Y-99264899D01*
X165900000Y-99248714D01*
X165900000Y-80739426D01*
X165919685Y-80672387D01*
X165972489Y-80626632D01*
X166007812Y-80616488D01*
X166056762Y-80610044D01*
X166202841Y-80549536D01*
X166328282Y-80453282D01*
X166424536Y-80327841D01*
X166485044Y-80181762D01*
X166505682Y-80025000D01*
X166485044Y-79868238D01*
X166424536Y-79722159D01*
X166328282Y-79596718D01*
X166202841Y-79500464D01*
X166056762Y-79439956D01*
X166038192Y-79437511D01*
X165963277Y-79427648D01*
X165899380Y-79399381D01*
X165896780Y-79397119D01*
X164041317Y-77736967D01*
X164004482Y-77677596D01*
X164000000Y-77644557D01*
X164000000Y-71924500D01*
X164019685Y-71857461D01*
X164072489Y-71811706D01*
X164124000Y-71800500D01*
X168075500Y-71800500D01*
X168142539Y-71820185D01*
G37*
%TD.AperFunction*%
%TD*%
%TA.AperFunction,Conductor*%
%TO.N,GND*%
G36*
X135945569Y-104425185D02*
G01*
X135991324Y-104477989D01*
X136001469Y-104545686D01*
X135994318Y-104600000D01*
X135994318Y-104600001D01*
X136014955Y-104756760D01*
X136014956Y-104756762D01*
X136075464Y-104902841D01*
X136171718Y-105028282D01*
X136297159Y-105124536D01*
X136443238Y-105185044D01*
X136521619Y-105195363D01*
X136599999Y-105205682D01*
X136600000Y-105205682D01*
X136600001Y-105205682D01*
X136652254Y-105198802D01*
X136756762Y-105185044D01*
X136902841Y-105124536D01*
X137028282Y-105028282D01*
X137124536Y-104902841D01*
X137185044Y-104756762D01*
X137205682Y-104600000D01*
X137198531Y-104545684D01*
X137209296Y-104476651D01*
X137255676Y-104424395D01*
X137321470Y-104405500D01*
X145173132Y-104405500D01*
X145240171Y-104425185D01*
X145285926Y-104477989D01*
X145296071Y-104513315D01*
X145314955Y-104656760D01*
X145314956Y-104656762D01*
X145356376Y-104756760D01*
X145375464Y-104802841D01*
X145471718Y-104928282D01*
X145597159Y-105024536D01*
X145743238Y-105085044D01*
X145821619Y-105095363D01*
X145899999Y-105105682D01*
X145900000Y-105105682D01*
X145900001Y-105105682D01*
X145952254Y-105098802D01*
X146056762Y-105085044D01*
X146202841Y-105024536D01*
X146328282Y-104928282D01*
X146424536Y-104802841D01*
X146485044Y-104656762D01*
X146503929Y-104513314D01*
X146532195Y-104449418D01*
X146590520Y-104410947D01*
X146626868Y-104405500D01*
X154610869Y-104405500D01*
X154677908Y-104425185D01*
X154723663Y-104477989D01*
X154725430Y-104482048D01*
X154775462Y-104602838D01*
X154775463Y-104602840D01*
X154775464Y-104602841D01*
X154871718Y-104728282D01*
X154997159Y-104824536D01*
X155143238Y-104885044D01*
X155221619Y-104895363D01*
X155299999Y-104905682D01*
X155300000Y-104905682D01*
X155300001Y-104905682D01*
X155352254Y-104898802D01*
X155456762Y-104885044D01*
X155602841Y-104824536D01*
X155728282Y-104728282D01*
X155824536Y-104602841D01*
X155874570Y-104482047D01*
X155918411Y-104427644D01*
X155984705Y-104405579D01*
X155989131Y-104405500D01*
X163973132Y-104405500D01*
X164040171Y-104425185D01*
X164085926Y-104477989D01*
X164096071Y-104513315D01*
X164114955Y-104656760D01*
X164114956Y-104656762D01*
X164156376Y-104756760D01*
X164175464Y-104802841D01*
X164271718Y-104928282D01*
X164397159Y-105024536D01*
X164543238Y-105085044D01*
X164621619Y-105095363D01*
X164699999Y-105105682D01*
X164700000Y-105105682D01*
X164700001Y-105105682D01*
X164752254Y-105098802D01*
X164856762Y-105085044D01*
X165002841Y-105024536D01*
X165128282Y-104928282D01*
X165224536Y-104802841D01*
X165285044Y-104656762D01*
X165303929Y-104513314D01*
X165332195Y-104449418D01*
X165390520Y-104410947D01*
X165426868Y-104405500D01*
X168075500Y-104405500D01*
X168142539Y-104425185D01*
X168188294Y-104477989D01*
X168199500Y-104529500D01*
X168199500Y-121075500D01*
X168179815Y-121142539D01*
X168127011Y-121188294D01*
X168075500Y-121199500D01*
X133924500Y-121199500D01*
X133857461Y-121179815D01*
X133811706Y-121127011D01*
X133800500Y-121075500D01*
X133800500Y-113999998D01*
X149394318Y-113999998D01*
X149394318Y-114000001D01*
X149414955Y-114156760D01*
X149414956Y-114156762D01*
X149475464Y-114302842D01*
X149568826Y-114424514D01*
X149594020Y-114489683D01*
X149579981Y-114558128D01*
X149568826Y-114575486D01*
X149475464Y-114697157D01*
X149414956Y-114843237D01*
X149414955Y-114843239D01*
X149394318Y-114999998D01*
X149394318Y-115000001D01*
X149414955Y-115156760D01*
X149414956Y-115156762D01*
X149475464Y-115302842D01*
X149568826Y-115424514D01*
X149594020Y-115489683D01*
X149579981Y-115558128D01*
X149568826Y-115575486D01*
X149475464Y-115697157D01*
X149414956Y-115843237D01*
X149414955Y-115843239D01*
X149394318Y-115999998D01*
X149394318Y-116000001D01*
X149414955Y-116156760D01*
X149414956Y-116156762D01*
X149475464Y-116302842D01*
X149568826Y-116424514D01*
X149594020Y-116489683D01*
X149579981Y-116558128D01*
X149568826Y-116575486D01*
X149475464Y-116697157D01*
X149414956Y-116843237D01*
X149414955Y-116843239D01*
X149394318Y-116999998D01*
X149394318Y-117000001D01*
X149414955Y-117156760D01*
X149414956Y-117156762D01*
X149475464Y-117302841D01*
X149571718Y-117428282D01*
X149697159Y-117524536D01*
X149843238Y-117585044D01*
X149921619Y-117595363D01*
X149999999Y-117605682D01*
X150000000Y-117605682D01*
X150000001Y-117605682D01*
X150052254Y-117598802D01*
X150156762Y-117585044D01*
X150302841Y-117524536D01*
X150428282Y-117428282D01*
X150524536Y-117302841D01*
X150585044Y-117156762D01*
X150605682Y-117000000D01*
X150585044Y-116843238D01*
X150524536Y-116697159D01*
X150431171Y-116575484D01*
X150405979Y-116510317D01*
X150420017Y-116441873D01*
X150431167Y-116424521D01*
X150524536Y-116302841D01*
X150585044Y-116156762D01*
X150605682Y-116000000D01*
X150585044Y-115843238D01*
X150524536Y-115697159D01*
X150431171Y-115575484D01*
X150405979Y-115510317D01*
X150420017Y-115441873D01*
X150431167Y-115424521D01*
X150524536Y-115302841D01*
X150585044Y-115156762D01*
X150605682Y-115000000D01*
X150598029Y-114941873D01*
X150585044Y-114843239D01*
X150585044Y-114843238D01*
X150524536Y-114697159D01*
X150431171Y-114575484D01*
X150405979Y-114510317D01*
X150408095Y-114499998D01*
X151394318Y-114499998D01*
X151394318Y-114500001D01*
X151414955Y-114656760D01*
X151414956Y-114656762D01*
X151475464Y-114802842D01*
X151568826Y-114924514D01*
X151594020Y-114989683D01*
X151579981Y-115058128D01*
X151568826Y-115075486D01*
X151475464Y-115197157D01*
X151414956Y-115343237D01*
X151414955Y-115343239D01*
X151394318Y-115499998D01*
X151394318Y-115500001D01*
X151414955Y-115656760D01*
X151414956Y-115656762D01*
X151475464Y-115802841D01*
X151571718Y-115928282D01*
X151602140Y-115951625D01*
X151643341Y-116008052D01*
X151647496Y-116077798D01*
X151613283Y-116138719D01*
X151602146Y-116148369D01*
X151571719Y-116171717D01*
X151571718Y-116171718D01*
X151475463Y-116297160D01*
X151414956Y-116443237D01*
X151414955Y-116443239D01*
X151394318Y-116599998D01*
X151394318Y-116600001D01*
X151414955Y-116756760D01*
X151414956Y-116756762D01*
X151450775Y-116843238D01*
X151475464Y-116902841D01*
X151571718Y-117028282D01*
X151697159Y-117124536D01*
X151843238Y-117185044D01*
X151921619Y-117195363D01*
X151999999Y-117205682D01*
X152000000Y-117205682D01*
X152000001Y-117205682D01*
X152052254Y-117198802D01*
X152156762Y-117185044D01*
X152302841Y-117124536D01*
X152428282Y-117028282D01*
X152524536Y-116902841D01*
X152585044Y-116756762D01*
X152605682Y-116600000D01*
X152600169Y-116558128D01*
X152585044Y-116443239D01*
X152585044Y-116443238D01*
X152524536Y-116297159D01*
X152428282Y-116171718D01*
X152397860Y-116148374D01*
X152356658Y-116091949D01*
X152352503Y-116022203D01*
X152386714Y-115961282D01*
X152397851Y-115951631D01*
X152428282Y-115928282D01*
X152524536Y-115802841D01*
X152585044Y-115656762D01*
X152605682Y-115500000D01*
X152598029Y-115441873D01*
X152585044Y-115343239D01*
X152585044Y-115343238D01*
X152524536Y-115197159D01*
X152431171Y-115075484D01*
X152405979Y-115010317D01*
X152420017Y-114941873D01*
X152431167Y-114924521D01*
X152524536Y-114802841D01*
X152585044Y-114656762D01*
X152605682Y-114500000D01*
X152598029Y-114441873D01*
X152585044Y-114343239D01*
X152585044Y-114343238D01*
X152524536Y-114197159D01*
X152428282Y-114071718D01*
X152302841Y-113975464D01*
X152156762Y-113914956D01*
X152156760Y-113914955D01*
X152000001Y-113894318D01*
X151999999Y-113894318D01*
X151843239Y-113914955D01*
X151843237Y-113914956D01*
X151697160Y-113975463D01*
X151571718Y-114071718D01*
X151475463Y-114197160D01*
X151414956Y-114343237D01*
X151414955Y-114343239D01*
X151394318Y-114499998D01*
X150408095Y-114499998D01*
X150420017Y-114441873D01*
X150431167Y-114424521D01*
X150524536Y-114302841D01*
X150585044Y-114156762D01*
X150605682Y-114000000D01*
X150585044Y-113843238D01*
X150524536Y-113697159D01*
X150428282Y-113571718D01*
X150302841Y-113475464D01*
X150156762Y-113414956D01*
X150156760Y-113414955D01*
X150000001Y-113394318D01*
X149999999Y-113394318D01*
X149843239Y-113414955D01*
X149843237Y-113414956D01*
X149697160Y-113475463D01*
X149571718Y-113571718D01*
X149475463Y-113697160D01*
X149414956Y-113843237D01*
X149414955Y-113843239D01*
X149394318Y-113999998D01*
X133800500Y-113999998D01*
X133800500Y-112974998D01*
X135584318Y-112974998D01*
X135584318Y-112975001D01*
X135604955Y-113131760D01*
X135604956Y-113131762D01*
X135665464Y-113277841D01*
X135761718Y-113403282D01*
X135887159Y-113499536D01*
X136033238Y-113560044D01*
X136111619Y-113570363D01*
X136189999Y-113580682D01*
X136190000Y-113580682D01*
X136190001Y-113580682D01*
X136242254Y-113573802D01*
X136346762Y-113560044D01*
X136492841Y-113499536D01*
X136618282Y-113403282D01*
X136714536Y-113277841D01*
X136775044Y-113131762D01*
X136795682Y-112975000D01*
X136795682Y-112974998D01*
X140664318Y-112974998D01*
X140664318Y-112975001D01*
X140684955Y-113131760D01*
X140684956Y-113131762D01*
X140745464Y-113277841D01*
X140841718Y-113403282D01*
X140967159Y-113499536D01*
X141113238Y-113560044D01*
X141191619Y-113570363D01*
X141269999Y-113580682D01*
X141270000Y-113580682D01*
X141270001Y-113580682D01*
X141322254Y-113573802D01*
X141426762Y-113560044D01*
X141572841Y-113499536D01*
X141698282Y-113403282D01*
X141794536Y-113277841D01*
X141855044Y-113131762D01*
X141875682Y-112975000D01*
X141875682Y-112974998D01*
X157584318Y-112974998D01*
X157584318Y-112975001D01*
X157604955Y-113131760D01*
X157604956Y-113131762D01*
X157665464Y-113277841D01*
X157761718Y-113403282D01*
X157887159Y-113499536D01*
X158033238Y-113560044D01*
X158111619Y-113570363D01*
X158189999Y-113580682D01*
X158190000Y-113580682D01*
X158190001Y-113580682D01*
X158242254Y-113573802D01*
X158346762Y-113560044D01*
X158492841Y-113499536D01*
X158618282Y-113403282D01*
X158714536Y-113277841D01*
X158775044Y-113131762D01*
X158795682Y-112975000D01*
X158795682Y-112974998D01*
X162664318Y-112974998D01*
X162664318Y-112975001D01*
X162684955Y-113131760D01*
X162684956Y-113131762D01*
X162745464Y-113277841D01*
X162841718Y-113403282D01*
X162967159Y-113499536D01*
X163113238Y-113560044D01*
X163191619Y-113570363D01*
X163269999Y-113580682D01*
X163270000Y-113580682D01*
X163270001Y-113580682D01*
X163322254Y-113573802D01*
X163426762Y-113560044D01*
X163572841Y-113499536D01*
X163698282Y-113403282D01*
X163794536Y-113277841D01*
X163855044Y-113131762D01*
X163875682Y-112975000D01*
X163855044Y-112818238D01*
X163794536Y-112672159D01*
X163698282Y-112546718D01*
X163572841Y-112450464D01*
X163426762Y-112389956D01*
X163426760Y-112389955D01*
X163270001Y-112369318D01*
X163269999Y-112369318D01*
X163113239Y-112389955D01*
X163113237Y-112389956D01*
X162967160Y-112450463D01*
X162841718Y-112546718D01*
X162745463Y-112672160D01*
X162684956Y-112818237D01*
X162684955Y-112818239D01*
X162664318Y-112974998D01*
X158795682Y-112974998D01*
X158775044Y-112818238D01*
X158714536Y-112672159D01*
X158618282Y-112546718D01*
X158492841Y-112450464D01*
X158346762Y-112389956D01*
X158346760Y-112389955D01*
X158190001Y-112369318D01*
X158189999Y-112369318D01*
X158033239Y-112389955D01*
X158033237Y-112389956D01*
X157887160Y-112450463D01*
X157761718Y-112546718D01*
X157665463Y-112672160D01*
X157604956Y-112818237D01*
X157604955Y-112818239D01*
X157584318Y-112974998D01*
X141875682Y-112974998D01*
X141855044Y-112818238D01*
X141794536Y-112672159D01*
X141698282Y-112546718D01*
X141572841Y-112450464D01*
X141426762Y-112389956D01*
X141426760Y-112389955D01*
X141270001Y-112369318D01*
X141269999Y-112369318D01*
X141113239Y-112389955D01*
X141113237Y-112389956D01*
X140967160Y-112450463D01*
X140841718Y-112546718D01*
X140745463Y-112672160D01*
X140684956Y-112818237D01*
X140684955Y-112818239D01*
X140664318Y-112974998D01*
X136795682Y-112974998D01*
X136775044Y-112818238D01*
X136714536Y-112672159D01*
X136618282Y-112546718D01*
X136492841Y-112450464D01*
X136346762Y-112389956D01*
X136346760Y-112389955D01*
X136190001Y-112369318D01*
X136189999Y-112369318D01*
X136033239Y-112389955D01*
X136033237Y-112389956D01*
X135887160Y-112450463D01*
X135761718Y-112546718D01*
X135665463Y-112672160D01*
X135604956Y-112818237D01*
X135604955Y-112818239D01*
X135584318Y-112974998D01*
X133800500Y-112974998D01*
X133800500Y-111399998D01*
X145394318Y-111399998D01*
X145394318Y-111400001D01*
X145414955Y-111556760D01*
X145414956Y-111556762D01*
X145475464Y-111702841D01*
X145571718Y-111828282D01*
X145697159Y-111924536D01*
X145843238Y-111985044D01*
X145921619Y-111995363D01*
X145999999Y-112005682D01*
X146000000Y-112005682D01*
X146000001Y-112005682D01*
X146052254Y-111998802D01*
X146156762Y-111985044D01*
X146302841Y-111924536D01*
X146428282Y-111828282D01*
X146524536Y-111702841D01*
X146585044Y-111556762D01*
X146605682Y-111400000D01*
X146585044Y-111243238D01*
X146569844Y-111206543D01*
X154387773Y-111206543D01*
X154387773Y-111206546D01*
X154408410Y-111363305D01*
X154408411Y-111363307D01*
X154468919Y-111509386D01*
X154565173Y-111634827D01*
X154690614Y-111731081D01*
X154836693Y-111791589D01*
X154915074Y-111801908D01*
X154993454Y-111812227D01*
X154993455Y-111812227D01*
X154993456Y-111812227D01*
X155045709Y-111805347D01*
X155150217Y-111791589D01*
X155296296Y-111731081D01*
X155421737Y-111634827D01*
X155517991Y-111509386D01*
X155578499Y-111363307D01*
X155599137Y-111206545D01*
X155578499Y-111049783D01*
X155517991Y-110903704D01*
X155421737Y-110778263D01*
X155296296Y-110682009D01*
X155150217Y-110621501D01*
X155150215Y-110621500D01*
X154993456Y-110600863D01*
X154993454Y-110600863D01*
X154836694Y-110621500D01*
X154836692Y-110621501D01*
X154690615Y-110682008D01*
X154565173Y-110778263D01*
X154468918Y-110903705D01*
X154408411Y-111049782D01*
X154408410Y-111049784D01*
X154387773Y-111206543D01*
X146569844Y-111206543D01*
X146524536Y-111097159D01*
X146428282Y-110971718D01*
X146302841Y-110875464D01*
X146156762Y-110814956D01*
X146156760Y-110814955D01*
X146000001Y-110794318D01*
X145999999Y-110794318D01*
X145843239Y-110814955D01*
X145843237Y-110814956D01*
X145697160Y-110875463D01*
X145571718Y-110971718D01*
X145475463Y-111097160D01*
X145414956Y-111243237D01*
X145414955Y-111243239D01*
X145394318Y-111399998D01*
X133800500Y-111399998D01*
X133800500Y-108099998D01*
X138694318Y-108099998D01*
X138694318Y-108100001D01*
X138714955Y-108256760D01*
X138714956Y-108256762D01*
X138756376Y-108356760D01*
X138775464Y-108402841D01*
X138871718Y-108528282D01*
X138997159Y-108624536D01*
X139143238Y-108685044D01*
X139221619Y-108695363D01*
X139299999Y-108705682D01*
X139300000Y-108705682D01*
X139300001Y-108705682D01*
X139352254Y-108698802D01*
X139456762Y-108685044D01*
X139602841Y-108624536D01*
X139634820Y-108599998D01*
X140894318Y-108599998D01*
X140894318Y-108600001D01*
X140914955Y-108756760D01*
X140914956Y-108756762D01*
X140975464Y-108902841D01*
X141071718Y-109028282D01*
X141197159Y-109124536D01*
X141343238Y-109185044D01*
X141421619Y-109195363D01*
X141499999Y-109205682D01*
X141500000Y-109205682D01*
X141500001Y-109205682D01*
X141552254Y-109198802D01*
X141656762Y-109185044D01*
X141802841Y-109124536D01*
X141928282Y-109028282D01*
X142024536Y-108902841D01*
X142085044Y-108756762D01*
X142105682Y-108600000D01*
X142085044Y-108443238D01*
X142024536Y-108297159D01*
X141949982Y-108199998D01*
X150294318Y-108199998D01*
X150294318Y-108200001D01*
X150314955Y-108356760D01*
X150314956Y-108356762D01*
X150374287Y-108500001D01*
X150375464Y-108502841D01*
X150471718Y-108628282D01*
X150597159Y-108724536D01*
X150743238Y-108785044D01*
X150821619Y-108795363D01*
X150899999Y-108805682D01*
X150900000Y-108805682D01*
X150900001Y-108805682D01*
X150952254Y-108798802D01*
X151056762Y-108785044D01*
X151202841Y-108724536D01*
X151328282Y-108628282D01*
X151424536Y-108502841D01*
X151425714Y-108499998D01*
X159794318Y-108499998D01*
X159794318Y-108500001D01*
X159814955Y-108656760D01*
X159814956Y-108656762D01*
X159856376Y-108756760D01*
X159875464Y-108802841D01*
X159971718Y-108928282D01*
X160097159Y-109024536D01*
X160243238Y-109085044D01*
X160321619Y-109095363D01*
X160399999Y-109105682D01*
X160400000Y-109105682D01*
X160400001Y-109105682D01*
X160452254Y-109098802D01*
X160556762Y-109085044D01*
X160702841Y-109024536D01*
X160828282Y-108928282D01*
X160924536Y-108802841D01*
X160985044Y-108656762D01*
X161005682Y-108500000D01*
X160985044Y-108343238D01*
X160924536Y-108197159D01*
X160828282Y-108071718D01*
X160734814Y-107999998D01*
X166594318Y-107999998D01*
X166594318Y-108000001D01*
X166614955Y-108156760D01*
X166614956Y-108156762D01*
X166656376Y-108256760D01*
X166675464Y-108302841D01*
X166771718Y-108428282D01*
X166897159Y-108524536D01*
X167043238Y-108585044D01*
X167121619Y-108595363D01*
X167199999Y-108605682D01*
X167200000Y-108605682D01*
X167200001Y-108605682D01*
X167252254Y-108598802D01*
X167356762Y-108585044D01*
X167502841Y-108524536D01*
X167628282Y-108428282D01*
X167724536Y-108302841D01*
X167785044Y-108156762D01*
X167805682Y-108000000D01*
X167785044Y-107843238D01*
X167724536Y-107697159D01*
X167628282Y-107571718D01*
X167502841Y-107475464D01*
X167356762Y-107414956D01*
X167356760Y-107414955D01*
X167200001Y-107394318D01*
X167199999Y-107394318D01*
X167043239Y-107414955D01*
X167043237Y-107414956D01*
X166897160Y-107475463D01*
X166771718Y-107571718D01*
X166675463Y-107697160D01*
X166614956Y-107843237D01*
X166614955Y-107843239D01*
X166594318Y-107999998D01*
X160734814Y-107999998D01*
X160702841Y-107975464D01*
X160556762Y-107914956D01*
X160556760Y-107914955D01*
X160400001Y-107894318D01*
X160399999Y-107894318D01*
X160243239Y-107914955D01*
X160243237Y-107914956D01*
X160097160Y-107975463D01*
X159971718Y-108071718D01*
X159875463Y-108197160D01*
X159814956Y-108343237D01*
X159814955Y-108343239D01*
X159794318Y-108499998D01*
X151425714Y-108499998D01*
X151485044Y-108356762D01*
X151505682Y-108200000D01*
X151499989Y-108156760D01*
X151485044Y-108043239D01*
X151485044Y-108043238D01*
X151424536Y-107897159D01*
X151328282Y-107771718D01*
X151202841Y-107675464D01*
X151193797Y-107671718D01*
X151056762Y-107614956D01*
X151056760Y-107614955D01*
X150900001Y-107594318D01*
X150899999Y-107594318D01*
X150743239Y-107614955D01*
X150743237Y-107614956D01*
X150597160Y-107675463D01*
X150471718Y-107771718D01*
X150375463Y-107897160D01*
X150314956Y-108043237D01*
X150314955Y-108043239D01*
X150294318Y-108199998D01*
X141949982Y-108199998D01*
X141928282Y-108171718D01*
X141802841Y-108075464D01*
X141793797Y-108071718D01*
X141656762Y-108014956D01*
X141656760Y-108014955D01*
X141500001Y-107994318D01*
X141499999Y-107994318D01*
X141343239Y-108014955D01*
X141343237Y-108014956D01*
X141197160Y-108075463D01*
X141071718Y-108171718D01*
X140975463Y-108297160D01*
X140914956Y-108443237D01*
X140914955Y-108443239D01*
X140894318Y-108599998D01*
X139634820Y-108599998D01*
X139728282Y-108528282D01*
X139824536Y-108402841D01*
X139885044Y-108256762D01*
X139905682Y-108100000D01*
X139885044Y-107943238D01*
X139824536Y-107797159D01*
X139728282Y-107671718D01*
X139602841Y-107575464D01*
X139593797Y-107571718D01*
X139456762Y-107514956D01*
X139456760Y-107514955D01*
X139300001Y-107494318D01*
X139299999Y-107494318D01*
X139143239Y-107514955D01*
X139143237Y-107514956D01*
X138997160Y-107575463D01*
X138871718Y-107671718D01*
X138775463Y-107797160D01*
X138714956Y-107943237D01*
X138714955Y-107943239D01*
X138694318Y-108099998D01*
X133800500Y-108099998D01*
X133800500Y-104529500D01*
X133820185Y-104462461D01*
X133872989Y-104416706D01*
X133924500Y-104405500D01*
X135878530Y-104405500D01*
X135945569Y-104425185D01*
G37*
%TD.AperFunction*%
%TA.AperFunction,Conductor*%
G36*
X163637539Y-71820185D02*
G01*
X163683294Y-71872989D01*
X163694500Y-71924500D01*
X163694500Y-77644557D01*
X163697271Y-77685603D01*
X163697274Y-77685632D01*
X163701755Y-77718662D01*
X163704233Y-77734000D01*
X163744885Y-77838652D01*
X163744888Y-77838658D01*
X163781722Y-77898029D01*
X163837606Y-77964633D01*
X163837609Y-77964635D01*
X163837611Y-77964638D01*
X164861049Y-78880346D01*
X165463745Y-79419601D01*
X165500580Y-79478972D01*
X165499469Y-79548833D01*
X165475144Y-79589103D01*
X165476666Y-79590271D01*
X165471720Y-79596716D01*
X165471718Y-79596718D01*
X165393728Y-79698356D01*
X165375463Y-79722160D01*
X165314956Y-79868237D01*
X165314955Y-79868239D01*
X165294318Y-80024998D01*
X165294318Y-80025001D01*
X165314955Y-80181760D01*
X165314956Y-80181762D01*
X165375464Y-80327841D01*
X165471717Y-80453281D01*
X165471719Y-80453283D01*
X165562527Y-80522962D01*
X165603730Y-80579390D01*
X165607885Y-80649136D01*
X165607336Y-80651233D01*
X165606878Y-80653338D01*
X165594500Y-80739428D01*
X165594500Y-98591694D01*
X165574815Y-98658733D01*
X165522011Y-98704488D01*
X165454315Y-98714633D01*
X165300001Y-98694318D01*
X165299999Y-98694318D01*
X165143239Y-98714955D01*
X165143237Y-98714956D01*
X164997160Y-98775463D01*
X164871718Y-98871718D01*
X164775463Y-98997160D01*
X164714956Y-99143237D01*
X164714955Y-99143239D01*
X164694318Y-99299998D01*
X164694318Y-99300001D01*
X164714955Y-99456760D01*
X164714956Y-99456762D01*
X164756376Y-99556760D01*
X164775464Y-99602841D01*
X164871718Y-99728282D01*
X164997159Y-99824536D01*
X165143238Y-99885044D01*
X165221619Y-99895363D01*
X165299999Y-99905682D01*
X165300000Y-99905682D01*
X165300001Y-99905682D01*
X165372540Y-99896132D01*
X165454315Y-99885366D01*
X165523350Y-99896132D01*
X165575606Y-99942511D01*
X165594500Y-100008305D01*
X165594500Y-101369046D01*
X165574815Y-101436085D01*
X165522011Y-101481840D01*
X165470081Y-101493045D01*
X136552772Y-101395351D01*
X136485800Y-101375440D01*
X136444796Y-101331572D01*
X136102489Y-100715420D01*
X136102487Y-100715416D01*
X136058263Y-100654790D01*
X136016907Y-100610695D01*
X135980224Y-100577447D01*
X135880148Y-100526561D01*
X135880147Y-100526560D01*
X135880146Y-100526560D01*
X135813115Y-100506877D01*
X135813109Y-100506876D01*
X135727037Y-100494500D01*
X134066363Y-100494500D01*
X134066362Y-100494500D01*
X134050756Y-100496111D01*
X134003935Y-100500947D01*
X133969938Y-100508044D01*
X133954306Y-100511307D01*
X133953509Y-100511499D01*
X133953410Y-100511494D01*
X133952477Y-100511689D01*
X133952426Y-100511445D01*
X133883725Y-100508044D01*
X133826886Y-100467410D01*
X133801040Y-100402496D01*
X133800500Y-100390940D01*
X133800500Y-99299998D01*
X137394318Y-99299998D01*
X137394318Y-99300001D01*
X137414955Y-99456760D01*
X137414956Y-99456762D01*
X137456376Y-99556760D01*
X137475464Y-99602841D01*
X137571718Y-99728282D01*
X137697159Y-99824536D01*
X137843238Y-99885044D01*
X137921619Y-99895363D01*
X137999999Y-99905682D01*
X138000000Y-99905682D01*
X138000001Y-99905682D01*
X138052254Y-99898802D01*
X138156762Y-99885044D01*
X138302841Y-99824536D01*
X138428282Y-99728282D01*
X138524536Y-99602841D01*
X138585044Y-99456762D01*
X138592517Y-99399998D01*
X146294318Y-99399998D01*
X146294318Y-99400001D01*
X146314955Y-99556760D01*
X146314956Y-99556762D01*
X146356376Y-99656760D01*
X146375464Y-99702841D01*
X146471718Y-99828282D01*
X146597159Y-99924536D01*
X146743238Y-99985044D01*
X146821619Y-99995363D01*
X146899999Y-100005682D01*
X146900000Y-100005682D01*
X146900001Y-100005682D01*
X146952254Y-99998802D01*
X147056762Y-99985044D01*
X147202841Y-99924536D01*
X147328282Y-99828282D01*
X147424536Y-99702841D01*
X147485044Y-99556762D01*
X147492517Y-99499998D01*
X155494318Y-99499998D01*
X155494318Y-99500001D01*
X155514955Y-99656760D01*
X155514956Y-99656762D01*
X155575464Y-99802841D01*
X155671718Y-99928282D01*
X155797159Y-100024536D01*
X155943238Y-100085044D01*
X156021619Y-100095363D01*
X156099999Y-100105682D01*
X156100000Y-100105682D01*
X156100001Y-100105682D01*
X156152254Y-100098802D01*
X156256762Y-100085044D01*
X156402841Y-100024536D01*
X156528282Y-99928282D01*
X156624536Y-99802841D01*
X156685044Y-99656762D01*
X156705682Y-99500000D01*
X156699989Y-99456760D01*
X156685044Y-99343239D01*
X156685044Y-99343238D01*
X156624536Y-99197159D01*
X156528282Y-99071718D01*
X156402841Y-98975464D01*
X156393797Y-98971718D01*
X156256762Y-98914956D01*
X156256760Y-98914955D01*
X156100001Y-98894318D01*
X156099999Y-98894318D01*
X155943239Y-98914955D01*
X155943237Y-98914956D01*
X155797160Y-98975463D01*
X155671718Y-99071718D01*
X155575463Y-99197160D01*
X155514956Y-99343237D01*
X155514955Y-99343239D01*
X155494318Y-99499998D01*
X147492517Y-99499998D01*
X147505682Y-99400000D01*
X147485044Y-99243238D01*
X147424536Y-99097159D01*
X147328282Y-98971718D01*
X147202841Y-98875464D01*
X147193797Y-98871718D01*
X147056762Y-98814956D01*
X147056760Y-98814955D01*
X146900001Y-98794318D01*
X146899999Y-98794318D01*
X146743239Y-98814955D01*
X146743237Y-98814956D01*
X146597160Y-98875463D01*
X146471718Y-98971718D01*
X146375463Y-99097160D01*
X146314956Y-99243237D01*
X146314955Y-99243239D01*
X146294318Y-99399998D01*
X138592517Y-99399998D01*
X138605682Y-99300000D01*
X138585044Y-99143238D01*
X138524536Y-98997159D01*
X138428282Y-98871718D01*
X138302841Y-98775464D01*
X138156762Y-98714956D01*
X138156760Y-98714955D01*
X138000001Y-98694318D01*
X137999999Y-98694318D01*
X137843239Y-98714955D01*
X137843237Y-98714956D01*
X137697160Y-98775463D01*
X137571718Y-98871718D01*
X137475463Y-98997160D01*
X137414956Y-99143237D01*
X137414955Y-99143239D01*
X137394318Y-99299998D01*
X133800500Y-99299998D01*
X133800500Y-91899998D01*
X161894318Y-91899998D01*
X161894318Y-91900001D01*
X161914955Y-92056760D01*
X161914956Y-92056762D01*
X161975464Y-92202841D01*
X162071718Y-92328282D01*
X162197159Y-92424536D01*
X162343238Y-92485044D01*
X162421619Y-92495363D01*
X162499999Y-92505682D01*
X162500000Y-92505682D01*
X162500001Y-92505682D01*
X162552254Y-92498802D01*
X162656762Y-92485044D01*
X162802841Y-92424536D01*
X162928282Y-92328282D01*
X163024536Y-92202841D01*
X163085044Y-92056762D01*
X163105682Y-91900000D01*
X163085044Y-91743238D01*
X163024536Y-91597159D01*
X162928282Y-91471718D01*
X162802841Y-91375464D01*
X162656762Y-91314956D01*
X162656760Y-91314955D01*
X162500001Y-91294318D01*
X162499999Y-91294318D01*
X162343239Y-91314955D01*
X162343237Y-91314956D01*
X162197160Y-91375463D01*
X162071718Y-91471718D01*
X161975463Y-91597160D01*
X161914956Y-91743237D01*
X161914955Y-91743239D01*
X161894318Y-91899998D01*
X133800500Y-91899998D01*
X133800500Y-91099998D01*
X144994318Y-91099998D01*
X144994318Y-91100001D01*
X145014955Y-91256760D01*
X145014956Y-91256762D01*
X145075464Y-91402841D01*
X145171718Y-91528282D01*
X145297159Y-91624536D01*
X145443238Y-91685044D01*
X145521619Y-91695363D01*
X145599999Y-91705682D01*
X145600000Y-91705682D01*
X145600001Y-91705682D01*
X145652254Y-91698802D01*
X145756762Y-91685044D01*
X145902841Y-91624536D01*
X146028282Y-91528282D01*
X146124536Y-91402841D01*
X146185044Y-91256762D01*
X146205682Y-91100000D01*
X146185044Y-90943238D01*
X146124536Y-90797159D01*
X146028282Y-90671718D01*
X145902841Y-90575464D01*
X145756762Y-90514956D01*
X145756760Y-90514955D01*
X145600001Y-90494318D01*
X145599999Y-90494318D01*
X145443239Y-90514955D01*
X145443237Y-90514956D01*
X145297160Y-90575463D01*
X145171718Y-90671718D01*
X145075463Y-90797160D01*
X145014956Y-90943237D01*
X145014955Y-90943239D01*
X144994318Y-91099998D01*
X133800500Y-91099998D01*
X133800500Y-89699998D01*
X139094318Y-89699998D01*
X139094318Y-89700001D01*
X139114955Y-89856760D01*
X139114956Y-89856762D01*
X139175464Y-90002841D01*
X139271718Y-90128282D01*
X139397159Y-90224536D01*
X139543238Y-90285044D01*
X139621619Y-90295363D01*
X139699999Y-90305682D01*
X139700000Y-90305682D01*
X139700001Y-90305682D01*
X139752254Y-90298802D01*
X139856762Y-90285044D01*
X140002841Y-90224536D01*
X140128282Y-90128282D01*
X140224536Y-90002841D01*
X140285044Y-89856762D01*
X140305682Y-89700000D01*
X140285044Y-89543238D01*
X140225712Y-89399998D01*
X159394318Y-89399998D01*
X159394318Y-89400001D01*
X159414955Y-89556760D01*
X159414956Y-89556762D01*
X159474287Y-89700001D01*
X159475464Y-89702841D01*
X159571718Y-89828282D01*
X159697159Y-89924536D01*
X159843238Y-89985044D01*
X159921619Y-89995363D01*
X159999999Y-90005682D01*
X160000000Y-90005682D01*
X160000001Y-90005682D01*
X160052254Y-89998802D01*
X160156762Y-89985044D01*
X160302841Y-89924536D01*
X160428282Y-89828282D01*
X160524536Y-89702841D01*
X160585044Y-89556762D01*
X160605682Y-89400000D01*
X160585044Y-89243238D01*
X160524536Y-89097159D01*
X160428282Y-88971718D01*
X160302841Y-88875464D01*
X160156762Y-88814956D01*
X160156760Y-88814955D01*
X160000001Y-88794318D01*
X159999999Y-88794318D01*
X159843239Y-88814955D01*
X159843237Y-88814956D01*
X159697160Y-88875463D01*
X159571718Y-88971718D01*
X159475463Y-89097160D01*
X159414956Y-89243237D01*
X159414955Y-89243239D01*
X159394318Y-89399998D01*
X140225712Y-89399998D01*
X140224536Y-89397159D01*
X140128282Y-89271718D01*
X140002841Y-89175464D01*
X139856762Y-89114956D01*
X139856760Y-89114955D01*
X139700001Y-89094318D01*
X139699999Y-89094318D01*
X139543239Y-89114955D01*
X139543237Y-89114956D01*
X139397160Y-89175463D01*
X139271718Y-89271718D01*
X139175463Y-89397160D01*
X139114956Y-89543237D01*
X139114955Y-89543239D01*
X139094318Y-89699998D01*
X133800500Y-89699998D01*
X133800500Y-85529998D01*
X141894318Y-85529998D01*
X141894318Y-85530001D01*
X141914955Y-85686760D01*
X141914956Y-85686762D01*
X141975464Y-85832841D01*
X142071718Y-85958282D01*
X142197159Y-86054536D01*
X142343238Y-86115044D01*
X142421619Y-86125363D01*
X142499999Y-86135682D01*
X142500000Y-86135682D01*
X142500001Y-86135682D01*
X142552254Y-86128802D01*
X142656762Y-86115044D01*
X142802841Y-86054536D01*
X142928282Y-85958282D01*
X143024536Y-85832841D01*
X143085044Y-85686762D01*
X143105682Y-85530000D01*
X143099099Y-85480000D01*
X143099099Y-85479998D01*
X161894318Y-85479998D01*
X161894318Y-85480001D01*
X161914955Y-85636760D01*
X161914956Y-85636762D01*
X161975464Y-85782841D01*
X162071718Y-85908282D01*
X162197159Y-86004536D01*
X162343238Y-86065044D01*
X162421619Y-86075363D01*
X162499999Y-86085682D01*
X162500000Y-86085682D01*
X162500001Y-86085682D01*
X162552254Y-86078802D01*
X162656762Y-86065044D01*
X162802841Y-86004536D01*
X162928282Y-85908282D01*
X163024536Y-85782841D01*
X163085044Y-85636762D01*
X163105682Y-85480000D01*
X163085044Y-85323238D01*
X163024536Y-85177159D01*
X162928282Y-85051718D01*
X162802841Y-84955464D01*
X162777472Y-84944956D01*
X162656762Y-84894956D01*
X162656760Y-84894955D01*
X162500001Y-84874318D01*
X162499999Y-84874318D01*
X162343239Y-84894955D01*
X162343237Y-84894956D01*
X162197160Y-84955463D01*
X162071718Y-85051718D01*
X161975463Y-85177160D01*
X161914956Y-85323237D01*
X161914955Y-85323239D01*
X161894318Y-85479998D01*
X143099099Y-85479998D01*
X143085044Y-85373239D01*
X143085044Y-85373238D01*
X143024536Y-85227159D01*
X142928282Y-85101718D01*
X142802841Y-85005464D01*
X142656762Y-84944956D01*
X142656760Y-84944955D01*
X142500001Y-84924318D01*
X142499999Y-84924318D01*
X142343239Y-84944955D01*
X142343237Y-84944956D01*
X142197160Y-85005463D01*
X142071718Y-85101718D01*
X141975463Y-85227160D01*
X141914956Y-85373237D01*
X141914955Y-85373239D01*
X141894318Y-85529998D01*
X133800500Y-85529998D01*
X133800500Y-84336498D01*
X158894318Y-84336498D01*
X158894318Y-84336501D01*
X158914955Y-84493260D01*
X158914956Y-84493262D01*
X158975464Y-84639341D01*
X159071718Y-84764782D01*
X159197159Y-84861036D01*
X159343238Y-84921544D01*
X159364309Y-84924318D01*
X159499999Y-84942182D01*
X159500000Y-84942182D01*
X159500001Y-84942182D01*
X159552254Y-84935302D01*
X159656762Y-84921544D01*
X159802841Y-84861036D01*
X159928282Y-84764782D01*
X160024536Y-84639341D01*
X160085044Y-84493262D01*
X160105682Y-84336500D01*
X160085044Y-84179738D01*
X160024536Y-84033659D01*
X159928282Y-83908218D01*
X159802841Y-83811964D01*
X159656762Y-83751456D01*
X159656760Y-83751455D01*
X159500001Y-83730818D01*
X159499999Y-83730818D01*
X159343239Y-83751455D01*
X159343237Y-83751456D01*
X159197160Y-83811963D01*
X159071718Y-83908218D01*
X158975463Y-84033660D01*
X158914956Y-84179737D01*
X158914955Y-84179739D01*
X158894318Y-84336498D01*
X133800500Y-84336498D01*
X133800500Y-81099998D01*
X161794318Y-81099998D01*
X161794318Y-81100001D01*
X161814955Y-81256760D01*
X161814956Y-81256762D01*
X161875464Y-81402841D01*
X161971718Y-81528282D01*
X162097159Y-81624536D01*
X162243238Y-81685044D01*
X162321619Y-81695363D01*
X162399999Y-81705682D01*
X162400000Y-81705682D01*
X162400001Y-81705682D01*
X162452254Y-81698802D01*
X162556762Y-81685044D01*
X162702841Y-81624536D01*
X162828282Y-81528282D01*
X162924536Y-81402841D01*
X162985044Y-81256762D01*
X163005682Y-81100000D01*
X162985044Y-80943238D01*
X162924536Y-80797159D01*
X162828282Y-80671718D01*
X162702841Y-80575464D01*
X162679978Y-80565994D01*
X162556762Y-80514956D01*
X162556760Y-80514955D01*
X162400001Y-80494318D01*
X162399999Y-80494318D01*
X162243239Y-80514955D01*
X162243237Y-80514956D01*
X162097160Y-80575463D01*
X161971718Y-80671718D01*
X161875463Y-80797160D01*
X161814956Y-80943237D01*
X161814955Y-80943239D01*
X161794318Y-81099998D01*
X133800500Y-81099998D01*
X133800500Y-80024998D01*
X154204318Y-80024998D01*
X154204318Y-80025001D01*
X154224955Y-80181760D01*
X154224956Y-80181762D01*
X154285464Y-80327841D01*
X154381718Y-80453282D01*
X154507159Y-80549536D01*
X154653238Y-80610044D01*
X154731619Y-80620363D01*
X154809999Y-80630682D01*
X154810000Y-80630682D01*
X154810001Y-80630682D01*
X154862254Y-80623802D01*
X154966762Y-80610044D01*
X155112841Y-80549536D01*
X155238282Y-80453282D01*
X155334536Y-80327841D01*
X155395044Y-80181762D01*
X155415682Y-80025000D01*
X155415682Y-80024998D01*
X159284318Y-80024998D01*
X159284318Y-80025001D01*
X159304955Y-80181760D01*
X159304956Y-80181762D01*
X159365464Y-80327841D01*
X159461718Y-80453282D01*
X159587159Y-80549536D01*
X159733238Y-80610044D01*
X159811619Y-80620363D01*
X159889999Y-80630682D01*
X159890000Y-80630682D01*
X159890001Y-80630682D01*
X159942254Y-80623802D01*
X160046762Y-80610044D01*
X160192841Y-80549536D01*
X160318282Y-80453282D01*
X160414536Y-80327841D01*
X160475044Y-80181762D01*
X160495682Y-80025000D01*
X160475044Y-79868238D01*
X160414536Y-79722159D01*
X160318282Y-79596718D01*
X160192841Y-79500464D01*
X160046762Y-79439956D01*
X160046760Y-79439955D01*
X159890001Y-79419318D01*
X159889999Y-79419318D01*
X159733239Y-79439955D01*
X159733237Y-79439956D01*
X159587160Y-79500463D01*
X159461718Y-79596718D01*
X159365463Y-79722160D01*
X159304956Y-79868237D01*
X159304955Y-79868239D01*
X159284318Y-80024998D01*
X155415682Y-80024998D01*
X155395044Y-79868238D01*
X155334536Y-79722159D01*
X155238282Y-79596718D01*
X155112841Y-79500464D01*
X154966762Y-79439956D01*
X154966760Y-79439955D01*
X154810001Y-79419318D01*
X154809999Y-79419318D01*
X154653239Y-79439955D01*
X154653237Y-79439956D01*
X154507160Y-79500463D01*
X154381718Y-79596718D01*
X154285463Y-79722160D01*
X154224956Y-79868237D01*
X154224955Y-79868239D01*
X154204318Y-80024998D01*
X133800500Y-80024998D01*
X133800500Y-75699998D01*
X161694318Y-75699998D01*
X161694318Y-75700001D01*
X161714955Y-75856760D01*
X161714956Y-75856762D01*
X161775464Y-76002841D01*
X161871718Y-76128282D01*
X161997159Y-76224536D01*
X162143238Y-76285044D01*
X162221619Y-76295363D01*
X162299999Y-76305682D01*
X162300000Y-76305682D01*
X162300001Y-76305682D01*
X162352254Y-76298802D01*
X162456762Y-76285044D01*
X162602841Y-76224536D01*
X162728282Y-76128282D01*
X162824536Y-76002841D01*
X162885044Y-75856762D01*
X162905682Y-75700000D01*
X162885044Y-75543238D01*
X162824536Y-75397159D01*
X162728282Y-75271718D01*
X162602841Y-75175464D01*
X162456762Y-75114956D01*
X162456760Y-75114955D01*
X162300001Y-75094318D01*
X162299999Y-75094318D01*
X162143239Y-75114955D01*
X162143237Y-75114956D01*
X161997160Y-75175463D01*
X161871718Y-75271718D01*
X161775463Y-75397160D01*
X161714956Y-75543237D01*
X161714955Y-75543239D01*
X161694318Y-75699998D01*
X133800500Y-75699998D01*
X133800500Y-74974998D01*
X159284318Y-74974998D01*
X159284318Y-74975001D01*
X159304955Y-75131760D01*
X159304956Y-75131762D01*
X159365464Y-75277841D01*
X159461718Y-75403282D01*
X159587159Y-75499536D01*
X159733238Y-75560044D01*
X159811619Y-75570363D01*
X159889999Y-75580682D01*
X159890000Y-75580682D01*
X159890001Y-75580682D01*
X159942254Y-75573802D01*
X160046762Y-75560044D01*
X160192841Y-75499536D01*
X160318282Y-75403282D01*
X160414536Y-75277841D01*
X160475044Y-75131762D01*
X160495682Y-74975000D01*
X160475044Y-74818238D01*
X160414536Y-74672159D01*
X160318282Y-74546718D01*
X160192841Y-74450464D01*
X160046762Y-74389956D01*
X160046760Y-74389955D01*
X159890001Y-74369318D01*
X159889999Y-74369318D01*
X159733239Y-74389955D01*
X159733237Y-74389956D01*
X159587160Y-74450463D01*
X159461718Y-74546718D01*
X159365463Y-74672160D01*
X159304956Y-74818237D01*
X159304955Y-74818239D01*
X159284318Y-74974998D01*
X133800500Y-74974998D01*
X133800500Y-73699998D01*
X161794318Y-73699998D01*
X161794318Y-73700001D01*
X161814955Y-73856760D01*
X161814956Y-73856762D01*
X161875464Y-74002841D01*
X161971718Y-74128282D01*
X162097159Y-74224536D01*
X162243238Y-74285044D01*
X162321619Y-74295363D01*
X162399999Y-74305682D01*
X162400000Y-74305682D01*
X162400001Y-74305682D01*
X162452254Y-74298802D01*
X162556762Y-74285044D01*
X162702841Y-74224536D01*
X162828282Y-74128282D01*
X162924536Y-74002841D01*
X162985044Y-73856762D01*
X163005682Y-73700000D01*
X162985044Y-73543238D01*
X162924536Y-73397159D01*
X162828282Y-73271718D01*
X162702841Y-73175464D01*
X162556762Y-73114956D01*
X162556760Y-73114955D01*
X162400001Y-73094318D01*
X162399999Y-73094318D01*
X162243239Y-73114955D01*
X162243237Y-73114956D01*
X162097160Y-73175463D01*
X161971718Y-73271718D01*
X161875463Y-73397160D01*
X161814956Y-73543237D01*
X161814955Y-73543239D01*
X161794318Y-73699998D01*
X133800500Y-73699998D01*
X133800500Y-71924500D01*
X133820185Y-71857461D01*
X133872989Y-71811706D01*
X133924500Y-71800500D01*
X163570500Y-71800500D01*
X163637539Y-71820185D01*
G37*
%TD.AperFunction*%
%TD*%
M02*
