%TF.GenerationSoftware,KiCad,Pcbnew,8.0.3-8.0.3-0~ubuntu22.04.1*%
%TF.CreationDate,2024-07-15T21:37:37+02:00*%
%TF.ProjectId,MT2AO8,4d543241-4f38-42e6-9b69-6361645f7063,rev?*%
%TF.SameCoordinates,Original*%
%TF.FileFunction,Drillmap*%
%TF.FilePolarity,Positive*%
%FSLAX45Y45*%
G04 Gerber Fmt 4.5, Leading zero omitted, Abs format (unit mm)*
G04 Created by KiCad (PCBNEW 8.0.3-8.0.3-0~ubuntu22.04.1) date 2024-07-15 21:37:37*
%MOMM*%
%LPD*%
G01*
G04 APERTURE LIST*
%ADD10C,0.200000*%
G04 APERTURE END LIST*
D10*
X13350000Y-7150000D02*
X16850000Y-7150000D01*
X13350000Y-7150000D02*
X13350000Y-12150000D01*
X16850000Y-7150000D02*
X16850000Y-12150000D01*
X13350000Y-12150000D02*
X16850000Y-12150000D01*
X13600777Y-12471484D02*
X13600777Y-12271484D01*
X13600777Y-12271484D02*
X13648396Y-12271484D01*
X13648396Y-12271484D02*
X13676967Y-12281008D01*
X13676967Y-12281008D02*
X13696015Y-12300055D01*
X13696015Y-12300055D02*
X13705539Y-12319103D01*
X13705539Y-12319103D02*
X13715062Y-12357198D01*
X13715062Y-12357198D02*
X13715062Y-12385769D01*
X13715062Y-12385769D02*
X13705539Y-12423865D01*
X13705539Y-12423865D02*
X13696015Y-12442912D01*
X13696015Y-12442912D02*
X13676967Y-12461960D01*
X13676967Y-12461960D02*
X13648396Y-12471484D01*
X13648396Y-12471484D02*
X13600777Y-12471484D01*
X13800777Y-12471484D02*
X13800777Y-12338150D01*
X13800777Y-12376246D02*
X13810301Y-12357198D01*
X13810301Y-12357198D02*
X13819824Y-12347674D01*
X13819824Y-12347674D02*
X13838872Y-12338150D01*
X13838872Y-12338150D02*
X13857920Y-12338150D01*
X13924586Y-12471484D02*
X13924586Y-12338150D01*
X13924586Y-12271484D02*
X13915062Y-12281008D01*
X13915062Y-12281008D02*
X13924586Y-12290531D01*
X13924586Y-12290531D02*
X13934110Y-12281008D01*
X13934110Y-12281008D02*
X13924586Y-12271484D01*
X13924586Y-12271484D02*
X13924586Y-12290531D01*
X14048396Y-12471484D02*
X14029348Y-12461960D01*
X14029348Y-12461960D02*
X14019824Y-12442912D01*
X14019824Y-12442912D02*
X14019824Y-12271484D01*
X14153158Y-12471484D02*
X14134110Y-12461960D01*
X14134110Y-12461960D02*
X14124586Y-12442912D01*
X14124586Y-12442912D02*
X14124586Y-12271484D01*
X14381729Y-12471484D02*
X14381729Y-12271484D01*
X14381729Y-12271484D02*
X14448396Y-12414341D01*
X14448396Y-12414341D02*
X14515062Y-12271484D01*
X14515062Y-12271484D02*
X14515062Y-12471484D01*
X14696015Y-12471484D02*
X14696015Y-12366722D01*
X14696015Y-12366722D02*
X14686491Y-12347674D01*
X14686491Y-12347674D02*
X14667443Y-12338150D01*
X14667443Y-12338150D02*
X14629348Y-12338150D01*
X14629348Y-12338150D02*
X14610301Y-12347674D01*
X14696015Y-12461960D02*
X14676967Y-12471484D01*
X14676967Y-12471484D02*
X14629348Y-12471484D01*
X14629348Y-12471484D02*
X14610301Y-12461960D01*
X14610301Y-12461960D02*
X14600777Y-12442912D01*
X14600777Y-12442912D02*
X14600777Y-12423865D01*
X14600777Y-12423865D02*
X14610301Y-12404817D01*
X14610301Y-12404817D02*
X14629348Y-12395293D01*
X14629348Y-12395293D02*
X14676967Y-12395293D01*
X14676967Y-12395293D02*
X14696015Y-12385769D01*
X14791253Y-12338150D02*
X14791253Y-12538150D01*
X14791253Y-12347674D02*
X14810301Y-12338150D01*
X14810301Y-12338150D02*
X14848396Y-12338150D01*
X14848396Y-12338150D02*
X14867443Y-12347674D01*
X14867443Y-12347674D02*
X14876967Y-12357198D01*
X14876967Y-12357198D02*
X14886491Y-12376246D01*
X14886491Y-12376246D02*
X14886491Y-12433388D01*
X14886491Y-12433388D02*
X14876967Y-12452436D01*
X14876967Y-12452436D02*
X14867443Y-12461960D01*
X14867443Y-12461960D02*
X14848396Y-12471484D01*
X14848396Y-12471484D02*
X14810301Y-12471484D01*
X14810301Y-12471484D02*
X14791253Y-12461960D01*
X14972205Y-12452436D02*
X14981729Y-12461960D01*
X14981729Y-12461960D02*
X14972205Y-12471484D01*
X14972205Y-12471484D02*
X14962682Y-12461960D01*
X14962682Y-12461960D02*
X14972205Y-12452436D01*
X14972205Y-12452436D02*
X14972205Y-12471484D01*
X14972205Y-12347674D02*
X14981729Y-12357198D01*
X14981729Y-12357198D02*
X14972205Y-12366722D01*
X14972205Y-12366722D02*
X14962682Y-12357198D01*
X14962682Y-12357198D02*
X14972205Y-12347674D01*
X14972205Y-12347674D02*
X14972205Y-12366722D01*
M02*
