%TF.GenerationSoftware,KiCad,Pcbnew,8.0.3-8.0.3-0~ubuntu22.04.1*%
%TF.CreationDate,2024-07-15T21:37:04+02:00*%
%TF.ProjectId,MT2AO8,4d543241-4f38-42e6-9b69-6361645f7063,rev?*%
%TF.SameCoordinates,Original*%
%TF.FileFunction,Copper,L4,Bot*%
%TF.FilePolarity,Positive*%
%FSLAX46Y46*%
G04 Gerber Fmt 4.6, Leading zero omitted, Abs format (unit mm)*
G04 Created by KiCad (PCBNEW 8.0.3-8.0.3-0~ubuntu22.04.1) date 2024-07-15 21:37:04*
%MOMM*%
%LPD*%
G01*
G04 APERTURE LIST*
%TA.AperFunction,SMDPad,CuDef*%
%ADD10R,1.000000X3.150000*%
%TD*%
%TA.AperFunction,ViaPad*%
%ADD11C,0.600000*%
%TD*%
%TA.AperFunction,Conductor*%
%ADD12C,0.200000*%
%TD*%
%TA.AperFunction,Conductor*%
%ADD13C,0.127000*%
%TD*%
G04 APERTURE END LIST*
D10*
%TO.P,J3,1,Pin_1*%
%TO.N,AO_CH4+*%
X158190000Y-112975000D03*
%TO.P,J3,2,Pin_2*%
%TO.N,GND*%
X158190000Y-118025000D03*
%TO.P,J3,3,Pin_3*%
%TO.N,AO_CH5+*%
X160730000Y-112975000D03*
%TO.P,J3,4,Pin_4*%
%TO.N,GND*%
X160730000Y-118025000D03*
%TO.P,J3,5,Pin_5*%
%TO.N,AO_CH6+*%
X163270000Y-112975000D03*
%TO.P,J3,6,Pin_6*%
%TO.N,GND*%
X163270000Y-118025000D03*
%TO.P,J3,7,Pin_7*%
%TO.N,AO_CH7+*%
X165810000Y-112975000D03*
%TO.P,J3,8,Pin_8*%
%TO.N,GND*%
X165810000Y-118025000D03*
%TD*%
%TO.P,J1,1,Pin_1*%
%TO.N,+5V*%
X164970000Y-80025000D03*
%TO.P,J1,2,Pin_2*%
%TO.N,+12V*%
X164970000Y-74975000D03*
%TO.P,J1,3,Pin_3*%
%TO.N,+3V3*%
X162430000Y-80025000D03*
%TO.P,J1,4,Pin_4*%
%TO.N,-12V*%
X162430000Y-74975000D03*
%TO.P,J1,5,Pin_5*%
%TO.N,RX_DAC0*%
X159890000Y-80025000D03*
%TO.P,J1,6,Pin_6*%
%TO.N,RX_DAC1*%
X159890000Y-74975000D03*
%TO.P,J1,7,Pin_7*%
%TO.N,unconnected-(J1-Pin_7-Pad7)*%
X157350000Y-80025000D03*
%TO.P,J1,8,Pin_8*%
%TO.N,unconnected-(J1-Pin_8-Pad8)*%
X157350000Y-74975000D03*
%TO.P,J1,9,Pin_9*%
%TO.N,CS_DAC*%
X154810000Y-80025000D03*
%TO.P,J1,10,Pin_10*%
%TO.N,unconnected-(J1-Pin_10-Pad10)*%
X154810000Y-74975000D03*
%TO.P,J1,11,Pin_11*%
%TO.N,CLK_DAC*%
X152270000Y-80025000D03*
%TO.P,J1,12,Pin_12*%
%TO.N,unconnected-(J1-Pin_12-Pad12)*%
X152270000Y-74975000D03*
%TO.P,J1,13,Pin_13*%
%TO.N,unconnected-(J1-Pin_13-Pad13)*%
X149730000Y-80025000D03*
%TO.P,J1,14,Pin_14*%
%TO.N,unconnected-(J1-Pin_14-Pad14)*%
X149730000Y-74975000D03*
%TO.P,J1,15,Pin_15*%
%TO.N,unconnected-(J1-Pin_15-Pad15)*%
X147190000Y-80025000D03*
%TO.P,J1,16,Pin_16*%
%TO.N,unconnected-(J1-Pin_16-Pad16)*%
X147190000Y-74975000D03*
%TO.P,J1,17,Pin_17*%
%TO.N,unconnected-(J1-Pin_17-Pad17)*%
X144650000Y-80025000D03*
%TO.P,J1,18,Pin_18*%
%TO.N,unconnected-(J1-Pin_18-Pad18)*%
X144650000Y-74975000D03*
%TO.P,J1,19,Pin_19*%
%TO.N,unconnected-(J1-Pin_19-Pad19)*%
X142110000Y-80025000D03*
%TO.P,J1,20,Pin_20*%
%TO.N,unconnected-(J1-Pin_20-Pad20)*%
X142110000Y-74975000D03*
%TO.P,J1,21,Pin_21*%
%TO.N,unconnected-(J1-Pin_21-Pad21)*%
X139570000Y-80025000D03*
%TO.P,J1,22,Pin_22*%
%TO.N,unconnected-(J1-Pin_22-Pad22)*%
X139570000Y-74975000D03*
%TO.P,J1,23,Pin_23*%
%TO.N,GND*%
X137030000Y-80025000D03*
%TO.P,J1,24,Pin_24*%
X137030000Y-74975000D03*
%TD*%
%TO.P,J2,1,Pin_1*%
%TO.N,AO_CH0+*%
X136190000Y-112975000D03*
%TO.P,J2,2,Pin_2*%
%TO.N,GND*%
X136190000Y-118025000D03*
%TO.P,J2,3,Pin_3*%
%TO.N,AO_CH1+*%
X138730000Y-112975000D03*
%TO.P,J2,4,Pin_4*%
%TO.N,GND*%
X138730000Y-118025000D03*
%TO.P,J2,5,Pin_5*%
%TO.N,AO_CH2+*%
X141270000Y-112975000D03*
%TO.P,J2,6,Pin_6*%
%TO.N,GND*%
X141270000Y-118025000D03*
%TO.P,J2,7,Pin_7*%
%TO.N,AO_CH3+*%
X143810000Y-112975000D03*
%TO.P,J2,8,Pin_8*%
%TO.N,GND*%
X143810000Y-118025000D03*
%TD*%
D11*
%TO.N,*%
X152000000Y-115500000D03*
X150000000Y-114000000D03*
X150000000Y-115000000D03*
X152000000Y-114500000D03*
X150000000Y-116000000D03*
X152000000Y-116600000D03*
X150000000Y-117000000D03*
%TO.N,+5V*%
X165900000Y-80025000D03*
%TO.N,GND*%
X143000000Y-97200000D03*
X136700000Y-95500000D03*
X138900000Y-77600000D03*
X142600000Y-111300000D03*
X160700000Y-97100000D03*
X136700000Y-93500000D03*
X136700000Y-94500000D03*
X158490000Y-97100000D03*
X138900000Y-99700000D03*
X157200000Y-98000000D03*
X143900000Y-119000000D03*
X148000000Y-100000000D03*
X138600000Y-97400000D03*
X140800000Y-97300000D03*
X163000000Y-97100000D03*
X157200000Y-97100000D03*
%TO.N,+12V*%
X142300000Y-102600000D03*
X161000000Y-102500000D03*
X163100000Y-103700000D03*
X153600000Y-103500000D03*
X144600000Y-103500000D03*
X151800000Y-102600000D03*
X135100000Y-102400000D03*
X164900000Y-76100000D03*
X164900000Y-73900000D03*
%TO.N,+3V3*%
X162500000Y-91900000D03*
X145600000Y-91100000D03*
X162400000Y-81100000D03*
X139700000Y-89700000D03*
X160000000Y-89400000D03*
%TO.N,-12V*%
X150900000Y-108200000D03*
X162300000Y-75700000D03*
X141500000Y-108600000D03*
X162400000Y-73700000D03*
X139300000Y-108100000D03*
X167200000Y-108000000D03*
X160400000Y-108500000D03*
%TO.N,VREF_DAC*%
X165300000Y-99300000D03*
X146900000Y-99400000D03*
X146000000Y-111400000D03*
X138000000Y-99300000D03*
X154993455Y-111206545D03*
X156100000Y-99500000D03*
%TO.N,AO_CH0+*%
X136190000Y-112975000D03*
%TO.N,AO_CH1+*%
X136600000Y-104600000D03*
%TO.N,AO_CH2+*%
X141270000Y-112975000D03*
%TO.N,AO_CH3+*%
X145900000Y-104500000D03*
%TO.N,RX_DAC0*%
X159890000Y-80025000D03*
%TO.N,CS_DAC*%
X159500000Y-84336500D03*
X154810000Y-80025000D03*
%TO.N,RX_DAC1*%
X159890000Y-74975000D03*
%TO.N,CLK_DAC*%
X162500000Y-85480000D03*
X142500000Y-85530000D03*
%TO.N,AO_CH6+*%
X163270000Y-112975000D03*
%TO.N,AO_CH5+*%
X155300000Y-104300000D03*
%TO.N,AO_CH7+*%
X164700000Y-104500000D03*
%TO.N,AO_CH4+*%
X158190000Y-112975000D03*
%TD*%
D12*
%TO.N,+5V*%
X164970000Y-80025000D02*
X165900000Y-80025000D01*
D13*
%TO.N,VREF_DAC*%
X146000000Y-111400000D02*
X154800000Y-111400000D01*
X147100000Y-99200000D02*
X146900000Y-99400000D01*
X146900000Y-110500000D02*
X146000000Y-111400000D01*
X154800000Y-111400000D02*
X154993455Y-111206545D01*
X146900000Y-99400000D02*
X146900000Y-110500000D01*
X138163500Y-99136500D02*
X146636500Y-99136500D01*
X165200000Y-99200000D02*
X156400000Y-99200000D01*
X156400000Y-99200000D02*
X156100000Y-99500000D01*
X138000000Y-99300000D02*
X138163500Y-99136500D01*
X146636500Y-99136500D02*
X146900000Y-99400000D01*
X156100000Y-99500000D02*
X155800000Y-99200000D01*
X165300000Y-99300000D02*
X165200000Y-99200000D01*
X155800000Y-99200000D02*
X147100000Y-99200000D01*
%TO.N,AO_CH1+*%
X138730000Y-106730000D02*
X138730000Y-112975000D01*
X136600000Y-104600000D02*
X138730000Y-106730000D01*
%TO.N,AO_CH3+*%
X145900000Y-104500000D02*
X143810000Y-106590000D01*
X143810000Y-106590000D02*
X143810000Y-112975000D01*
%TO.N,CS_DAC*%
X155636500Y-84336500D02*
X154810000Y-83510000D01*
X159500000Y-84336500D02*
X155636500Y-84336500D01*
X154810000Y-83510000D02*
X154810000Y-80025000D01*
%TO.N,CLK_DAC*%
X142930000Y-85100000D02*
X142500000Y-85530000D01*
X154140000Y-84900000D02*
X161920000Y-84900000D01*
X150200000Y-85100000D02*
X142930000Y-85100000D01*
X152270000Y-80025000D02*
X152270000Y-83030000D01*
X152270000Y-83030000D02*
X150200000Y-85100000D01*
X152270000Y-83030000D02*
X154140000Y-84900000D01*
X161920000Y-84900000D02*
X162500000Y-85480000D01*
%TO.N,AO_CH5+*%
X160730000Y-109730000D02*
X160730000Y-112975000D01*
X155300000Y-104300000D02*
X160730000Y-109730000D01*
%TO.N,AO_CH7+*%
X165810000Y-105610000D02*
X165810000Y-112975000D01*
X164700000Y-104500000D02*
X165810000Y-105610000D01*
%TD*%
%TA.AperFunction,Conductor*%
%TO.N,GND*%
G36*
X168142539Y-71820185D02*
G01*
X168188294Y-71872989D01*
X168199500Y-71924500D01*
X168199500Y-121075500D01*
X168179815Y-121142539D01*
X168127011Y-121188294D01*
X168075500Y-121199500D01*
X133924500Y-121199500D01*
X133857461Y-121179815D01*
X133811706Y-121127011D01*
X133800500Y-121075500D01*
X133800500Y-119647844D01*
X135190000Y-119647844D01*
X135196401Y-119707372D01*
X135196403Y-119707379D01*
X135246645Y-119842086D01*
X135246649Y-119842093D01*
X135332809Y-119957187D01*
X135332812Y-119957190D01*
X135447906Y-120043350D01*
X135447913Y-120043354D01*
X135582620Y-120093596D01*
X135582627Y-120093598D01*
X135642155Y-120099999D01*
X135642172Y-120100000D01*
X135940000Y-120100000D01*
X136440000Y-120100000D01*
X136737828Y-120100000D01*
X136737844Y-120099999D01*
X136797372Y-120093598D01*
X136797379Y-120093596D01*
X136932086Y-120043354D01*
X136932093Y-120043350D01*
X137047187Y-119957190D01*
X137047190Y-119957187D01*
X137133350Y-119842093D01*
X137133354Y-119842086D01*
X137183596Y-119707379D01*
X137183598Y-119707372D01*
X137189999Y-119647844D01*
X137730000Y-119647844D01*
X137736401Y-119707372D01*
X137736403Y-119707379D01*
X137786645Y-119842086D01*
X137786649Y-119842093D01*
X137872809Y-119957187D01*
X137872812Y-119957190D01*
X137987906Y-120043350D01*
X137987913Y-120043354D01*
X138122620Y-120093596D01*
X138122627Y-120093598D01*
X138182155Y-120099999D01*
X138182172Y-120100000D01*
X138480000Y-120100000D01*
X138980000Y-120100000D01*
X139277828Y-120100000D01*
X139277844Y-120099999D01*
X139337372Y-120093598D01*
X139337379Y-120093596D01*
X139472086Y-120043354D01*
X139472093Y-120043350D01*
X139587187Y-119957190D01*
X139587190Y-119957187D01*
X139673350Y-119842093D01*
X139673354Y-119842086D01*
X139723596Y-119707379D01*
X139723598Y-119707372D01*
X139729999Y-119647844D01*
X140270000Y-119647844D01*
X140276401Y-119707372D01*
X140276403Y-119707379D01*
X140326645Y-119842086D01*
X140326649Y-119842093D01*
X140412809Y-119957187D01*
X140412812Y-119957190D01*
X140527906Y-120043350D01*
X140527913Y-120043354D01*
X140662620Y-120093596D01*
X140662627Y-120093598D01*
X140722155Y-120099999D01*
X140722172Y-120100000D01*
X141020000Y-120100000D01*
X141520000Y-120100000D01*
X141817828Y-120100000D01*
X141817844Y-120099999D01*
X141877372Y-120093598D01*
X141877379Y-120093596D01*
X142012086Y-120043354D01*
X142012093Y-120043350D01*
X142127187Y-119957190D01*
X142127190Y-119957187D01*
X142213350Y-119842093D01*
X142213354Y-119842086D01*
X142263596Y-119707379D01*
X142263598Y-119707372D01*
X142269999Y-119647844D01*
X142810000Y-119647844D01*
X142816401Y-119707372D01*
X142816403Y-119707379D01*
X142866645Y-119842086D01*
X142866649Y-119842093D01*
X142952809Y-119957187D01*
X142952812Y-119957190D01*
X143067906Y-120043350D01*
X143067913Y-120043354D01*
X143202620Y-120093596D01*
X143202627Y-120093598D01*
X143262155Y-120099999D01*
X143262172Y-120100000D01*
X143560000Y-120100000D01*
X144060000Y-120100000D01*
X144357828Y-120100000D01*
X144357844Y-120099999D01*
X144417372Y-120093598D01*
X144417379Y-120093596D01*
X144552086Y-120043354D01*
X144552093Y-120043350D01*
X144667187Y-119957190D01*
X144667190Y-119957187D01*
X144753350Y-119842093D01*
X144753354Y-119842086D01*
X144803596Y-119707379D01*
X144803598Y-119707372D01*
X144809999Y-119647844D01*
X157190000Y-119647844D01*
X157196401Y-119707372D01*
X157196403Y-119707379D01*
X157246645Y-119842086D01*
X157246649Y-119842093D01*
X157332809Y-119957187D01*
X157332812Y-119957190D01*
X157447906Y-120043350D01*
X157447913Y-120043354D01*
X157582620Y-120093596D01*
X157582627Y-120093598D01*
X157642155Y-120099999D01*
X157642172Y-120100000D01*
X157940000Y-120100000D01*
X158440000Y-120100000D01*
X158737828Y-120100000D01*
X158737844Y-120099999D01*
X158797372Y-120093598D01*
X158797379Y-120093596D01*
X158932086Y-120043354D01*
X158932093Y-120043350D01*
X159047187Y-119957190D01*
X159047190Y-119957187D01*
X159133350Y-119842093D01*
X159133354Y-119842086D01*
X159183596Y-119707379D01*
X159183598Y-119707372D01*
X159189999Y-119647844D01*
X159730000Y-119647844D01*
X159736401Y-119707372D01*
X159736403Y-119707379D01*
X159786645Y-119842086D01*
X159786649Y-119842093D01*
X159872809Y-119957187D01*
X159872812Y-119957190D01*
X159987906Y-120043350D01*
X159987913Y-120043354D01*
X160122620Y-120093596D01*
X160122627Y-120093598D01*
X160182155Y-120099999D01*
X160182172Y-120100000D01*
X160480000Y-120100000D01*
X160980000Y-120100000D01*
X161277828Y-120100000D01*
X161277844Y-120099999D01*
X161337372Y-120093598D01*
X161337379Y-120093596D01*
X161472086Y-120043354D01*
X161472093Y-120043350D01*
X161587187Y-119957190D01*
X161587190Y-119957187D01*
X161673350Y-119842093D01*
X161673354Y-119842086D01*
X161723596Y-119707379D01*
X161723598Y-119707372D01*
X161729999Y-119647844D01*
X162270000Y-119647844D01*
X162276401Y-119707372D01*
X162276403Y-119707379D01*
X162326645Y-119842086D01*
X162326649Y-119842093D01*
X162412809Y-119957187D01*
X162412812Y-119957190D01*
X162527906Y-120043350D01*
X162527913Y-120043354D01*
X162662620Y-120093596D01*
X162662627Y-120093598D01*
X162722155Y-120099999D01*
X162722172Y-120100000D01*
X163020000Y-120100000D01*
X163520000Y-120100000D01*
X163817828Y-120100000D01*
X163817844Y-120099999D01*
X163877372Y-120093598D01*
X163877379Y-120093596D01*
X164012086Y-120043354D01*
X164012093Y-120043350D01*
X164127187Y-119957190D01*
X164127190Y-119957187D01*
X164213350Y-119842093D01*
X164213354Y-119842086D01*
X164263596Y-119707379D01*
X164263598Y-119707372D01*
X164269999Y-119647844D01*
X164810000Y-119647844D01*
X164816401Y-119707372D01*
X164816403Y-119707379D01*
X164866645Y-119842086D01*
X164866649Y-119842093D01*
X164952809Y-119957187D01*
X164952812Y-119957190D01*
X165067906Y-120043350D01*
X165067913Y-120043354D01*
X165202620Y-120093596D01*
X165202627Y-120093598D01*
X165262155Y-120099999D01*
X165262172Y-120100000D01*
X165560000Y-120100000D01*
X166060000Y-120100000D01*
X166357828Y-120100000D01*
X166357844Y-120099999D01*
X166417372Y-120093598D01*
X166417379Y-120093596D01*
X166552086Y-120043354D01*
X166552093Y-120043350D01*
X166667187Y-119957190D01*
X166667190Y-119957187D01*
X166753350Y-119842093D01*
X166753354Y-119842086D01*
X166803596Y-119707379D01*
X166803598Y-119707372D01*
X166809999Y-119647844D01*
X166810000Y-119647827D01*
X166810000Y-118275000D01*
X166060000Y-118275000D01*
X166060000Y-120100000D01*
X165560000Y-120100000D01*
X165560000Y-118275000D01*
X164810000Y-118275000D01*
X164810000Y-119647844D01*
X164269999Y-119647844D01*
X164270000Y-119647827D01*
X164270000Y-118275000D01*
X163520000Y-118275000D01*
X163520000Y-120100000D01*
X163020000Y-120100000D01*
X163020000Y-118275000D01*
X162270000Y-118275000D01*
X162270000Y-119647844D01*
X161729999Y-119647844D01*
X161730000Y-119647827D01*
X161730000Y-118275000D01*
X160980000Y-118275000D01*
X160980000Y-120100000D01*
X160480000Y-120100000D01*
X160480000Y-118275000D01*
X159730000Y-118275000D01*
X159730000Y-119647844D01*
X159189999Y-119647844D01*
X159190000Y-119647827D01*
X159190000Y-118275000D01*
X158440000Y-118275000D01*
X158440000Y-120100000D01*
X157940000Y-120100000D01*
X157940000Y-118275000D01*
X157190000Y-118275000D01*
X157190000Y-119647844D01*
X144809999Y-119647844D01*
X144810000Y-119647827D01*
X144810000Y-118275000D01*
X144060000Y-118275000D01*
X144060000Y-120100000D01*
X143560000Y-120100000D01*
X143560000Y-118275000D01*
X142810000Y-118275000D01*
X142810000Y-119647844D01*
X142269999Y-119647844D01*
X142270000Y-119647827D01*
X142270000Y-118275000D01*
X141520000Y-118275000D01*
X141520000Y-120100000D01*
X141020000Y-120100000D01*
X141020000Y-118275000D01*
X140270000Y-118275000D01*
X140270000Y-119647844D01*
X139729999Y-119647844D01*
X139730000Y-119647827D01*
X139730000Y-118275000D01*
X138980000Y-118275000D01*
X138980000Y-120100000D01*
X138480000Y-120100000D01*
X138480000Y-118275000D01*
X137730000Y-118275000D01*
X137730000Y-119647844D01*
X137189999Y-119647844D01*
X137190000Y-119647827D01*
X137190000Y-118275000D01*
X136440000Y-118275000D01*
X136440000Y-120100000D01*
X135940000Y-120100000D01*
X135940000Y-118275000D01*
X135190000Y-118275000D01*
X135190000Y-119647844D01*
X133800500Y-119647844D01*
X133800500Y-116402155D01*
X135190000Y-116402155D01*
X135190000Y-117775000D01*
X135940000Y-117775000D01*
X136440000Y-117775000D01*
X137190000Y-117775000D01*
X137190000Y-116402172D01*
X137189999Y-116402155D01*
X137730000Y-116402155D01*
X137730000Y-117775000D01*
X138480000Y-117775000D01*
X138980000Y-117775000D01*
X139730000Y-117775000D01*
X139730000Y-116402172D01*
X139729999Y-116402155D01*
X140270000Y-116402155D01*
X140270000Y-117775000D01*
X141020000Y-117775000D01*
X141520000Y-117775000D01*
X142270000Y-117775000D01*
X142270000Y-116402172D01*
X142269999Y-116402155D01*
X142810000Y-116402155D01*
X142810000Y-117775000D01*
X143560000Y-117775000D01*
X144060000Y-117775000D01*
X144810000Y-117775000D01*
X144810000Y-116402172D01*
X144809999Y-116402155D01*
X144803598Y-116342627D01*
X144803596Y-116342620D01*
X144753354Y-116207913D01*
X144753350Y-116207906D01*
X144667190Y-116092812D01*
X144667187Y-116092809D01*
X144552093Y-116006649D01*
X144552086Y-116006645D01*
X144417379Y-115956403D01*
X144417372Y-115956401D01*
X144357844Y-115950000D01*
X144060000Y-115950000D01*
X144060000Y-117775000D01*
X143560000Y-117775000D01*
X143560000Y-115950000D01*
X143262155Y-115950000D01*
X143202627Y-115956401D01*
X143202620Y-115956403D01*
X143067913Y-116006645D01*
X143067906Y-116006649D01*
X142952812Y-116092809D01*
X142952809Y-116092812D01*
X142866649Y-116207906D01*
X142866645Y-116207913D01*
X142816403Y-116342620D01*
X142816401Y-116342627D01*
X142810000Y-116402155D01*
X142269999Y-116402155D01*
X142263598Y-116342627D01*
X142263596Y-116342620D01*
X142213354Y-116207913D01*
X142213350Y-116207906D01*
X142127190Y-116092812D01*
X142127187Y-116092809D01*
X142012093Y-116006649D01*
X142012086Y-116006645D01*
X141877379Y-115956403D01*
X141877372Y-115956401D01*
X141817844Y-115950000D01*
X141520000Y-115950000D01*
X141520000Y-117775000D01*
X141020000Y-117775000D01*
X141020000Y-115950000D01*
X140722155Y-115950000D01*
X140662627Y-115956401D01*
X140662620Y-115956403D01*
X140527913Y-116006645D01*
X140527906Y-116006649D01*
X140412812Y-116092809D01*
X140412809Y-116092812D01*
X140326649Y-116207906D01*
X140326645Y-116207913D01*
X140276403Y-116342620D01*
X140276401Y-116342627D01*
X140270000Y-116402155D01*
X139729999Y-116402155D01*
X139723598Y-116342627D01*
X139723596Y-116342620D01*
X139673354Y-116207913D01*
X139673350Y-116207906D01*
X139587190Y-116092812D01*
X139587187Y-116092809D01*
X139472093Y-116006649D01*
X139472086Y-116006645D01*
X139337379Y-115956403D01*
X139337372Y-115956401D01*
X139277844Y-115950000D01*
X138980000Y-115950000D01*
X138980000Y-117775000D01*
X138480000Y-117775000D01*
X138480000Y-115950000D01*
X138182155Y-115950000D01*
X138122627Y-115956401D01*
X138122620Y-115956403D01*
X137987913Y-116006645D01*
X137987906Y-116006649D01*
X137872812Y-116092809D01*
X137872809Y-116092812D01*
X137786649Y-116207906D01*
X137786645Y-116207913D01*
X137736403Y-116342620D01*
X137736401Y-116342627D01*
X137730000Y-116402155D01*
X137189999Y-116402155D01*
X137183598Y-116342627D01*
X137183596Y-116342620D01*
X137133354Y-116207913D01*
X137133350Y-116207906D01*
X137047190Y-116092812D01*
X137047187Y-116092809D01*
X136932093Y-116006649D01*
X136932086Y-116006645D01*
X136797379Y-115956403D01*
X136797372Y-115956401D01*
X136737844Y-115950000D01*
X136440000Y-115950000D01*
X136440000Y-117775000D01*
X135940000Y-117775000D01*
X135940000Y-115950000D01*
X135642155Y-115950000D01*
X135582627Y-115956401D01*
X135582620Y-115956403D01*
X135447913Y-116006645D01*
X135447906Y-116006649D01*
X135332812Y-116092809D01*
X135332809Y-116092812D01*
X135246649Y-116207906D01*
X135246645Y-116207913D01*
X135196403Y-116342620D01*
X135196401Y-116342627D01*
X135190000Y-116402155D01*
X133800500Y-116402155D01*
X133800500Y-111355131D01*
X135389500Y-111355131D01*
X135389500Y-114594856D01*
X135389502Y-114594882D01*
X135392413Y-114619987D01*
X135392415Y-114619991D01*
X135437793Y-114722764D01*
X135437794Y-114722765D01*
X135517235Y-114802206D01*
X135620009Y-114847585D01*
X135645135Y-114850500D01*
X136734864Y-114850499D01*
X136734879Y-114850497D01*
X136734882Y-114850497D01*
X136759987Y-114847586D01*
X136759988Y-114847585D01*
X136759991Y-114847585D01*
X136862765Y-114802206D01*
X136942206Y-114722765D01*
X136987585Y-114619991D01*
X136990500Y-114594865D01*
X136990499Y-111355136D01*
X136990497Y-111355117D01*
X136987586Y-111330012D01*
X136987585Y-111330010D01*
X136987585Y-111330009D01*
X136942206Y-111227235D01*
X136862765Y-111147794D01*
X136862763Y-111147793D01*
X136759992Y-111102415D01*
X136734865Y-111099500D01*
X135645143Y-111099500D01*
X135645117Y-111099502D01*
X135620012Y-111102413D01*
X135620008Y-111102415D01*
X135517235Y-111147793D01*
X135437794Y-111227234D01*
X135392415Y-111330006D01*
X135392415Y-111330008D01*
X135389500Y-111355131D01*
X133800500Y-111355131D01*
X133800500Y-104599998D01*
X135994318Y-104599998D01*
X135994318Y-104600001D01*
X136014955Y-104756760D01*
X136014956Y-104756762D01*
X136073773Y-104898760D01*
X136075464Y-104902841D01*
X136171718Y-105028282D01*
X136297159Y-105124536D01*
X136443238Y-105185044D01*
X136600000Y-105205682D01*
X136619704Y-105203087D01*
X136688736Y-105213851D01*
X136723571Y-105238345D01*
X138329681Y-106844455D01*
X138363166Y-106905778D01*
X138366000Y-106932136D01*
X138366000Y-110975500D01*
X138346315Y-111042539D01*
X138293511Y-111088294D01*
X138242002Y-111099500D01*
X138185143Y-111099500D01*
X138185118Y-111099502D01*
X138160011Y-111102414D01*
X138160008Y-111102415D01*
X138057235Y-111147793D01*
X137977794Y-111227234D01*
X137932415Y-111330006D01*
X137932415Y-111330008D01*
X137929500Y-111355131D01*
X137929500Y-114594856D01*
X137929502Y-114594882D01*
X137932413Y-114619987D01*
X137932415Y-114619991D01*
X137977793Y-114722764D01*
X137977794Y-114722765D01*
X138057235Y-114802206D01*
X138160009Y-114847585D01*
X138185135Y-114850500D01*
X139274864Y-114850499D01*
X139274879Y-114850497D01*
X139274882Y-114850497D01*
X139299987Y-114847586D01*
X139299988Y-114847585D01*
X139299991Y-114847585D01*
X139402765Y-114802206D01*
X139482206Y-114722765D01*
X139527585Y-114619991D01*
X139530500Y-114594865D01*
X139530499Y-111355136D01*
X139530498Y-111355131D01*
X140469500Y-111355131D01*
X140469500Y-114594856D01*
X140469502Y-114594882D01*
X140472413Y-114619987D01*
X140472415Y-114619991D01*
X140517793Y-114722764D01*
X140517794Y-114722765D01*
X140597235Y-114802206D01*
X140700009Y-114847585D01*
X140725135Y-114850500D01*
X141814864Y-114850499D01*
X141814879Y-114850497D01*
X141814882Y-114850497D01*
X141839987Y-114847586D01*
X141839988Y-114847585D01*
X141839991Y-114847585D01*
X141942765Y-114802206D01*
X142022206Y-114722765D01*
X142067585Y-114619991D01*
X142070500Y-114594865D01*
X142070499Y-111355136D01*
X142070497Y-111355117D01*
X142067586Y-111330012D01*
X142067585Y-111330010D01*
X142067585Y-111330009D01*
X142022206Y-111227235D01*
X141942765Y-111147794D01*
X141942763Y-111147793D01*
X141839992Y-111102415D01*
X141814865Y-111099500D01*
X140725143Y-111099500D01*
X140725117Y-111099502D01*
X140700012Y-111102413D01*
X140700008Y-111102415D01*
X140597235Y-111147793D01*
X140517794Y-111227234D01*
X140472415Y-111330006D01*
X140472415Y-111330008D01*
X140469500Y-111355131D01*
X139530498Y-111355131D01*
X139530497Y-111355117D01*
X139527586Y-111330012D01*
X139527585Y-111330010D01*
X139527585Y-111330009D01*
X139482206Y-111227235D01*
X139402765Y-111147794D01*
X139402763Y-111147793D01*
X139299992Y-111102415D01*
X139274868Y-111099500D01*
X139274865Y-111099500D01*
X139218000Y-111099500D01*
X139150961Y-111079815D01*
X139105206Y-111027011D01*
X139094000Y-110975500D01*
X139094000Y-108819956D01*
X139113685Y-108752917D01*
X139166489Y-108707162D01*
X139234184Y-108697017D01*
X139300000Y-108705682D01*
X139300001Y-108705682D01*
X139352254Y-108698802D01*
X139456762Y-108685044D01*
X139602841Y-108624536D01*
X139634820Y-108599998D01*
X140894318Y-108599998D01*
X140894318Y-108600001D01*
X140914955Y-108756760D01*
X140914956Y-108756762D01*
X140975464Y-108902841D01*
X141071718Y-109028282D01*
X141197159Y-109124536D01*
X141343238Y-109185044D01*
X141421619Y-109195363D01*
X141499999Y-109205682D01*
X141500000Y-109205682D01*
X141500001Y-109205682D01*
X141552254Y-109198802D01*
X141656762Y-109185044D01*
X141802841Y-109124536D01*
X141928282Y-109028282D01*
X142024536Y-108902841D01*
X142085044Y-108756762D01*
X142105682Y-108600000D01*
X142085044Y-108443238D01*
X142024536Y-108297159D01*
X141928282Y-108171718D01*
X141802841Y-108075464D01*
X141793802Y-108071720D01*
X141656762Y-108014956D01*
X141656760Y-108014955D01*
X141500001Y-107994318D01*
X141499999Y-107994318D01*
X141343239Y-108014955D01*
X141343237Y-108014956D01*
X141197160Y-108075463D01*
X141071718Y-108171718D01*
X140975463Y-108297160D01*
X140914956Y-108443237D01*
X140914955Y-108443239D01*
X140894318Y-108599998D01*
X139634820Y-108599998D01*
X139728282Y-108528282D01*
X139824536Y-108402841D01*
X139885044Y-108256762D01*
X139905682Y-108100000D01*
X139885044Y-107943238D01*
X139824536Y-107797159D01*
X139728282Y-107671718D01*
X139602841Y-107575464D01*
X139593797Y-107571718D01*
X139456762Y-107514956D01*
X139456760Y-107514955D01*
X139300001Y-107494318D01*
X139299997Y-107494318D01*
X139234184Y-107502982D01*
X139165149Y-107492216D01*
X139112894Y-107445836D01*
X139094000Y-107380043D01*
X139094000Y-106682080D01*
X139094000Y-106682078D01*
X139069194Y-106589501D01*
X139021273Y-106506499D01*
X138953501Y-106438727D01*
X137238345Y-104723571D01*
X137204860Y-104662248D01*
X137203087Y-104619708D01*
X137205682Y-104600000D01*
X137185044Y-104443238D01*
X137124536Y-104297159D01*
X137028282Y-104171718D01*
X136902841Y-104075464D01*
X136899282Y-104073990D01*
X136756762Y-104014956D01*
X136756760Y-104014955D01*
X136600001Y-103994318D01*
X136599999Y-103994318D01*
X136443239Y-104014955D01*
X136443237Y-104014956D01*
X136297160Y-104075463D01*
X136171718Y-104171718D01*
X136075463Y-104297160D01*
X136014956Y-104443237D01*
X136014955Y-104443239D01*
X135994318Y-104599998D01*
X133800500Y-104599998D01*
X133800500Y-103499998D01*
X143994318Y-103499998D01*
X143994318Y-103500001D01*
X144014955Y-103656760D01*
X144014956Y-103656762D01*
X144075464Y-103802841D01*
X144171718Y-103928282D01*
X144297159Y-104024536D01*
X144443238Y-104085044D01*
X144521619Y-104095363D01*
X144599999Y-104105682D01*
X144600000Y-104105682D01*
X144600001Y-104105682D01*
X144652254Y-104098802D01*
X144756762Y-104085044D01*
X144902841Y-104024536D01*
X145028282Y-103928282D01*
X145124536Y-103802841D01*
X145185044Y-103656762D01*
X145205682Y-103500000D01*
X145185044Y-103343238D01*
X145124536Y-103197159D01*
X145028282Y-103071718D01*
X144902841Y-102975464D01*
X144756762Y-102914956D01*
X144756760Y-102914955D01*
X144600001Y-102894318D01*
X144599999Y-102894318D01*
X144443239Y-102914955D01*
X144443237Y-102914956D01*
X144297160Y-102975463D01*
X144171718Y-103071718D01*
X144075463Y-103197160D01*
X144014956Y-103343237D01*
X144014955Y-103343239D01*
X143994318Y-103499998D01*
X133800500Y-103499998D01*
X133800500Y-102399998D01*
X134494318Y-102399998D01*
X134494318Y-102400001D01*
X134514955Y-102556760D01*
X134514956Y-102556762D01*
X134556376Y-102656760D01*
X134575464Y-102702841D01*
X134671718Y-102828282D01*
X134797159Y-102924536D01*
X134943238Y-102985044D01*
X135021619Y-102995363D01*
X135099999Y-103005682D01*
X135100000Y-103005682D01*
X135100001Y-103005682D01*
X135152254Y-102998802D01*
X135256762Y-102985044D01*
X135402841Y-102924536D01*
X135528282Y-102828282D01*
X135624536Y-102702841D01*
X135667135Y-102599998D01*
X141694318Y-102599998D01*
X141694318Y-102600001D01*
X141714955Y-102756760D01*
X141714956Y-102756762D01*
X141771933Y-102894318D01*
X141775464Y-102902841D01*
X141871718Y-103028282D01*
X141997159Y-103124536D01*
X142143238Y-103185044D01*
X142221619Y-103195363D01*
X142299999Y-103205682D01*
X142300000Y-103205682D01*
X142300001Y-103205682D01*
X142364739Y-103197159D01*
X142456762Y-103185044D01*
X142602841Y-103124536D01*
X142728282Y-103028282D01*
X142824536Y-102902841D01*
X142885044Y-102756762D01*
X142905682Y-102600000D01*
X142899989Y-102556760D01*
X142885044Y-102443239D01*
X142885044Y-102443238D01*
X142824536Y-102297159D01*
X142728282Y-102171718D01*
X142602841Y-102075464D01*
X142593797Y-102071718D01*
X142456762Y-102014956D01*
X142456760Y-102014955D01*
X142300001Y-101994318D01*
X142299999Y-101994318D01*
X142143239Y-102014955D01*
X142143237Y-102014956D01*
X141997160Y-102075463D01*
X141871718Y-102171718D01*
X141775463Y-102297160D01*
X141714956Y-102443237D01*
X141714955Y-102443239D01*
X141694318Y-102599998D01*
X135667135Y-102599998D01*
X135685044Y-102556762D01*
X135705682Y-102400000D01*
X135685044Y-102243238D01*
X135624536Y-102097159D01*
X135528282Y-101971718D01*
X135402841Y-101875464D01*
X135256762Y-101814956D01*
X135256760Y-101814955D01*
X135100001Y-101794318D01*
X135099999Y-101794318D01*
X134943239Y-101814955D01*
X134943237Y-101814956D01*
X134797160Y-101875463D01*
X134671718Y-101971718D01*
X134575463Y-102097160D01*
X134514956Y-102243237D01*
X134514955Y-102243239D01*
X134494318Y-102399998D01*
X133800500Y-102399998D01*
X133800500Y-99299998D01*
X137394318Y-99299998D01*
X137394318Y-99300001D01*
X137414955Y-99456760D01*
X137414956Y-99456762D01*
X137459375Y-99564000D01*
X137475464Y-99602841D01*
X137571718Y-99728282D01*
X137697159Y-99824536D01*
X137843238Y-99885044D01*
X137921619Y-99895363D01*
X137999999Y-99905682D01*
X138000000Y-99905682D01*
X138000001Y-99905682D01*
X138067428Y-99896805D01*
X138156762Y-99885044D01*
X138302841Y-99824536D01*
X138428282Y-99728282D01*
X138524536Y-99602841D01*
X138535220Y-99577048D01*
X138579061Y-99522644D01*
X138645355Y-99500579D01*
X138649781Y-99500500D01*
X146208798Y-99500500D01*
X146275837Y-99520185D01*
X146321592Y-99572989D01*
X146323353Y-99577036D01*
X146331310Y-99596244D01*
X146375462Y-99702838D01*
X146375463Y-99702840D01*
X146375464Y-99702841D01*
X146471718Y-99828282D01*
X146487486Y-99840381D01*
X146528688Y-99896805D01*
X146536000Y-99938756D01*
X146536000Y-103980074D01*
X146516315Y-104047113D01*
X146463511Y-104092868D01*
X146394353Y-104102812D01*
X146335344Y-104075863D01*
X146334729Y-104076666D01*
X146331241Y-104073990D01*
X146330797Y-104073787D01*
X146329953Y-104073001D01*
X146328283Y-104071719D01*
X146328282Y-104071718D01*
X146202841Y-103975464D01*
X146056762Y-103914956D01*
X146056760Y-103914955D01*
X145900001Y-103894318D01*
X145899999Y-103894318D01*
X145743239Y-103914955D01*
X145743237Y-103914956D01*
X145597160Y-103975463D01*
X145471718Y-104071718D01*
X145375463Y-104197160D01*
X145314956Y-104343237D01*
X145314955Y-104343239D01*
X145294318Y-104499998D01*
X145294318Y-104500000D01*
X145296912Y-104519710D01*
X145286143Y-104588745D01*
X145261653Y-104623571D01*
X143586499Y-106298727D01*
X143518728Y-106366497D01*
X143518724Y-106366502D01*
X143470807Y-106449498D01*
X143470807Y-106449499D01*
X143470806Y-106449501D01*
X143446000Y-106542078D01*
X143446000Y-106542080D01*
X143446000Y-110975500D01*
X143426315Y-111042539D01*
X143373511Y-111088294D01*
X143322002Y-111099500D01*
X143265143Y-111099500D01*
X143265118Y-111099502D01*
X143240011Y-111102414D01*
X143240008Y-111102415D01*
X143137235Y-111147793D01*
X143057794Y-111227234D01*
X143012415Y-111330006D01*
X143012415Y-111330008D01*
X143009500Y-111355131D01*
X143009500Y-114594856D01*
X143009502Y-114594882D01*
X143012413Y-114619987D01*
X143012415Y-114619991D01*
X143057793Y-114722764D01*
X143057794Y-114722765D01*
X143137235Y-114802206D01*
X143240009Y-114847585D01*
X143265135Y-114850500D01*
X144354864Y-114850499D01*
X144354879Y-114850497D01*
X144354882Y-114850497D01*
X144379987Y-114847586D01*
X144379988Y-114847585D01*
X144379991Y-114847585D01*
X144482765Y-114802206D01*
X144562206Y-114722765D01*
X144607585Y-114619991D01*
X144610500Y-114594865D01*
X144610500Y-113999998D01*
X149394318Y-113999998D01*
X149394318Y-114000001D01*
X149414955Y-114156760D01*
X149414956Y-114156762D01*
X149475464Y-114302842D01*
X149568826Y-114424514D01*
X149594020Y-114489683D01*
X149579981Y-114558128D01*
X149568826Y-114575486D01*
X149475464Y-114697157D01*
X149414956Y-114843237D01*
X149414955Y-114843239D01*
X149394318Y-114999998D01*
X149394318Y-115000001D01*
X149414955Y-115156760D01*
X149414956Y-115156762D01*
X149475464Y-115302842D01*
X149568826Y-115424514D01*
X149594020Y-115489683D01*
X149579981Y-115558128D01*
X149568826Y-115575486D01*
X149475464Y-115697157D01*
X149414956Y-115843237D01*
X149414955Y-115843239D01*
X149394318Y-115999998D01*
X149394318Y-116000001D01*
X149414955Y-116156760D01*
X149414956Y-116156762D01*
X149475464Y-116302842D01*
X149568826Y-116424514D01*
X149594020Y-116489683D01*
X149579981Y-116558128D01*
X149568826Y-116575486D01*
X149475464Y-116697157D01*
X149414956Y-116843237D01*
X149414955Y-116843239D01*
X149394318Y-116999998D01*
X149394318Y-117000001D01*
X149414955Y-117156760D01*
X149414956Y-117156762D01*
X149475464Y-117302841D01*
X149571718Y-117428282D01*
X149697159Y-117524536D01*
X149843238Y-117585044D01*
X149921619Y-117595363D01*
X149999999Y-117605682D01*
X150000000Y-117605682D01*
X150000001Y-117605682D01*
X150052254Y-117598802D01*
X150156762Y-117585044D01*
X150302841Y-117524536D01*
X150428282Y-117428282D01*
X150524536Y-117302841D01*
X150585044Y-117156762D01*
X150605682Y-117000000D01*
X150585044Y-116843238D01*
X150524536Y-116697159D01*
X150431171Y-116575484D01*
X150405979Y-116510317D01*
X150420017Y-116441873D01*
X150431167Y-116424521D01*
X150524536Y-116302841D01*
X150585044Y-116156762D01*
X150605682Y-116000000D01*
X150599942Y-115956403D01*
X150585044Y-115843239D01*
X150585044Y-115843238D01*
X150524536Y-115697159D01*
X150431171Y-115575484D01*
X150405979Y-115510317D01*
X150420017Y-115441873D01*
X150431167Y-115424521D01*
X150524536Y-115302841D01*
X150585044Y-115156762D01*
X150605682Y-115000000D01*
X150598029Y-114941873D01*
X150585044Y-114843239D01*
X150585044Y-114843238D01*
X150524536Y-114697159D01*
X150431171Y-114575484D01*
X150405979Y-114510317D01*
X150408095Y-114499998D01*
X151394318Y-114499998D01*
X151394318Y-114500001D01*
X151414955Y-114656760D01*
X151414956Y-114656762D01*
X151475464Y-114802842D01*
X151568826Y-114924514D01*
X151594020Y-114989683D01*
X151579981Y-115058128D01*
X151568826Y-115075486D01*
X151475464Y-115197157D01*
X151414956Y-115343237D01*
X151414955Y-115343239D01*
X151394318Y-115499998D01*
X151394318Y-115500001D01*
X151414955Y-115656760D01*
X151414956Y-115656762D01*
X151475464Y-115802841D01*
X151571718Y-115928282D01*
X151602140Y-115951625D01*
X151643341Y-116008052D01*
X151647496Y-116077798D01*
X151613283Y-116138719D01*
X151602146Y-116148369D01*
X151571719Y-116171717D01*
X151571718Y-116171718D01*
X151475463Y-116297160D01*
X151414956Y-116443237D01*
X151414955Y-116443239D01*
X151394318Y-116599998D01*
X151394318Y-116600001D01*
X151414955Y-116756760D01*
X151414956Y-116756762D01*
X151450775Y-116843238D01*
X151475464Y-116902841D01*
X151571718Y-117028282D01*
X151697159Y-117124536D01*
X151843238Y-117185044D01*
X151921619Y-117195363D01*
X151999999Y-117205682D01*
X152000000Y-117205682D01*
X152000001Y-117205682D01*
X152052254Y-117198802D01*
X152156762Y-117185044D01*
X152302841Y-117124536D01*
X152428282Y-117028282D01*
X152524536Y-116902841D01*
X152585044Y-116756762D01*
X152605682Y-116600000D01*
X152600169Y-116558128D01*
X152585044Y-116443239D01*
X152585044Y-116443238D01*
X152568027Y-116402155D01*
X157190000Y-116402155D01*
X157190000Y-117775000D01*
X157940000Y-117775000D01*
X158440000Y-117775000D01*
X159190000Y-117775000D01*
X159190000Y-116402172D01*
X159189999Y-116402155D01*
X159730000Y-116402155D01*
X159730000Y-117775000D01*
X160480000Y-117775000D01*
X160980000Y-117775000D01*
X161730000Y-117775000D01*
X161730000Y-116402172D01*
X161729999Y-116402155D01*
X162270000Y-116402155D01*
X162270000Y-117775000D01*
X163020000Y-117775000D01*
X163520000Y-117775000D01*
X164270000Y-117775000D01*
X164270000Y-116402172D01*
X164269999Y-116402155D01*
X164810000Y-116402155D01*
X164810000Y-117775000D01*
X165560000Y-117775000D01*
X166060000Y-117775000D01*
X166810000Y-117775000D01*
X166810000Y-116402172D01*
X166809999Y-116402155D01*
X166803598Y-116342627D01*
X166803596Y-116342620D01*
X166753354Y-116207913D01*
X166753350Y-116207906D01*
X166667190Y-116092812D01*
X166667187Y-116092809D01*
X166552093Y-116006649D01*
X166552086Y-116006645D01*
X166417379Y-115956403D01*
X166417372Y-115956401D01*
X166357844Y-115950000D01*
X166060000Y-115950000D01*
X166060000Y-117775000D01*
X165560000Y-117775000D01*
X165560000Y-115950000D01*
X165262155Y-115950000D01*
X165202627Y-115956401D01*
X165202620Y-115956403D01*
X165067913Y-116006645D01*
X165067906Y-116006649D01*
X164952812Y-116092809D01*
X164952809Y-116092812D01*
X164866649Y-116207906D01*
X164866645Y-116207913D01*
X164816403Y-116342620D01*
X164816401Y-116342627D01*
X164810000Y-116402155D01*
X164269999Y-116402155D01*
X164263598Y-116342627D01*
X164263596Y-116342620D01*
X164213354Y-116207913D01*
X164213350Y-116207906D01*
X164127190Y-116092812D01*
X164127187Y-116092809D01*
X164012093Y-116006649D01*
X164012086Y-116006645D01*
X163877379Y-115956403D01*
X163877372Y-115956401D01*
X163817844Y-115950000D01*
X163520000Y-115950000D01*
X163520000Y-117775000D01*
X163020000Y-117775000D01*
X163020000Y-115950000D01*
X162722155Y-115950000D01*
X162662627Y-115956401D01*
X162662620Y-115956403D01*
X162527913Y-116006645D01*
X162527906Y-116006649D01*
X162412812Y-116092809D01*
X162412809Y-116092812D01*
X162326649Y-116207906D01*
X162326645Y-116207913D01*
X162276403Y-116342620D01*
X162276401Y-116342627D01*
X162270000Y-116402155D01*
X161729999Y-116402155D01*
X161723598Y-116342627D01*
X161723596Y-116342620D01*
X161673354Y-116207913D01*
X161673350Y-116207906D01*
X161587190Y-116092812D01*
X161587187Y-116092809D01*
X161472093Y-116006649D01*
X161472086Y-116006645D01*
X161337379Y-115956403D01*
X161337372Y-115956401D01*
X161277844Y-115950000D01*
X160980000Y-115950000D01*
X160980000Y-117775000D01*
X160480000Y-117775000D01*
X160480000Y-115950000D01*
X160182155Y-115950000D01*
X160122627Y-115956401D01*
X160122620Y-115956403D01*
X159987913Y-116006645D01*
X159987906Y-116006649D01*
X159872812Y-116092809D01*
X159872809Y-116092812D01*
X159786649Y-116207906D01*
X159786645Y-116207913D01*
X159736403Y-116342620D01*
X159736401Y-116342627D01*
X159730000Y-116402155D01*
X159189999Y-116402155D01*
X159183598Y-116342627D01*
X159183596Y-116342620D01*
X159133354Y-116207913D01*
X159133350Y-116207906D01*
X159047190Y-116092812D01*
X159047187Y-116092809D01*
X158932093Y-116006649D01*
X158932086Y-116006645D01*
X158797379Y-115956403D01*
X158797372Y-115956401D01*
X158737844Y-115950000D01*
X158440000Y-115950000D01*
X158440000Y-117775000D01*
X157940000Y-117775000D01*
X157940000Y-115950000D01*
X157642155Y-115950000D01*
X157582627Y-115956401D01*
X157582620Y-115956403D01*
X157447913Y-116006645D01*
X157447906Y-116006649D01*
X157332812Y-116092809D01*
X157332809Y-116092812D01*
X157246649Y-116207906D01*
X157246645Y-116207913D01*
X157196403Y-116342620D01*
X157196401Y-116342627D01*
X157190000Y-116402155D01*
X152568027Y-116402155D01*
X152524536Y-116297159D01*
X152428282Y-116171718D01*
X152397860Y-116148374D01*
X152356658Y-116091949D01*
X152352503Y-116022203D01*
X152386714Y-115961282D01*
X152397851Y-115951631D01*
X152428282Y-115928282D01*
X152524536Y-115802841D01*
X152585044Y-115656762D01*
X152605682Y-115500000D01*
X152598029Y-115441873D01*
X152585044Y-115343239D01*
X152585044Y-115343238D01*
X152524536Y-115197159D01*
X152431171Y-115075484D01*
X152405979Y-115010317D01*
X152420017Y-114941873D01*
X152431167Y-114924521D01*
X152524536Y-114802841D01*
X152585044Y-114656762D01*
X152605682Y-114500000D01*
X152598029Y-114441873D01*
X152585044Y-114343239D01*
X152585044Y-114343238D01*
X152524536Y-114197159D01*
X152428282Y-114071718D01*
X152302841Y-113975464D01*
X152156762Y-113914956D01*
X152156760Y-113914955D01*
X152000001Y-113894318D01*
X151999999Y-113894318D01*
X151843239Y-113914955D01*
X151843237Y-113914956D01*
X151697160Y-113975463D01*
X151571718Y-114071718D01*
X151475463Y-114197160D01*
X151414956Y-114343237D01*
X151414955Y-114343239D01*
X151394318Y-114499998D01*
X150408095Y-114499998D01*
X150420017Y-114441873D01*
X150431167Y-114424521D01*
X150524536Y-114302841D01*
X150585044Y-114156762D01*
X150605682Y-114000000D01*
X150585044Y-113843238D01*
X150524536Y-113697159D01*
X150428282Y-113571718D01*
X150302841Y-113475464D01*
X150156762Y-113414956D01*
X150156760Y-113414955D01*
X150000001Y-113394318D01*
X149999999Y-113394318D01*
X149843239Y-113414955D01*
X149843237Y-113414956D01*
X149697160Y-113475463D01*
X149571718Y-113571718D01*
X149475463Y-113697160D01*
X149414956Y-113843237D01*
X149414955Y-113843239D01*
X149394318Y-113999998D01*
X144610500Y-113999998D01*
X144610499Y-111355136D01*
X144610497Y-111355117D01*
X144607586Y-111330012D01*
X144607585Y-111330010D01*
X144607585Y-111330009D01*
X144562206Y-111227235D01*
X144482765Y-111147794D01*
X144482763Y-111147793D01*
X144379992Y-111102415D01*
X144354868Y-111099500D01*
X144354865Y-111099500D01*
X144298000Y-111099500D01*
X144230961Y-111079815D01*
X144185206Y-111027011D01*
X144174000Y-110975500D01*
X144174000Y-106792135D01*
X144193685Y-106725096D01*
X144210314Y-106704459D01*
X145776429Y-105138343D01*
X145837750Y-105104860D01*
X145880290Y-105103087D01*
X145900000Y-105105682D01*
X146056762Y-105085044D01*
X146202841Y-105024536D01*
X146328282Y-104928282D01*
X146328284Y-104928279D01*
X146334729Y-104923334D01*
X146336473Y-104925607D01*
X146385642Y-104898760D01*
X146455334Y-104903744D01*
X146511267Y-104945616D01*
X146535684Y-105011080D01*
X146536000Y-105019926D01*
X146536000Y-110297863D01*
X146516315Y-110364902D01*
X146499681Y-110385544D01*
X146123571Y-110761653D01*
X146062248Y-110795138D01*
X146019710Y-110796912D01*
X146000000Y-110794318D01*
X145999998Y-110794318D01*
X145843239Y-110814955D01*
X145843237Y-110814956D01*
X145697160Y-110875463D01*
X145571718Y-110971718D01*
X145475463Y-111097160D01*
X145414956Y-111243237D01*
X145414955Y-111243239D01*
X145394318Y-111399998D01*
X145394318Y-111400001D01*
X145414955Y-111556760D01*
X145414956Y-111556762D01*
X145475464Y-111702841D01*
X145571718Y-111828282D01*
X145697159Y-111924536D01*
X145843238Y-111985044D01*
X145921619Y-111995363D01*
X145999999Y-112005682D01*
X146000000Y-112005682D01*
X146000001Y-112005682D01*
X146052254Y-111998802D01*
X146156762Y-111985044D01*
X146302841Y-111924536D01*
X146428282Y-111828282D01*
X146440383Y-111812511D01*
X146496809Y-111771311D01*
X146538757Y-111764000D01*
X154745422Y-111764000D01*
X154792874Y-111773439D01*
X154815081Y-111782637D01*
X154836693Y-111791589D01*
X154915074Y-111801908D01*
X154993454Y-111812227D01*
X154993455Y-111812227D01*
X154993456Y-111812227D01*
X155045709Y-111805347D01*
X155150217Y-111791589D01*
X155296296Y-111731081D01*
X155421737Y-111634827D01*
X155517991Y-111509386D01*
X155578499Y-111363307D01*
X155579575Y-111355131D01*
X157389500Y-111355131D01*
X157389500Y-114594856D01*
X157389502Y-114594882D01*
X157392413Y-114619987D01*
X157392415Y-114619991D01*
X157437793Y-114722764D01*
X157437794Y-114722765D01*
X157517235Y-114802206D01*
X157620009Y-114847585D01*
X157645135Y-114850500D01*
X158734864Y-114850499D01*
X158734879Y-114850497D01*
X158734882Y-114850497D01*
X158759987Y-114847586D01*
X158759988Y-114847585D01*
X158759991Y-114847585D01*
X158862765Y-114802206D01*
X158942206Y-114722765D01*
X158987585Y-114619991D01*
X158990500Y-114594865D01*
X158990499Y-111355136D01*
X158990497Y-111355117D01*
X158987586Y-111330012D01*
X158987585Y-111330010D01*
X158987585Y-111330009D01*
X158942206Y-111227235D01*
X158862765Y-111147794D01*
X158862763Y-111147793D01*
X158759992Y-111102415D01*
X158734865Y-111099500D01*
X157645143Y-111099500D01*
X157645117Y-111099502D01*
X157620012Y-111102413D01*
X157620008Y-111102415D01*
X157517235Y-111147793D01*
X157437794Y-111227234D01*
X157392415Y-111330006D01*
X157392415Y-111330008D01*
X157389500Y-111355131D01*
X155579575Y-111355131D01*
X155599137Y-111206545D01*
X155578499Y-111049783D01*
X155517991Y-110903704D01*
X155421737Y-110778263D01*
X155296296Y-110682009D01*
X155150217Y-110621501D01*
X155150215Y-110621500D01*
X154993456Y-110600863D01*
X154993454Y-110600863D01*
X154836694Y-110621500D01*
X154836692Y-110621501D01*
X154690615Y-110682008D01*
X154565171Y-110778264D01*
X154468917Y-110903707D01*
X154468916Y-110903708D01*
X154445827Y-110959452D01*
X154401986Y-111013856D01*
X154335692Y-111035921D01*
X154331266Y-111036000D01*
X147178136Y-111036000D01*
X147111097Y-111016315D01*
X147065342Y-110963511D01*
X147055398Y-110894353D01*
X147084423Y-110830797D01*
X147090455Y-110824319D01*
X147136511Y-110778263D01*
X147191273Y-110723501D01*
X147239194Y-110640499D01*
X147264000Y-110547922D01*
X147264000Y-110452078D01*
X147264000Y-108199998D01*
X150294318Y-108199998D01*
X150294318Y-108200001D01*
X150314955Y-108356760D01*
X150314956Y-108356762D01*
X150374287Y-108500001D01*
X150375464Y-108502841D01*
X150471718Y-108628282D01*
X150597159Y-108724536D01*
X150743238Y-108785044D01*
X150821619Y-108795363D01*
X150899999Y-108805682D01*
X150900000Y-108805682D01*
X150900001Y-108805682D01*
X150952254Y-108798802D01*
X151056762Y-108785044D01*
X151202841Y-108724536D01*
X151328282Y-108628282D01*
X151424536Y-108502841D01*
X151485044Y-108356762D01*
X151505682Y-108200000D01*
X151499989Y-108156760D01*
X151485044Y-108043239D01*
X151485044Y-108043238D01*
X151424536Y-107897159D01*
X151328282Y-107771718D01*
X151202841Y-107675464D01*
X151193797Y-107671718D01*
X151056762Y-107614956D01*
X151056760Y-107614955D01*
X150900001Y-107594318D01*
X150899999Y-107594318D01*
X150743239Y-107614955D01*
X150743237Y-107614956D01*
X150597160Y-107675463D01*
X150471718Y-107771718D01*
X150375463Y-107897160D01*
X150314956Y-108043237D01*
X150314955Y-108043239D01*
X150294318Y-108199998D01*
X147264000Y-108199998D01*
X147264000Y-104299998D01*
X154694318Y-104299998D01*
X154694318Y-104300001D01*
X154714955Y-104456760D01*
X154714956Y-104456762D01*
X154774287Y-104600001D01*
X154775464Y-104602841D01*
X154871718Y-104728282D01*
X154997159Y-104824536D01*
X155143238Y-104885044D01*
X155300000Y-104905682D01*
X155319704Y-104903087D01*
X155388736Y-104913851D01*
X155423571Y-104938345D01*
X160329681Y-109844455D01*
X160363166Y-109905778D01*
X160366000Y-109932136D01*
X160366000Y-110975500D01*
X160346315Y-111042539D01*
X160293511Y-111088294D01*
X160242002Y-111099500D01*
X160185143Y-111099500D01*
X160185118Y-111099502D01*
X160160011Y-111102414D01*
X160160008Y-111102415D01*
X160057235Y-111147793D01*
X159977794Y-111227234D01*
X159932415Y-111330006D01*
X159932415Y-111330008D01*
X159929500Y-111355131D01*
X159929500Y-114594856D01*
X159929502Y-114594882D01*
X159932413Y-114619987D01*
X159932415Y-114619991D01*
X159977793Y-114722764D01*
X159977794Y-114722765D01*
X160057235Y-114802206D01*
X160160009Y-114847585D01*
X160185135Y-114850500D01*
X161274864Y-114850499D01*
X161274879Y-114850497D01*
X161274882Y-114850497D01*
X161299987Y-114847586D01*
X161299988Y-114847585D01*
X161299991Y-114847585D01*
X161402765Y-114802206D01*
X161482206Y-114722765D01*
X161527585Y-114619991D01*
X161530500Y-114594865D01*
X161530499Y-111355136D01*
X161530498Y-111355131D01*
X162469500Y-111355131D01*
X162469500Y-114594856D01*
X162469502Y-114594882D01*
X162472413Y-114619987D01*
X162472415Y-114619991D01*
X162517793Y-114722764D01*
X162517794Y-114722765D01*
X162597235Y-114802206D01*
X162700009Y-114847585D01*
X162725135Y-114850500D01*
X163814864Y-114850499D01*
X163814879Y-114850497D01*
X163814882Y-114850497D01*
X163839987Y-114847586D01*
X163839988Y-114847585D01*
X163839991Y-114847585D01*
X163942765Y-114802206D01*
X164022206Y-114722765D01*
X164067585Y-114619991D01*
X164070500Y-114594865D01*
X164070499Y-111355136D01*
X164070497Y-111355117D01*
X164067586Y-111330012D01*
X164067585Y-111330010D01*
X164067585Y-111330009D01*
X164022206Y-111227235D01*
X163942765Y-111147794D01*
X163942763Y-111147793D01*
X163839992Y-111102415D01*
X163814865Y-111099500D01*
X162725143Y-111099500D01*
X162725117Y-111099502D01*
X162700012Y-111102413D01*
X162700008Y-111102415D01*
X162597235Y-111147793D01*
X162517794Y-111227234D01*
X162472415Y-111330006D01*
X162472415Y-111330008D01*
X162469500Y-111355131D01*
X161530498Y-111355131D01*
X161530497Y-111355117D01*
X161527586Y-111330012D01*
X161527585Y-111330010D01*
X161527585Y-111330009D01*
X161482206Y-111227235D01*
X161402765Y-111147794D01*
X161402763Y-111147793D01*
X161299992Y-111102415D01*
X161274868Y-111099500D01*
X161274865Y-111099500D01*
X161218000Y-111099500D01*
X161150961Y-111079815D01*
X161105206Y-111027011D01*
X161094000Y-110975500D01*
X161094000Y-109682080D01*
X161094000Y-109682078D01*
X161069194Y-109589501D01*
X161021273Y-109506499D01*
X160953501Y-109438727D01*
X160710292Y-109195518D01*
X160676807Y-109134195D01*
X160681791Y-109064503D01*
X160722487Y-109009461D01*
X160828282Y-108928282D01*
X160924536Y-108802841D01*
X160985044Y-108656762D01*
X161005682Y-108500000D01*
X160985044Y-108343238D01*
X160924536Y-108197159D01*
X160828282Y-108071718D01*
X160702841Y-107975464D01*
X160556762Y-107914956D01*
X160556760Y-107914955D01*
X160400001Y-107894318D01*
X160399999Y-107894318D01*
X160243239Y-107914955D01*
X160243237Y-107914956D01*
X160097160Y-107975463D01*
X159971715Y-108071720D01*
X159890537Y-108177513D01*
X159834109Y-108218716D01*
X159764363Y-108222870D01*
X159704481Y-108189707D01*
X156014772Y-104499998D01*
X164094318Y-104499998D01*
X164094318Y-104500001D01*
X164114955Y-104656760D01*
X164114956Y-104656762D01*
X164156376Y-104756760D01*
X164175464Y-104802841D01*
X164271718Y-104928282D01*
X164397159Y-105024536D01*
X164543238Y-105085044D01*
X164700000Y-105105682D01*
X164719704Y-105103087D01*
X164788736Y-105113851D01*
X164823571Y-105138345D01*
X165409681Y-105724455D01*
X165443166Y-105785778D01*
X165446000Y-105812136D01*
X165446000Y-110975500D01*
X165426315Y-111042539D01*
X165373511Y-111088294D01*
X165322002Y-111099500D01*
X165265143Y-111099500D01*
X165265118Y-111099502D01*
X165240011Y-111102414D01*
X165240008Y-111102415D01*
X165137235Y-111147793D01*
X165057794Y-111227234D01*
X165012415Y-111330006D01*
X165012415Y-111330008D01*
X165009500Y-111355131D01*
X165009500Y-114594856D01*
X165009502Y-114594882D01*
X165012413Y-114619987D01*
X165012415Y-114619991D01*
X165057793Y-114722764D01*
X165057794Y-114722765D01*
X165137235Y-114802206D01*
X165240009Y-114847585D01*
X165265135Y-114850500D01*
X166354864Y-114850499D01*
X166354879Y-114850497D01*
X166354882Y-114850497D01*
X166379987Y-114847586D01*
X166379988Y-114847585D01*
X166379991Y-114847585D01*
X166482765Y-114802206D01*
X166562206Y-114722765D01*
X166607585Y-114619991D01*
X166610500Y-114594865D01*
X166610499Y-111355136D01*
X166610497Y-111355117D01*
X166607586Y-111330012D01*
X166607585Y-111330010D01*
X166607585Y-111330009D01*
X166562206Y-111227235D01*
X166482765Y-111147794D01*
X166482763Y-111147793D01*
X166379992Y-111102415D01*
X166354868Y-111099500D01*
X166354865Y-111099500D01*
X166298000Y-111099500D01*
X166230961Y-111079815D01*
X166185206Y-111027011D01*
X166174000Y-110975500D01*
X166174000Y-107999998D01*
X166594318Y-107999998D01*
X166594318Y-108000001D01*
X166614955Y-108156760D01*
X166614956Y-108156762D01*
X166656376Y-108256760D01*
X166675464Y-108302841D01*
X166771718Y-108428282D01*
X166897159Y-108524536D01*
X167043238Y-108585044D01*
X167121619Y-108595363D01*
X167199999Y-108605682D01*
X167200000Y-108605682D01*
X167200001Y-108605682D01*
X167252254Y-108598802D01*
X167356762Y-108585044D01*
X167502841Y-108524536D01*
X167628282Y-108428282D01*
X167724536Y-108302841D01*
X167785044Y-108156762D01*
X167805682Y-108000000D01*
X167785044Y-107843238D01*
X167724536Y-107697159D01*
X167628282Y-107571718D01*
X167502841Y-107475464D01*
X167356762Y-107414956D01*
X167356760Y-107414955D01*
X167200001Y-107394318D01*
X167199999Y-107394318D01*
X167043239Y-107414955D01*
X167043237Y-107414956D01*
X166897160Y-107475463D01*
X166771718Y-107571718D01*
X166675463Y-107697160D01*
X166614956Y-107843237D01*
X166614955Y-107843239D01*
X166594318Y-107999998D01*
X166174000Y-107999998D01*
X166174000Y-105562080D01*
X166174000Y-105562078D01*
X166149194Y-105469501D01*
X166101273Y-105386499D01*
X166033501Y-105318727D01*
X165338345Y-104623571D01*
X165304860Y-104562248D01*
X165303087Y-104519708D01*
X165305682Y-104500000D01*
X165285044Y-104343238D01*
X165224536Y-104197159D01*
X165128282Y-104071718D01*
X165002841Y-103975464D01*
X164856762Y-103914956D01*
X164856760Y-103914955D01*
X164700001Y-103894318D01*
X164699999Y-103894318D01*
X164543239Y-103914955D01*
X164543237Y-103914956D01*
X164397160Y-103975463D01*
X164271718Y-104071718D01*
X164175463Y-104197160D01*
X164114956Y-104343237D01*
X164114955Y-104343239D01*
X164094318Y-104499998D01*
X156014772Y-104499998D01*
X155938345Y-104423571D01*
X155904860Y-104362248D01*
X155903087Y-104319708D01*
X155905682Y-104300000D01*
X155885044Y-104143238D01*
X155824536Y-103997159D01*
X155728282Y-103871718D01*
X155602841Y-103775464D01*
X155456762Y-103714956D01*
X155456760Y-103714955D01*
X155343146Y-103699998D01*
X162494318Y-103699998D01*
X162494318Y-103700001D01*
X162514955Y-103856760D01*
X162514956Y-103856762D01*
X162571933Y-103994318D01*
X162575464Y-104002841D01*
X162671718Y-104128282D01*
X162797159Y-104224536D01*
X162943238Y-104285044D01*
X163021619Y-104295363D01*
X163099999Y-104305682D01*
X163100000Y-104305682D01*
X163100001Y-104305682D01*
X163164739Y-104297159D01*
X163256762Y-104285044D01*
X163402841Y-104224536D01*
X163528282Y-104128282D01*
X163624536Y-104002841D01*
X163685044Y-103856762D01*
X163705682Y-103700000D01*
X163699989Y-103656760D01*
X163685044Y-103543239D01*
X163685044Y-103543238D01*
X163624536Y-103397159D01*
X163528282Y-103271718D01*
X163402841Y-103175464D01*
X163256762Y-103114956D01*
X163256760Y-103114955D01*
X163100001Y-103094318D01*
X163099999Y-103094318D01*
X162943239Y-103114955D01*
X162943237Y-103114956D01*
X162797160Y-103175463D01*
X162671718Y-103271718D01*
X162575463Y-103397160D01*
X162514956Y-103543237D01*
X162514955Y-103543239D01*
X162494318Y-103699998D01*
X155343146Y-103699998D01*
X155300001Y-103694318D01*
X155299999Y-103694318D01*
X155143239Y-103714955D01*
X155143237Y-103714956D01*
X154997160Y-103775463D01*
X154871718Y-103871718D01*
X154775463Y-103997160D01*
X154714956Y-104143237D01*
X154714955Y-104143239D01*
X154694318Y-104299998D01*
X147264000Y-104299998D01*
X147264000Y-103499998D01*
X152994318Y-103499998D01*
X152994318Y-103500001D01*
X153014955Y-103656760D01*
X153014956Y-103656762D01*
X153075464Y-103802841D01*
X153171718Y-103928282D01*
X153297159Y-104024536D01*
X153443238Y-104085044D01*
X153521619Y-104095363D01*
X153599999Y-104105682D01*
X153600000Y-104105682D01*
X153600001Y-104105682D01*
X153652254Y-104098802D01*
X153756762Y-104085044D01*
X153902841Y-104024536D01*
X154028282Y-103928282D01*
X154124536Y-103802841D01*
X154185044Y-103656762D01*
X154205682Y-103500000D01*
X154185044Y-103343238D01*
X154124536Y-103197159D01*
X154028282Y-103071718D01*
X153902841Y-102975464D01*
X153756762Y-102914956D01*
X153756760Y-102914955D01*
X153600001Y-102894318D01*
X153599999Y-102894318D01*
X153443239Y-102914955D01*
X153443237Y-102914956D01*
X153297160Y-102975463D01*
X153171718Y-103071718D01*
X153075463Y-103197160D01*
X153014956Y-103343237D01*
X153014955Y-103343239D01*
X152994318Y-103499998D01*
X147264000Y-103499998D01*
X147264000Y-102599998D01*
X151194318Y-102599998D01*
X151194318Y-102600001D01*
X151214955Y-102756760D01*
X151214956Y-102756762D01*
X151271933Y-102894318D01*
X151275464Y-102902841D01*
X151371718Y-103028282D01*
X151497159Y-103124536D01*
X151643238Y-103185044D01*
X151721619Y-103195363D01*
X151799999Y-103205682D01*
X151800000Y-103205682D01*
X151800001Y-103205682D01*
X151864739Y-103197159D01*
X151956762Y-103185044D01*
X152102841Y-103124536D01*
X152228282Y-103028282D01*
X152324536Y-102902841D01*
X152385044Y-102756762D01*
X152405682Y-102600000D01*
X152399989Y-102556760D01*
X152392516Y-102499998D01*
X160394318Y-102499998D01*
X160394318Y-102500001D01*
X160414955Y-102656760D01*
X160414956Y-102656762D01*
X160456376Y-102756760D01*
X160475464Y-102802841D01*
X160571718Y-102928282D01*
X160697159Y-103024536D01*
X160843238Y-103085044D01*
X160913681Y-103094318D01*
X160999999Y-103105682D01*
X161000000Y-103105682D01*
X161000001Y-103105682D01*
X161052254Y-103098802D01*
X161156762Y-103085044D01*
X161302841Y-103024536D01*
X161428282Y-102928282D01*
X161524536Y-102802841D01*
X161585044Y-102656762D01*
X161605682Y-102500000D01*
X161585044Y-102343238D01*
X161524536Y-102197159D01*
X161428282Y-102071718D01*
X161302841Y-101975464D01*
X161293797Y-101971718D01*
X161156762Y-101914956D01*
X161156760Y-101914955D01*
X161000001Y-101894318D01*
X160999999Y-101894318D01*
X160843239Y-101914955D01*
X160843237Y-101914956D01*
X160697160Y-101975463D01*
X160571718Y-102071718D01*
X160475463Y-102197160D01*
X160414956Y-102343237D01*
X160414955Y-102343239D01*
X160394318Y-102499998D01*
X152392516Y-102499998D01*
X152385044Y-102443239D01*
X152385044Y-102443238D01*
X152324536Y-102297159D01*
X152228282Y-102171718D01*
X152102841Y-102075464D01*
X152093797Y-102071718D01*
X151956762Y-102014956D01*
X151956760Y-102014955D01*
X151800001Y-101994318D01*
X151799999Y-101994318D01*
X151643239Y-102014955D01*
X151643237Y-102014956D01*
X151497160Y-102075463D01*
X151371718Y-102171718D01*
X151275463Y-102297160D01*
X151214956Y-102443237D01*
X151214955Y-102443239D01*
X151194318Y-102599998D01*
X147264000Y-102599998D01*
X147264000Y-99938756D01*
X147283685Y-99871717D01*
X147312510Y-99840383D01*
X147328282Y-99828282D01*
X147424536Y-99702841D01*
X147443979Y-99655903D01*
X147450339Y-99640548D01*
X147494180Y-99586144D01*
X147560474Y-99564079D01*
X147564900Y-99564000D01*
X155394952Y-99564000D01*
X155461991Y-99583685D01*
X155507746Y-99636489D01*
X155514726Y-99655903D01*
X155514955Y-99656761D01*
X155575463Y-99802839D01*
X155575464Y-99802841D01*
X155671718Y-99928282D01*
X155797159Y-100024536D01*
X155943238Y-100085044D01*
X156021619Y-100095363D01*
X156099999Y-100105682D01*
X156100000Y-100105682D01*
X156100001Y-100105682D01*
X156152254Y-100098802D01*
X156256762Y-100085044D01*
X156402841Y-100024536D01*
X156528282Y-99928282D01*
X156624536Y-99802841D01*
X156685044Y-99656762D01*
X156685044Y-99656760D01*
X156685274Y-99655903D01*
X156685665Y-99655260D01*
X156688154Y-99649253D01*
X156689091Y-99649641D01*
X156721640Y-99596244D01*
X156784488Y-99565716D01*
X156805048Y-99564000D01*
X164684510Y-99564000D01*
X164751549Y-99583685D01*
X164782884Y-99612511D01*
X164871718Y-99728282D01*
X164997159Y-99824536D01*
X165143238Y-99885044D01*
X165221619Y-99895363D01*
X165299999Y-99905682D01*
X165300000Y-99905682D01*
X165300001Y-99905682D01*
X165367428Y-99896805D01*
X165456762Y-99885044D01*
X165602841Y-99824536D01*
X165728282Y-99728282D01*
X165824536Y-99602841D01*
X165885044Y-99456762D01*
X165905682Y-99300000D01*
X165885044Y-99143238D01*
X165824536Y-98997159D01*
X165728282Y-98871718D01*
X165602841Y-98775464D01*
X165595685Y-98772500D01*
X165456762Y-98714956D01*
X165456760Y-98714955D01*
X165300001Y-98694318D01*
X165299999Y-98694318D01*
X165143239Y-98714955D01*
X165143234Y-98714957D01*
X164997163Y-98775461D01*
X164997162Y-98775461D01*
X164977304Y-98790698D01*
X164951659Y-98810376D01*
X164886493Y-98835570D01*
X164876175Y-98836000D01*
X156447922Y-98836000D01*
X156352078Y-98836000D01*
X156259501Y-98860806D01*
X156219067Y-98884150D01*
X156151166Y-98900620D01*
X156140885Y-98899700D01*
X156100003Y-98894318D01*
X156099997Y-98894318D01*
X156059113Y-98899700D01*
X155990078Y-98888934D01*
X155980929Y-98884148D01*
X155940501Y-98860807D01*
X155940500Y-98860806D01*
X155940499Y-98860806D01*
X155847922Y-98836000D01*
X155847920Y-98836000D01*
X147132232Y-98836000D01*
X147084780Y-98826561D01*
X147056765Y-98814957D01*
X147056760Y-98814955D01*
X146900001Y-98794318D01*
X146899997Y-98794318D01*
X146834130Y-98802989D01*
X146785599Y-98796609D01*
X146784849Y-98799410D01*
X146777000Y-98797307D01*
X146776999Y-98797306D01*
X146684422Y-98772500D01*
X146684420Y-98772500D01*
X138320350Y-98772500D01*
X138272897Y-98763061D01*
X138156762Y-98714956D01*
X138156760Y-98714955D01*
X138000001Y-98694318D01*
X137999999Y-98694318D01*
X137843239Y-98714955D01*
X137843237Y-98714956D01*
X137697160Y-98775463D01*
X137571718Y-98871718D01*
X137475463Y-98997160D01*
X137414956Y-99143237D01*
X137414955Y-99143239D01*
X137394318Y-99299998D01*
X133800500Y-99299998D01*
X133800500Y-91899998D01*
X161894318Y-91899998D01*
X161894318Y-91900001D01*
X161914955Y-92056760D01*
X161914956Y-92056762D01*
X161975464Y-92202841D01*
X162071718Y-92328282D01*
X162197159Y-92424536D01*
X162343238Y-92485044D01*
X162421619Y-92495363D01*
X162499999Y-92505682D01*
X162500000Y-92505682D01*
X162500001Y-92505682D01*
X162552254Y-92498802D01*
X162656762Y-92485044D01*
X162802841Y-92424536D01*
X162928282Y-92328282D01*
X163024536Y-92202841D01*
X163085044Y-92056762D01*
X163105682Y-91900000D01*
X163085044Y-91743238D01*
X163024536Y-91597159D01*
X162928282Y-91471718D01*
X162802841Y-91375464D01*
X162656762Y-91314956D01*
X162656760Y-91314955D01*
X162500001Y-91294318D01*
X162499999Y-91294318D01*
X162343239Y-91314955D01*
X162343237Y-91314956D01*
X162197160Y-91375463D01*
X162071718Y-91471718D01*
X161975463Y-91597160D01*
X161914956Y-91743237D01*
X161914955Y-91743239D01*
X161894318Y-91899998D01*
X133800500Y-91899998D01*
X133800500Y-91099998D01*
X144994318Y-91099998D01*
X144994318Y-91100001D01*
X145014955Y-91256760D01*
X145014956Y-91256762D01*
X145075464Y-91402841D01*
X145171718Y-91528282D01*
X145297159Y-91624536D01*
X145443238Y-91685044D01*
X145521619Y-91695363D01*
X145599999Y-91705682D01*
X145600000Y-91705682D01*
X145600001Y-91705682D01*
X145652254Y-91698802D01*
X145756762Y-91685044D01*
X145902841Y-91624536D01*
X146028282Y-91528282D01*
X146124536Y-91402841D01*
X146185044Y-91256762D01*
X146205682Y-91100000D01*
X146185044Y-90943238D01*
X146124536Y-90797159D01*
X146028282Y-90671718D01*
X145902841Y-90575464D01*
X145756762Y-90514956D01*
X145756760Y-90514955D01*
X145600001Y-90494318D01*
X145599999Y-90494318D01*
X145443239Y-90514955D01*
X145443237Y-90514956D01*
X145297160Y-90575463D01*
X145171718Y-90671718D01*
X145075463Y-90797160D01*
X145014956Y-90943237D01*
X145014955Y-90943239D01*
X144994318Y-91099998D01*
X133800500Y-91099998D01*
X133800500Y-89699998D01*
X139094318Y-89699998D01*
X139094318Y-89700001D01*
X139114955Y-89856760D01*
X139114956Y-89856762D01*
X139175464Y-90002841D01*
X139271718Y-90128282D01*
X139397159Y-90224536D01*
X139543238Y-90285044D01*
X139621619Y-90295363D01*
X139699999Y-90305682D01*
X139700000Y-90305682D01*
X139700001Y-90305682D01*
X139752254Y-90298802D01*
X139856762Y-90285044D01*
X140002841Y-90224536D01*
X140128282Y-90128282D01*
X140224536Y-90002841D01*
X140285044Y-89856762D01*
X140305682Y-89700000D01*
X140285044Y-89543238D01*
X140225712Y-89399998D01*
X159394318Y-89399998D01*
X159394318Y-89400001D01*
X159414955Y-89556760D01*
X159414956Y-89556762D01*
X159474287Y-89700001D01*
X159475464Y-89702841D01*
X159571718Y-89828282D01*
X159697159Y-89924536D01*
X159843238Y-89985044D01*
X159921619Y-89995363D01*
X159999999Y-90005682D01*
X160000000Y-90005682D01*
X160000001Y-90005682D01*
X160052254Y-89998802D01*
X160156762Y-89985044D01*
X160302841Y-89924536D01*
X160428282Y-89828282D01*
X160524536Y-89702841D01*
X160585044Y-89556762D01*
X160605682Y-89400000D01*
X160585044Y-89243238D01*
X160524536Y-89097159D01*
X160428282Y-88971718D01*
X160302841Y-88875464D01*
X160156762Y-88814956D01*
X160156760Y-88814955D01*
X160000001Y-88794318D01*
X159999999Y-88794318D01*
X159843239Y-88814955D01*
X159843237Y-88814956D01*
X159697160Y-88875463D01*
X159571718Y-88971718D01*
X159475463Y-89097160D01*
X159414956Y-89243237D01*
X159414955Y-89243239D01*
X159394318Y-89399998D01*
X140225712Y-89399998D01*
X140224536Y-89397159D01*
X140128282Y-89271718D01*
X140002841Y-89175464D01*
X139856762Y-89114956D01*
X139856760Y-89114955D01*
X139700001Y-89094318D01*
X139699999Y-89094318D01*
X139543239Y-89114955D01*
X139543237Y-89114956D01*
X139397160Y-89175463D01*
X139271718Y-89271718D01*
X139175463Y-89397160D01*
X139114956Y-89543237D01*
X139114955Y-89543239D01*
X139094318Y-89699998D01*
X133800500Y-89699998D01*
X133800500Y-85529998D01*
X141894318Y-85529998D01*
X141894318Y-85530001D01*
X141914955Y-85686760D01*
X141914956Y-85686762D01*
X141975464Y-85832841D01*
X142071718Y-85958282D01*
X142197159Y-86054536D01*
X142343238Y-86115044D01*
X142421619Y-86125363D01*
X142499999Y-86135682D01*
X142500000Y-86135682D01*
X142500001Y-86135682D01*
X142552254Y-86128802D01*
X142656762Y-86115044D01*
X142802841Y-86054536D01*
X142928282Y-85958282D01*
X143024536Y-85832841D01*
X143085044Y-85686762D01*
X143100177Y-85571815D01*
X143128443Y-85507918D01*
X143186768Y-85469447D01*
X143223116Y-85464000D01*
X150247919Y-85464000D01*
X150247922Y-85464000D01*
X150340499Y-85439194D01*
X150423501Y-85391273D01*
X152182319Y-83632455D01*
X152243642Y-83598970D01*
X152313334Y-83603954D01*
X152357681Y-83632455D01*
X153916499Y-85191273D01*
X153999501Y-85239194D01*
X154092078Y-85264000D01*
X154187922Y-85264000D01*
X161717864Y-85264000D01*
X161784903Y-85283685D01*
X161805545Y-85300319D01*
X161861654Y-85356428D01*
X161895139Y-85417751D01*
X161896912Y-85460293D01*
X161894318Y-85479998D01*
X161894318Y-85480001D01*
X161914955Y-85636760D01*
X161914956Y-85636762D01*
X161975464Y-85782841D01*
X162071718Y-85908282D01*
X162197159Y-86004536D01*
X162343238Y-86065044D01*
X162421619Y-86075363D01*
X162499999Y-86085682D01*
X162500000Y-86085682D01*
X162500001Y-86085682D01*
X162552254Y-86078802D01*
X162656762Y-86065044D01*
X162802841Y-86004536D01*
X162928282Y-85908282D01*
X163024536Y-85782841D01*
X163085044Y-85636762D01*
X163105682Y-85480000D01*
X163085044Y-85323238D01*
X163024536Y-85177159D01*
X162928282Y-85051718D01*
X162802841Y-84955464D01*
X162777472Y-84944956D01*
X162656762Y-84894956D01*
X162656760Y-84894955D01*
X162500002Y-84874318D01*
X162499998Y-84874318D01*
X162480293Y-84876912D01*
X162411258Y-84866146D01*
X162376428Y-84841654D01*
X162143502Y-84608728D01*
X162143497Y-84608724D01*
X162060501Y-84560807D01*
X162060500Y-84560806D01*
X162060499Y-84560806D01*
X161967922Y-84536000D01*
X161967920Y-84536000D01*
X160220812Y-84536000D01*
X160153773Y-84516315D01*
X160108018Y-84463511D01*
X160097873Y-84395814D01*
X160105682Y-84336499D01*
X160105682Y-84336498D01*
X160085044Y-84179739D01*
X160085044Y-84179738D01*
X160024536Y-84033659D01*
X159928282Y-83908218D01*
X159802841Y-83811964D01*
X159656762Y-83751456D01*
X159656760Y-83751455D01*
X159500001Y-83730818D01*
X159499999Y-83730818D01*
X159343239Y-83751455D01*
X159343237Y-83751456D01*
X159197160Y-83811963D01*
X159197159Y-83811964D01*
X159071718Y-83908218D01*
X159059616Y-83923988D01*
X159003191Y-83965189D01*
X158961243Y-83972500D01*
X155838636Y-83972500D01*
X155771597Y-83952815D01*
X155750955Y-83936181D01*
X155210319Y-83395545D01*
X155176834Y-83334222D01*
X155174000Y-83307864D01*
X155174000Y-82024499D01*
X155193685Y-81957460D01*
X155246489Y-81911705D01*
X155298000Y-81900499D01*
X155354856Y-81900499D01*
X155354864Y-81900499D01*
X155354879Y-81900497D01*
X155354882Y-81900497D01*
X155379987Y-81897586D01*
X155379988Y-81897585D01*
X155379991Y-81897585D01*
X155482765Y-81852206D01*
X155562206Y-81772765D01*
X155607585Y-81669991D01*
X155610500Y-81644865D01*
X155610499Y-78405136D01*
X155610498Y-78405131D01*
X156549500Y-78405131D01*
X156549500Y-81644856D01*
X156549502Y-81644882D01*
X156552413Y-81669987D01*
X156552415Y-81669991D01*
X156597793Y-81772764D01*
X156597794Y-81772765D01*
X156677235Y-81852206D01*
X156780009Y-81897585D01*
X156805135Y-81900500D01*
X157894864Y-81900499D01*
X157894879Y-81900497D01*
X157894882Y-81900497D01*
X157919987Y-81897586D01*
X157919988Y-81897585D01*
X157919991Y-81897585D01*
X158022765Y-81852206D01*
X158102206Y-81772765D01*
X158147585Y-81669991D01*
X158150500Y-81644865D01*
X158150499Y-78405136D01*
X158150498Y-78405131D01*
X159089500Y-78405131D01*
X159089500Y-81644856D01*
X159089502Y-81644882D01*
X159092413Y-81669987D01*
X159092415Y-81669991D01*
X159137793Y-81772764D01*
X159137794Y-81772765D01*
X159217235Y-81852206D01*
X159320009Y-81897585D01*
X159345135Y-81900500D01*
X160434864Y-81900499D01*
X160434879Y-81900497D01*
X160434882Y-81900497D01*
X160459987Y-81897586D01*
X160459988Y-81897585D01*
X160459991Y-81897585D01*
X160562765Y-81852206D01*
X160642206Y-81772765D01*
X160687585Y-81669991D01*
X160690500Y-81644865D01*
X160690499Y-78405136D01*
X160690498Y-78405131D01*
X161629500Y-78405131D01*
X161629500Y-81644856D01*
X161629502Y-81644882D01*
X161632413Y-81669987D01*
X161632415Y-81669991D01*
X161677793Y-81772764D01*
X161677794Y-81772765D01*
X161757235Y-81852206D01*
X161860009Y-81897585D01*
X161885135Y-81900500D01*
X162974864Y-81900499D01*
X162974879Y-81900497D01*
X162974882Y-81900497D01*
X162999987Y-81897586D01*
X162999988Y-81897585D01*
X162999991Y-81897585D01*
X163102765Y-81852206D01*
X163182206Y-81772765D01*
X163227585Y-81669991D01*
X163230500Y-81644865D01*
X163230499Y-78405136D01*
X163230498Y-78405131D01*
X164169500Y-78405131D01*
X164169500Y-81644856D01*
X164169502Y-81644882D01*
X164172413Y-81669987D01*
X164172415Y-81669991D01*
X164217793Y-81772764D01*
X164217794Y-81772765D01*
X164297235Y-81852206D01*
X164400009Y-81897585D01*
X164425135Y-81900500D01*
X165514864Y-81900499D01*
X165514879Y-81900497D01*
X165514882Y-81900497D01*
X165539987Y-81897586D01*
X165539988Y-81897585D01*
X165539991Y-81897585D01*
X165642765Y-81852206D01*
X165722206Y-81772765D01*
X165767585Y-81669991D01*
X165770500Y-81644865D01*
X165770499Y-80754681D01*
X165790183Y-80687643D01*
X165842987Y-80641888D01*
X165894499Y-80630682D01*
X165900001Y-80630682D01*
X165952254Y-80623802D01*
X166056762Y-80610044D01*
X166202841Y-80549536D01*
X166328282Y-80453282D01*
X166424536Y-80327841D01*
X166485044Y-80181762D01*
X166505682Y-80025000D01*
X166485044Y-79868238D01*
X166424536Y-79722159D01*
X166328282Y-79596718D01*
X166202841Y-79500464D01*
X166056762Y-79439956D01*
X166056760Y-79439955D01*
X165900002Y-79419318D01*
X165894499Y-79419318D01*
X165827460Y-79399633D01*
X165781705Y-79346829D01*
X165770499Y-79295318D01*
X165770499Y-78405143D01*
X165770499Y-78405136D01*
X165770497Y-78405117D01*
X165767586Y-78380012D01*
X165767585Y-78380010D01*
X165767585Y-78380009D01*
X165722206Y-78277235D01*
X165642765Y-78197794D01*
X165642763Y-78197793D01*
X165539992Y-78152415D01*
X165514865Y-78149500D01*
X164425143Y-78149500D01*
X164425117Y-78149502D01*
X164400012Y-78152413D01*
X164400008Y-78152415D01*
X164297235Y-78197793D01*
X164217794Y-78277234D01*
X164172415Y-78380006D01*
X164172415Y-78380008D01*
X164169500Y-78405131D01*
X163230498Y-78405131D01*
X163230497Y-78405117D01*
X163227586Y-78380012D01*
X163227585Y-78380010D01*
X163227585Y-78380009D01*
X163182206Y-78277235D01*
X163102765Y-78197794D01*
X163102763Y-78197793D01*
X162999992Y-78152415D01*
X162974865Y-78149500D01*
X161885143Y-78149500D01*
X161885117Y-78149502D01*
X161860012Y-78152413D01*
X161860008Y-78152415D01*
X161757235Y-78197793D01*
X161677794Y-78277234D01*
X161632415Y-78380006D01*
X161632415Y-78380008D01*
X161629500Y-78405131D01*
X160690498Y-78405131D01*
X160690497Y-78405117D01*
X160687586Y-78380012D01*
X160687585Y-78380010D01*
X160687585Y-78380009D01*
X160642206Y-78277235D01*
X160562765Y-78197794D01*
X160562763Y-78197793D01*
X160459992Y-78152415D01*
X160434865Y-78149500D01*
X159345143Y-78149500D01*
X159345117Y-78149502D01*
X159320012Y-78152413D01*
X159320008Y-78152415D01*
X159217235Y-78197793D01*
X159137794Y-78277234D01*
X159092415Y-78380006D01*
X159092415Y-78380008D01*
X159089500Y-78405131D01*
X158150498Y-78405131D01*
X158150497Y-78405117D01*
X158147586Y-78380012D01*
X158147585Y-78380010D01*
X158147585Y-78380009D01*
X158102206Y-78277235D01*
X158022765Y-78197794D01*
X158022763Y-78197793D01*
X157919992Y-78152415D01*
X157894865Y-78149500D01*
X156805143Y-78149500D01*
X156805117Y-78149502D01*
X156780012Y-78152413D01*
X156780008Y-78152415D01*
X156677235Y-78197793D01*
X156597794Y-78277234D01*
X156552415Y-78380006D01*
X156552415Y-78380008D01*
X156549500Y-78405131D01*
X155610498Y-78405131D01*
X155610497Y-78405117D01*
X155607586Y-78380012D01*
X155607585Y-78380010D01*
X155607585Y-78380009D01*
X155562206Y-78277235D01*
X155482765Y-78197794D01*
X155482763Y-78197793D01*
X155379992Y-78152415D01*
X155354865Y-78149500D01*
X154265143Y-78149500D01*
X154265117Y-78149502D01*
X154240012Y-78152413D01*
X154240008Y-78152415D01*
X154137235Y-78197793D01*
X154057794Y-78277234D01*
X154012415Y-78380006D01*
X154012415Y-78380008D01*
X154009500Y-78405131D01*
X154009500Y-81644856D01*
X154009502Y-81644882D01*
X154012413Y-81669987D01*
X154012415Y-81669991D01*
X154057793Y-81772764D01*
X154057794Y-81772765D01*
X154137235Y-81852206D01*
X154240009Y-81897585D01*
X154265135Y-81900500D01*
X154322000Y-81900499D01*
X154389038Y-81920182D01*
X154434794Y-81972986D01*
X154446000Y-82024499D01*
X154446000Y-83462078D01*
X154446000Y-83557922D01*
X154470806Y-83650499D01*
X154470807Y-83650500D01*
X154470807Y-83650501D01*
X154518724Y-83733497D01*
X154518728Y-83733502D01*
X155109545Y-84324319D01*
X155143030Y-84385642D01*
X155138046Y-84455334D01*
X155096174Y-84511267D01*
X155030710Y-84535684D01*
X155021864Y-84536000D01*
X154342136Y-84536000D01*
X154275097Y-84516315D01*
X154254455Y-84499681D01*
X152670319Y-82915545D01*
X152636834Y-82854222D01*
X152634000Y-82827864D01*
X152634000Y-82024499D01*
X152653685Y-81957460D01*
X152706489Y-81911705D01*
X152758000Y-81900499D01*
X152814856Y-81900499D01*
X152814864Y-81900499D01*
X152814879Y-81900497D01*
X152814882Y-81900497D01*
X152839987Y-81897586D01*
X152839988Y-81897585D01*
X152839991Y-81897585D01*
X152942765Y-81852206D01*
X153022206Y-81772765D01*
X153067585Y-81669991D01*
X153070500Y-81644865D01*
X153070499Y-78405136D01*
X153070497Y-78405117D01*
X153067586Y-78380012D01*
X153067585Y-78380010D01*
X153067585Y-78380009D01*
X153022206Y-78277235D01*
X152942765Y-78197794D01*
X152942763Y-78197793D01*
X152839992Y-78152415D01*
X152814865Y-78149500D01*
X151725143Y-78149500D01*
X151725117Y-78149502D01*
X151700012Y-78152413D01*
X151700008Y-78152415D01*
X151597235Y-78197793D01*
X151517794Y-78277234D01*
X151472415Y-78380006D01*
X151472415Y-78380008D01*
X151469500Y-78405131D01*
X151469500Y-81644856D01*
X151469502Y-81644882D01*
X151472413Y-81669987D01*
X151472415Y-81669991D01*
X151517793Y-81772764D01*
X151517794Y-81772765D01*
X151597235Y-81852206D01*
X151700009Y-81897585D01*
X151725135Y-81900500D01*
X151782000Y-81900499D01*
X151849038Y-81920182D01*
X151894794Y-81972986D01*
X151906000Y-82024499D01*
X151906000Y-82827864D01*
X151886315Y-82894903D01*
X151869681Y-82915545D01*
X150085545Y-84699681D01*
X150024222Y-84733166D01*
X149997864Y-84736000D01*
X142882078Y-84736000D01*
X142789501Y-84760806D01*
X142789499Y-84760807D01*
X142789498Y-84760807D01*
X142706502Y-84808724D01*
X142706501Y-84808725D01*
X142623569Y-84891655D01*
X142562245Y-84925139D01*
X142519708Y-84926912D01*
X142505025Y-84924979D01*
X142500000Y-84924318D01*
X142499999Y-84924318D01*
X142499998Y-84924318D01*
X142343239Y-84944955D01*
X142343237Y-84944956D01*
X142197160Y-85005463D01*
X142071718Y-85101718D01*
X141975463Y-85227160D01*
X141914956Y-85373237D01*
X141914955Y-85373239D01*
X141894318Y-85529998D01*
X133800500Y-85529998D01*
X133800500Y-81647844D01*
X136030000Y-81647844D01*
X136036401Y-81707372D01*
X136036403Y-81707379D01*
X136086645Y-81842086D01*
X136086649Y-81842093D01*
X136172809Y-81957187D01*
X136172812Y-81957190D01*
X136287906Y-82043350D01*
X136287913Y-82043354D01*
X136422620Y-82093596D01*
X136422627Y-82093598D01*
X136482155Y-82099999D01*
X136482172Y-82100000D01*
X136780000Y-82100000D01*
X137280000Y-82100000D01*
X137577828Y-82100000D01*
X137577844Y-82099999D01*
X137637372Y-82093598D01*
X137637379Y-82093596D01*
X137772086Y-82043354D01*
X137772093Y-82043350D01*
X137887187Y-81957190D01*
X137887190Y-81957187D01*
X137973350Y-81842093D01*
X137973354Y-81842086D01*
X138023596Y-81707379D01*
X138023598Y-81707372D01*
X138029999Y-81647844D01*
X138030000Y-81647827D01*
X138030000Y-80275000D01*
X137280000Y-80275000D01*
X137280000Y-82100000D01*
X136780000Y-82100000D01*
X136780000Y-80275000D01*
X136030000Y-80275000D01*
X136030000Y-81647844D01*
X133800500Y-81647844D01*
X133800500Y-78402155D01*
X136030000Y-78402155D01*
X136030000Y-79775000D01*
X136780000Y-79775000D01*
X137280000Y-79775000D01*
X138030000Y-79775000D01*
X138030000Y-78405131D01*
X138769500Y-78405131D01*
X138769500Y-81644856D01*
X138769502Y-81644882D01*
X138772413Y-81669987D01*
X138772415Y-81669991D01*
X138817793Y-81772764D01*
X138817794Y-81772765D01*
X138897235Y-81852206D01*
X139000009Y-81897585D01*
X139025135Y-81900500D01*
X140114864Y-81900499D01*
X140114879Y-81900497D01*
X140114882Y-81900497D01*
X140139987Y-81897586D01*
X140139988Y-81897585D01*
X140139991Y-81897585D01*
X140242765Y-81852206D01*
X140322206Y-81772765D01*
X140367585Y-81669991D01*
X140370500Y-81644865D01*
X140370499Y-78405136D01*
X140370498Y-78405131D01*
X141309500Y-78405131D01*
X141309500Y-81644856D01*
X141309502Y-81644882D01*
X141312413Y-81669987D01*
X141312415Y-81669991D01*
X141357793Y-81772764D01*
X141357794Y-81772765D01*
X141437235Y-81852206D01*
X141540009Y-81897585D01*
X141565135Y-81900500D01*
X142654864Y-81900499D01*
X142654879Y-81900497D01*
X142654882Y-81900497D01*
X142679987Y-81897586D01*
X142679988Y-81897585D01*
X142679991Y-81897585D01*
X142782765Y-81852206D01*
X142862206Y-81772765D01*
X142907585Y-81669991D01*
X142910500Y-81644865D01*
X142910499Y-78405136D01*
X142910498Y-78405131D01*
X143849500Y-78405131D01*
X143849500Y-81644856D01*
X143849502Y-81644882D01*
X143852413Y-81669987D01*
X143852415Y-81669991D01*
X143897793Y-81772764D01*
X143897794Y-81772765D01*
X143977235Y-81852206D01*
X144080009Y-81897585D01*
X144105135Y-81900500D01*
X145194864Y-81900499D01*
X145194879Y-81900497D01*
X145194882Y-81900497D01*
X145219987Y-81897586D01*
X145219988Y-81897585D01*
X145219991Y-81897585D01*
X145322765Y-81852206D01*
X145402206Y-81772765D01*
X145447585Y-81669991D01*
X145450500Y-81644865D01*
X145450499Y-78405136D01*
X145450498Y-78405131D01*
X146389500Y-78405131D01*
X146389500Y-81644856D01*
X146389502Y-81644882D01*
X146392413Y-81669987D01*
X146392415Y-81669991D01*
X146437793Y-81772764D01*
X146437794Y-81772765D01*
X146517235Y-81852206D01*
X146620009Y-81897585D01*
X146645135Y-81900500D01*
X147734864Y-81900499D01*
X147734879Y-81900497D01*
X147734882Y-81900497D01*
X147759987Y-81897586D01*
X147759988Y-81897585D01*
X147759991Y-81897585D01*
X147862765Y-81852206D01*
X147942206Y-81772765D01*
X147987585Y-81669991D01*
X147990500Y-81644865D01*
X147990499Y-78405136D01*
X147990498Y-78405131D01*
X148929500Y-78405131D01*
X148929500Y-81644856D01*
X148929502Y-81644882D01*
X148932413Y-81669987D01*
X148932415Y-81669991D01*
X148977793Y-81772764D01*
X148977794Y-81772765D01*
X149057235Y-81852206D01*
X149160009Y-81897585D01*
X149185135Y-81900500D01*
X150274864Y-81900499D01*
X150274879Y-81900497D01*
X150274882Y-81900497D01*
X150299987Y-81897586D01*
X150299988Y-81897585D01*
X150299991Y-81897585D01*
X150402765Y-81852206D01*
X150482206Y-81772765D01*
X150527585Y-81669991D01*
X150530500Y-81644865D01*
X150530499Y-78405136D01*
X150530497Y-78405117D01*
X150527586Y-78380012D01*
X150527585Y-78380010D01*
X150527585Y-78380009D01*
X150482206Y-78277235D01*
X150402765Y-78197794D01*
X150402763Y-78197793D01*
X150299992Y-78152415D01*
X150274865Y-78149500D01*
X149185143Y-78149500D01*
X149185117Y-78149502D01*
X149160012Y-78152413D01*
X149160008Y-78152415D01*
X149057235Y-78197793D01*
X148977794Y-78277234D01*
X148932415Y-78380006D01*
X148932415Y-78380008D01*
X148929500Y-78405131D01*
X147990498Y-78405131D01*
X147990497Y-78405117D01*
X147987586Y-78380012D01*
X147987585Y-78380010D01*
X147987585Y-78380009D01*
X147942206Y-78277235D01*
X147862765Y-78197794D01*
X147862763Y-78197793D01*
X147759992Y-78152415D01*
X147734865Y-78149500D01*
X146645143Y-78149500D01*
X146645117Y-78149502D01*
X146620012Y-78152413D01*
X146620008Y-78152415D01*
X146517235Y-78197793D01*
X146437794Y-78277234D01*
X146392415Y-78380006D01*
X146392415Y-78380008D01*
X146389500Y-78405131D01*
X145450498Y-78405131D01*
X145450497Y-78405117D01*
X145447586Y-78380012D01*
X145447585Y-78380010D01*
X145447585Y-78380009D01*
X145402206Y-78277235D01*
X145322765Y-78197794D01*
X145322763Y-78197793D01*
X145219992Y-78152415D01*
X145194865Y-78149500D01*
X144105143Y-78149500D01*
X144105117Y-78149502D01*
X144080012Y-78152413D01*
X144080008Y-78152415D01*
X143977235Y-78197793D01*
X143897794Y-78277234D01*
X143852415Y-78380006D01*
X143852415Y-78380008D01*
X143849500Y-78405131D01*
X142910498Y-78405131D01*
X142910497Y-78405117D01*
X142907586Y-78380012D01*
X142907585Y-78380010D01*
X142907585Y-78380009D01*
X142862206Y-78277235D01*
X142782765Y-78197794D01*
X142782763Y-78197793D01*
X142679992Y-78152415D01*
X142654865Y-78149500D01*
X141565143Y-78149500D01*
X141565117Y-78149502D01*
X141540012Y-78152413D01*
X141540008Y-78152415D01*
X141437235Y-78197793D01*
X141357794Y-78277234D01*
X141312415Y-78380006D01*
X141312415Y-78380008D01*
X141309500Y-78405131D01*
X140370498Y-78405131D01*
X140370497Y-78405117D01*
X140367586Y-78380012D01*
X140367585Y-78380010D01*
X140367585Y-78380009D01*
X140322206Y-78277235D01*
X140242765Y-78197794D01*
X140242763Y-78197793D01*
X140139992Y-78152415D01*
X140114865Y-78149500D01*
X139025143Y-78149500D01*
X139025117Y-78149502D01*
X139000012Y-78152413D01*
X139000008Y-78152415D01*
X138897235Y-78197793D01*
X138817794Y-78277234D01*
X138772415Y-78380006D01*
X138772415Y-78380008D01*
X138769500Y-78405131D01*
X138030000Y-78405131D01*
X138030000Y-78402172D01*
X138029999Y-78402155D01*
X138023598Y-78342627D01*
X138023596Y-78342620D01*
X137973354Y-78207913D01*
X137973350Y-78207906D01*
X137887190Y-78092812D01*
X137887187Y-78092809D01*
X137772093Y-78006649D01*
X137772086Y-78006645D01*
X137637379Y-77956403D01*
X137637372Y-77956401D01*
X137577844Y-77950000D01*
X137280000Y-77950000D01*
X137280000Y-79775000D01*
X136780000Y-79775000D01*
X136780000Y-77950000D01*
X136482155Y-77950000D01*
X136422627Y-77956401D01*
X136422620Y-77956403D01*
X136287913Y-78006645D01*
X136287906Y-78006649D01*
X136172812Y-78092809D01*
X136172809Y-78092812D01*
X136086649Y-78207906D01*
X136086645Y-78207913D01*
X136036403Y-78342620D01*
X136036401Y-78342627D01*
X136030000Y-78402155D01*
X133800500Y-78402155D01*
X133800500Y-76597844D01*
X136030000Y-76597844D01*
X136036401Y-76657372D01*
X136036403Y-76657379D01*
X136086645Y-76792086D01*
X136086649Y-76792093D01*
X136172809Y-76907187D01*
X136172812Y-76907190D01*
X136287906Y-76993350D01*
X136287913Y-76993354D01*
X136422620Y-77043596D01*
X136422627Y-77043598D01*
X136482155Y-77049999D01*
X136482172Y-77050000D01*
X136780000Y-77050000D01*
X137280000Y-77050000D01*
X137577828Y-77050000D01*
X137577844Y-77049999D01*
X137637372Y-77043598D01*
X137637379Y-77043596D01*
X137772086Y-76993354D01*
X137772093Y-76993350D01*
X137887187Y-76907190D01*
X137887190Y-76907187D01*
X137973350Y-76792093D01*
X137973354Y-76792086D01*
X138023596Y-76657379D01*
X138023598Y-76657372D01*
X138029999Y-76597844D01*
X138030000Y-76597827D01*
X138030000Y-75225000D01*
X137280000Y-75225000D01*
X137280000Y-77050000D01*
X136780000Y-77050000D01*
X136780000Y-75225000D01*
X136030000Y-75225000D01*
X136030000Y-76597844D01*
X133800500Y-76597844D01*
X133800500Y-73352155D01*
X136030000Y-73352155D01*
X136030000Y-74725000D01*
X136780000Y-74725000D01*
X137280000Y-74725000D01*
X138030000Y-74725000D01*
X138030000Y-73355131D01*
X138769500Y-73355131D01*
X138769500Y-76594856D01*
X138769502Y-76594882D01*
X138772413Y-76619987D01*
X138772415Y-76619991D01*
X138817793Y-76722764D01*
X138817794Y-76722765D01*
X138897235Y-76802206D01*
X139000009Y-76847585D01*
X139025135Y-76850500D01*
X140114864Y-76850499D01*
X140114879Y-76850497D01*
X140114882Y-76850497D01*
X140139987Y-76847586D01*
X140139988Y-76847585D01*
X140139991Y-76847585D01*
X140242765Y-76802206D01*
X140322206Y-76722765D01*
X140367585Y-76619991D01*
X140370500Y-76594865D01*
X140370499Y-73355136D01*
X140370498Y-73355131D01*
X141309500Y-73355131D01*
X141309500Y-76594856D01*
X141309502Y-76594882D01*
X141312413Y-76619987D01*
X141312415Y-76619991D01*
X141357793Y-76722764D01*
X141357794Y-76722765D01*
X141437235Y-76802206D01*
X141540009Y-76847585D01*
X141565135Y-76850500D01*
X142654864Y-76850499D01*
X142654879Y-76850497D01*
X142654882Y-76850497D01*
X142679987Y-76847586D01*
X142679988Y-76847585D01*
X142679991Y-76847585D01*
X142782765Y-76802206D01*
X142862206Y-76722765D01*
X142907585Y-76619991D01*
X142910500Y-76594865D01*
X142910499Y-73355136D01*
X142910498Y-73355131D01*
X143849500Y-73355131D01*
X143849500Y-76594856D01*
X143849502Y-76594882D01*
X143852413Y-76619987D01*
X143852415Y-76619991D01*
X143897793Y-76722764D01*
X143897794Y-76722765D01*
X143977235Y-76802206D01*
X144080009Y-76847585D01*
X144105135Y-76850500D01*
X145194864Y-76850499D01*
X145194879Y-76850497D01*
X145194882Y-76850497D01*
X145219987Y-76847586D01*
X145219988Y-76847585D01*
X145219991Y-76847585D01*
X145322765Y-76802206D01*
X145402206Y-76722765D01*
X145447585Y-76619991D01*
X145450500Y-76594865D01*
X145450499Y-73355136D01*
X145450498Y-73355131D01*
X146389500Y-73355131D01*
X146389500Y-76594856D01*
X146389502Y-76594882D01*
X146392413Y-76619987D01*
X146392415Y-76619991D01*
X146437793Y-76722764D01*
X146437794Y-76722765D01*
X146517235Y-76802206D01*
X146620009Y-76847585D01*
X146645135Y-76850500D01*
X147734864Y-76850499D01*
X147734879Y-76850497D01*
X147734882Y-76850497D01*
X147759987Y-76847586D01*
X147759988Y-76847585D01*
X147759991Y-76847585D01*
X147862765Y-76802206D01*
X147942206Y-76722765D01*
X147987585Y-76619991D01*
X147990500Y-76594865D01*
X147990499Y-73355136D01*
X147990498Y-73355131D01*
X148929500Y-73355131D01*
X148929500Y-76594856D01*
X148929502Y-76594882D01*
X148932413Y-76619987D01*
X148932415Y-76619991D01*
X148977793Y-76722764D01*
X148977794Y-76722765D01*
X149057235Y-76802206D01*
X149160009Y-76847585D01*
X149185135Y-76850500D01*
X150274864Y-76850499D01*
X150274879Y-76850497D01*
X150274882Y-76850497D01*
X150299987Y-76847586D01*
X150299988Y-76847585D01*
X150299991Y-76847585D01*
X150402765Y-76802206D01*
X150482206Y-76722765D01*
X150527585Y-76619991D01*
X150530500Y-76594865D01*
X150530499Y-73355136D01*
X150530498Y-73355131D01*
X151469500Y-73355131D01*
X151469500Y-76594856D01*
X151469502Y-76594882D01*
X151472413Y-76619987D01*
X151472415Y-76619991D01*
X151517793Y-76722764D01*
X151517794Y-76722765D01*
X151597235Y-76802206D01*
X151700009Y-76847585D01*
X151725135Y-76850500D01*
X152814864Y-76850499D01*
X152814879Y-76850497D01*
X152814882Y-76850497D01*
X152839987Y-76847586D01*
X152839988Y-76847585D01*
X152839991Y-76847585D01*
X152942765Y-76802206D01*
X153022206Y-76722765D01*
X153067585Y-76619991D01*
X153070500Y-76594865D01*
X153070499Y-73355136D01*
X153070498Y-73355131D01*
X154009500Y-73355131D01*
X154009500Y-76594856D01*
X154009502Y-76594882D01*
X154012413Y-76619987D01*
X154012415Y-76619991D01*
X154057793Y-76722764D01*
X154057794Y-76722765D01*
X154137235Y-76802206D01*
X154240009Y-76847585D01*
X154265135Y-76850500D01*
X155354864Y-76850499D01*
X155354879Y-76850497D01*
X155354882Y-76850497D01*
X155379987Y-76847586D01*
X155379988Y-76847585D01*
X155379991Y-76847585D01*
X155482765Y-76802206D01*
X155562206Y-76722765D01*
X155607585Y-76619991D01*
X155610500Y-76594865D01*
X155610499Y-73355136D01*
X155610498Y-73355131D01*
X156549500Y-73355131D01*
X156549500Y-76594856D01*
X156549502Y-76594882D01*
X156552413Y-76619987D01*
X156552415Y-76619991D01*
X156597793Y-76722764D01*
X156597794Y-76722765D01*
X156677235Y-76802206D01*
X156780009Y-76847585D01*
X156805135Y-76850500D01*
X157894864Y-76850499D01*
X157894879Y-76850497D01*
X157894882Y-76850497D01*
X157919987Y-76847586D01*
X157919988Y-76847585D01*
X157919991Y-76847585D01*
X158022765Y-76802206D01*
X158102206Y-76722765D01*
X158147585Y-76619991D01*
X158150500Y-76594865D01*
X158150499Y-73355136D01*
X158150498Y-73355131D01*
X159089500Y-73355131D01*
X159089500Y-76594856D01*
X159089502Y-76594882D01*
X159092413Y-76619987D01*
X159092415Y-76619991D01*
X159137793Y-76722764D01*
X159137794Y-76722765D01*
X159217235Y-76802206D01*
X159320009Y-76847585D01*
X159345135Y-76850500D01*
X160434864Y-76850499D01*
X160434879Y-76850497D01*
X160434882Y-76850497D01*
X160459987Y-76847586D01*
X160459988Y-76847585D01*
X160459991Y-76847585D01*
X160562765Y-76802206D01*
X160642206Y-76722765D01*
X160687585Y-76619991D01*
X160690500Y-76594865D01*
X160690499Y-73355136D01*
X160690498Y-73355131D01*
X161629500Y-73355131D01*
X161629500Y-76594856D01*
X161629502Y-76594882D01*
X161632413Y-76619987D01*
X161632415Y-76619991D01*
X161677793Y-76722764D01*
X161677794Y-76722765D01*
X161757235Y-76802206D01*
X161860009Y-76847585D01*
X161885135Y-76850500D01*
X162974864Y-76850499D01*
X162974879Y-76850497D01*
X162974882Y-76850497D01*
X162999987Y-76847586D01*
X162999988Y-76847585D01*
X162999991Y-76847585D01*
X163102765Y-76802206D01*
X163182206Y-76722765D01*
X163227585Y-76619991D01*
X163230500Y-76594865D01*
X163230499Y-73355136D01*
X163230498Y-73355131D01*
X164169500Y-73355131D01*
X164169500Y-76594856D01*
X164169502Y-76594882D01*
X164172413Y-76619987D01*
X164172415Y-76619991D01*
X164217793Y-76722764D01*
X164217794Y-76722765D01*
X164297235Y-76802206D01*
X164400009Y-76847585D01*
X164425135Y-76850500D01*
X165514864Y-76850499D01*
X165514879Y-76850497D01*
X165514882Y-76850497D01*
X165539987Y-76847586D01*
X165539988Y-76847585D01*
X165539991Y-76847585D01*
X165642765Y-76802206D01*
X165722206Y-76722765D01*
X165767585Y-76619991D01*
X165770500Y-76594865D01*
X165770499Y-73355136D01*
X165770497Y-73355117D01*
X165767586Y-73330012D01*
X165767585Y-73330010D01*
X165767585Y-73330009D01*
X165722206Y-73227235D01*
X165642765Y-73147794D01*
X165642763Y-73147793D01*
X165539992Y-73102415D01*
X165514865Y-73099500D01*
X164425143Y-73099500D01*
X164425117Y-73099502D01*
X164400012Y-73102413D01*
X164400008Y-73102415D01*
X164297235Y-73147793D01*
X164217794Y-73227234D01*
X164172415Y-73330006D01*
X164172415Y-73330008D01*
X164169500Y-73355131D01*
X163230498Y-73355131D01*
X163230497Y-73355117D01*
X163227586Y-73330012D01*
X163227585Y-73330010D01*
X163227585Y-73330009D01*
X163182206Y-73227235D01*
X163102765Y-73147794D01*
X163102763Y-73147793D01*
X162999992Y-73102415D01*
X162974868Y-73099500D01*
X162974865Y-73099500D01*
X162447490Y-73099500D01*
X162431305Y-73098439D01*
X162400001Y-73094318D01*
X162399998Y-73094318D01*
X162368694Y-73098439D01*
X162352510Y-73099500D01*
X161885143Y-73099500D01*
X161885117Y-73099502D01*
X161860012Y-73102413D01*
X161860008Y-73102415D01*
X161757235Y-73147793D01*
X161677794Y-73227234D01*
X161632415Y-73330006D01*
X161632415Y-73330008D01*
X161629500Y-73355131D01*
X160690498Y-73355131D01*
X160690497Y-73355117D01*
X160687586Y-73330012D01*
X160687585Y-73330010D01*
X160687585Y-73330009D01*
X160642206Y-73227235D01*
X160562765Y-73147794D01*
X160562763Y-73147793D01*
X160459992Y-73102415D01*
X160434865Y-73099500D01*
X159345143Y-73099500D01*
X159345117Y-73099502D01*
X159320012Y-73102413D01*
X159320008Y-73102415D01*
X159217235Y-73147793D01*
X159137794Y-73227234D01*
X159092415Y-73330006D01*
X159092415Y-73330008D01*
X159089500Y-73355131D01*
X158150498Y-73355131D01*
X158150497Y-73355117D01*
X158147586Y-73330012D01*
X158147585Y-73330010D01*
X158147585Y-73330009D01*
X158102206Y-73227235D01*
X158022765Y-73147794D01*
X158022763Y-73147793D01*
X157919992Y-73102415D01*
X157894865Y-73099500D01*
X156805143Y-73099500D01*
X156805117Y-73099502D01*
X156780012Y-73102413D01*
X156780008Y-73102415D01*
X156677235Y-73147793D01*
X156597794Y-73227234D01*
X156552415Y-73330006D01*
X156552415Y-73330008D01*
X156549500Y-73355131D01*
X155610498Y-73355131D01*
X155610497Y-73355117D01*
X155607586Y-73330012D01*
X155607585Y-73330010D01*
X155607585Y-73330009D01*
X155562206Y-73227235D01*
X155482765Y-73147794D01*
X155482763Y-73147793D01*
X155379992Y-73102415D01*
X155354865Y-73099500D01*
X154265143Y-73099500D01*
X154265117Y-73099502D01*
X154240012Y-73102413D01*
X154240008Y-73102415D01*
X154137235Y-73147793D01*
X154057794Y-73227234D01*
X154012415Y-73330006D01*
X154012415Y-73330008D01*
X154009500Y-73355131D01*
X153070498Y-73355131D01*
X153070497Y-73355117D01*
X153067586Y-73330012D01*
X153067585Y-73330010D01*
X153067585Y-73330009D01*
X153022206Y-73227235D01*
X152942765Y-73147794D01*
X152942763Y-73147793D01*
X152839992Y-73102415D01*
X152814865Y-73099500D01*
X151725143Y-73099500D01*
X151725117Y-73099502D01*
X151700012Y-73102413D01*
X151700008Y-73102415D01*
X151597235Y-73147793D01*
X151517794Y-73227234D01*
X151472415Y-73330006D01*
X151472415Y-73330008D01*
X151469500Y-73355131D01*
X150530498Y-73355131D01*
X150530497Y-73355117D01*
X150527586Y-73330012D01*
X150527585Y-73330010D01*
X150527585Y-73330009D01*
X150482206Y-73227235D01*
X150402765Y-73147794D01*
X150402763Y-73147793D01*
X150299992Y-73102415D01*
X150274865Y-73099500D01*
X149185143Y-73099500D01*
X149185117Y-73099502D01*
X149160012Y-73102413D01*
X149160008Y-73102415D01*
X149057235Y-73147793D01*
X148977794Y-73227234D01*
X148932415Y-73330006D01*
X148932415Y-73330008D01*
X148929500Y-73355131D01*
X147990498Y-73355131D01*
X147990497Y-73355117D01*
X147987586Y-73330012D01*
X147987585Y-73330010D01*
X147987585Y-73330009D01*
X147942206Y-73227235D01*
X147862765Y-73147794D01*
X147862763Y-73147793D01*
X147759992Y-73102415D01*
X147734865Y-73099500D01*
X146645143Y-73099500D01*
X146645117Y-73099502D01*
X146620012Y-73102413D01*
X146620008Y-73102415D01*
X146517235Y-73147793D01*
X146437794Y-73227234D01*
X146392415Y-73330006D01*
X146392415Y-73330008D01*
X146389500Y-73355131D01*
X145450498Y-73355131D01*
X145450497Y-73355117D01*
X145447586Y-73330012D01*
X145447585Y-73330010D01*
X145447585Y-73330009D01*
X145402206Y-73227235D01*
X145322765Y-73147794D01*
X145322763Y-73147793D01*
X145219992Y-73102415D01*
X145194865Y-73099500D01*
X144105143Y-73099500D01*
X144105117Y-73099502D01*
X144080012Y-73102413D01*
X144080008Y-73102415D01*
X143977235Y-73147793D01*
X143897794Y-73227234D01*
X143852415Y-73330006D01*
X143852415Y-73330008D01*
X143849500Y-73355131D01*
X142910498Y-73355131D01*
X142910497Y-73355117D01*
X142907586Y-73330012D01*
X142907585Y-73330010D01*
X142907585Y-73330009D01*
X142862206Y-73227235D01*
X142782765Y-73147794D01*
X142782763Y-73147793D01*
X142679992Y-73102415D01*
X142654865Y-73099500D01*
X141565143Y-73099500D01*
X141565117Y-73099502D01*
X141540012Y-73102413D01*
X141540008Y-73102415D01*
X141437235Y-73147793D01*
X141357794Y-73227234D01*
X141312415Y-73330006D01*
X141312415Y-73330008D01*
X141309500Y-73355131D01*
X140370498Y-73355131D01*
X140370497Y-73355117D01*
X140367586Y-73330012D01*
X140367585Y-73330010D01*
X140367585Y-73330009D01*
X140322206Y-73227235D01*
X140242765Y-73147794D01*
X140242763Y-73147793D01*
X140139992Y-73102415D01*
X140114865Y-73099500D01*
X139025143Y-73099500D01*
X139025117Y-73099502D01*
X139000012Y-73102413D01*
X139000008Y-73102415D01*
X138897235Y-73147793D01*
X138817794Y-73227234D01*
X138772415Y-73330006D01*
X138772415Y-73330008D01*
X138769500Y-73355131D01*
X138030000Y-73355131D01*
X138030000Y-73352172D01*
X138029999Y-73352155D01*
X138023598Y-73292627D01*
X138023596Y-73292620D01*
X137973354Y-73157913D01*
X137973350Y-73157906D01*
X137887190Y-73042812D01*
X137887187Y-73042809D01*
X137772093Y-72956649D01*
X137772086Y-72956645D01*
X137637379Y-72906403D01*
X137637372Y-72906401D01*
X137577844Y-72900000D01*
X137280000Y-72900000D01*
X137280000Y-74725000D01*
X136780000Y-74725000D01*
X136780000Y-72900000D01*
X136482155Y-72900000D01*
X136422627Y-72906401D01*
X136422620Y-72906403D01*
X136287913Y-72956645D01*
X136287906Y-72956649D01*
X136172812Y-73042809D01*
X136172809Y-73042812D01*
X136086649Y-73157906D01*
X136086645Y-73157913D01*
X136036403Y-73292620D01*
X136036401Y-73292627D01*
X136030000Y-73352155D01*
X133800500Y-73352155D01*
X133800500Y-71924500D01*
X133820185Y-71857461D01*
X133872989Y-71811706D01*
X133924500Y-71800500D01*
X168075500Y-71800500D01*
X168142539Y-71820185D01*
G37*
%TD.AperFunction*%
%TD*%
M02*
