M48
; DRILL file {KiCad 8.0.3-8.0.3-0~ubuntu22.04.1} date 2024-07-15T21:37:36+0200
; FORMAT={-:-/ absolute / inch / decimal}
; #@! TF.CreationDate,2024-07-15T21:37:36+02:00
; #@! TF.GenerationSoftware,Kicad,Pcbnew,8.0.3-8.0.3-0~ubuntu22.04.1
; #@! TF.FileFunction,Plated,1,4,PTH
FMAT,2
INCH
; #@! TA.AperFunction,Plated,PTH,ViaDrill
T1C0.0118
%
G90
G05
T1
X5.3189Y-4.0315
X5.3618Y-4.4478
X5.378Y-4.1181
X5.3819Y-3.6811
X5.3819Y-3.7205
X5.3819Y-3.7598
X5.4331Y-3.9094
X5.4567Y-3.8346
X5.4685Y-3.0551
X5.4685Y-3.9252
X5.4843Y-4.2559
X5.5Y-3.5315
X5.5433Y-3.8307
X5.5618Y-4.4478
X5.5709Y-4.2756
X5.6024Y-4.0394
X5.6102Y-3.3673
X5.6142Y-4.3819
X5.6299Y-3.8268
X5.6654Y-4.685
X5.6929Y-4.0748
X5.7323Y-3.5866
X5.7441Y-4.1142
X5.748Y-4.3858
X5.7835Y-3.9134
X5.8268Y-3.937
X5.9055Y-4.4882
X5.9055Y-4.5276
X5.9055Y-4.5669
X5.9055Y-4.6063
X5.9409Y-4.2598
X5.9764Y-4.0394
X5.9843Y-4.5079
X5.9843Y-4.5472
X5.9843Y-4.5906
X6.0472Y-4.0748
X6.0949Y-3.1506
X6.1021Y-4.3782
X6.1142Y-4.1063
X6.1457Y-3.9173
X6.189Y-3.8228
X6.189Y-3.8583
X6.228Y-4.4478
X6.2398Y-3.8228
X6.2795Y-3.3203
X6.2949Y-2.9518
X6.2949Y-3.1506
X6.2992Y-3.5197
X6.315Y-4.2717
X6.3268Y-3.8228
X6.3386Y-4.0354
X6.3898Y-2.9803
X6.3937Y-2.9016
X6.3937Y-3.1929
X6.3976Y-3.3654
X6.3976Y-3.6181
X6.4173Y-3.8228
X6.4213Y-4.0827
X6.428Y-4.4478
X6.4843Y-4.1142
X6.4921Y-2.9094
X6.4921Y-2.9961
X6.5079Y-3.9094
X6.5315Y-3.1506
X6.5827Y-4.252
M30
